<?xml version="1.0" encoding="UTF-8"?>
<!DOCTYPE svg PUBLIC "-//W3C//DTD SVG 1.1//EN" "http://www.w3.org/Graphics/SVG/1.1/DTD/svg11.dtd">
<!-- Creator: CorelDRAW 2021 (64-Bit) -->
<svg xmlns="http://www.w3.org/2000/svg" xml:space="preserve" width="39.5161mm" height="36.8614mm" version="1.1" style="shape-rendering:geometricPrecision; text-rendering:geometricPrecision; image-rendering:optimizeQuality; fill-rule:evenodd; clip-rule:evenodd"
viewBox="0 0 2325.51 2169.29"
 xmlns:xlink="http://www.w3.org/1999/xlink"
 xmlns:xodm="http://www.corel.com/coreldraw/odm/2003">
 <defs>
  <style type="text/css">
   <![CDATA[
    .str0 {stroke:black;stroke-width:28.09;stroke-miterlimit:10}
    .fil4 {fill:none;fill-rule:nonzero}
    .fil1 {fill:black;fill-rule:nonzero}
    .fil7 {fill:#389B48;fill-rule:nonzero}
    .fil9 {fill:#458DC9;fill-rule:nonzero}
    .fil3 {fill:#A8542A;fill-rule:nonzero}
    .fil6 {fill:#BF8B36;fill-rule:nonzero}
    .fil2 {fill:#FC7272;fill-rule:nonzero}
    .fil5 {fill:#FC7F3A;fill-rule:nonzero}
    .fil8 {fill:#FFC41F;fill-rule:nonzero}
    .fil0 {fill:white;fill-rule:nonzero}
   ]]>
  </style>
 </defs>
 <g id="Layer_x0020_1">
  <metadata id="CorelCorpID_0Corel-Layer"/>
  <g id="_1841252956288">
   <path class="fil0" d="M1163.75 1159.2c0,121.88 -96.29,220.85 -215.25,220.85 -4.63,0 -9.03,-0.23 -13.66,-0.48 0,0.48 -0.25,0.98 -0.25,1.45 25.85,12.19 49.02,29.75 67.54,51.45 32.43,-30.23 75.09,-47.04 119.21,-47.04 98.24,0 177.96,81.65 177.96,182.59 0,100.92 -79.72,182.57 -177.96,182.57 -44.37,0 -87.03,-16.82 -119.21,-47.04 -37.53,44.12 -92.38,69.48 -150.16,69.71 -76.79,0 -143.33,-44.37 -176.99,-109.45 -27.05,65.34 -90.18,111.17 -163.82,111.17 -80.2,0 -148.21,-54.62 -170.39,-129.46 -34.63,22.19 -74.84,33.9 -116.03,33.9 -121.66,0 -220.38,-101.17 -220.38,-225.98 0,-124.81 98.72,-225.98 220.38,-225.98 24.6,0 48.75,4.13 71.89,12.43 8.53,-92.64 84.6,-165.27 177.24,-165.27 52.65,0 102.62,23.87 136.03,64.83 0,0 45.59,-239.87 283.76,-226.71l270.1 246.46z"/>
   <path class="fil1" d="M1158.87 1159.2c-0.25,90.68 -57.53,175.76 -144.56,205.01 -25.59,8.53 -52.42,11.94 -79.22,10.24 -2.2,0 -4.15,1.47 -4.88,3.65l-0.25 1.47c-0.48,2.2 0.25,4.38 2.2,5.61 25.35,11.93 48.02,29.25 66.54,50.69 1.95,1.95 5.13,1.95 7.08,0 42.91,-39.48 103.12,-54.6 159.68,-39.96 47.29,13.16 87.03,45.57 109.45,89.21 23.4,46.07 26.09,99.94 7.56,148.46 -17.79,46.32 -54.35,82.88 -100.67,100.92 -60.46,22.44 -128.47,9.03 -175.76,-34.61 -1.95,-1.95 -5.13,-1.95 -7.08,0 -33.63,39.01 -81.42,64.36 -133.35,67.77 -49.48,3.43 -98.24,-12.43 -136.27,-44.12 -20.47,-17.31 -37.54,-38.51 -49.98,-62.4 -2.18,-4.15 -7.56,-2.43 -9.01,1.22 -21.95,52.4 -68.74,92.39 -124.57,103.85 -55.1,11.21 -112.15,-5.38 -152.61,-44.37 -22.17,-21.47 -38.51,-48.27 -47.29,-78.02 -0.73,-2.68 -3.65,-4.13 -6.09,-3.41 -0.5,0 -0.75,0.25 -0.98,0.48 -54.12,34.13 -120.68,42.41 -181.37,22.19 -50.72,-17.56 -93.38,-53.39 -119.45,-100.44 -27.3,-49.48 -35.11,-107.25 -22.2,-162.1 12.44,-52.9 43.89,-99.21 88.26,-130.42 56.07,-38.76 127.25,-48.52 191.6,-26.1 2.7,0.73 5.38,-0.98 6.1,-3.65 0,-0.48 0.25,-0.72 0.25,-1.22 4.86,-51.92 32.18,-99.21 74.6,-129.45 44.11,-30.95 100.42,-39.24 151.61,-22.17 30.73,10.48 57.78,29.5 78.5,54.35 1.95,1.95 5.13,1.95 7.07,0 0.48,-0.48 0.98,-1.21 1.21,-2.18 5.13,-27.07 16.09,-53.87 28.52,-78.25 26.82,-52.17 67.54,-97.04 121.16,-122.38 40.24,-18.77 85.08,-24.88 129.2,-22.67 6.35,0.25 6.35,-9.5 0,-10 -40.94,-2.18 -82.38,2.7 -120.41,18.04 -30.48,12.21 -58.28,30.47 -81.68,53.64 -36.08,35.59 -61.9,80.93 -78,128.7 -3.43,9.76 -6.35,19.99 -8.3,30l8.3 -2.2c-39.26,-47.04 -99.94,-72.4 -161.14,-64.84 -53.38,6.81 -100.92,36.81 -130.42,81.91 -17.06,26.07 -27.3,56.07 -29.98,87.03l6.33 -4.88c-60.7,-21.2 -127.74,-14.87 -183.56,17.07 -48.75,28.52 -85.56,73.87 -103.35,127.74 -18.04,55.82 -15.11,116.28 8.53,169.91 22.92,51.67 64.11,93.13 115.79,116.03 67.54,29.25 145.31,23.42 207.69,-15.84l-7.31 -2.93c16.84,56.33 59.25,102.65 114.83,122.61 57.28,20.24 121.16,10.26 169.41,-26.55 26.34,-20.24 46.82,-47.06 59.5,-77.52l-9.03 1.2c23.17,44.87 61.93,79.97 108.97,98.49 50.22,19.27 105.79,17.56 154.79,-4.38 27.3,-12.44 51.45,-30.73 70.94,-53.4l-7.08 0c45.11,41.21 108.25,58.28 167.48,42.91 50.47,-13.41 93.14,-47.79 117.01,-94.34 25.12,-49.25 28.05,-107.02 7.56,-158.47 -19.25,-48.5 -58.01,-86.78 -106.78,-105.3 -63.61,-23.89 -135.77,-8.3 -185.49,37.29l7.06 0c-19.01,-21.95 -42.17,-39.74 -68.49,-52.17l2.18 5.6 0.25 -1.45 -4.88 3.65c48.27,2.93 96.06,-10.23 136.03,-37.78 38.28,-26.58 67.28,-64.11 83.37,-107.5 9.51,-25.6 14.14,-52.65 14.14,-79.95 0.72,-5.86 -9.26,-5.86 -9.26,0.48z"/>
   <polygon class="fil2" points="1317.57,1873.71 1317.57,2032.15 1508.94,1984.13 1508.94,1809.35 "/>
   <path class="fil1" d="M1312.69 1873.71l0 53.87 0 85.08 0 19.74c0,2.68 2.2,4.88 5.13,4.88 0.48,0 0.72,0 1.2,-0.25l64.86 -16.34 102.62 -25.82 23.65 -5.86c2.2,-0.73 3.65,-2.43 3.65,-4.88l0 -174.78c0,-6.33 -9.99,-6.33 -9.99,0l0 174.78 3.65 -4.88 -64.83 16.34 -102.65 25.85 -23.65 5.86 6.33 4.86 0 -53.88 0 -85.08 0 -19.74c-0.23,-6.08 -9.99,-6.08 -9.99,0.25z"/>
   <polygon class="fil2" points="1728.33,1873.71 1728.33,2032.15 1919.7,1984.13 1919.7,1809.35 "/>
   <path class="fil1" d="M1723.46 1873.71l0 53.87 0 85.08 0 19.74c0,2.68 2.2,4.88 5.13,4.88 0.48,0 0.73,0 1.21,-0.25l64.86 -16.34 102.62 -25.82 23.65 -5.86c2.2,-0.73 3.65,-2.43 3.65,-4.88l0 -174.78c0,-6.33 -9.98,-6.33 -9.98,0l0 174.78 3.65 -4.88 -64.83 16.34 -102.64 25.85 -23.65 5.86 6.33 4.86 0 -53.88 0 -85.08 0 -19.74c-0.23,-6.08 -9.99,-6.08 -9.99,0.25z"/>
   <path class="fil3" d="M1678.84 1489.27c3.41,145.06 15.37,423.69 15.37,423.69l240.6 1.45 25.85 -544.35c3.65,-97.27 -72.16,-178.94 -169.18,-182.59 -2.2,0 -4.38,-0.23 -6.58,-0.23l-554.84 0 0 293.5 448.79 8.53z"/>
   <path class="fil1" d="M1673.97 1489.27c0.72,32.43 1.7,64.83 2.68,97.27 1.22,36.33 2.45,72.64 3.9,108.97 1.22,34.36 2.68,68.74 4.15,103.12 0.98,26.07 2.18,52.15 3.15,78.25 0.5,11.93 0.73,23.65 1.48,35.58l0 0.5c0,2.68 2.18,4.88 4.86,4.88l81.2 0.48 129.45 0.73 29.73 0.25c2.68,0 4.88,-2.2 4.88,-4.88l0.97 -18.77 2.43 -50.22 3.43 -72.64 4.13 -86.3 4.4 -90.68 4.13 -85.8 3.43 -72.17 2.43 -49.72c0.25,-6.83 0.73,-13.66 0.98,-20.47 1.7,-84.35 -54.85,-158.95 -136.76,-179.67 -17.06,-3.9 -34.6,-5.85 -52.17,-5.36l-546.78 0c-2.68,0 -4.88,2.18 -4.88,4.86l0 257.69c0,11.69 -0.5,23.65 0,35.58l0 0.5c0,2.68 2.2,4.86 4.88,4.86l44.6 0.75 107.27 1.95 129.69 2.43 112.13 1.95c18.04,0.25 36.33,1.22 54.38,0.98l0.72 0c6.33,0 6.33,-9.76 0,-10l-44.61 -0.73 -107.27 -1.95 -129.68 -2.43 -112.15 -1.95 -36.81 -0.72c-5.85,0 -11.69,-0.75 -17.54,-0.25l-0.73 0 4.88 4.88 0 -281.56c0.23,-3.9 0.23,-7.81 0,-11.46l0 -0.49 -4.88 4.88 529.71 0 24.38 0c75.57,-0.25 142.38,48.99 164.32,121.16 5.84,20.24 8.29,41.19 7.06,62.16l-1.71 36.58 -2.92 62.89 -3.9 80.45 -4.15 89.46 -4.13 88.73 -3.65 79.72 -2.92 61.91 -1.7 34.63 -0.25 4.63 4.88 -4.88 -81.17 -0.48 -129.45 -0.75 -29.75 -0.23 4.88 4.86c-0.5,-9.49 -0.73,-19.24 -1.22,-28.75 -0.98,-24.62 -1.95,-49.25 -3.18,-73.87 -1.45,-33.63 -2.68,-67.51 -3.88,-101.17 -1.47,-36.31 -2.7,-72.89 -3.9,-109.2 -1.22,-33.4 -2.2,-66.56 -2.92,-99.96 0,-3.65 -0.25,-7.31 -0.25,-10.96 -0.48,-6.33 -10.48,-6.33 -10.23,0z"/>
   <path class="fil1" d="M1575.24 1232.08l228.41 0c0,0 -166,93.36 -194.03,256.94 -88.98,-4.38 -115.07,0 -115.07,0l-12.66 -255.96 93.36 -0.98z"/>
   <path class="fil4 str0" d="M1575.24 1232.08l228.41 0c0,0 -166,93.36 -194.03,256.94 -88.98,-4.38 -115.07,0 -115.07,0l-12.66 -255.96 93.36 -0.98z"/>
   <path class="fil5" d="M1690.55 1845.67l243.53 0c10.23,0 18.29,8.28 18.29,18.29l0 38.99c0,10.26 -8.29,18.29 -18.29,18.29l-243.53 0c-10.23,0 -18.29,-8.29 -18.29,-18.29l0 -38.99c0,-10.26 8.3,-18.29 18.29,-18.29z"/>
   <path class="fil1" d="M1690.55 1926.36l235.49 0c5.61,0 11.46,0.5 16.57,-1.7 9.03,-3.65 14.88,-12.44 14.88,-22.2l0 -16.31 0 -20c0,-7.8 -2.2,-15.11 -8.3,-20.24 -6.58,-5.36 -13.64,-5.61 -21.44,-5.61l-194.05 0c-14.39,0 -28.75,-0.25 -43.14,0 -8.78,0 -16.82,4.88 -20.97,12.69 -2.93,5.6 -2.68,11.46 -2.68,17.54l0 21.69c-0.25,5.13 -0.25,10.01 0.48,15.11 2.7,11.21 12.21,19.02 23.17,19.02 6.33,0.25 6.33,-9.76 0,-9.99 -7.56,0 -13.66,-6.36 -13.41,-13.91l0 -0.22 0 -16.34 0 -19.51c0,-6.09 1.47,-11.69 7.31,-14.87 4.15,-2.18 9.5,-1.45 14.14,-1.45l190.15 0 45.11 0c4.63,-0.25 9.26,2.18 11.93,6.09 2.93,4.4 2.2,9.51 2.2,14.39l0 21.22c0.23,4.38 0.23,8.76 0,12.91 -0.97,6.59 -6.83,11.46 -13.41,11.46l-4.15 0 -239.4 0c-6.81,0.48 -6.81,10.23 -0.48,10.23z"/>
   <path class="fil1" d="M1661.78 1493.9l84.83 0c6.33,0 6.33,-9.99 0,-9.99l-84.83 0c-6.33,0.23 -6.58,9.99 0,9.99z"/>
   <path class="fil1" d="M1562.32 1351.78l173.08 0c11.21,-0.25 22.42,1.45 33.16,5.36 19.01,7.81 34.13,22.92 41.69,41.94 3.9,9.99 5.6,20.72 5.36,31.46l-0.73 39.24 -1.47 75.57 -1.95 93.13 -1.95 92.86 -1.45 74.59 -0.73 38.03 0 1.7c-0.25,6.36 9.76,6.36 9.99,0l0.5 -26.8 1.45 -68.26 1.7 -91.18 1.95 -95.31 1.72 -81.18 0.96 -48.27c0,-3.65 0.25,-7.31 0,-11.21 -1.93,-45.59 -39.49,-81.65 -85.31,-81.65l-16.09 0 -161.87 0c-6.33,0 -6.33,9.99 0,9.99z"/>
   <path class="fil6" d="M1424.34 947.36l63.13 126.27c0,0 374.44,-57.76 428.82,1.72 54.35,59.48 44.59,127 44.59,127l-651.37 21.22 -120.66 -174.55 235.49 -101.65z"/>
   <path class="fil1" d="M1420.2 950.04l21.2 42.42 34.13 68.01 7.8 15.61c1.22,1.95 3.43,2.92 5.61,2.18 18.54,-2.91 35.6,-5.11 53.87,-7.31 41.69,-5.36 83.63,-9.76 125.31,-12.91 46.54,-3.65 93.36,-5.86 139.93,-4.15 19.24,0.5 38.51,2.45 57.53,5.61 7.56,1.22 15.11,3.18 22.67,5.6 1.7,0.5 3.15,0.98 4.63,1.72 0.72,0.23 1.45,0.48 2.2,0.73 0.48,0.25 0.72,0.25 1.2,0.48 0.25,0 0.25,0 0.5,0.25 2.68,1.22 5.36,2.68 8.03,4.15 1.22,0.72 2.45,1.45 3.43,2.18 0.23,0.25 0.48,0.25 0.48,0.5 0.98,0.72 -0.72,-0.73 0.25,0 0.48,0.48 0.97,0.98 1.7,1.45 4.88,4.63 9.26,9.76 13.16,15.11 10.48,13.89 18.77,29.5 24.37,46.07 6.83,19.76 9.76,40.48 8.3,61.2 0,0.72 -0.49,4.88 -0.25,2.18l4.88 -3.65 -17.57 0.5 -47.29 1.45 -69.96 2.2 -85.81 2.68 -93.61 3.18 -94.34 3.15 -88.48 2.92 -74.37 2.45 -53.62 1.7c-8.28,0.25 -17.07,0 -25.35,0.72l-0.98 0 4.38 2.45 -40.71 -59 -64.83 -94.09 -14.87 -21.72c-3.67,-5.11 -12.19,-0.23 -8.53,4.88l42.42 61.43 65.33 94.58c4.38,6.1 8.29,12.94 12.92,18.77 2.68,3.43 7.3,2.45 11.21,2.2l54.85 -1.7 95.31 -3.18 119.46 -3.9 126.02 -4.13 115.3 -3.65 88.25 -2.92 43.39 -1.48 1.95 0c2.2,0 4.15,-1.45 4.88,-3.65 2.2,-15.36 0.48,-31.68 -2.43,-47.04 -2.92,-15.11 -8.05,-29.75 -14.88,-43.39 -7.56,-15.84 -17.54,-30.48 -29.98,-42.91 -9.51,-9.26 -22.92,-13.89 -35.36,-17.06 -17.79,-4.38 -36.06,-7.06 -54.6,-8.04 -46.31,-3.43 -93.11,-1.47 -139.43,1.45 -44.61,2.93 -89.23,7.31 -133.59,12.69 -15.59,1.95 -30.95,3.9 -46.31,6.08 -7.31,0.98 -14.87,1.48 -22.17,3.18 -0.25,0 -0.75,0 -0.98,0.25l5.61 2.18 -21.22 -42.41 -34.13 -68.01 -7.81 -15.6c-3.4,-5.37 -11.93,-0.49 -9.01,5.36z"/>
   <path class="fil7" d="M1124.5 669.45l118.24 -1.22c28.52,-0.25 54.6,15.84 67.04,41.69l136.28 282.78c0,0 -110.43,-21.45 -197.96,54.35 -8.03,28.3 -123.59,-377.6 -123.59,-377.6z"/>
   <path class="fil1" d="M1124.5 674.57l39.74 -0.5 63.38 -0.72c4.88,0 9.99,0 14.87,-0.25 27.07,-0.48 51.67,15.11 63.13,39.51 0.97,1.95 1.95,4.13 2.92,6.09l16.09 33.4 25.12 52.17 29.25 60.7 28.53 58.99 22.42 46.31c3.9,7.81 7.3,15.84 11.46,23.65 0.23,0.25 0.23,0.73 0.48,0.98l5.61 -7.31c-15.12,-2.68 -30.71,-3.65 -46.07,-2.92 -34.86,0.72 -69.24,8.53 -101.16,22.92 -9.51,4.38 -18.77,9.26 -27.8,15.11 -9.51,5.83 -18.52,12.66 -27.05,19.97 -0.72,0.75 -2.2,1.95 -2.2,3.17 0,-0.97 0.75,-1.45 0.25,-0.72 0.72,-1.22 1.95,-1.95 3.43,-1.95 0.72,0 1.45,0.25 1.93,0.48 -0.96,-0.48 0.49,0 0.49,0.5 -0.25,-0.5 -0.72,-0.72 -0.97,-0.98 0.72,0.73 0.72,0.98 0.25,0.25 -0.25,-0.25 -0.5,-0.5 -0.5,-0.98 -0.48,-0.75 -0.98,-1.48 -1.2,-2.2 -0.98,-1.95 -1.95,-3.9 -2.93,-6.1 -0.49,-1.21 -0.98,-2.43 -1.72,-3.65 -0.48,-1.21 0.25,0.75 0,0 -0.22,-0.23 -0.22,-0.73 -0.48,-0.98 -0.25,-0.73 -0.72,-1.45 -0.98,-2.43 -1.22,-3.18 -2.68,-6.58 -3.9,-9.76 -6.83,-18.04 -12.91,-36.08 -18.77,-54.35 -7.56,-23.17 -14.87,-46.56 -22.19,-69.71 -7.79,-25.12 -15.34,-49.99 -22.9,-75.09 -6.83,-23.15 -13.66,-46.07 -20.49,-69.24 -5.11,-17.79 -10.23,-35.33 -15.34,-53.15 -2.45,-8.76 -4.88,-17.79 -7.56,-26.55 0,-0.5 -0.25,-0.75 -0.25,-1.22 -1.7,-6.1 -11.21,-3.41 -9.5,2.68 0.97,3.65 2.2,7.31 3.17,10.96 2.91,10 5.84,19.99 8.52,30 4.15,14.62 8.53,29 12.68,43.64 5.13,17.79 10.49,35.33 15.61,53.12 5.61,19.27 11.46,38.28 17.3,57.55 5.86,19 11.71,38.01 17.56,57.03 5.36,17.31 10.96,34.38 16.57,51.68 4.63,13.91 9.26,27.79 14.39,41.46 3.41,9.5 7.08,18.77 11.46,27.52 2.2,4.4 6.58,12.94 12.66,9.03 1.48,-0.98 2.45,-2.45 2.93,-4.15l-1.21 2.2c29.48,-25.1 64.84,-42.41 102.87,-50.22 25.35,-5.36 51.2,-6.83 76.78,-4.63 1.95,0.25 3.9,0.5 6.1,0.5 0.73,0 1.71,0.22 2.43,0.22 1.22,0.25 -0.98,-0.22 0,0 0.25,0 0.75,0 0.98,0.25 1.22,0.25 2.45,0.49 3.67,0.72 2.68,0.73 5.36,-0.98 6.09,-3.65 0.25,-1.22 0.25,-2.42 -0.48,-3.65l-8.06 -16.58 -20.47 -42.41 -27.8 -57.53 -29.73 -61.68 -26.82 -55.33 -18.52 -38.26c-4.63,-9.51 -9.03,-19.02 -15.86,-27.32 -10.96,-12.91 -25.82,-21.92 -42.17,-25.82 -7.8,-1.71 -15.59,-2.2 -23.39,-1.95l-56.8 0.48 -53.4 0.5 -3.15 0c-5.61,0.25 -5.61,10.23 0.72,10.23z"/>
   <path class="fil1" d="M1260.28 1184.55l46.32 1.22c0,0 16.09,51.42 -27.55,73.62 -42.41,21.45 -18.77,-74.84 -18.77,-74.84z"/>
   <path class="fil1" d="M1260.28 1189.67l46.32 1.23 -4.88 -3.65c0.72,2.68 1.22,5.1 1.7,7.79 0,0.75 0.25,1.22 0.25,1.95 0.25,1.22 0,-0.72 0,0 0,0.25 0,0.73 0.25,0.98 0.25,1.47 0.25,3.18 0.48,4.63 0.25,3.65 0.25,7.33 0,10.73 -0.48,7.8 -2.68,15.11 -6.59,21.94 -4.88,8.29 -12.19,15.12 -20.97,19.5 -1.2,0.72 -2.43,1.22 -3.88,1.7 -0.75,0.25 -1.48,0.5 -2.2,0.75 -0.25,0 -0.5,0 -0.73,0.23 -1.22,0.25 -0.25,0 -0.5,0l-1.7 0c-0.48,0 -2.2,-0.23 -0.72,0 -0.5,0 -0.98,-0.23 -1.48,-0.23 -0.23,0 -0.48,-0.25 -0.48,-0.25 -0.98,-0.25 0.98,0.48 0,0 -0.5,-0.25 -0.72,-0.5 -1.22,-0.73 0.5,0.23 0.25,0.48 -0.25,-0.25 -0.23,-0.5 -0.73,-0.72 -0.98,-1.22 0.98,1.22 -0.23,-0.48 -0.48,-0.72 -0.25,-0.5 -0.48,-0.98 -0.73,-1.23 -0.25,-0.22 -0.25,-0.48 -0.49,-0.72 0.49,0.98 0.25,0.5 0,0.25 -0.48,-1.22 -0.98,-2.68 -1.21,-3.9 -0.25,-1.22 -0.5,-2.45 -0.75,-3.65 0,-0.5 -0.23,-0.72 -0.23,-1.22 0,-0.98 -0.25,-1.7 -0.25,-2.68 -0.25,-3.18 -0.25,-6.33 -0.25,-9.51 0,-3.4 0.25,-6.58 0.5,-10 0.23,-1.45 0.23,-2.91 0.48,-4.38 0,-0.72 0.25,-1.7 0.25,-2.42 0,-0.5 0,-0.75 0.25,-1.22 0,-0.25 0.23,-1.95 0,-0.73 1.21,-8.78 2.68,-17.31 4.86,-25.85 1.48,-6.09 -8.03,-8.78 -9.5,-2.68 -1.93,7.8 -3.41,15.84 -4.63,23.89 -1.95,13.89 -3.65,28.53 -0.72,42.42 0.97,5.85 3.9,10.96 8.53,14.87 5.13,3.17 11.46,3.9 17.07,1.7 19.5,-7.06 33.66,-23.88 37.31,-44.12 2.42,-12.43 1.95,-25.35 -1.72,-37.3 -0.73,-2.18 -2.68,-3.65 -4.86,-3.65l-46.31 -1.21c-6.1,-1.22 -6.1,8.76 0.48,9.01z"/>
   <path class="fil1" d="M921.92 1128.97c0,0 -79.72,15.37 -88.98,61.19 -9.26,45.84 107.27,56.8 107.27,56.8l-18.29 -117.99z"/>
   <path class="fil1" d="M920.7 1124.34c-13.16,2.68 -25.85,6.83 -38.03,12.19 -19.99,8.53 -41.44,21.44 -50.69,41.94 -3.91,8.53 -5.86,18.27 -2.43,27.3 3.4,7.81 9.26,14.62 16.57,19.24 16.09,11.23 36.08,16.59 54.85,20.97 8.04,1.72 16.34,3.43 24.62,4.4 4.63,0.73 9.26,1.45 14.14,1.71l0.72 0c2.68,0 4.88,-2.2 4.88,-4.88 0,-2.68 -2.2,-4.88 -4.88,-4.88 -2.92,-0.25 -5.6,-0.73 -8.53,-0.98 -0.72,0 0.98,0.25 -0.25,0 -0.23,0 -0.73,0 -0.98,-0.25 -0.72,0 -1.45,-0.22 -2.43,-0.22 -1.7,-0.25 -3.4,-0.5 -5.13,-0.73 -3.88,-0.75 -7.79,-1.22 -11.69,-2.2 -18.04,-3.65 -36.81,-8.28 -52.65,-16.81 -1.95,-0.98 -3.67,-1.95 -5.63,-3.18 -0.95,-0.5 -1.7,-1.22 -2.68,-1.7 -0.48,-0.25 -0.72,-0.5 -1.2,-0.75 -0.25,-0.23 -0.5,-0.23 -0.75,-0.48 -1.45,-1.23 -2.93,-2.43 -4.38,-3.91 -0.48,-0.72 -1.22,-1.22 -1.7,-1.95 -0.25,-0.25 -0.72,-0.98 -0.5,-0.73 0.25,0.25 -0.48,-0.72 -0.72,-0.98 -0.98,-1.45 -1.95,-2.92 -2.68,-4.63 0.25,0.72 0,0 0,-0.25 -0.25,-0.48 -0.25,-0.72 -0.48,-1.22 -0.25,-0.72 -0.5,-1.7 -0.75,-2.42 0,-0.48 -0.23,-1.45 0,-0.48l0 -1.22 0 -2.68 0 -1.22 0 -0.48c0.25,-1.22 0.49,-2.7 0.98,-3.9 5.6,-20 25.35,-32.68 43.39,-40.97 12.93,-5.6 26.57,-10.23 40.46,-13.41 0.25,0 0.5,0 0.75,-0.25 6.59,-1.7 3.9,-11.21 -2.2,-9.99z"/>
   <path class="fil7" d="M1198.85 668.23l-213.54 0c-30.48,0 -46.57,12.69 -59.48,57.28 0,0 -59.98,263.77 -92.64,460.75 204.04,52.17 496.08,-0.72 496.08,-0.72l-110.68 -401.27 -19.74 -116.03z"/>
   <path class="fil1" d="M1198.85 663.36l-178.19 0 -35.35 0c-11.94,0 -24.38,1.95 -34.61,9.01 -12.94,9.03 -19.99,23.65 -25.37,38.03 -3.88,11.71 -7.06,23.39 -9.49,35.6 -5.13,22.9 -10.26,45.57 -15.12,68.49 -7.33,33.65 -14.38,67.28 -21.46,101.17 -8.29,39.49 -16.09,79.22 -23.9,118.96 -7.79,40.47 -15.34,80.92 -22.42,121.41 -1.7,9.51 -3.15,19.25 -4.88,28.75 -0.72,2.68 0.98,5.38 3.43,6.11 41.92,10.23 84.36,16.81 127.49,19.74 43.39,3.18 86.79,4.15 130.18,2.93 38.76,-0.98 77.77,-3.43 116.28,-7.08 28.77,-2.68 57.53,-6.09 86.3,-10.23 8.76,-1.22 17.54,-2.43 26.08,-3.91 3.9,-0.72 8.05,-0.97 11.71,-1.95l0.48 0c2.68,-0.73 4.15,-3.41 3.43,-6.09l-2.92 -10.73 -8.06 -29.25 -11.93 -43.14 -14.39 -52.67 -15.84 -57.76 -16.09 -58.53 -14.87 -54.35 -12.68 -45.84 -9.01 -32.91c-1.48,-5.1 -2.7,-10.48 -4.4,-15.59 0,-0.25 -0.25,-0.5 -0.25,-0.72 -1.71,-6.11 -11.21,-3.43 -9.49,2.68l2.91 10.71 8.06 29.25 11.94 43.16 14.38 52.65 15.84 57.78 16.09 58.5 14.88 54.38 12.66 45.81 9.03 32.91c1.45,5.13 2.43,10.48 4.38,15.61 0,0.23 0.25,0.48 0.25,0.72l3.4 -6.1c-10.23,1.95 -20.22,3.43 -30.48,4.88 -26.07,3.9 -52.65,7.08 -79.47,9.76 -37.53,3.65 -75.07,6.59 -112.61,7.81 -42.91,1.45 -85.82,1.45 -128.46,-1.22 -42.91,-2.2 -85.58,-8.06 -127.52,-17.07 -4.86,-1.22 -9.99,-2.2 -14.87,-3.65l3.43 6.08c6.58,-39.96 13.89,-79.7 21.44,-119.44 7.56,-40.24 15.6,-80.2 23.65,-120.18 7.3,-35.59 14.61,-70.94 22.42,-106.29 5.6,-26.08 11.21,-52.15 17.06,-78.25 2.68,-11.93 5.13,-23.89 8.06,-35.58 2.68,-11.94 7.56,-23.4 13.89,-33.89 6.09,-10.48 16.57,-17.56 28.52,-19.51 5.61,-0.72 10.96,-1.2 16.57,-0.97l209.41 0c6.81,0 6.81,-9.99 0.48,-9.99z"/>
   <path class="fil8" d="M1439.94 1974.14l-25.59 21.22c-18.77,15.34 -45.82,14.87 -63.86,-1.22l-32.93 0 0.25 169.91 369.08 0c0,0 6.33,-104.82 -131.39,-115.78 -25.85,-2.2 -45.34,-23.9 -45.11,-49.75l0 -1.22c0.25,-16.57 -13.16,-30.23 -29.73,-30.23l-1.22 0 -21.2 0.5c-6.58,0 -13.16,2.43 -18.29,6.58z"/>
   <path class="fil1" d="M1436.29 1970.73l-15.6 12.91c-6.1,4.88 -11.96,10.49 -19.01,13.91 -15.37,7.06 -33.4,4.86 -46.31,-5.61 -1.48,-1.47 -3.43,-2.45 -5.38,-2.7l-9.01 0 -23.65 0c-2.68,0 -4.88,2.2 -4.88,4.88l0 57.78 0.25 91.18 0 20.97c0,2.68 2.18,4.86 4.88,4.86l323.73 0c14.87,0 29.75,0.5 44.61,0l0.72 0c2.68,0 4.88,-2.18 4.88,-4.86 0.25,-8.06 -0.48,-16.34 -2.42,-24.15 -3.91,-18.04 -12.21,-34.86 -24.15,-49 -17.8,-20.97 -43.14,-33.88 -69.47,-40.96 -9.03,-2.18 -18.04,-4.13 -27.07,-5.11 -9.01,-1.22 -18.52,-1.22 -27.05,-5.13 -15.84,-7.31 -26.09,-22.92 -26.09,-40.21 0.25,-9.03 -2.68,-18.04 -8.29,-25.12 -6.09,-7.06 -14.39,-11.46 -23.65,-12.19 -5.11,-0.25 -10.23,-0.25 -15.37,0.25 -5.6,-0.25 -11.44,0.25 -17.04,1.23 -5.38,0.95 -10.26,3.65 -14.64,7.06 -1.95,1.95 -1.95,5.13 0,7.08 1.95,1.93 5.13,1.93 7.08,0 5.6,-4.4 11.93,-5.38 18.77,-5.63 5.36,-0.23 10.96,-0.23 16.32,-0.48 14.14,-0.73 26.09,9.99 26.82,24.12l0 2.2c0,18.04 8.53,35.11 23.39,45.59 7.31,5.11 16.09,8.29 24.88,9.26 9.26,0.98 18.29,1.95 27.3,3.65 26.82,5.38 52.9,16.09 72.16,35.6 6.83,6.81 12.66,14.87 17.07,23.4 0.98,1.95 1.95,4.13 2.93,6.09 0.22,0.5 0.48,0.98 0.72,1.47 0,0.25 0.25,0.25 0.25,0.48 0.48,0.97 0.73,1.95 1.21,2.92 1.47,3.65 2.45,7.31 3.43,11.21 0.73,3.18 1.45,6.58 2.18,9.76 0,0.72 0.25,1.45 0.25,2.2 0,0.23 0,0.72 0.25,0.98l0 0.23c0.25,1.22 0.25,2.45 0.48,3.9 0.25,2.92 0,5.86 0.25,8.78l0 0.5 4.88 -4.88 -353.98 0c-4.63,0 -9.73,-0.5 -14.37,0l-0.75 0 4.88 4.88 0 -57.78 -0.25 -91.18 0 -20.97 -4.86 4.88 32.91 0 -3.43 -1.45c14.89,13.39 35.86,17.3 54.62,10.71 11.94,-4.38 21.2,-13.41 30.95,-21.44l10.96 -9.01c4.63,-4.15 -2.43,-10.98 -7.31,-7.08z"/>
   <path class="fil3" d="M1281.25 1489.27c3.4,145.06 15.36,423.69 15.36,423.69l240.6 1.45 25.85 -544.35c3.65,-97.27 -72.17,-178.94 -169.18,-182.59 -2.2,0 -4.38,-0.23 -6.58,-0.23l-554.59 0 -15.11 79.45c-19.02,99.46 46.31,195.52 145.76,214.54 10.26,1.93 20.97,3.15 31.46,3.15l286.44 4.88z"/>
   <path class="fil1" d="M1276.37 1489.27c0.73,32.43 1.71,64.83 2.68,97.27 1.22,36.33 2.45,72.89 3.9,109.22 1.22,34.36 2.68,68.74 3.9,103.1 0.98,26.1 2.2,52.18 3.18,78.5 0.48,11.71 0.72,23.65 1.45,35.36l0 0.48c0,2.7 2.2,4.88 4.88,4.88l81.9 0.5 129.19 0.72 29.5 0.25c2.68,0 4.88,-2.2 4.88,-4.88l0.98 -18.77 2.45 -50.47 3.41 -72.64 4.15 -86.3 4.38 -90.43 4.13 -85.8 3.43 -72.41 2.43 -49.47c0.25,-7.08 0.72,-14.14 0.97,-21.22 1.48,-84.35 -55.08,-158.45 -136.75,-178.92 -17.07,-3.9 -34.61,-5.86 -52.17,-5.38l-546.56 0c-2.18,0 -4.13,1.48 -4.86,3.65l-10.73 56.08c-4.38,23.39 -9.03,46.56 -7.56,70.44 4.38,69.97 47.29,131.89 111.16,160.67 23.89,10.46 49.99,16.07 76.06,16.32l37.29 0.49 67.29 1.21 76.79 1.22 66.06 0.98 35.36 0.25 1.7 0c6.33,0 6.33,-9.76 0,-10l-24.14 -0.48 -59.48 -0.98 -74.6 -1.22 -71.17 -1.21 -47.79 -0.75c-17.07,0 -33.88,-1.7 -50.47,-5.6 -85.08,-21.7 -141.63,-101.9 -133.58,-189.18 0.73,-8.76 2.43,-17.54 4.15,-26.32l12.42 -65.08 0.97 -5.11 -4.88 3.65 529.49 0 24.37 0c75.59,-0.25 142.63,49.25 164.33,121.64 5.83,19.99 8.03,40.96 6.81,61.68l-1.7 36.56 -2.93 62.91 -3.9 80.42 -4.13 89.48 -4.15 88.73 -3.65 79.72 -2.92 61.66 -1.7 34.86 -0.25 4.63 4.88 -4.86 -81.9 -0.5 -129.22 -0.72 -29.48 -0.25 4.86 4.88c-0.48,-9.51 -0.73,-19.27 -1.21,-28.78 -0.98,-24.62 -1.95,-49.48 -3.18,-74.09 -1.45,-33.66 -2.68,-67.29 -3.9,-100.92 -1.45,-36.58 -2.68,-72.89 -3.9,-109.47 -1.21,-33.16 -2.18,-66.54 -2.93,-99.69 0,-3.65 -0.23,-7.08 -0.23,-10.73 0,-6.09 -10,-6.09 -9.76,0.25z"/>
   <path class="fil0" d="M1317.82 2164.04l369.06 0c0,0 0.25,-14.64 -8.03,-36.33l-52.9 -1.7 -25.12 -9.51c-20.22,-6.83 -41.91,-6.58 -61.91,0.25 -17.54,6.1 -36.33,6.83 -54.37,2.42l-19.97 -4.86c-13.41,-3.18 -27.3,-3.67 -40.71,-1.22l-28.27 5.36c-20.97,3.9 -42.42,0.72 -61.43,-8.78l-17.07 -8.53 0.73 62.9z"/>
   <path class="fil1" d="M1317.82 2168.91l323.72 0c14.89,0 29.75,0.5 44.61,0l0.73 0c2.7,0 4.88,-2.2 4.88,-4.88 0.25,-12.66 -3.9,-25.82 -8.29,-37.53 -0.72,-2.2 -2.68,-3.65 -4.88,-3.65l-49.47 -1.47 -2.93 0c-0.98,0 0.98,0 0.98,0.25 -0.5,-0.25 -0.75,-0.25 -1.22,-0.48l-13.16 -4.88c-3.43,-1.22 -7.08,-2.68 -10.48,-3.9 -9.03,-3.18 -18.52,-4.88 -28.03,-5.13 -10.25,-0.48 -20.49,0.75 -30.23,3.43 -9.51,2.68 -18.79,5.84 -28.78,6.59 -9.76,0.72 -19.74,0 -29.5,-2.2 -3.9,-0.98 -8.03,-1.95 -11.93,-2.93 -15.11,-3.65 -29.75,-6.08 -45.34,-3.9 -9.51,1.22 -18.77,3.43 -28.05,5.13 -13.64,2.93 -27.78,3.16 -41.44,0.48 -12.66,-2.68 -23.88,-8.53 -35.34,-14.37l-3.65 -1.95c-2.45,-1.48 -5.38,-0.5 -6.83,1.95 -0.5,0.73 -0.73,1.45 -0.73,2.43l0.23 54.85 0 7.81c0,6.33 10.01,6.33 10.01,0l-0.25 -54.85 0 -7.81 -7.56 4.38c8.53,4.15 16.82,8.79 25.6,12.44 18.04,7.08 37.78,9.03 56.8,5.36 8.53,-1.45 17.07,-3.15 25.35,-4.63 13.89,-2.68 28.28,-2.43 41.94,0.98 10.72,2.92 21.7,5.38 32.66,6.83 10.48,0.97 21.22,0.49 31.45,-1.71 9.74,-1.95 18.77,-5.86 28.52,-7.31 15.6,-2.2 31.43,-0.25 46.07,5.36l14.86 5.6c2.45,1.22 5.13,1.95 7.81,2.43 7.8,0.5 15.59,0.5 23.4,0.75l27.3 0.98 1.7 0 -4.86 -3.65c4.14,10.96 8.04,23.4 7.79,34.86l4.88 -4.88 -323 0c-14.87,0 -29.75,-0.5 -44.61,0l-0.72 0c-6.33,-0.73 -6.33,9.26 0,9.26z"/>
   <path class="fil1" d="M1522.34 2029.48c-2.42,1.22 -4.38,2.93 -6.33,4.88 -4.4,3.91 -7.56,9.01 -9.76,14.39 -1.45,3.88 -2.2,8.03 -2.2,12.19 0,2.68 2.2,4.88 4.88,4.88 2.68,0 4.88,-2.2 4.88,-4.88l0 -2.45c0,-0.48 0,-0.98 0.25,-1.45l0 0.48 0 -0.73c0.23,-1.45 0.72,-2.92 1.21,-4.38 0,-0.25 0.25,-0.72 0.25,-0.98 0,-0.25 0.25,-0.25 0.25,-0.49 0.25,-0.48 -0.25,0.49 -0.25,0.49 0,-0.49 0.72,-1.7 0.98,-1.95 0.49,-1.23 1.22,-2.2 1.95,-3.43 0.25,-0.22 0.25,-0.48 0.5,-0.72l0.23 -0.23c0.25,-0.49 -0.48,0.48 -0.23,0.48 0.48,-0.48 0.72,-0.97 1.21,-1.22l2.2 -2.18c0.73,-0.75 1.45,-1.22 2.2,-1.72 0.98,-0.72 -0.97,0.75 0,0 0.23,-0.23 0.48,-0.48 0.73,-0.48 0.48,-0.5 1.22,-0.73 1.95,-1.22 2.42,-1.45 3.15,-4.38 1.7,-6.83 -1.22,-2.91 -4.15,-3.65 -6.59,-2.43z"/>
   <path class="fil1" d="M1546.72 2042.64c-2.43,1.22 -4.38,2.93 -6.33,4.88 -4.4,3.91 -7.56,9.01 -9.76,14.39 -1.45,3.88 -2.2,8.03 -2.2,12.19 0,2.68 2.2,4.88 4.88,4.88 2.68,0 4.88,-2.2 4.88,-4.88l0 -2.45c0,-0.48 0,-0.98 0.25,-1.45l0 0.48 0 -0.73c0.23,-1.45 0.73,-2.92 1.21,-4.38 0,-0.25 0.25,-0.75 0.25,-0.98 0,-0.25 0.25,-0.25 0.25,-0.5 0.25,-0.48 -0.25,0.5 -0.25,0.5 0,-0.5 0.73,-1.72 0.98,-1.95 0.5,-1.23 1.22,-2.2 1.95,-3.43 0.25,-0.22 0.25,-0.48 0.49,-0.72l0.23 -0.25c0.25,-0.48 -0.48,0.49 -0.23,0.49 0.48,-0.49 0.73,-0.98 1.21,-1.22 0.75,-0.72 1.47,-1.45 2.2,-2.18 0.72,-0.75 1.45,-1.22 2.2,-1.72 0.98,-0.73 -0.98,0.75 0,0 0.23,-0.23 0.48,-0.48 0.72,-0.48 0.48,-0.5 1.22,-0.73 1.95,-1.22 2.43,-1.45 3.15,-4.38 1.7,-6.83 -1.22,-2.92 -4.38,-3.65 -6.58,-2.43z"/>
   <path class="fil1" d="M1579.63 2048.25c-2.43,1.22 -4.38,2.92 -6.33,4.88 -4.4,3.9 -7.56,9.01 -9.76,14.39 -1.45,3.88 -2.2,8.03 -2.2,12.18 0,2.68 2.2,4.88 4.88,4.88 2.68,0 4.88,-2.2 4.88,-4.88l0 -2.45c0,-0.48 0,-0.98 0.25,-1.45l0 0.48 0 -0.72c0.23,-1.45 0.73,-2.93 1.21,-4.38 0,-0.25 0.25,-0.75 0.25,-0.97 0,-0.25 0.25,-0.25 0.25,-0.5 0.25,-0.48 -0.25,0.5 -0.25,0.5 0,-0.5 0.73,-1.71 0.98,-1.95 0.5,-1.22 1.22,-2.2 1.95,-3.43 0.25,-0.23 0.25,-0.48 0.49,-0.73l0.23 -0.25c0.25,-0.48 -0.48,0.5 -0.23,0.5 0.48,-0.5 0.73,-0.98 1.21,-1.22 0.73,-0.73 1.48,-1.45 2.2,-2.18 0.73,-0.75 1.45,-1.22 2.2,-1.72 0.98,-0.72 -0.98,0.75 0,0 0.23,-0.22 0.48,-0.48 0.72,-0.48 0.48,-0.49 1.23,-0.72 1.95,-1.22 2.43,-1.45 3.15,-4.38 1.7,-6.83 -1.22,-2.91 -4.15,-3.65 -6.58,-2.43z"/>
   <path class="fil8" d="M1850.71 1974.14l-25.6 21.22c-18.77,15.34 -45.82,14.87 -63.86,-1.22l-32.93 0 0.25 169.91 369.09 0c0,0 6.33,-104.82 -131.39,-115.78 -25.85,-2.2 -45.34,-23.9 -45.11,-49.75l0 -1.22c0.25,-16.57 -13.16,-30.23 -29.73,-30.23l-1.22 0 -21.2 0.5c-6.83,0 -13.16,2.43 -18.29,6.58z"/>
   <path class="fil1" d="M1847.05 1970.73l-15.59 12.91c-6.1,4.88 -11.96,10.49 -19.01,13.91 -15.37,7.06 -33.41,4.86 -46.32,-5.61 -1.47,-1.47 -3.43,-2.45 -5.38,-2.7l-9.01 0 -23.65 0c-2.68,0 -4.88,2.2 -4.88,4.88l0 57.78 0.25 91.18 0 20.97c0,2.68 2.18,4.86 4.88,4.86l323.97 0c14.87,0 29.73,0.5 44.62,0l0.72 0c2.68,0 4.88,-2.18 4.88,-4.86 0.25,-8.06 -0.49,-16.34 -2.45,-24.15 -3.9,-18.04 -12.19,-34.86 -24.12,-49 -17.8,-20.97 -43.14,-33.88 -69.49,-40.96 -9.01,-2.18 -18.04,-4.13 -27.05,-5.11 -9.01,-1.22 -18.51,-1.22 -27.05,-5.13 -15.86,-7.31 -25.85,-22.92 -26.1,-40.21 0.25,-9.03 -2.68,-18.04 -8.28,-25.12 -6.1,-7.06 -14.39,-11.46 -23.65,-12.19 -5.13,-0.25 -10.24,-0.25 -15.37,0.25 -5.6,-0.25 -11.46,0.25 -17.07,1.23 -5.6,0.95 -10.48,3.65 -14.87,7.06 -1.95,1.95 -1.95,5.13 0,7.08 1.95,1.93 5.13,1.93 7.08,0 5.61,-4.4 11.94,-5.38 18.77,-5.63 5.36,-0.23 10.96,-0.23 16.32,-0.48 14.14,-0.73 26.1,9.99 26.82,24.12l0 2.2c0,18.04 8.53,35.11 23.4,45.59 7.31,5.11 16.09,8.29 24.87,9.26 9.26,0.98 18.29,1.95 27.3,3.65 26.82,5.38 52.9,16.09 72.17,35.6 6.81,6.81 12.66,14.87 17.07,23.4 0.97,1.95 1.95,4.13 2.92,6.09 0.23,0.5 0.48,0.98 0.73,1.47 0,0.25 0.22,0.25 0.22,0.48 0.5,0.97 0.75,1.95 1.22,2.92 1.48,3.65 2.45,7.31 3.43,11.21 0.72,3.18 1.45,6.58 2.18,9.76 0,0.72 0.25,1.45 0.25,2.2 0,0.23 0,0.72 0.25,0.98l0 0.23c0.25,1.22 0.25,2.45 0.48,3.9 0.25,2.92 0,5.86 0.25,8.78l0 0.5 4.88 -4.88 -353.97 0c-4.63,0 -9.74,-0.5 -14.37,0l-0.75 0 4.88 4.88 0 -57.78 -0.25 -91.18 0 -20.97 -4.86 4.88 32.9 0 -3.43 -1.45c14.88,13.39 35.83,17.3 54.62,10.71 11.93,-4.38 21.19,-13.41 30.95,-21.44l10.96 -9.01c4.63,-4.15 -2.43,-10.98 -7.31,-7.08z"/>
   <path class="fil0" d="M1728.58 2164.04l369.09 0c0,0 0.22,-14.64 -8.06,-36.33l-52.9 -1.7 -25.1 -9.51c-20.24,-6.83 -41.94,-6.58 -61.93,0.25 -17.54,6.1 -36.32,6.83 -54.35,2.42l-19.99 -4.86c-13.41,-3.18 -27.3,-3.67 -40.71,-1.22l-28.28 5.36c-20.97,3.9 -42.41,0.72 -61.43,-8.78l-17.07 -8.53 0.73 62.9z"/>
   <path class="fil1" d="M1728.58 2168.91l323.74 0c14.87,0 29.73,0.5 44.6,0l0.75 0c2.68,0 4.86,-2.2 4.86,-4.88 0.25,-12.66 -3.9,-25.82 -8.29,-37.53 -0.72,-2.2 -2.68,-3.65 -4.88,-3.65l-49.47 -1.47 -2.93 0c-0.97,0 0.98,0 0.98,0.25 -0.5,-0.25 -0.75,-0.25 -1.22,-0.48l-13.16 -4.88c-3.4,-1.22 -7.08,-2.68 -10.48,-3.9 -9.01,-3.18 -18.52,-4.88 -28.03,-5.13 -10.25,-0.48 -20.49,0.75 -30.23,3.43 -9.51,2.68 -18.77,5.84 -28.78,6.59 -9.76,0.72 -19.74,0 -29.5,-2.2 -3.9,-0.98 -8.03,-1.95 -11.93,-2.93 -15.11,-3.65 -29.75,-6.08 -45.34,-3.9 -9.5,1.22 -18.77,3.43 -28.02,5.13 -13.66,2.93 -27.8,3.16 -41.46,0.48 -12.66,-2.68 -23.88,-8.53 -35.33,-14.37l-3.65 -1.95c-2.45,-1.48 -5.38,-0.5 -6.83,1.95 -0.5,0.73 -0.72,1.45 -0.72,2.43l0.22 54.85 0 7.81c0,6.33 10.01,6.33 10.01,0l-0.25 -54.85 0 -7.81 -7.56 4.38c8.53,4.15 16.82,8.79 25.6,12.44 18.04,7.08 37.79,9.03 56.8,5.36 8.53,-1.45 17.07,-3.15 25.35,-4.63 13.89,-2.68 28.28,-2.43 41.94,0.98 10.71,2.92 21.69,5.38 32.66,6.83 10.48,0.97 21.22,0.49 31.45,-1.71 9.76,-1.95 18.77,-5.86 28.53,-7.31 15.59,-2.2 31.45,-0.25 46.07,5.36l14.87 5.6c2.45,1.22 5.13,1.95 7.8,2.43 7.8,0.5 15.61,0.5 23.4,0.75l27.3 0.98 1.72 0 -4.88 -3.65c4.13,10.96 8.03,23.4 7.79,34.86l4.88 -4.88 -323 0c-14.86,0 -29.73,-0.5 -44.61,0l-0.72 0c-6.33,-0.73 -6.33,9.26 0,9.26z"/>
   <path class="fil1" d="M1933.1 2029.48c-2.43,1.22 -4.38,2.93 -6.33,4.88 -4.4,3.91 -7.56,9.01 -9.76,14.39 -1.45,3.88 -2.2,8.03 -2.2,12.19 0,2.68 2.2,4.88 4.88,4.88 2.68,0 4.88,-2.2 4.88,-4.88l0 -2.45c0,-0.48 0,-0.98 0.25,-1.45l0 0.48 0 -0.73c0.23,-1.45 0.73,-2.92 1.21,-4.38 0,-0.25 0.25,-0.72 0.25,-0.98 0,-0.25 0.25,-0.25 0.25,-0.49 0.25,-0.48 -0.25,0.49 -0.25,0.49 0,-0.49 0.73,-1.7 0.98,-1.95 0.5,-1.23 1.22,-2.2 1.95,-3.43 0.25,-0.22 0.25,-0.48 0.49,-0.72l0.23 -0.23c0.25,-0.49 -0.48,0.48 -0.23,0.48 0.48,-0.48 0.73,-0.97 1.21,-1.22 0.73,-0.72 1.48,-1.45 2.2,-2.18 0.72,-0.75 1.45,-1.22 2.2,-1.72 0.98,-0.72 -0.98,0.75 0,0 0.23,-0.23 0.48,-0.48 0.72,-0.48 0.48,-0.5 1.23,-0.73 1.95,-1.22 2.43,-1.45 3.15,-4.38 1.7,-6.83 -1.22,-2.91 -4.38,-3.65 -6.58,-2.43z"/>
   <path class="fil1" d="M1957.48 2042.64c-2.42,1.22 -4.38,2.93 -6.33,4.88 -4.4,3.91 -7.56,9.01 -9.76,14.39 -1.45,3.88 -2.2,8.03 -2.2,12.19 0,2.68 2.2,4.88 4.88,4.88 2.68,0 4.88,-2.2 4.88,-4.88l0 -2.45c0,-0.48 0,-0.98 0.25,-1.45l0 0.48 0 -0.73c0.23,-1.45 0.72,-2.92 1.2,-4.38 0,-0.25 0.25,-0.75 0.25,-0.98 0,-0.25 0.25,-0.25 0.25,-0.5 0.25,-0.48 -0.25,0.5 -0.25,0.5 0,-0.5 0.72,-1.72 0.97,-1.95 0.5,-1.23 1.23,-2.2 1.95,-3.43 0.25,-0.22 0.25,-0.48 0.5,-0.72l0.23 -0.25c0.25,-0.48 -0.48,0.49 -0.23,0.49 0.48,-0.49 0.72,-0.98 1.2,-1.22 0.75,-0.72 1.48,-1.45 2.2,-2.18 0.73,-0.75 1.45,-1.22 2.2,-1.72 0.98,-0.73 -0.98,0.75 0,0 0.23,-0.23 0.48,-0.48 0.73,-0.48 0.48,-0.5 1.22,-0.73 1.95,-1.22 2.43,-1.45 3.16,-4.38 1.71,-6.83 -1.23,-2.92 -4.38,-3.65 -6.59,-2.43z"/>
   <path class="fil1" d="M1990.39 2048.25c-2.43,1.22 -4.38,2.92 -6.33,4.88 -4.4,3.9 -7.56,9.01 -9.76,14.39 -1.45,3.88 -2.2,8.03 -2.2,12.18 0,2.68 2.2,4.88 4.88,4.88 2.68,0 4.88,-2.2 4.88,-4.88l0 -2.45c0,-0.48 0,-0.98 0.25,-1.45l0 0.48 0 -0.72c0.25,-1.45 0.72,-2.93 1.22,-4.38 0,-0.25 0.23,-0.75 0.23,-0.97 0,-0.25 0.25,-0.25 0.25,-0.5 0.25,-0.48 -0.25,0.5 -0.25,0.5 0,-0.5 0.75,-1.71 0.97,-1.95 0.5,-1.22 1.22,-2.2 1.95,-3.43 0.25,-0.23 0.25,-0.48 0.5,-0.73l0.22 -0.25c0.25,-0.48 -0.48,0.5 -0.22,0.5 0.48,-0.5 0.72,-0.98 1.2,-1.22 0.75,-0.73 1.48,-1.45 2.2,-2.18 0.73,-0.75 1.48,-1.22 2.2,-1.72 0.98,-0.72 -0.98,0.75 0,0 0.23,-0.22 0.48,-0.48 0.73,-0.48 0.48,-0.49 1.22,-0.72 1.95,-1.22 2.43,-1.45 3.18,-4.38 1.7,-6.83 -1.22,-2.91 -4.15,-3.65 -6.58,-2.43z"/>
   <path class="fil7" d="M986.03 823.03l78 218.9c-22.67,6.35 -45.09,13.91 -66.79,22.44 -42.41,16.57 -136.03,100.92 -164.55,119.69l-101.65 -299.85c-35.83,-106.05 42.89,-216.23 155.04,-216.23l127.97 0 -28.03 155.05z"/>
   <path class="fil1" d="M981.16 824.25l7.8 21.69 18.52 52.18 22.67 63.38 19.5 54.6 6.35 18.04c0.73,2.92 1.95,5.86 2.93,8.53 0,0.25 0,0.25 0.23,0.48l3.43 -6.09c-13.16,3.65 -26.32,7.81 -39.26,12.19 -11.21,3.9 -22.42,7.56 -33.16,12.43 -13.39,6.58 -26.32,14.39 -38.51,23.4 -30.48,21.44 -59.23,45.34 -88.49,68.74 -11.21,9.03 -21.44,17.8 -33.4,25.6l7.31 2.93 -9.01 -26.82 -22.19 -65.81 -27.53 -81.65 -25.37 -74.85 -15.34 -45.59c-1.72,-5.13 -3.43,-9.99 -4.88,-15.36 -22.67,-84.58 27.78,-171.61 112.38,-194.28 11.46,-3.18 23.15,-4.88 34.86,-5.38 19.01,-0.72 38.26,0 57.28,0l76.79 0c6.33,0 6.33,-9.99 0,-9.99l-125.79 0c-74.85,-0.98 -141.39,47.29 -163.33,118.71 -10.49,33.9 -9.99,70.46 1.45,104.09 3.68,11.21 7.58,22.19 11.23,33.4l23.65 69.47 28.28 83.13 24.62 72.41 13.16 39.24 0.72 1.7c0.72,2.7 3.65,4.15 6.1,3.43 0.48,0 0.73,-0.25 0.95,-0.49 10.49,-6.81 20,-14.87 29.75,-22.67 13.66,-10.96 27.3,-22.17 41.19,-33.15 14.88,-11.69 29.75,-23.4 44.86,-34.36 12.44,-9.26 25.6,-17.79 39.49,-25.35 10.23,-4.88 20.72,-9.03 31.46,-12.43 14.39,-5.13 29,-9.76 43.64,-13.89 2.68,-0.75 4.13,-3.43 3.41,-6.1l-7.81 -21.69 -18.51 -52.18 -22.67 -63.38 -19.49 -54.6c-3.18,-8.78 -6.11,-17.79 -9.51,-26.57 0,-0.25 0,-0.25 -0.25,-0.48 -1.95,-5.13 -11.46,-2.7 -9.51,3.41z"/>
   <path class="fil1" d="M833.43 1184.79c-6.1,-15.59 16.09,-40.47 55.32,-66.31l38.76 75.57c-50.7,9.76 -87.51,7.31 -94.09,-9.26z"/>
   <path class="fil1" d="M838.31 1183.33c-0.73,-1.7 -0.98,-3.4 -0.73,-5.13l0 -0.98c0,0.5 0,0.5 0,0 0,-0.48 0.23,-0.95 0.23,-1.45 0.25,-1.22 0.75,-2.42 1.22,-3.4 2.45,-5.13 5.61,-10.01 9.51,-14.14 12.19,-13.91 27.55,-25.12 42.91,-35.36l-6.83 -1.7 33.88 66.06 4.88 9.26 2.93 -7.31c-19.99,3.9 -40.47,6.83 -60.96,5.11 -6.08,-0.23 -12.43,-1.7 -18.27,-3.65 -1.22,-0.48 -2.45,-1.2 -3.65,-1.95 -0.5,-0.23 -0.98,-0.73 -1.48,-0.98 -0.48,-0.48 0,0.25 -0.72,-0.73 -0.5,-0.48 -0.72,-0.72 -1.22,-1.22 -0.25,-0.23 -1.22,-1.45 -0.48,-0.48 -0.25,-0.5 -0.5,-0.98 -0.98,-1.45 0,0 -0.75,-1.47 -0.25,-0.5 -0.73,-2.68 -3.41,-4.15 -6.11,-3.4 -2.68,0.72 -4.13,3.4 -3.4,6.08 3.9,9.51 13.41,14.14 22.92,16.34 14.38,3.18 29.5,2.68 44.11,1.22 11.21,-0.98 22.19,-2.7 33.16,-4.88 2.68,-0.73 4.15,-3.65 3.4,-6.1 0,-0.48 -0.22,-0.73 -0.48,-0.98l-33.88 -66.06 -4.88 -9.26c-1.45,-2.43 -4.38,-3.18 -6.83,-1.7 -16.57,10.96 -33.63,23.15 -46.56,38.51 -7.31,8.78 -15.6,21.44 -11.21,33.16 0.75,2.68 3.43,4.15 6.1,3.4 2.68,-0.97 4.38,-3.65 3.65,-6.33z"/>
   <path class="fil0" d="M1876.79 1232.08l-521.2 0c-27.3,0 -49.47,-22.17 -49.47,-49.49l570.67 0 0 49.49z"/>
   <path class="fil1" d="M1876.79 1226.97l-516.07 0 -5.13 0c-24.62,0 -44.59,-19.74 -44.59,-44.36l0 -0.25 -4.88 4.88 547.5 0c7.33,0 14.89,0.5 22.19,0l0.98 0 -4.88 -4.88 0 49.49c0,6.33 9.99,6.33 9.99,0l0 -49.49c0,-2.68 -2.18,-4.88 -4.86,-4.88l-547.78 0c-7.31,0 -14.87,-0.23 -22.17,0l-0.97 0c-2.68,0 -4.88,2.2 -4.88,4.88 0,19.02 9.99,36.58 26.32,46.57 8.78,5.13 19.01,8.03 29.25,7.8l23.39 0 472.21 0c7.8,0 15.59,0.23 23.39,0l0.98 0c6.33,0.23 6.33,-9.76 0,-9.76z"/>
   <path class="fil0" d="M1798.54 1198.69l108.97 -393.93 412.95 0 -104.82 378.35c-8.06,28.75 -34.13,48.75 -64.11,48.75l-362.26 0 9.26 -33.16z"/>
   <path class="fil1" d="M1803.42 1199.91l10.96 -39.49 26.1 -93.86 31.45 -113.6 27.3 -98.71 9.01 -32.18c1.48,-5.13 3.18,-10.23 4.15,-15.37 0,-0.25 0,-0.48 0.23,-0.72l-4.86 3.65 395.89 0c5.36,0 10.96,0.48 16.32,0l0.75 0 -4.88 -6.33 -10.73 38.51 -25.59 92.38 -30.71 110.68 -26.09 94.34c-3.88,14.14 -7.79,28.28 -11.69,42.41 -6.33,22.67 -24.88,39.74 -48.02,44.37 -6.59,0.98 -13.41,1.48 -19.99,0.98l-353.48 0c-6.36,0 -6.36,10 0,10l343.24 0 18.02 0c20,0.25 39.26,-8.05 53.15,-22.42 8.53,-9.5 14.64,-21.22 17.79,-33.65l5.86 -21.44 23.4 -84.6 30.47 -110.18 27.8 -100.69 15.34 -55.32 0.75 -2.68c0.72,-2.68 -0.98,-5.38 -3.65,-6.1 -0.5,0 -0.75,-0.23 -1.22,-0.23l-362.01 0c-16.57,0 -33.4,-0.5 -50.22,0l-0.72 0c-2.2,0 -4.15,1.45 -4.88,3.65l-10.96 39.48 -26.09 93.87 -31.2 113.83 -27.3 98.74c-4.38,15.84 -9.26,31.68 -13.16,47.53 0,0.25 0,0.49 -0.25,0.75 -1.45,6.08 8.05,8.76 9.76,2.42z"/>
   <path class="fil6" d="M997 1064.37c21.95,-8.53 44.11,-16.09 66.79,-22.42l33.4 92.38 9.51 26.33 420.26 -147.74 43.4 166.27 -394.67 177.21c-85.8,29.75 -181.36,-9.76 -226.23,-88.98l-25.35 -53.15 -35.36 -95.54c28.52,-18.79 66.08,-37.81 108.25,-54.37z"/>
   <path class="fil1" d="M998.47 1069c21.94,-8.53 44.11,-16.09 66.78,-22.42l-6.08 -3.43 16.81 46.57 16.57 45.84 9.51 26.33c0.75,2.68 3.43,4.13 6.1,3.4l41.94 -14.87 100.2 -35.36 121.64 -42.89 104.57 -36.81 34.63 -12.21c5.36,-1.95 11.21,-3.41 16.31,-5.83 0.25,0 0.5,-0.25 0.75,-0.25l-6.1 -3.43 14.64 56.33 23.4 89.71 5.36 20.47 2.2 -5.61 -27.3 12.44 -69.48 31.2 -90.93 40.96 -93.11 41.69 -75.32 33.88c-12.43,5.61 -24.87,11.46 -37.3,16.82 -2.68,0.98 -5.61,1.95 -8.53,2.68 -11.94,3.43 -24.12,5.6 -36.31,6.58 -24.39,1.7 -48.77,-1.45 -71.69,-9.51 -22.9,-7.78 -43.87,-19.99 -62.4,-35.58 -9.51,-8.29 -18.27,-17.31 -26.08,-27.3 -6.1,-7.56 -11.46,-15.61 -16.09,-24.15 -6.33,-12.66 -12.19,-25.6 -18.29,-38.26 -1.95,-4.63 -4.13,-9.26 -6.58,-13.89 -0.48,-0.98 0.49,1.45 0.25,0.73 0,-0.5 -0.25,-0.73 -0.48,-0.98 -0.5,-1.48 -1.22,-3.18 -1.72,-4.63l-30.45 -82.65 -2.7 -7.06 -2.18 5.6c34.13,-21.69 69.96,-39.74 107.5,-54.12 5.85,-2.2 3.4,-11.93 -2.68,-9.5 -38.03,14.86 -75.09,32.43 -109.45,54.85 -1.95,1.22 -2.92,3.4 -2.2,5.6l27.3 73.62c2.93,7.8 5.36,16.09 8.78,23.65 5.86,12.69 11.94,25.12 18.04,37.79 2.18,4.88 4.63,9.76 6.81,14.64 5.13,9.5 11.23,18.51 18.04,26.8 15.61,19.51 34.87,36.08 56.33,48.52 43.39,25.11 95.81,33.16 144.31,20.47 13.16,-3.41 25.12,-9.26 37.53,-14.87l67.06 -29.98 90.91 -40.71 94.34 -42.41 77.52 -34.86 40.24 -18.04 1.95 -0.73c1.95,-1.22 2.92,-3.43 2.18,-5.63l-14.61 -56.3 -23.4 -89.7 -5.38 -20.47c-0.72,-2.7 -3.4,-4.15 -6.09,-3.43l-41.94 14.87 -100.44 34.63 -121.64 42.9 -104.58 36.8 -34.61 12.21c-5.37,1.93 -11.23,3.4 -16.34,5.83 -0.25,0 -0.5,0.25 -0.72,0.25l6.08 3.41c-4.38,-12.42 -9.01,-24.85 -13.41,-37.29l-22.9 -63.13 -6.6 -18.04c-0.72,-2.68 -3.4,-4.15 -6.08,-3.4 -22.67,6.33 -45.1,13.89 -66.79,22.42 -6.1,1.95 -3.65,11.69 2.43,9.26z"/>
   <path class="fil6" d="M1053.07 791.58l0 0c57.53,0 104.1,-46.57 104.1,-104.09l0 -19.5 -208.19 0 0 19.5c0,57.53 46.57,104.09 104.09,104.09z"/>
   <path class="fil1" d="M1053.07 796.46c57.78,0 105.55,-45.1 108.98,-102.62 0.48,-8.53 0.22,-17.31 0.22,-26.1 0,-2.68 -2.18,-4.88 -4.86,-4.88l-182.59 0c-8.28,0 -16.81,-0.22 -25.35,0l-0.25 0c-2.68,0 -4.88,2.2 -4.88,4.88l0 20.47c0,13.91 2.93,27.8 8.29,40.71 10.49,25.37 30.23,45.84 55.1,57.3 13.89,6.83 29.5,10.24 45.34,10.24 6.33,0 6.33,-9.76 0,-9.99 -53.15,0 -96.78,-41.94 -98.97,-94.84 -0.25,-8.06 0,-15.84 0,-23.9l-4.88 4.88 199.66 0c2.68,0.25 5.36,0.25 8.03,0l0.25 0 -4.88 -4.88 0 19.52c0,38.76 -22.42,73.84 -57.53,90.18 -12.91,6.1 -27.3,9.03 -41.44,9.03 -6.59,0.23 -6.59,9.99 -0.25,9.99z"/>
   <polygon class="fil6" points="983.11,687.74 985.06,546.59 1104.99,591.92 1109.38,684.33 "/>
   <path class="fil1" d="M988.23 687.74l0.72 -47.79 0.98 -75.8 0.25 -17.56 -6.33 4.88 40.71 15.36 64.34 24.38 14.88 5.6 -3.65 -4.88 3.91 81.18 0.48 11.23c0.25,6.33 10.23,6.33 9.99,0l-3.88 -81.17 -0.5 -11.23c0,-2.18 -1.45,-4.13 -3.65,-4.86l-40.71 -15.37 -64.36 -24.37 -14.87 -5.63c-2.68,-0.73 -5.36,0.97 -6.1,3.67 0,0.48 -0.23,0.73 -0.23,1.21l-0.75 47.79 -0.97 75.82 -0.23 17.54c0,6.33 9.73,6.33 9.99,0z"/>
   <path class="fil6" d="M984.33 595.34c-69.24,-52.9 -48.52,-106.77 -52.65,-145.54 -2.45,-22.67 27.05,-71.91 27.05,-71.91l229.64 6.58c0,0 95.08,255.96 -126.77,220.13l-77.27 -9.26z"/>
   <path class="fil1" d="M986.76 590.96c-17.31,-13.16 -32.66,-29.73 -41.44,-49.72 -5.86,-14.89 -9.03,-30.48 -8.78,-46.57 -0.25,-13.89 1.22,-27.8 0.25,-41.44 -0.5,-6.35 0,-12.68 1.45,-18.77 2.2,-7.8 4.88,-15.11 8.3,-22.44 4.86,-10.96 10.23,-21.45 16.32,-31.68l-4.38 2.43 22.92 0.75 54.85 1.7 66.31 1.95 57.28 1.7 18.77 0.48c2.92,0.25 6.1,0.25 9.03,0.25l0.48 0 -4.88 -3.65c2.93,8.03 5.36,16.57 7.81,24.87 2.42,8.76 4.38,17.54 6.33,26.58 0.97,5.1 1.95,10.23 2.68,15.34 0.25,1.22 0.49,2.68 0.49,3.9 0,0.72 0.25,1.47 0.25,1.95 0.23,0.98 0,0 0,0 0,0.5 0.23,0.98 0.23,1.48 0.25,2.91 0.75,5.6 0.97,8.51 1.22,11.46 1.71,22.69 1.22,34.13 0,2.92 -0.25,5.61 -0.49,8.53 -0.23,2.7 -0.73,6.35 -0.95,8.3 -0.25,1.7 -0.98,5.61 -1.48,8.03 -0.48,2.68 -1.22,5.36 -1.95,8.29 -1.45,5.38 -3.17,10.48 -5.1,15.61 0.48,-0.98 -0.5,0.72 -0.5,0.98 -0.25,0.72 -0.48,1.2 -0.73,1.95 -0.49,1.21 -1.22,2.43 -1.7,3.65 -1.22,2.43 -2.68,4.88 -4.15,7.06 -0.73,0.97 -1.45,2.2 -2.2,3.17 -0.48,0.5 -0.73,0.98 -1.21,1.71 -0.25,0.25 -0.25,0.49 -0.5,0.72 0.73,-0.98 -0.25,0.25 -0.25,0.5 -1.7,2.2 -3.65,4.38 -5.6,6.33 -1.95,1.95 -3.88,3.9 -6.09,5.6 -0.25,0.25 -1.7,1.48 -0.98,0.73 -0.5,0.49 -0.98,0.75 -1.47,1.22 -1.21,0.98 -2.43,1.7 -3.65,2.68 -2.43,1.72 -5.11,3.18 -7.81,4.4 -2.42,1.2 -5.1,2.42 -7.79,3.4 -6.58,2.45 -13.16,4.38 -19.99,5.61 -16.81,2.68 -33.88,2.92 -50.7,0.98 -4.88,-0.48 -10,-1.23 -14.88,-1.95 -2.68,-0.72 -5.36,0.98 -6.09,3.43 -0.72,2.68 0.73,5.36 3.41,6.09 33.16,5.36 69.48,6.83 100.19,-8.53 21.69,-10.72 37.06,-29.98 44.86,-52.65 7.79,-22.19 9.01,-46.31 7.56,-69.71 -1.48,-21.47 -4.88,-42.67 -10.49,-63.63 -2.45,-10.48 -5.6,-20.97 -9.26,-31.2 0,-0.25 0,-0.25 -0.25,-0.49 -0.72,-2.18 -2.68,-3.65 -4.88,-3.65l-22.92 -0.73 -54.85 -1.7 -66.31 -1.95 -57.28 -1.7c-9.26,-0.25 -18.51,-0.98 -27.79,-0.72l-0.48 0c-1.71,0 -3.41,0.97 -4.38,2.42 -5.38,9.01 -10.26,18.29 -14.64,27.8 -3.65,7.79 -7.06,15.84 -9.76,24.12 -2.43,7.08 -3.65,14.39 -3.65,21.7 0.98,14.14 0,28.28 0,42.66 0,16.82 1.7,33.63 7.81,49.25 9.26,24.13 26.82,43.14 47.04,58.76 2.45,1.45 5.37,0.48 6.83,-1.72 2.2,-2.68 1.45,-5.6 -0.98,-7.06z"/>
   <path class="fil1" d="M1121.33 435.18c-15.11,-9.01 -35.35,-7.3 -49.72,1.71 -5.37,3.43 -0.49,11.96 4.86,8.53 4.65,-2.93 10,-5.11 15.36,-6.09 4.15,-0.5 8.29,-0.5 12.44,0.23 1.7,0.25 3.4,0.75 5.36,1.22 0.75,0.25 1.47,0.49 2.2,0.72 0.25,0.25 0.72,0.25 0.97,0.5 0.25,0 1.23,0.48 0.25,0.25 -0.5,-0.25 0.72,0.23 0.98,0.48 0.22,0.25 0.72,0.25 0.97,0.48 0.23,0.25 0.73,0.25 0.98,0.49 5.83,3.18 10.72,-5.36 5.36,-8.53z"/>
   <path class="fil1" d="M1199.58 429.57c-5.13,-1.95 -10.23,-2.92 -15.59,-3.17 -9.28,-0.73 -18.79,0.25 -26.35,5.86 -6.81,4.88 -11.46,12.18 -12.91,20.24 -0.98,8.03 0.48,16.09 3.9,23.4 4.63,10.23 10.96,19.5 19.01,27.05l-1.22 -2.18c0.25,0.73 0.25,1.21 0.25,1.95l0 1.2c0,0.25 -0.49,0.98 0,0.25 -0.25,0.25 -0.25,0.48 0,0 -0.49,0.72 -0.49,0.48 -0.97,0.72 -2.93,1.48 -8.06,1.22 -11.96,0.98 -6.33,-0.48 -6.33,9.51 0,10 8.05,0.73 19.51,0.23 22.44,-9.03 0.48,-1.7 0.73,-3.41 0.48,-5.11 0,-2.92 -1.45,-5.6 -3.65,-7.56 -4.38,-4.4 -8.03,-9.28 -11.46,-14.39 -4.38,-7.08 -8.53,-16.59 -7.31,-25.12 1.45,-9.02 8.29,-16.32 17.31,-18.04 8.53,-1.45 17.3,-0.73 25.35,2.45 2.68,0.73 5.36,-0.72 6.08,-3.43 0.5,-2.68 -0.97,-5.36 -3.4,-6.09z"/>
   <path class="fil1" d="M1180.57 469.29c0.71,-4.38 4.84,-7.37 9.24,-6.64 4.38,0.71 7.35,4.84 6.64,9.22 -0.71,4.38 -4.84,7.37 -9.24,6.66 -4.38,-0.72 -7.35,-4.86 -6.64,-9.24z"/>
   <path class="fil1" d="M1199.09 470.29c-0.25,-4.38 -3.18,-8.28 -7.31,-9.76 -5.6,-1.7 -11.46,1.23 -13.16,6.83 -0.98,2.92 -0.5,6.1 1.2,8.78 3.18,4.88 9.51,6.33 14.64,3.15 2.93,-1.7 4.63,-5.36 4.63,-9.01 0,-1.47 -1.22,-2.42 -2.43,-2.42 -1.22,0 -2.45,1.2 -2.45,2.42l0 1.23 0 0.22 0 0.5c0,0.25 -0.23,0.48 -0.23,0.73 0,0 -0.25,0.49 0,0 -0.25,0.49 -0.5,0.72 -0.5,1.22l-0.25 0.25 -0.23 0.23c-0.25,0.25 -0.49,0.49 -0.75,0.75 -0.22,0.23 0,0 0,0 -0.22,0.23 -0.22,0.23 -0.48,0.23l-0.25 0.25c0,0 -0.73,0.25 -0.48,0.25 0.23,-0.25 -0.25,0 -0.25,0 -0.25,0 -0.25,0 -0.49,0.23 -0.23,0.25 -0.23,0 -0.48,0 -0.73,0.25 0.25,0 0,0l-1.23 0c-0.25,0 -0.72,0 0,0 -0.25,0 -0.48,0 -0.72,-0.23 -0.25,0 -0.72,-0.25 -0.98,-0.25l-0.48 -0.25c0,0 -0.25,-0.23 -0.5,-0.23 0,0 -0.48,-0.25 0,0 -0.25,-0.25 -0.72,-0.5 -0.97,-0.98l-0.25 -0.25c0.25,0.48 0,0 0,-0.25 -0.23,-0.25 -0.23,-0.48 -0.48,-0.97 0,0 -0.25,-0.48 0,0 0,-0.25 -0.25,-0.48 -0.25,-0.48l0 -0.49c0,0 -0.25,-0.73 0,-0.48l0 -0.25 0 -0.49 0 -0.73c0,0.5 0,0.25 0,0 0,-0.25 0.25,-0.72 0.25,-0.98 0,0 0.25,-0.72 0,-0.25 0,-0.23 0.25,-0.48 0.25,-0.48 0.23,-0.25 0.23,-0.48 0.48,-0.98 -0.25,0.5 0,0 0,0 0,-0.25 0.25,-0.25 0.25,-0.48 0,-0.25 0.25,-0.25 0.48,-0.25 0,0 0.5,-0.25 0,0 0.25,-0.25 0.75,-0.5 0.98,-0.73 0.25,0 0.25,-0.25 0.5,-0.25 -0.5,0.25 0.22,0 0.22,0 0.25,0 0.75,-0.25 0.98,-0.25 0.25,0 0.5,0 0,0l0.5 0 0.48 0 0.25 0c0.5,0 0.73,0.25 1.22,0.25 0,0 0.73,0.25 0.25,0 -0.25,0 0.48,0.25 0.48,0.25l0.25 0.23c0,0 0.73,0.5 0.25,0.25 0.22,0.25 0.48,0.5 0.72,0.73l0.48 0.49c-0.23,-0.49 0,0 0,0.25 0.25,0.22 0.5,0.72 0.5,1.2 -0.25,-0.48 0,0 0,0 0,0.25 0.25,0.5 0.25,0.73l0 0.49c0,0.25 0,0.25 0,0l0 0.48c0,1.47 1.21,2.45 2.43,2.45 1.22,0 2.68,-1.48 2.68,-2.93z"/>
   <path class="fil1" d="M1112.8 462.48c4.44,0 8.04,3.61 8.04,8.06 0,4.44 -3.6,8.03 -8.04,8.03 -4.44,0 -8.03,-3.59 -8.03,-8.03 0,-4.44 3.59,-8.06 8.03,-8.06z"/>
   <path class="fil1" d="M1123.28 470.29c-0.25,-4.38 -3.17,-8.28 -7.31,-9.76 -5.6,-1.7 -11.46,1.23 -13.16,6.83 -0.98,2.92 -0.5,6.1 1.2,8.78 3.18,4.88 9.51,6.33 14.64,3.15 2.92,-1.7 4.63,-5.36 4.63,-9.01 0,-1.47 -1.22,-2.42 -2.42,-2.42 -1.48,0 -2.45,1.2 -2.45,2.42l0 1.23 0 0.22 0 0.5c0,0.25 -0.25,0.48 -0.25,0.73 0,0 -0.23,0.49 0,0 -0.23,0.49 -0.48,0.72 -0.48,1.22 0,0 -0.5,0.48 -0.25,0.25 0.25,-0.25 -0.25,0.23 -0.25,0.23 -0.23,0.25 -0.48,0.49 -0.72,0.75 -0.23,0.23 0,0 0,0 -0.23,0.23 -0.23,0.23 -0.48,0.23l-0.25 0.25c0,0 -0.72,0.25 -0.48,0.25 0.23,-0.25 -0.25,0 -0.25,0 -0.25,0 -0.25,0 -0.5,0.23 -0.23,0.25 -0.23,0 -0.48,0 -0.73,0.25 0.25,0 0,0l-1.22 0c-0.25,0 -0.73,0 0,0 -0.25,0 -0.48,0 -0.73,-0.23 -0.25,0 -0.72,-0.25 -0.98,-0.25 0.48,0.25 -0.49,-0.25 -0.49,-0.25 0,0 -0.23,-0.23 -0.48,-0.23 0,0 -0.5,-0.25 0,0 -0.25,-0.25 -0.73,-0.5 -0.98,-0.98l-0.25 -0.25c0.25,0.48 0,0 0,-0.25 -0.23,-0.25 -0.23,-0.48 -0.48,-0.97 0,0 -0.25,-0.48 0,0 0,-0.25 -0.25,-0.48 -0.25,-0.48l0 -0.49c0,0 -0.25,-0.73 0,-0.48l0 -0.25 0 -0.49 0 -0.73c0,0.5 0,0.25 0,0 0,-0.25 0.25,-0.72 0.25,-0.98 0,0 0.25,-0.72 0,-0.25 0,-0.23 0.25,-0.48 0.25,-0.48 0.23,-0.25 0.23,-0.48 0.48,-0.98 -0.25,0.5 0,0 0,0 0,-0.25 0.25,-0.25 0.25,-0.48 0,-0.25 0.23,-0.25 0.48,-0.25 0,0 0.5,-0.25 0,0 0.25,-0.25 0.73,-0.5 0.98,-0.73 0.25,0 0.25,-0.25 0.5,-0.25 -0.5,0.25 0.23,0 0.23,0 0.25,0 0.75,-0.25 0.97,-0.25 0.25,0 0.5,0 0,0l0.5 0 0.48 0 0.25 0c0.49,0 0.72,0.25 1.22,0.25 0,0 0.72,0.25 0.25,0 -0.25,0 0.48,0.25 0.48,0.25l0.25 0.23c0,0 0.73,0.5 0.25,0.25 0.23,0.25 0.48,0.5 0.72,0.73 0.23,0.25 0.23,0.25 0.48,0.49 -0.25,-0.49 0,0 0,0.25 0.25,0.22 0.5,0.72 0.5,1.2 -0.25,-0.48 0,0 0,0 0,0.25 0.23,0.5 0.23,0.73l0 0.49c0,0.25 0,0.25 0,0l0 0.48c0,1.47 1.22,2.45 2.45,2.45 1.45,-0.5 2.68,-1.48 2.68,-2.93z"/>
   <path class="fil1" d="M1072.82 538.3c15.37,2.68 49,-40.46 89.21,-24.62 33.9,23.17 46.82,5.61 46.82,5.61 0,0 31.46,158.45 -79.22,156.75 -112.15,-1.71 -100.69,-183.07 -100.69,-183.07 0,0 5.86,-36.09 -9.26,-55.1 -6.58,-7.56 -13.89,-12.43 -20.97,-12.43 -19.5,0 -34.61,6.58 -34.61,34.63 0,18.52 15.61,50.95 26.32,59.48l-5.86 75.82c-40.21,-32.68 -71.41,-75.35 -89.93,-123.61 -8.55,-22.42 -14.39,-45.57 -12.21,-64.36 8.3,-77.52 60.95,-70.92 60.95,-70.92 202.09,-105.56 271.57,-76.55 290.34,-34.63 4.38,9.76 4.38,24.38 3.15,36.33 -0.72,7.79 7.81,15.84 13.91,20.72 6.33,4.63 9.51,12.44 8.29,20 -8.29,48.99 -173.81,31.93 -203.79,28.5 0,-0.23 -24.39,139.93 17.54,130.92z"/>
   <path class="fil1" d="M1071.6 543.18c8.78,1.45 16.81,-4.15 23.89,-8.53 9.74,-5.86 19.25,-12.19 29.98,-15.84 5.86,-2.2 11.94,-3.18 18.04,-3.43 2.68,0 5.36,0.25 8.29,0.75 3.9,0.73 7.56,1.95 10.73,4.13 10.48,6.83 23.15,12.43 36.08,10.23 5.6,-0.72 10.96,-3.88 14.37,-8.28l-9.01 -1.22c0.48,2.45 0.98,5.13 1.22,7.8 0,0.5 0.23,1.22 0.23,1.7 0,0.75 -0.23,-1.2 0,0 0,0.5 0,0.75 0.25,1.22 0.25,1.71 0.5,3.18 0.5,4.88 0.48,3.65 0.72,7.56 0.98,11.21 0.72,9.51 0.72,18.77 0.48,28.28 -0.25,10.23 -1.45,20.24 -3.41,30.23 -1.95,10.23 -5.37,19.99 -10,29.25 -1.21,2.2 -2.43,4.63 -3.9,6.83 -1.21,1.95 -2.43,3.65 -3.88,5.36 -3.18,3.9 -6.83,7.33 -10.73,10.49 -19.01,14.14 -45.84,16.58 -68.51,10 -20.97,-6.1 -37.06,-21.47 -48.02,-40.24 -10.96,-19.24 -17.07,-41.19 -20.97,-63.38 -1.71,-9.99 -2.68,-19.24 -3.65,-29.73 -0.73,-8.28 -0.98,-16.34 -0.98,-24.62 0,-4.88 0,-9.76 0.25,-14.39 0,-0.49 0.25,-1.95 0,-2.42 -0.25,-0.25 -0.25,1.93 -0.25,0.95 0.25,-0.95 0.25,-1.7 0.25,-2.68 0.25,-1.95 0.48,-4.13 0.48,-6.09 0.98,-15.11 0,-31.7 -7.56,-45.09 -4.86,-8.78 -12.91,-15.61 -22.42,-18.79 -7.56,-1.7 -15.36,-1.2 -22.67,1.22 -6.58,1.95 -12.43,6.11 -16.57,11.71 -4.63,6.83 -6.1,15.37 -6.58,23.4 -0.5,17.07 6.81,34.61 15.34,48.99 3.17,6.11 7.33,11.71 12.68,16.34l-1.45 -3.41 -5.13 66.29 -0.73 9.51 8.53 -3.4c-37.78,-30.48 -67.54,-69.97 -86.05,-114.83 -9.76,-23.88 -18.04,-49.98 -13.91,-76.05 2.45,-16.34 8.06,-33.65 19.51,-45.34 3.65,-3.91 8.03,-7.08 12.91,-9.51 0.5,-0.25 0.98,-0.5 1.71,-0.73 0.25,-0.25 1.95,-0.75 0.75,-0.25 0.97,-0.5 2.18,-0.98 3.4,-1.22 1.95,-0.73 3.9,-1.22 6.09,-1.7 0.98,-0.25 1.72,-0.25 2.7,-0.5 0.73,-0.23 -1.22,0 0,0 0.48,0 0.98,0 1.21,-0.23 1.48,-0.25 2.68,-0.25 4.15,-0.25 2.2,0.25 4.15,0 6.08,-0.73 12.69,-6.1 25.12,-12.68 37.81,-18.77 11.44,-5.6 23.15,-10.73 34.86,-15.86 19.5,-8.53 39.49,-15.84 59.71,-22.17 28.05,-8.78 56.8,-15.61 86.06,-14.64 2.7,0 5.38,0.25 7.8,0.5 1.23,0 2.45,0.25 3.65,0.48 0.25,0 1.95,0.25 0.75,0 0.73,0 1.45,0.25 2.18,0.25 4.4,0.73 8.78,1.71 13.16,2.93 1.95,0.72 4.15,1.22 6.11,2.2 0.48,0.23 0.72,0.23 1.22,0.48 0.48,0.25 -0.75,-0.48 0.48,0.25 0.98,0.48 1.7,0.73 2.68,1.22 3.43,1.71 6.33,3.41 9.51,5.61 0.25,0.23 0.49,0.48 0.97,0.72 0.73,0.48 -0.72,-0.49 -0.25,-0.25 0.25,0.25 0.5,0.25 0.5,0.5 0.72,0.48 1.22,0.98 1.95,1.7 1.21,0.98 2.43,2.18 3.65,3.41 1.22,1.22 2.2,2.45 3.18,3.65 0.23,0.25 0.95,1.23 0.48,0.5 -0.48,-0.72 0.25,0.48 0.48,0.48 0.5,0.75 0.98,1.22 1.22,1.95 1.71,2.45 3.18,5.13 4.63,8.06 4.4,9.73 3.9,21.44 3.18,31.68 -0.73,5.36 0.72,10.98 3.9,15.37 3.41,4.63 7.56,8.78 12.19,12.18 3.9,3.18 6.33,8.06 6.33,13.16 0,1.22 -0.23,2.45 -0.73,3.9 -0.25,0.5 -0.25,0.98 -0.48,1.22 0,0.23 -0.25,0.48 -0.25,0.73 -0.25,0.48 0.48,-0.98 0,0 -0.5,0.98 -0.98,1.7 -1.48,2.43 -0.22,0.49 -0.72,0.97 -0.97,1.47 0.75,-0.98 -0.23,0.25 -0.48,0.73 -0.72,0.72 -1.47,1.7 -2.2,2.42 -0.48,0.25 -0.73,0.75 -1.21,0.98 -0.25,0.25 -0.5,0.25 -0.5,0.5 -0.98,0.72 0.73,-0.5 -0.25,0.25 -1.95,1.45 -4.13,2.92 -6.58,3.9 -1.23,0.73 -2.43,1.21 -3.65,1.71 -0.98,0.48 -1.71,0.72 -3.41,1.45 -12.68,4.4 -25.85,7.07 -39.01,8.28 -15.59,1.48 -31.45,2.2 -47.29,2.2 -26.82,0 -53.62,-1.7 -80.2,-4.38 -3.43,-0.25 -6.83,-0.75 -10.23,-1.22 -2.2,0 -4.15,1.45 -4.88,3.65 -2.92,16.34 -4.63,32.91 -6.1,49.5 -1.21,13.16 -1.45,26.57 -0.98,39.74 0.5,11.46 1.72,23.4 6.36,34.13 4.38,9.99 12.91,16.1 24.12,13.89 6.33,-1.23 3.65,-10.73 -2.68,-9.51 -0.5,0 -1.48,0.25 -0.5,0l-1.45 0 -1.22 0c-1.45,0 0.25,0.25 -0.23,0 -0.75,-0.25 -1.72,-0.48 -2.45,-0.73 0.5,0.25 0.73,0.48 -0.25,-0.25 -0.48,-0.25 -0.73,-0.48 -1.21,-0.72 -0.98,-0.5 -0.25,-0.25 -0.25,0 -0.25,-0.25 -0.73,-0.5 -0.98,-0.98 -0.25,-0.25 -0.5,-0.5 -0.72,-0.98 -0.25,-0.25 -0.98,-1.22 -0.73,-0.73 0.48,0.73 -0.5,-0.75 -0.5,-0.75 -0.25,-0.48 -0.48,-0.72 -0.72,-1.2 -0.5,-0.98 -0.98,-1.95 -1.48,-2.93 -0.48,-0.97 0,0 -0.22,-0.49 -0.25,-0.48 -0.5,-0.98 -0.5,-1.45 -0.48,-1.22 -0.73,-2.2 -1.22,-3.41 -0.73,-2.45 -1.21,-4.88 -1.7,-7.33 -0.98,-5.36 -1.45,-10.96 -1.71,-16.34 -1.22,-23.88 0.98,-48.02 4.15,-71.67 0,-0.73 -0.25,1.22 0,0 0,-0.23 0,-0.73 0.23,-0.98 0,-0.48 0.25,-0.98 0.25,-1.7 0.25,-1.22 0.25,-2.2 0.5,-3.41 0.22,-1.7 0.48,-3.43 0.72,-5.13 0.25,-1.45 0.48,-2.93 0.73,-4.63l-4.88 3.65c14.64,1.7 29,2.92 43.64,3.9 22.19,1.48 44.61,2.2 66.79,1.48 21.22,-0.75 43.16,-2.2 63.63,-8.53 13.89,-4.4 30.73,-12.21 34.13,-27.8 1.7,-8.03 -0.5,-16.57 -6.1,-22.67 -4.86,-5.61 -12.42,-9.26 -15.34,-16.59 -1.48,-3.41 -0.25,-8.03 0,-11.69 0.23,-4.38 0,-8.78 -0.25,-13.16 -0.5,-6.83 -2.2,-13.41 -5.13,-19.51 -4.38,-9.01 -10.96,-16.81 -19.01,-22.67 -9.74,-7.06 -20.95,-11.69 -32.66,-13.64 -16.82,-2.92 -33.89,-3.18 -50.7,-0.5 -24.15,3.43 -48.04,9.28 -71.19,17.32 -32.66,11.46 -64.61,24.87 -95.56,40.46 -9.01,4.4 -18.29,9.03 -27.3,13.91l2.42 -0.75c-6.33,-0.48 -12.91,0.25 -19,2.45 -14.38,4.88 -26.34,14.87 -33.65,28.28 -13.16,22.92 -16.09,51.42 -10.96,77.02 6.09,30.48 19.74,59.98 36.09,86.06 17.54,28.05 39.71,52.89 65.31,73.86 1.95,1.95 5.13,1.71 7.08,-0.25 0.72,-0.98 1.22,-1.95 1.45,-3.15l5.13 -66.06c0.25,-3.17 0.73,-6.35 0.73,-9.76 0,-3.17 -2.93,-4.88 -4.88,-7.08 -2.68,-2.9 -4.86,-6.33 -6.81,-9.73 -5.13,-8.53 -9.28,-17.79 -11.96,-27.3 -2.93,-8.78 -3.41,-18.04 -1.45,-27.3 1.22,-6.83 5.6,-12.43 11.93,-15.37 5.86,-2.45 15.61,-4.15 21.95,-1.47 9.51,3.9 15.59,13.16 18.52,22.67 2.2,8.3 3.17,16.84 2.92,25.35 0,3.17 -0.25,6.35 -0.48,9.5 0,0.98 -0.25,1.72 -0.25,2.7 0.25,-1.95 0,-0.5 0,0 -0.25,1.21 -0.25,2.43 -0.25,3.65 -0.25,5.86 -0.25,11.46 -0.25,17.29 0.25,22.45 2.7,44.87 7.33,66.81 5.61,25.35 14.87,50.95 32.18,70.94 18.52,21.7 45.82,31.93 74.1,30.46 14.14,-0.48 28.05,-4.63 40.24,-12.19 10.48,-7.06 18.77,-16.32 24.85,-27.55 11.71,-21.44 15.11,-46.79 15.61,-70.92 0.25,-16.58 -0.97,-33.15 -3.9,-49.49 -0.25,-0.72 -0.25,-1.7 -0.48,-2.43 -0.98,-4.65 -6.83,-4.4 -9.03,-1.22 1.48,-1.95 0.5,-0.72 0.25,-0.25l-0.5 0.5c-0.23,0.22 -0.23,0.22 -0.48,0.48 -0.72,0.98 0.72,-0.48 0,0 -0.98,0.49 -1.95,1.22 -2.92,1.7 -0.25,0 -1.23,0.5 0,0 -0.25,0.25 -0.73,0.25 -0.98,0.5 -0.98,0.23 -1.95,0.48 -2.93,0.72 -3.9,0.48 -7.8,0.25 -11.46,-0.72 -7.06,-2.2 -13.64,-5.38 -19.74,-9.51 -6.33,-3.18 -13.41,-4.88 -20.47,-4.88 -6.1,0 -12.19,0.72 -17.8,2.43 -11.21,3.67 -21.94,8.78 -31.7,15.11 -4.38,2.7 -8.79,5.6 -13.41,8.06 -1.45,0.98 -3.16,1.7 -4.88,2.2 -0.48,0.23 -2.91,0.72 -1.71,0.48l-1.45 0c-2.68,-0.73 -5.36,0.98 -6.1,3.4 -0.98,1.48 0.5,4.4 3.18,5.13z"/>
   <path class="fil0" d="M1134.74 539.03l11.46 2.93 1.7 0.48c1.22,0.25 2.68,0.25 3.9,-0.48 2.43,-1.45 3.18,-4.38 1.7,-6.83 -0.72,-1.22 -1.7,-1.95 -2.92,-2.18l-11.46 -2.93 -1.71 -0.49c-1.22,-0.25 -2.68,-0.25 -3.9,0.49 -2.43,1.45 -3.15,4.38 -1.7,6.81 0.72,0.98 1.7,1.95 2.92,2.2z"/>
   <path class="fil1" d="M984.09 454.93c0.72,-0.25 1.22,-0.48 1.95,-0.48 1.22,-0.25 -1.47,0 -0.25,0l1.22 0 1.22 0 0.73 0c-1.71,0 -0.98,-0.25 -0.25,0 0.5,0 0.98,0.23 1.48,0.23 0.23,0 0.48,0.25 0.72,0.25 0.25,0 1.45,0.5 0.48,0.25 -0.97,-0.5 0,0 0.25,0.25 0.25,0.23 0.48,0.23 0.97,0.48 0.73,0.5 1.23,0.73 1.95,1.22 0.73,0.48 -0.98,-0.72 0,0 0.25,0.23 0.73,0.48 0.98,0.73 0.72,0.72 1.45,1.22 1.95,1.95 0.25,0.25 0.48,0.73 0.72,0.98 0.25,0.25 0.98,0.98 0,0l0.48 0.48c0.75,0.98 1.48,1.95 1.95,3.18 0.75,1.22 1.47,2.43 1.95,3.65 0.25,0.72 0.75,1.47 0.98,1.95 0,0.25 0.5,1.23 0,0.25 0.25,0.48 0.25,0.72 0.5,1.2 1.45,3.68 2.68,7.56 3.4,11.23 0.73,2.68 3.43,4.13 6.11,3.4 2.68,-0.72 4.13,-3.4 3.4,-6.1 -2.68,-10.71 -6.83,-22.9 -15.59,-29.98 -4.4,-3.9 -10.26,-5.86 -16.09,-5.6 -1.22,0 -2.68,0.25 -3.91,0.72 -2.68,0.75 -4.15,3.43 -3.43,6.1 0.75,2.93 3.43,4.38 6.11,3.65z"/>
   <path class="fil5" d="M1294.65 1845.67l243.53 0c10.26,0 18.29,8.28 18.29,18.29l0 38.99c0,10.26 -8.29,18.29 -18.29,18.29l-243.53 0c-10.23,0 -18.29,-8.29 -18.29,-18.29l0 -38.99c0,-10.26 8.3,-18.29 18.29,-18.29z"/>
   <path class="fil1" d="M1294.65 1926.36l235.49 0c5.6,0 11.46,0.5 16.57,-1.7 9.03,-3.65 14.88,-12.44 14.88,-22.2l0 -16.31 0 -20c0,-7.8 -2.2,-15.11 -8.3,-20.24 -6.58,-5.36 -13.64,-5.61 -21.44,-5.61l-193.8 0c-14.39,0 -28.75,-0.25 -43.14,0 -8.78,0 -16.81,4.88 -20.97,12.69 -2.92,5.6 -2.68,11.46 -2.68,17.54l0 21.69c-0.25,5.13 -0.25,10.01 0.48,15.11 2.45,11.21 11.96,19.02 22.92,19.02 6.33,0.25 6.33,-9.76 0,-9.99 -7.56,0 -13.64,-6.36 -13.41,-13.91l0 -0.22 0 -16.34 0 -19.51c0,-6.09 1.48,-11.69 7.33,-14.87 4.13,-2.18 9.49,-1.45 14.14,-1.45l190.13 0 45.11 0c4.63,-0.25 9.26,2.18 11.94,6.09 2.92,4.4 2.2,9.51 2.2,14.39l0 21.22c0.23,4.38 0.23,8.76 0,12.91 -0.97,6.59 -6.83,11.46 -13.41,11.46l-4.15 0 -239.37 0c-6.83,0.48 -6.83,10.23 -0.5,10.23z"/>
   <path class="fil6" d="M1461.64 1035.6l110.18 -38.03c23.89,-8.29 50.22,-5.36 71.68,7.8l36.31 16.82c24.38,11.21 39.99,35.6 39.99,62.4l0 99.47 -150.17 0.48 -53.15 18.29 -54.85 -167.23z"/>
   <path class="fil1" d="M1462.86 1040.23l61.18 -20.97 38.03 -13.16c10.24,-3.65 20.47,-7.31 31.46,-8.04 12.91,-0.98 25.82,1.21 37.78,6.33 5.61,2.43 10.96,5.86 16.57,8.29 11.21,5.13 22.92,9.76 33.88,15.61 19.51,10.48 32.18,30.45 33.65,52.65 0.48,8.03 0,16.34 0,24.62l0 78.5 4.88 -4.88 -83.63 0.25 -52.18 0.23 -12.91 0c-2.68,0.25 -5.6,0.98 -8.06,1.95l-48.02 16.59c-6.09,1.95 -3.41,11.69 2.68,9.51l42.91 -14.87 8.53 -2.93c0.25,0 1.48,-0.25 1.71,-0.49 -0.23,0.49 -1.95,0 -0.73,0.25 3.41,0.25 7.08,0.25 10.49,0l106.77 -0.25 32.43 0c2.68,0 4.88,-2.2 4.88,-4.88l0 -69.97 0 -29c0,-20.47 -8.31,-40.21 -23.42,-54.35 -11.21,-10.26 -25.1,-15.86 -38.76,-21.95 -5.36,-2.45 -10.96,-4.88 -16.09,-7.56 -3.9,-1.95 -7.56,-4.15 -11.69,-6.1 -6.1,-2.68 -12.19,-4.63 -18.79,-5.86 -16.81,-2.92 -33.88,-1.45 -49.97,4.63l-32.91 11.46 -71.91 24.62 -1.45 0.5c-5.86,1.7 -3.43,11.46 2.68,9.26z"/>
   <path class="fil1" d="M1264.91 1493.9l69.24 0c6.33,0 6.33,-9.99 0,-9.99l-69.24 0c-6.58,0.23 -6.58,9.99 0,9.99z"/>
   <path class="fil6" d="M1631.8 1026.34l69.24 20.24c0,0 4.88,1.45 54.35,46.54 16.59,21.69 12.68,43.89 -23.15,21.22 -35.83,-22.67 -29.75,-22.19 -51.69,-32.66l-41.69 -4.88 -7.06 -50.47z"/>
   <path class="fil1" d="M1630.33 1031.21l55.35 16.09 11.69 3.41c0.73,0.25 1.48,0.5 2.45,0.75 0.73,0 -0.97,-0.5 -0.97,-0.5 0,0.25 1.45,0.98 1.7,0.98 0.72,0.5 1.45,0.98 1.95,1.45 0.23,0.25 0.48,0.25 0.48,0.5 0.72,0.72 -0.98,-0.73 0,0 0.49,0.48 1.22,0.97 1.7,1.45 9.28,7.56 18.29,15.36 27.3,23.42 3.67,3.41 7.56,6.83 11.23,10.23 3.91,3.18 7.56,6.83 10.72,10.73 1.95,2.68 3.43,5.83 4.63,9.01 0.5,1.22 0.98,2.68 1.23,4.15 0.25,0.97 0.25,2.18 0.25,3.15 0,0.5 0,1.22 -0.25,1.7 -0.25,0.25 -0.25,0.75 -0.73,0.98 0.73,-0.48 -1.22,0.75 -0.5,0.25 0.5,-0.25 -0.72,0.25 -0.97,0.25 -0.98,0.25 -0.23,0 0,0l-0.98 0 -1.93 0c-9.03,-0.98 -17.81,-7.56 -25.37,-12.44 -10.23,-6.58 -19.99,-14.14 -30.45,-20.72 -4.15,-2.43 -8.53,-4.88 -12.94,-6.83 -1.95,-0.98 -3.9,-1.7 -6.09,-1.95 -1.7,-0.22 -3.43,-0.48 -5.13,-0.48l-32.91 -3.9 -2.45 -0.25c-2.68,0 -4.86,2.2 -4.86,4.88 0,2.68 2.18,4.88 4.86,4.88l41.69 4.88 -2.43 -0.75c7.56,3.43 14.87,7.56 21.7,12.43 11.46,8.53 23.15,16.34 35.35,23.4 8.76,4.88 26.58,12.94 32.91,0.25 1.95,-4.88 2.18,-10.23 0.25,-15.11 -1.95,-6.58 -5.37,-12.66 -10,-17.79 -6.58,-6.59 -13.89,-12.66 -20.97,-19.02 -4.88,-4.38 -9.74,-8.53 -14.62,-12.91 -5.13,-4.4 -10.48,-9.03 -15.84,-13.16 -5.63,-4.15 -12.94,-5.13 -19.27,-7.08l-53.15 -15.34 -1.23 -0.25c-6.81,-2.2 -9.49,7.31 -3.4,9.26z"/>
   <path class="fil6" d="M1617.9 1067.05l70.94 11.71c0,0 4.88,0.73 59.73,39.49 19.02,19.5 18.04,41.92 -20.24,23.9 -38.26,-18.04 -32.18,-18.29 -55.33,-25.85l-53.39 -3.18 -1.7 -46.07z"/>
   <path class="fil1" d="M1616.44 1071.93l59.73 9.99c3.4,0.5 6.83,0.98 10.48,1.72 0.48,0 0.73,0.23 1.21,0.23 -0.23,0.25 -1.45,-0.73 0,0 0.75,0.25 1.22,0.75 1.95,0.98 2.68,1.47 5.13,3.17 7.56,4.63 13.16,8.3 25.85,17.07 38.53,26.1 4.63,2.68 8.76,6.08 12.42,9.99 2.2,2.45 3.9,5.37 5.6,8.28 0.5,0.98 0.98,2.2 1.22,3.18 0.25,0.72 0.25,1.22 0.5,1.95 0,0.25 0.23,0.49 0.23,0.97l0 0.25 0 1.7c0,0.72 0.25,-0.98 0,-0.25 0,0.25 0,0.49 -0.23,0.72 -0.5,1.22 0.23,-0.72 -0.25,0.5 0,0.25 -0.25,0.48 -0.25,0.48 -0.48,0.5 0.73,-0.73 0,0 -0.98,0.98 0.25,0 -0.48,0.25 -0.25,0.25 -0.5,0.25 -0.75,0.25 0.98,-0.25 0.25,0 0,0 -1.21,0.48 -2.18,0.48 -3.4,0.48 -3.65,-0.23 -7.56,-0.98 -10.96,-2.43 -9.76,-3.65 -19.51,-8.29 -28.78,-13.41 -9.01,-5.11 -18.29,-9.51 -27.78,-13.64 -3.9,-1.72 -8.06,-2.92 -12.21,-3.43l-14.37 -0.98 -34.63 -1.95 -2.18 -0.23c-6.36,-0.5 -6.36,9.51 0,9.99l28.51 1.7 18.29 0.98 5.36 0.25 1.22 0c0.49,0 -1.22,-0.25 -0.25,0.25 0.98,0.22 1.72,0.72 2.7,0.97 2.68,0.98 5.36,1.95 8.03,2.93 0.25,0 0.48,0.23 0.73,0.23 1.22,0.49 -0.73,-0.23 0,0 0.49,0.25 0.98,0.49 1.47,0.75 0.98,0.48 1.95,0.95 2.93,1.45 4.63,2.2 9.01,4.88 13.64,7.3 9.26,4.88 18.77,9.76 28.53,13.89 7.56,3.18 16.57,6.36 24.87,4.4 5.83,-1.47 9.99,-6.58 9.73,-12.68 0,-6.59 -3.4,-12.91 -7.06,-18.04 -2.92,-4.13 -6.33,-7.56 -10.49,-10.48 -4.88,-3.41 -9.76,-6.81 -14.86,-10.49 -7.08,-4.86 -14.14,-9.73 -21.47,-14.61 -6.09,-4.15 -12.19,-8.06 -18.77,-11.71 -1.95,-0.98 -4.13,-1.7 -6.59,-1.95l-65.33 -10.71 -1.71 -0.25c-2.68,-0.73 -5.36,0.97 -6.08,3.4 -0.75,2.45 0.72,5.38 3.4,6.1z"/>
   <path class="fil6" d="M1611.08 1101.67l67.28 8.28c0,0 4.88,0.73 60.21,38.76 19.49,19.02 18.54,41.69 -20,24.15 -38.51,-17.56 -32.4,-17.79 -55.57,-25.12l-53.63 3.43 1.71 -49.49z"/>
   <path class="fil1" d="M1611.08 1106.54l59.23 7.31c2.7,0.25 5.38,0.72 8.06,0.98 0.73,0 -1.7,-0.25 -0.98,-0.25 0.98,0.25 -1.22,-0.72 -0.49,-0.22 4.4,2.68 8.78,4.88 13.16,7.56 14.39,9.01 28.52,18.52 42.44,28.02 3.15,2.2 6.09,5.13 8.53,8.29 1.7,2.45 3.15,4.88 4.38,7.56 0.48,1.22 0.73,2.45 0.98,3.65 0.25,0.75 0,-0.73 0,0l0 0.75c0,0.48 -0.25,1.95 0,0.72 0,0.48 -0.25,0.98 -0.25,1.45 0.25,-0.98 0,0 -0.25,0.25 0.75,-0.98 0,0 -0.22,0.25 0.97,-0.73 -0.25,0.25 -0.75,0.25 -0.48,0.23 0.25,0 0.25,0 -0.25,0 -0.48,0.23 -0.73,0.23 -0.25,0 -1.95,0.5 -0.97,0.25 -1.71,0.25 -3.41,0.25 -5.13,0 -4.13,-0.72 -8.03,-1.7 -11.93,-3.4 -9.26,-3.65 -18.52,-8.3 -27.55,-12.69 -8.53,-4.63 -17.54,-8.78 -26.57,-12.43 -3.65,-1.7 -7.56,-2.43 -11.69,-2.43l-14.89 0.98 -33.63 2.2 -2.2 0.23c-6.33,0.5 -6.33,10.23 0,10l27.8 -1.72 18.52 -1.21 5.6 -0.25 1.23 0 0.25 0c-1.48,-0.25 0.48,0.49 0.98,0.49 2.92,0.96 5.6,1.93 8.53,2.91 0.97,0.5 2.18,0.75 3.15,1.22 -0.23,-0.25 0,0 0.75,0.25 0.48,0.25 0.98,0.48 1.45,0.72 4.38,1.95 8.53,4.38 12.91,6.58 8.78,4.38 17.57,8.79 26.58,12.69 8.05,3.65 17.31,7.31 26.32,6.33 5.86,-0.73 11.23,-4.15 12.21,-10.49 0.98,-6.33 -1.72,-12.91 -5.13,-18.04 -2.2,-3.15 -4.63,-6.33 -7.31,-9.01 -4.15,-4.15 -10,-7.33 -14.87,-10.73 -7.8,-5.36 -15.61,-10.49 -23.67,-15.84 -7.06,-4.63 -13.89,-9.26 -21.44,-13.16 -2.18,-1.23 -4.38,-1.95 -6.83,-2.2l-63.86 -7.81 -1.95 0c-2.68,0 -4.88,2.2 -4.88,4.88 0,2.68 2.2,4.88 4.88,4.88z"/>
   <path class="fil6" d="M1607.91 1142.86l57.78 0c0,0 4.88,0 65.09,29.73 21.94,16.09 24.37,38.76 -16.34,26.82 -40.71,-11.93 -34.61,-13.16 -58.5,-17.07l-31.2 8.78c-26.32,7.31 -53.88,9.76 -80.93,7.06l-12.68 -1.21 -42.67 18.77 119.46 -72.89z"/>
   <path class="fil1" d="M1607.91 1147.98l53.62 0c1.23,0.25 2.68,0.25 3.91,0 0.49,-0.25 -1.45,-0.49 -0.98,-0.25 1.22,0.5 2.45,0.98 3.65,1.22 1.47,0.48 2.92,1.22 4.4,1.7 0.22,0 0.48,0.25 0.48,0.25 0.49,0.25 1.22,0.48 1.7,0.72 1.22,0.5 2.68,1.22 3.9,1.71 8.06,3.43 15.84,7.3 23.65,10.98 5.86,2.92 11.71,5.6 17.57,8.53 3.15,1.2 6.09,2.68 8.76,4.63 1.72,1.45 3.43,2.93 5.13,4.38 2.43,2.45 4.63,5.13 6.33,8.28 0.5,0.98 0.72,1.95 0.98,2.93 0.49,1.47 0,-0.48 0.25,0.97l0 0.73 0 0.25c0,0.25 -0.25,0.5 -0.25,0.73 0.49,-1.95 0,-0.23 0,-0.23 0,0.23 -0.98,1.21 0,0l-0.48 0.48c-0.5,0.5 -1.22,0.98 -2.2,1.22 -3.65,0.73 -7.31,0.98 -10.73,0.25 -6.58,-1.23 -13.16,-2.93 -19.74,-5.13 -5.36,-1.7 -10.71,-3.18 -15.84,-5.13 -5.86,-1.93 -11.46,-4.13 -17.31,-5.83 -2.68,-0.75 -5.11,-1.48 -7.79,-1.95 -1.72,-0.25 -3.18,-0.75 -4.88,-0.98 -2.45,-0.75 -5.13,-0.98 -7.8,-0.98 -5.13,0.98 -10.23,2.93 -15.37,4.13 -19.99,5.61 -39.74,10.73 -60.46,11.96 -12.66,0.73 -25.35,0.48 -38.03,-0.97 -3.15,-0.25 -6.33,-0.98 -9.5,-0.98 -1.71,0.25 -3.41,0.72 -4.86,1.7l-37.06 16.09 -3.43 1.45c-2.43,1.47 -3.15,4.4 -1.7,6.83 1.47,2.2 4.4,3.17 6.83,1.7l42.67 -18.77 -2.45 0.72c19.51,1.95 39.01,2.93 58.75,0.75 17.57,-2.45 34.63,-6.1 51.45,-11.21l15.84 -4.4 -2.68 0c20.47,3.43 39.74,11.71 59.73,17.32 9.74,2.68 26.32,7.06 34.13,-1.95 6.81,-7.81 0.48,-18.77 -5.13,-25.12 -4.63,-5.36 -10.48,-9.73 -17.31,-12.41 -7.56,-3.68 -15.11,-7.33 -22.67,-10.98 -8.76,-4.14 -17.54,-8.29 -26.58,-12.19 -2.91,-1.45 -5.83,-2.43 -9.01,-3.41 -2.2,-0.25 -4.15,-0.5 -6.33,-0.25l-53.39 0c-6.09,0.49 -6.09,10.48 0.25,10.48z"/>
   <path class="fil9" d="M2087.9 996.11c0,-14.14 7.06,-27.05 19.01,-34.61 -27.79,-14.64 -62.16,-3.9 -76.79,23.88 -14.62,27.79 -3.9,62.17 23.89,76.79 27.78,14.64 62.16,3.9 76.8,-23.9 0.23,-0.22 0.23,-0.72 0.48,-0.97l-2.2 0c-22.67,0 -41.19,-18.52 -41.19,-41.19z"/>
   <path class="fil1" d="M2092.77 996.11c0,-12.19 6.33,-23.65 16.57,-30.48 2.45,-1.45 3.17,-4.38 1.72,-6.83 -0.49,-0.72 -0.97,-1.2 -1.72,-1.7 -30.23,-16.09 -67.52,-4.38 -83.61,25.85 -11.93,22.67 -8.78,50.22 8.04,69.47 22.44,25.85 61.43,28.52 87.27,6.1 6.1,-5.13 10.96,-11.71 14.64,-18.77 1.45,-2.45 0.48,-5.36 -1.95,-6.83 -0.75,-0.48 -1.48,-0.72 -2.45,-0.72 -20.23,0.98 -37.54,-14.64 -38.52,-34.86l0 -1.22c0,-6.33 -9.98,-6.33 -9.98,0 0.22,25.85 21.44,46.56 47.29,46.07l1.21 0 -4.38 -7.56c-7.56,15.11 -21.95,25.59 -38.28,28.27 -28.28,4.63 -55.08,-14.61 -59.48,-43.14 -4.38,-28.52 14.64,-55.1 43.16,-59.48 10.96,-1.71 22.17,0 32.18,5.1l0 -8.53c-13.16,8.53 -21.22,23.17 -21.47,39.01 -0.22,6.59 9.76,6.59 9.76,0.25z"/>
   <path class="fil1" d="M1196.9 1351.78l58.26 0 57.53 0c39.26,0.25 73.64,26.32 84.85,63.86 3.4,12.21 3.4,24.39 3.65,36.58l1.45 52.18 1.95 75.57 2.2 86.28 2.2 81.68 1.71 64.36 0.72 32.18 0 1.45c0.25,6.33 9.99,6.33 9.99,0l-0.48 -22.67 -1.48 -58.26 -2.18 -79.72 -2.2 -87.03 -2.2 -79.7 -1.45 -58.27c-0.25,-7.81 -0.25,-15.6 -0.72,-23.4 -1.71,-40.96 -28.28,-76.55 -67.29,-89.71 -11.46,-3.65 -23.4,-5.36 -35.59,-4.88l-110.93 0c-6.33,-0.48 -6.33,9.51 0,9.51z"/>
   <path class="fil0" d="M703.98 1474.4c0,0 18.04,-137 183.07,-117.01 87.53,6.58 130.42,100.67 130.42,100.67 0,0 97.26,-29.73 107.27,52.9l-420.76 -36.56z"/>
   <path class="fil1" d="M708.86 1474.4c-0.48,2.93 0,-0.48 0.25,-1.22 0.48,-2.18 0.98,-4.38 1.45,-6.58 1.95,-7.56 4.4,-14.62 7.31,-21.93 0.49,-0.97 -0.23,0.73 0,0 0,-0.25 0.25,-0.49 0.25,-0.75 0.25,-0.48 0.5,-1.2 0.72,-1.7 0.5,-1.22 0.98,-2.2 1.48,-3.4 1.22,-2.45 2.43,-4.88 3.65,-7.33 2.68,-5.11 5.86,-9.99 9.01,-14.61 0.75,-1.22 1.72,-2.2 2.45,-3.43 0.73,-1.21 1.22,-1.71 2.68,-3.41 1.95,-2.43 4.15,-4.88 6.33,-7.06 4.63,-5.13 9.76,-9.76 15.11,-13.91 27.08,-20.97 62.91,-29.5 97.77,-29.25 22.17,0.25 45.09,2.2 65.81,10.49 17.31,7.31 33.16,17.79 46.82,30.73 17.31,16.57 31.68,36.31 42.66,57.78 0.23,0.23 0.23,0.72 0.48,0.98 1.22,1.93 3.4,2.91 5.6,2.18 3.18,-0.98 6.33,-1.7 9.26,-2.18 1.48,-0.25 3.18,-0.75 4.88,-0.98 0.75,-0.25 1.72,-0.25 2.45,-0.5 0.48,0 0.98,-0.25 1.2,-0.25l0.75 0c0.73,0 -1.22,0.25 0,0 4.13,-0.48 8.53,-0.98 12.66,-0.98 9.26,-0.48 18.77,0.25 27.8,2.7 9.51,2.18 18.27,6.81 25.35,13.64 9.76,9.51 14.64,22.92 16.34,36.81 0,2.68 2.18,4.88 4.88,4.88 2.68,0 4.86,-2.2 4.86,-4.88 -1.7,-14.39 -6.08,-28.02 -15.34,-39.49 -7.33,-8.53 -16.84,-15.11 -27.55,-18.51 -18.29,-6.59 -39.01,-5.86 -57.78,-2.45 -4.15,0.73 -8.53,1.71 -12.68,2.93l5.6 2.2c-9.26,-19.27 -21.69,-37.06 -36.56,-52.67 -12.92,-14.14 -28.28,-26.08 -45.34,-35.34 -9.51,-5.13 -19.5,-9.03 -29.98,-11.71 -11.71,-2.68 -23.65,-4.38 -35.6,-4.88 -38.26,-2.93 -78.73,2.68 -111.4,24.14 -22.17,14.62 -39.74,35.11 -50.95,58.99 -6.09,12.21 -10.24,25.12 -12.66,38.53 0,0.73 -0.25,1.21 -0.25,1.95 0,2.68 2.2,4.86 4.88,4.86 3.16,0.49 5.36,-1.71 5.36,-4.38z"/>
   <path class="fil1" d="M269.58 1236.72c2.42,0.73 4.88,1.45 7.3,2.43 0.5,0.25 1.22,0.5 1.71,0.75 0.25,0 0.49,0.23 0.75,0.23 0.97,0.5 -0.75,-0.48 0.22,0 1.48,0.75 2.93,1.22 4.15,1.95 3.41,1.72 6.83,3.43 9.99,5.37 18.29,10.96 33.16,26.32 43.41,44.84 8.04,14.87 13.39,31.21 15.6,48.02 0.72,2.7 3.4,4.15 6.1,3.43 2.68,-0.72 4.13,-3.43 3.41,-6.1 -4.38,-28.75 -16.1,-56.05 -36.33,-77.02 -12.42,-13.16 -27.53,-23.4 -44.37,-30.23 -3.15,-1.22 -6.33,-2.45 -9.51,-3.17 -5.83,-1.45 -8.53,8.05 -2.42,9.5z"/>
   <path class="fil0" d="M2180.53 88.05c-19.26,0 -38.03,5.86 -53.87,16.57 -48.75,-62.16 -138.7,-73.12 -200.86,-24.38 -3.68,2.92 -7.33,6.1 -10.73,9.26 -21.95,-64.83 -92.39,-99.69 -157.25,-77.52 -36.8,12.43 -65.56,41.68 -78,78.49 -67.28,-13.39 -132.62,30.23 -146.03,97.27 -13.39,67.28 30.23,132.62 97.27,146.03 30.97,6.1 63.15,0.25 89.96,-16.34 23.17,64.61 94.11,98.24 158.46,75.09 33.16,-11.96 59.96,-37.31 73.12,-69.97 66.06,31.2 144.81,7.56 183.07,-54.6 46.57,24.62 104.34,6.58 128.96,-39.98 24.62,-46.57 6.59,-104.35 -39.98,-128.97 -13.39,-7.31 -28.75,-10.96 -44.12,-10.96z"/>
   <path class="fil1" d="M2180.53 82.93c-19.99,0 -39.74,6.11 -56.3,17.32l6.09 0.72c-40.94,-51.92 -111.4,-70.46 -172.59,-45.09 -17.07,7.06 -32.43,17.29 -45.84,29.73l8.3 2.2c-22.67,-67.53 -96.06,-103.84 -163.57,-80.94 -38.53,12.93 -68.51,43.41 -81.18,81.92l6.09 -3.43c-69.72,-14.14 -137.98,30.98 -152.11,100.69 -14.14,69.71 30.95,137.98 100.67,152.11 32.18,6.58 65.83,0.48 93.61,-16.82l-7.31 -2.92c23.89,67.04 97.51,102.39 164.8,78.5 34.86,-12.44 62.89,-39.01 76.55,-73.39l-7.3 2.92c68.49,32.43 150.16,8.3 189.9,-56.3l-6.83 1.7c49,25.85 109.7,7.31 135.53,-41.69 25.85,-48.99 7.33,-109.7 -41.67,-135.53 -14.39,-7.56 -30.48,-11.71 -46.82,-11.71 -6.33,0 -6.33,9.76 0,9.99 49.98,0 90.43,40.48 90.43,90.46 0,49.97 -40.46,90.43 -90.43,90.43 -14.61,0 -29,-3.65 -42.17,-10.23 -2.45,-1.22 -5.37,-0.5 -6.83,1.7 -27.3,43.64 -76.55,68.99 -127.99,65.34 -16.81,-1.22 -33.16,-5.61 -48.5,-12.69 -2.45,-1.45 -5.6,-0.48 -6.83,1.95 -0.25,0.25 -0.25,0.72 -0.5,0.98 -25.1,60.7 -94.81,89.7 -155.52,64.61 -30.95,-12.91 -55.1,-38.03 -66.56,-69.71 -0.72,-2.7 -3.65,-4.15 -6.33,-3.43 -0.25,0 -0.72,0.25 -0.98,0.5 -55.82,34.86 -129.19,17.79 -164.05,-38.03 -34.86,-55.83 -17.79,-129.2 38.03,-164.06 25.58,-16.09 56.3,-21.69 86.03,-15.86 2.7,0.75 5.38,-0.98 6.1,-3.41 20.72,-62.4 88.26,-96.04 150.66,-75.32 35.34,11.69 62.89,39.24 75.07,74.34 0.72,2.68 3.65,4.15 6.33,3.4 0.75,-0.23 1.47,-0.72 1.95,-1.2 45.59,-43.64 115.08,-50.72 168.7,-17.07 13.64,8.76 25.83,19.49 35.83,32.41 1.7,1.72 4.15,1.95 6.09,0.75 15.11,-10.26 32.93,-15.87 51.44,-16.09 6.33,0.22 6.33,-9.76 0,-9.76z"/>
   <path class="fil0" d="M1655.93 87.8c0,0 70.21,6.1 95.07,57.78l-95.07 -57.78z"/>
   <path class="fil1" d="M1655.93 92.68c0.73,0 1.22,0.25 1.95,0.25 1.22,0.23 -0.73,0 -0.25,0 0.49,0 0.72,0 1.22,0.23 0.98,0.25 1.95,0.25 2.92,0.49 6.09,0.98 11.94,2.43 17.79,4.15 16.82,4.38 32.43,12.41 46.07,23.4 8.78,7.56 16.09,16.57 20.97,27.05 2.68,5.61 11.21,0.73 8.53,-4.88 -16.57,-33.88 -53.38,-52.4 -88.98,-58.75 -3.41,-0.73 -6.83,-1.21 -10.24,-1.45 -2.68,0 -4.88,2.2 -4.88,4.88 0,2.43 2.2,4.63 4.88,4.63z"/>
   <polygon class="fil0" points="2127.39,765.26 2127.39,445.19 2236.12,445.19 2035.98,191.16 1835.82,445.19 1944.32,445.19 1944.32,613.39 "/>
   <path class="fil1" d="M2132.51 765.26l0 -306.91c0,-4.15 0.48,-8.53 0,-12.44l0 -0.49 -4.88 4.88 108.48 0c4.65,0 6.1,-5.36 3.43,-8.53l-19.99 -25.35 -47.77 -60.71 -57.77 -73.12 -49.99 -63.63 -16.32 -20.97c-2.68,-3.41 -5.13,-6.83 -7.81,-9.99 0,-0.25 -0.25,-0.25 -0.25,-0.5 -1.95,-1.95 -5.11,-1.95 -7.06,0l-20 25.35 -48.02 60.95 -57.78 73.14 -49.98 63.61c-8.05,10.23 -16.09,20.49 -24.37,30.95 0,0.25 -0.25,0.25 -0.25,0.49 -1.95,1.95 -1.7,5.13 0.25,7.08 0.98,0.73 1.93,1.21 3.15,1.45l108.48 0 -4.88 -4.88 0 168.2c0,6.33 10,6.33 10,0l0 -168.2c0,-2.68 -2.2,-4.88 -4.88,-4.88l-108.48 0 3.41 8.53 19.99 -25.35 47.79 -60.71 57.76 -73.11 49.99 -63.63 16.32 -20.97c2.68,-3.15 5.38,-6.58 7.81,-9.99 0,-0.25 0.25,-0.25 0.25,-0.5l-7.08 0 19.99 25.35 47.79 60.7 57.76 73.14 49.99 63.61 16.32 20.97c2.68,3.17 4.88,6.83 7.81,10 0,0.25 0.25,0.25 0.25,0.48l3.4 -8.53 -108.47 0c-2.68,0 -4.88,2.2 -4.88,4.88l0 280.58c0,12.94 -0.48,26.09 0,39.01l0 0.48c0.49,5.86 10.48,5.86 10.48,-0.48z"/>
   <path class="fil1" d="M1939.44 652.14l0 43.39c0,6.33 9.99,6.33 9.99,0l0 -43.39c0,-6.33 -9.99,-6.33 -9.99,0z"/>
   <path class="fil0" d="M2172 184.58c-3.41,9.99 -24.87,31.46 -56.08,18.04 -88.98,62.66 -145.04,9.99 -145.04,9.99l-38.03 -66.06 250.61 -4.88 -11.46 42.91z"/>
   <path class="fil0" d="M1970.89 212.62c0,0 56.07,52.9 145.05,-9.99 31.43,13.16 52.9,-8.3 56.05,-18.04l-201.11 28.03z"/>
   <path class="fil1" d="M1967.23 216.03c7.8,6.83 16.81,11.94 26.32,15.37 22.19,8.53 46.82,8.53 69.49,2.43 19.74,-5.86 38.51,-14.87 55.08,-27.05l-3.88 0.48c13.64,5.86 29,5.61 42.41,-0.98 8.29,-4.38 16.57,-11.69 19.74,-20.72 2.18,-6.09 -7.56,-8.53 -9.5,-2.68 -0.5,1.22 0.25,-0.25 -0.25,0.49 -0.25,0.48 -0.48,1.21 -0.98,1.7 -0.48,0.98 -1.22,1.95 -1.95,2.93 -1.95,2.43 -4.38,4.63 -7.06,6.58 -6.83,4.88 -14.88,7.31 -23.17,7.06 -5.36,-0.48 -10.73,-1.71 -15.84,-3.65 -3.65,-1.22 -5.86,0.72 -8.79,2.92 -2.92,1.95 -5.85,3.9 -8.78,5.61 -9.73,6.1 -20.22,10.96 -30.95,14.87 -16.34,5.85 -33.63,8.05 -50.7,6.1 -11.21,-1.48 -21.94,-4.63 -31.93,-10.01 -3.65,-1.93 -7.08,-4.13 -10.26,-6.33 -0.23,-0.25 -0.48,-0.48 -0.72,-0.48 0.25,0.23 0.97,0.73 0,0 -0.23,-0.25 -0.73,-0.49 -0.98,-0.98 -0.23,-0.25 -0.73,-0.49 -0.98,-0.72 -3.9,-4.15 -10.96,2.68 -6.33,7.06z"/>
  </g>
 </g>
</svg>
