<?xml version="1.0" encoding="UTF-8"?>
<!DOCTYPE svg PUBLIC "-//W3C//DTD SVG 1.1//EN" "http://www.w3.org/Graphics/SVG/1.1/DTD/svg11.dtd">
<!-- Creator: CorelDRAW 2021 (64-Bit) -->
<svg xmlns="http://www.w3.org/2000/svg" xml:space="preserve" width="63.5292mm" height="62.9419mm" version="1.1" style="shape-rendering:geometricPrecision; text-rendering:geometricPrecision; image-rendering:optimizeQuality; fill-rule:evenodd; clip-rule:evenodd"
viewBox="0 0 9368.04 9281.44"
 xmlns:xlink="http://www.w3.org/1999/xlink"
 xmlns:xodm="http://www.corel.com/coreldraw/odm/2003">
 <defs>
  <style type="text/css">
   <![CDATA[
    .fil16 {fill:none;fill-rule:nonzero}
    .fil22 {fill:#224550;fill-rule:nonzero}
    .fil21 {fill:#234650;fill-rule:nonzero}
    .fil24 {fill:#244751;fill-rule:nonzero}
    .fil25 {fill:#254752;fill-rule:nonzero}
    .fil0 {fill:#264952;fill-rule:nonzero}
    .fil27 {fill:#2A4B55;fill-rule:nonzero}
    .fil26 {fill:#3C5862;fill-rule:nonzero}
    .fil10 {fill:#45B074;fill-rule:nonzero}
    .fil5 {fill:#46B174;fill-rule:nonzero}
    .fil20 {fill:#46B175;fill-rule:nonzero}
    .fil23 {fill:#47B275;fill-rule:nonzero}
    .fil18 {fill:#5A7178;fill-rule:nonzero}
    .fil17 {fill:#83AF54;fill-rule:nonzero}
    .fil15 {fill:#87989C;fill-rule:nonzero}
    .fil9 {fill:#8E8E8E;fill-rule:nonzero}
    .fil6 {fill:#9DCA56;fill-rule:nonzero}
    .fil4 {fill:#9ECB56;fill-rule:nonzero}
    .fil13 {fill:#AFBEC3;fill-rule:nonzero}
    .fil7 {fill:#B7B3B4;fill-rule:nonzero}
    .fil14 {fill:#C9D3D5;fill-rule:nonzero}
    .fil1 {fill:#D3DDDD;fill-rule:nonzero}
    .fil8 {fill:#DBD9DA;fill-rule:nonzero}
    .fil19 {fill:#E2E7E8;fill-rule:nonzero}
    .fil12 {fill:#F0F3F5;fill-rule:nonzero}
    .fil11 {fill:#FDFDFD;fill-rule:nonzero}
    .fil3 {fill:#FEFEFE;fill-rule:nonzero}
    .fil2 {fill:white;fill-rule:nonzero}
   ]]>
  </style>
 </defs>
 <g id="Layer_x0020_1">
  <metadata id="CorelCorpID_0Corel-Layer"/>
  <g id="_1841305222000">
   <path class="fil0" d="M7676.33 744.37c-1.25,-1.46 -2.7,-3.95 -3.95,-3.95 -1.5,0 -2.96,2.24 -4.47,3.69 1.24,1.52 2.76,3.95 3.95,3.95 1.5,0 2.96,-2.18 4.47,-3.69zm-4328.95 2492.69c-1.25,-1.52 -2.51,-2.98 -3.75,-4.22 -1.46,1.24 -2.71,2.45 -4.17,3.69 1.98,1.52 3.7,2.96 5.68,4.48l2.24 -3.95zm132.49 70.94c3.95,-1.77 7.64,-3.48 11.61,-5.19 -1.73,-38.34 7.9,-82.36 -7.65,-113.72 -31.16,-62.58 -88.02,-106.33 -141.65,-157 -16.6,79.13 -7.18,141.18 56.33,186.39 10.93,7.7 17.08,21.54 26.22,31.69 18.06,19.49 36.84,38.55 55.15,57.83zm-403.22 -203.7c3.7,-1.25 7.39,-2.51 11.4,-3.75 0,-49.16 1.45,-98.12 -0.53,-147.33 -1.71,-48.43 8.17,-97.65 -6.65,-144.61 -75.43,-10.62 -229.94,-7.9 -272.7,5.46 90.26,97.65 179.47,193.78 268.48,290.23zm1324.09 1302.08c99.36,107.06 190.34,205.16 287.98,310.71l0 -310.71 -287.98 0zm-602.46 2.45c105.04,101.64 186.14,209.64 292.41,303.33l0 -303.33 -292.41 0zm-1569.57 -1601.67c28.67,54.37 406.45,459.81 456.6,488.73 0,-27.93 -0.99,-52.89 0.25,-77.87 1.25,-25.48 -7.43,-44.52 -24.97,-63.3 -90,-96.13 -181.72,-191.33 -267.23,-291.47 -43.28,-50.67 -91.25,-70.44 -154.51,-59.56 -1.98,0.25 -3.75,1.24 -10.15,3.48zm819.28 345.84c-3.69,-9.63 -4.22,-16.07 -7.7,-19.77 -93.17,-101.85 -187.11,-203.19 -280.34,-305.3 -17.53,-19.3 -37.56,-25.7 -63,-25.5 -81.1,0.99 -161.94,0 -243.04,0.52 -14.82,0 -29.65,1.46 -45,2.45 1.73,8.17 1.25,12.84 3.23,15.09 96.19,104.56 191.6,209.91 289.49,312.75 13.11,13.83 37.31,23.25 56.61,23.73 86.77,2.49 173.8,1.24 260.83,0.72 8.89,0 17.78,-2.96 28.92,-4.94l0 0.27zm29.39 1819.99c3.97,-1.71 7.65,-3.21 11.66,-4.94 0,-39.33 -2.51,-78.6 0.72,-117.66 3.44,-42.56 -10.66,-73.67 -40.05,-105.1 -189.35,-201.73 -376.75,-405.65 -564.89,-608.64 -10.15,-10.87 -21.28,-20.5 -31.63,-30.89 -3.7,1.5 -7.65,2.7 -11.4,4.22 0,40.52 1.98,81.09 -0.47,121.63 -2.49,38.34 10.15,66.74 36.57,94.67 136.71,145.35 271.71,292.72 407.43,439.31 64.04,69.19 128.28,138.17 192.58,207.4l-0.53 0zm552.52 -1571.8c-2.45,3.95 -4.94,7.64 -7.12,11.65 151.53,165.63 303.06,331.27 461.79,497.89 15.09,-67.26 13.11,-464.03 -0.99,-509.53l-453.41 0 -0.27 0zm-293.2 -594.3c0,46.46 -1.45,87.5 0.78,128.54 0.74,12.39 8.91,25.97 17.53,35.58 43.28,48.75 89.01,95.2 131.51,144.42 26.96,31.36 59.82,43.49 99.15,43.01 215.06,-2.76 430.17,-5.72 644.96,-8.95 4.2,0 8.17,-6.13 14.61,-11.34 -94.94,-103.1 -188.63,-204.23 -281.33,-306.29 -20.56,-22.74 -43.75,-29.45 -73.45,-29.18 -167.82,0.99 -335.69,0.52 -503.56,0.72 -13.58,0 -27.21,1.98 -50.46,3.75l0.25 -0.27zm-251.88 594.81c-24.51,-1.25 -43.75,-2.96 -63.05,-2.96 -88.74,-0.27 -177.75,-1.98 -266.51,0.72 -39.33,1.25 -66.99,-11.13 -92.69,-40.05 -59.1,-66.28 -120.37,-130.27 -181.45,-194.82 -8.42,-8.89 -20.03,-14.55 -36.1,-26.16 0,158.45 -0.74,308.27 0.99,458.31 0,17.58 9.88,38.59 21.74,51.66 93.96,103.83 189.37,206.21 284.3,309.05 93.68,101.33 187.17,202.94 281.12,304.06 14.04,15.35 29.9,28.93 51.66,49.68l0 -909.74 0 0.27zm5583.07 -648.44c-19.51,-23.98 -29.65,-38.34 -41.51,-50.92 -129.32,-138.7 -259.12,-276.92 -388.38,-415.87 -55.15,-59.29 -112.47,-116.88 -163.4,-179.67 -34.12,-42.04 -69.7,-66.02 -125.58,-61.34 -45.26,3.95 -90.98,0.53 -136.5,0.99 -15.04,0 -30.13,3.23 -44.22,4.69 -12.84,80.63 -8.69,659.56 4.94,701.87l894.66 0 0 0.25zm-4616.94 49.94c-11.91,35.85 1.19,57.32 21.74,79.07 76.12,80.38 149.04,163.65 226.45,242.53 31.88,32.62 42.5,66.53 42.03,110.74 -1.98,152.06 0,304.33 -1.5,456.38 -0.27,34.14 9.41,59.31 32.88,84.07 92.49,97.38 182.95,196.74 274.14,295.17 11.38,12.33 23.51,24.24 42.03,43.49l0 -1311.44 -638.03 0 0.27 0zm307.03 1024.91c-5.21,2.24 -10.15,4.22 -15.35,6.46 0,39.06 1.5,78.33 -0.52,117.41 -1.93,40.32 -11.34,49.68 -49.16,50.46 -53.42,1.19 -106.81,-0.78 -160.17,0.72 -27.47,0.74 -43.8,-14.1 -60.09,-31.88 -81.35,-89.01 -162.66,-177.76 -244.28,-266.25 -68.2,-74.17 -137.9,-146.84 -204.65,-222.22 -17.84,-20.29 -35.89,-27.74 -61.34,-27.47 -61.27,0.99 -122.61,0 -183.94,0.72 -12.84,0 -25.7,4.75 -37.56,6.93 -11.38,92.69 -7.18,647.23 4.69,688.49 72.67,11.13 1258.59,7.9 1306.81,-5.93 -99.87,-107.53 -197.32,-212.36 -294.7,-317.44l0.27 0zm-3667.68 -1114.18c1.46,-28.19 2.96,-43.28 2.96,-58.31 0,-608.91 0,-1217.82 0.74,-1826.98 0,-34.08 -9.89,-59.04 -33.13,-84.01 -194.04,-208.2 -387.14,-417.58 -580.45,-626.44 -7.18,-7.7 -15.56,-14.36 -30.64,-28.19 -1.52,21.48 -2.96,32.62 -2.96,43.49 0,614.84 0,1229.67 -0.78,1844.72 0,30.44 9.88,52.17 30.17,73.18 46.72,48.23 91.71,98.16 137.43,147.59 155.75,168.13 311.51,336.46 476.67,514.95zm2319.61 2261.76c-10.15,-14.1 -16.81,-25.7 -25.5,-35.32 -60.03,-65.55 -120.84,-130.33 -181.18,-195.55 -128.81,-139.22 -257.86,-278.15 -385.89,-418.05 -54.88,-60.08 -66.27,-63.57 -141.65,-25.48 -250.43,126.57 -500.64,253.4 -751.07,379.7 -414.56,208.92 -829.38,417.58 -1243.98,626.22 -19.24,9.63 -39.27,19.05 -57.11,31.17 -33.87,23.2 -37.82,46.72 -14.32,79.85 11.34,16.07 25.23,30.38 38.55,44.99 144.88,156.69 289.51,313.43 434.64,469.96 51.92,55.83 104.56,110.96 150.54,159.66 42.76,-27.68 78.35,-55.36 117.67,-75.38 669.93,-338.7 1340.37,-676.37 2010.81,-1014.29 15.35,-7.71 30.17,-16.85 48.75,-27.21l-0.27 -0.27zm3683.49 -219.01l0 -1950.52 -1949.8 0c-11.86,104.56 -7.18,1909.21 4.73,1950.52l1945.31 0 -0.25 0zm53.16 -0.52c117.94,12.84 1907.24,7.18 1949.01,-5.21 10.66,-79.33 6.92,-1899.33 -4.69,-1943.6l-1944.32 0 0 1948.81zm1951.26 2523.83l-1946.83 0c-12.33,64.76 -10.35,1906 1.98,1950.78l1945.11 0 0 -1950.78 -0.25 0zm-8621.1 -7235.97c18.05,20.48 25.44,29.64 33.34,38.07 193.32,209.13 387.14,417.52 579.46,627.68 27.94,30.38 56.14,41.51 97.18,41.26 441.04,-1.46 881.81,-0.99 1322.84,-0.99l5481.02 0c24.71,0 49.68,-0.74 89.73,-1.46 -24.24,-27.94 -37.56,-44.27 -51.91,-59.82 -182.44,-197.52 -366.39,-393.85 -546.84,-593.09 -35.38,-38.81 -71.43,-52.64 -122.61,-52.64 -2269.93,0.99 -4539.86,0.99 -6809.78,0.99l-72.21 0 -0.21 0zm6617.92 7234.47l-5801.61 0 0 1951.51 5801.61 0 0 -1951.51zm-3552.48 -2470.42c-12.59,76.43 -8.91,2378.45 2.96,2417.05l6173.46 0 0 -2417.05 -6176.42 0zm4570.49 -3997.43c-3.19,-3.75 -6.4,-7.7 -9.36,-11.38 -25.7,-0.99 -51.2,-2.71 -76.9,-2.71l-6804.56 0c-13.85,0 -27.68,-0.72 -41.52,0 -12.9,0.99 -25.75,3.7 -37.09,5.41l0 1949.53 6971.66 0 0 -72.4 0 -1803.46c0,-21.75 -1.19,-43.5 -1.98,-64.99l-0.25 0zm-6871.07 8353.34c0.52,-7.9 1.5,-15.81 1.5,-23.46 0,-612.33 0,-1224.45 0.99,-1836.8 0,-32.88 -12.12,-54.88 -33.39,-77.61 -138.69,-148.83 -276.13,-298.65 -414.82,-447.75 -63.05,-67.73 -127.55,-133.95 -191.33,-200.96 -2.24,-2.96 -4.22,-5.93 -6.46,-8.89 -0.72,3.44 -1.71,6.67 -2.43,10.15 -0.78,23.73 -2.24,47.19 -2.24,70.9 0,580.96 1.19,1161.68 -1.77,1742.64 -0.47,74.66 20.29,128.29 71.74,181.97 189.83,198.26 375.02,400.99 562.13,602.2 5.46,2.7 10.87,5.41 16.34,7.9l0 -20.29 -0.27 0zm1034.6 -1937.66c2.7,-0.74 5.66,-1.46 8.42,-2.18 -2.76,-1.77 -5.21,-3.23 -7.9,-4.95 -4.22,-6.44 -7.45,-13.89 -12.39,-19.55 -198.51,-214.58 -397.75,-428.65 -595.06,-644.23 -24.71,-26.94 -50.93,-31.9 -83.8,-31.9 -298.34,0.74 -596.52,0.47 -894.92,0.99 -16.55,0 -33.34,2.45 -59.56,4.42 14.36,17.33 22.53,27.74 31.42,37.35 195.75,211.89 392.08,422.99 586.85,635.6 21.53,23.46 44.27,27.93 72.93,27.93 302.34,-0.52 604.43,-0.27 906.76,-0.52 15.87,0 31.42,-1.98 47.25,-2.96zm1211.61 -2014.29c-2.24,-2.45 -4.69,-4.95 -6.92,-7.39 -1.52,3.21 -3.23,6.4 -4.69,9.61 -9.16,19.77 -17.84,39.53 -27.46,58.84 -194.82,386.15 -389.63,772.04 -584.67,1158.2 -27.93,55.4 -27.93,55.65 10.62,97.18 193.35,208.86 386.67,417.77 580.23,626.69 8.17,8.89 18.79,15.56 34.34,28.14l0 -73.66 0 -1791.07c0,-35.58 -0.99,-71.16 -1.46,-106.81l0 0.27zm1204.9 -829.89l2.96 -11.86c20.56,-4.22 41.32,-11.4 61.8,-11.87 92.97,-1.24 185.67,-0.25 278.63,-0.78 17.06,0 34.12,-2.43 51.2,-3.69l0 -150.29 -74.19 0 -1250.89 0c-71.95,0 -72.21,-0.52 -72.46,-72.67l0 -29.65 0 -1227.22c0,-22.72 -1.46,-45.46 -2.18,-66.74l-149.1 0c-8.64,131.56 3.7,259.32 -7.65,393.59l-397.54 0c0,31.38 -0.25,54.88 0,78.35 0.27,22.99 1.5,45.99 2.24,69.97 135.72,11.86 266.24,-8.64 399.99,15.81l0 68.51 0 711.5c0,67.21 1.5,134.22 2.24,201.48 2.96,2.96 6.18,6.19 9.16,9.16 23.71,0.72 47.17,2.18 70.9,2.18l840.08 0 74.39 0c3.21,29.7 7.64,52.44 7.9,75.43 0.72,90.73 0,181.45 0.47,272.18 0,16.8 3.01,33.61 4.73,50.67l140.15 0 4.94 -0.74 -0.21 -4.94c0.72,-122.86 1.45,-245.48 2.43,-368.36zm-243.5 367.37c-92.96,-102.12 -186.66,-203.45 -277.84,-307.03 -26.22,-29.7 -53.9,-39.33 -92.24,-38.86 -173.8,1.77 -347.59,-0.21 -521.35,1.5 -38.81,0.47 -65.75,-10.4 -91.97,-39.78 -85.32,-95.94 -173.07,-189.62 -261.3,-282.84 -12.39,-13.11 -31.42,-27.93 -47.97,-28.4 -90,-2.71 -179.99,-1.25 -279.87,-1.25 13.83,18.52 20.81,29.45 29.43,38.81 194.31,210.37 388.87,420.75 583.16,630.91 18.57,20.03 35.11,38.28 68.51,38.07 296.14,-1.98 592.57,-1.98 888.71,-2.49 3.23,-0.47 6.67,-0.99 9.89,-1.46 -2.51,-2.24 -4.94,-4.73 -7.39,-6.92l0.21 -0.27zm-1006.14 2464.49c-8.69,-10.68 -16.8,-21.75 -26.22,-31.9 -191.6,-207.4 -383.44,-414.6 -575.3,-621.75 -7.64,-8.17 -16.8,-14.82 -28.92,-25.23 -28.67,55.87 -55.87,108.31 -82.3,160.95 -84.54,169.33 -169.12,338.66 -253.4,508.03 -14.35,15.56 -14.1,18.52 2.24,23.46 183.68,0.74 367.37,1.73 551,1.73 136.24,0 272.43,-1.19 408.94,-1.73 3.17,-0.46 6.67,-0.72 9.88,-1.24 -1.98,-3.95 -3.95,-8.13 -6.19,-12.08l0.27 -0.25zm1088.74 -3849.13c0.47,3.44 2.18,6.67 4.67,8.91 1.25,23.46 3.7,47.17 3.7,70.69 0.27,148.05 0,296.14 0.27,444.25 0,20.76 2.23,41.51 3.21,62.79l151.55 0c-4.22,-249.96 6.4,-495.7 -7.92,-747.33 -251.41,-10.87 -497.15,-3.23 -745.13,-5.21l0 154.04 69.5 0c144.1,0 288.24,-0.78 432.34,0.47 29.18,0 58.11,7.43 87.3,11.38l0.52 0zm4634.27 826.19c-3.95,-3.01 -7.7,-6.18 -11.65,-9.14 -1.46,7.64 -3.17,15.29 -4.69,22.99l0 551.52 530.3 0c1.46,-1.24 2.98,-2.23 4.69,-3.48 -1.5,0 -3.23,0 -4.69,-0.21 -3.48,-6.71 -5.72,-14.61 -10.66,-19.82 -167.6,-180.67 -335.43,-361.19 -503.3,-541.86zm-6952.15 2875.82c2.96,4.73 5.66,9.67 8.63,14.36 -1.24,-6.19 -2.49,-12.12 -3.69,-18.31 -0.78,-5.93 0,-12.12 -2.24,-17.53 -68.24,-166.16 -136.96,-331.79 -204.44,-497.89 -11.65,-28.19 -32.41,-42.76 -59.1,-53.63 -125.83,-51.92 -251.15,-104.83 -376.98,-156.75 -9.16,-3.75 -20.04,-3.21 -44.02,-6.44 23.73,30.17 37.82,50.93 54.62,69.23 184.41,200.24 369.09,400.25 554.5,599.75 22.52,24.2 48.48,44.95 72.93,67.21l-0.21 0zm2528.46 -2643.95l0 332.77 318.69 0c-105.82,-114.5 -204.45,-221.04 -303.08,-327.83 -5.21,-1.73 -10.41,-3.23 -15.62,-4.94zm-852.88 -1017.06l43.03 0 0 -3.44c-13.11,-2.7 -25.95,-5.46 -39.06,-8.17 -43.03,-55.14 -91.72,-104.3 -140.68,-153.77 -3.69,1.98 -7.17,4.22 -10.87,6.19l0 158.98 147.58 0 0 0.21zm5260.5 3883.77c-0.72,23.73 -1.77,47.44 -1.77,71.22l0 1839.24c0,53.73 -27.31,80.57 -82.03,80.57 -1936.21,0 -3872.12,0.52 -5808.33,0.78l-2009.09 0c-80.38,-86.56 -162.21,-174.31 -243.77,-262.55 -67.01,-72.46 -133.23,-145.4 -200.24,-217.55 -71.21,-76.62 -142.64,-153.3 -214.32,-229.4 -29.7,-31.42 -44.53,-66.02 -44.53,-111.48 1.25,-638.81 0.78,-1277.64 0.78,-1916.45l0 -59.09c116.69,-11.61 230.61,-3.7 344.11,-5.15 114.71,-1.52 229.42,-0.27 344.13,-0.27l354.26 0c-23.52,-24.97 -40.32,-39.8 -53.42,-57.58 -18.27,-24.98 -40.79,-49.94 -48.44,-78.4 -7.7,-29.39 -22.27,-42.5 -47.5,-52.89 -26.42,-10.62 -50.67,-28.93 -77.87,-35.33 -58.31,-14.1 -99.09,-47.95 -137.43,-92.69 -66.74,-77.87 -139.94,-150.09 -209.85,-225.47 -145.87,-157.52 -291.74,-314.98 -436.87,-472.96 -58.84,-63.98 -45.73,-138.17 31.41,-177.23 112.47,-56.86 226.19,-111.75 338.92,-168.61 441.56,-222.24 883.05,-444.99 1324.34,-667.73 122.35,-61.8 245.23,-122.1 365.86,-186.86 47.7,-25.75 94.21,-43.03 155.75,-27.74l0 -228.15 332.26 0c-61.33,-67.21 -113.72,-125.06 -166.36,-182.44 -47.95,-52.19 -95.66,-104.56 -144.88,-155.5 -20.5,-21.28 -19.04,-46.24 -19.04,-71.42l0 -456.91 0 -56.86c-35.58,-43.49 -64.76,-82.81 -97.9,-118.4 -48.44,-51.66 -97.9,-102.84 -151.01,-149.55 -14.88,-13.11 -43.28,-14.83 -65.75,-14.83 -379.75,-0.72 -759.45,-0.52 -1139.21,-0.52 -61.28,0 -122.61,-1.71 -183.9,0.52 -42.29,1.73 -70.96,-11.65 -100.41,-44.99 -103.1,-116.95 -211.09,-229.42 -317.16,-343.66 -71.22,-76.62 -142.9,-152.99 -214.07,-229.67 -33.13,-35.85 -65.03,-72.87 -99.42,-107.53 -17.78,-18.05 -27.93,-37.09 -27.21,-62.27 0.52,-13.83 0,-27.72 0,-41.55l0 -1892.67 0 -73.16c20.29,-2.49 35.38,-5.46 50.46,-5.93 23.73,-0.99 47.44,-0.25 71.22,-0.25l6816.64 0c79.64,0 145.4,28.55 197.32,85.78 55.14,61.28 108.04,124.32 163.92,184.68 139.41,150.28 279.3,299.58 420.22,448.68 26.75,28.19 41.78,56.86 41.57,97.38 -1.25,371.84 -0.78,743.63 -0.78,1115.42l0 71.95c62.79,0 121.63,-0.72 180.52,0 117.87,1.77 78.8,-16.8 161.88,69.7 121.42,126.36 240.08,255.17 359.2,383.71 87.03,93.7 171.57,189.35 260.06,281.8 24.02,24.98 25.75,50.93 25.75,80.84 0,407.43 0.47,814.87 -1.25,1222.28 0,45.21 13.58,76.84 44.47,109.24 166.16,174.53 329.82,351.31 493.95,527.29 7.7,8.17 10.15,22.53 19.04,28.46 64.04,42.03 64.04,104.81 63.78,172.03 -1.19,771.37 -0.72,1542.63 -0.72,2313.73 0,55.03 -26.79,82.61 -80.32,82.81l-468.76 0c-19.77,0 -39.28,1.73 -59.04,2.45 -3.23,3.7 -6.19,7.45 -9.42,11.13l0.27 0z"/>
   <path class="fil1" d="M8749.99 7289.62c3.21,-3.7 6.18,-7.45 9.36,-11.13 -3.19,3.69 -6.15,7.43 -9.36,11.13z"/>
   <path class="fil2" d="M7320.1 6861.19c-76.64,-170.57 -337.94,-344.11 -615.04,-330.28 -240.6,11.87 -482.61,174.53 -545.65,330.28l1160.69 0zm112.26 -1125.83c-0.27,-385.37 -307.09,-691.19 -694.23,-691.93 -382.66,-0.72 -695.88,311.51 -693.64,694.17 2.18,371.79 291.94,693.17 695.88,692.71 419.02,-0.53 697.65,-344.13 692.19,-694.95l-0.21 0zm492.95 465.02c13.32,13.83 28.14,26.48 39.53,41.78 133.22,179.25 268.73,356.5 396.76,539.19 44.53,63.53 91.25,94.42 168.86,84.54 49.68,-6.4 100.88,-1.19 152.06,-1.19l0 -1322.37c-112,0 -220.78,-0.53 -334.23,0.46l0 79.13c-0.78,189.62 -1.25,379.24 -1.98,568.84 -4.94,-1.24 -9.67,-2.7 -14.61,-3.95 -49.94,-66.02 -99.89,-132.02 -150.03,-198.04 -103.84,-136.71 -207.46,-273.38 -311.24,-410.13 -14.1,-18.79 -25.95,-37.82 -55.4,-36.84 -72.93,2.76 -145.87,2.24 -218.8,3.23 -3.17,4.22 -6.19,8.64 -9.36,12.84 -0.52,132.55 -1.25,264.79 -1.25,397.29 0,298.39 0.74,596.79 1.25,895.44 3.17,3.95 6.4,8.17 9.63,12.12 53.16,0.72 106.27,1.98 159.43,2.18 54.41,0 108.58,-0.74 164.45,-1.19l0 -161.22c0.72,-167.35 1.45,-334.71 2.18,-502.1l2.49 0 0.27 0zm-2371.78 223.27c1.46,145.6 2.96,291.22 4.42,437.54l328.29 0 0 -1318.62c-111.73,0 -219.52,-1.24 -330.02,0.74 0,94.94 0.27,181.7 0,268.22 -0.25,88.02 1.73,176.04 -1.24,263.79l-409.62 0 0 -530.03 -331.54 0 0 1315.91 333.51 0 0 -446.7 396.76 0c3.23,3.17 6.67,6.19 9.89,9.36l-0.47 -0.21zm-1484.31 -569.36c0.72,21.74 2.23,43.28 2.23,65.02l0 877.86 0 64.03 335.96 0 0 -1019.76 307.07 0 0 -295.42 -1060.55 0c34.34,101.6 67.21,198.25 101.35,299.37l304.58 0c2.96,2.96 6.18,6.19 9.1,9.16l0.27 -0.25zm-927.07 -1046.19l6176.42 0 0 2416.98 -6173.46 0c-11.59,-38.55 -15.29,-2340.62 -2.96,-2416.98z"/>
   <path class="fil3" d="M1953.56 1936.44l905.07 0c12.12,-72.93 9.36,-285.03 -3.95,-325.81l-901.12 0 0 325.81zm0.53 492.68c66.22,12.39 864.22,9.89 907.75,-2.23l0 -316.66c-67.98,-12.64 -864,-10.15 -907.75,2.45l0 316.44zm-1.05 -983.65l911.25 0c1.73,-111.23 1.25,-218.8 0.74,-324.83 -101.33,-16.07 -867.19,-14.36 -911.98,0.99l0 323.84zm-822.18 1024.44c201.68,-7.64 368.83,-77.36 502.04,-220.25 161.47,-173.07 213.35,-379.24 174.33,-610.37 -56.65,-334.96 -385.17,-575.04 -675.65,-550.79l0 324.35c12.84,1.45 22.47,2.23 32.15,3.44 179.47,21.26 315.92,164.37 322.85,338.19 7.17,186.64 -111.75,337.71 -294.45,374.28 -20.5,4.22 -40.77,10.15 -61.06,15.09l0 326.06 -0.21 0zm2151.21 -511.47c-95.41,42.03 -186.86,82.09 -281.55,123.87 16.03,34.33 27.43,63.78 42.76,91.19 118.93,212.4 345.37,298.9 554.5,281.84 102.12,-8.42 196.54,-39.33 280.81,-100.35 191.12,-138.48 208.91,-452.67 15.13,-595.78 -45.51,-33.67 -97.16,-61.34 -149.82,-82.09 -82.61,-32.41 -168.39,-55.87 -252.39,-84.79 -27.74,-9.63 -56.65,-20.04 -80.12,-37.1 -62.54,-45.98 -47.7,-88.27 -0.74,-129.26 12.86,-11.13 30.64,-18.05 47.19,-23 91.97,-27.46 197.52,11.61 255.37,94.17 12.39,17.58 22.78,36.61 36.1,58.62 92.71,-40.32 184.21,-80.1 277.64,-120.68 -7.65,-19.51 -12.12,-34.86 -19.04,-48.43 -11.61,-22.74 -23.25,-45.99 -38.34,-66.74 -139.16,-192.85 -333.45,-247 -558.92,-217.56 -79.38,10.41 -151.53,41.78 -216.81,89.48 -190.14,139.2 -200.24,452.9 -22.47,590.39 49.15,38.03 105.02,70.69 162.62,94.67 81.83,34.08 167.87,57.6 251.94,86.26 22.47,7.7 44.47,16.32 66,25.95 36.57,16.07 41.26,46.72 40.79,83.08 -0.52,36.3 -19.76,54.88 -48.69,66 -19.76,7.65 -41.57,13.11 -63.05,14.57 -111.01,7.9 -193.82,-42.23 -257.86,-129.06 -13.83,-18.79 -25.44,-39.53 -41.78,-64.97l0.74 -0.27zm2075.15 14.36c2.96,2.96 5.94,5.93 8.91,8.89 89.73,1.19 179.46,2.45 272.43,3.95 -91.25,151.53 -316.7,193.06 -474.9,93.9 -166.63,-104.56 -224.73,-336.68 -105.35,-507.78 58.36,-83.8 137.95,-135.93 237.84,-152.27 130.25,-21.28 240.54,23.52 328.31,112.73 79.58,-79.13 156.22,-155.5 233.11,-232.12 -192.58,-226.71 -581.19,-304.11 -883.05,-106.33 -298.14,195.34 -399.74,588.62 -233.37,905.05 163.65,311.51 537.68,450.46 867.97,322.38 307.81,-119.38 505.07,-474.9 423.51,-771.57 -65.3,0 -132.3,-0.21 -199.04,0 -155.95,0.78 -311.97,1.77 -468.19,2.76 -3.01,4.16 -6.19,8.38 -9.16,12.84 0.21,102.59 0.74,204.91 0.99,307.56zm1594.49 -214.13c-3.17,-1.24 -6.13,-0.72 -8.63,1.73 -41.51,-52.39 -84.07,-104.05 -124.59,-157.21 -115.18,-150.81 -230.14,-301.62 -343.39,-453.62 -21.23,-28.46 -43.75,-40.32 -78.86,-38.61 -51.14,2.49 -102.85,0.27 -154.24,0.99 -16.81,0 -33.61,2.76 -49.68,3.95l0 1315.92 333.72 0 0 -330.28 0 -166.1c0.25,-53.63 0.99,-107.06 1.75,-160.7 24.71,17.53 39.02,36.11 52.86,54.88 139.93,188.9 279.6,378.25 420.28,566.62 11.86,16.07 30.42,37.35 46.97,38.07 78.14,3.95 156.74,1.73 236.6,1.73l0 -1321.13 -330.75 0 0 68.51c-0.78,191.6 -1.25,383.4 -2.03,574.99l0 0.25zm-2452.36 675.65c3.75,-3.48 7.18,-6.65 10.93,-10.15 0.72,-9.88 2.43,-19.51 2.43,-29.39l0 -1245.21c0,-11.13 -2.23,-22.53 -3.69,-34.39l-326.58 0 0 1318.87 316.91 0 0 0.27zm3213.33 -1623.72c0.72,21.74 1.98,43.53 1.98,65.02l0 1803.46 0 72.42 -6971.46 0 0 -1949.53c11.38,-1.71 24.24,-4.47 37.09,-5.46 13.83,-0.99 27.68,0 41.51,0l6804.58 0c25.75,0 51.18,1.77 76.89,2.76 3.23,3.69 6.46,7.64 9.42,11.34z"/>
   <path class="fil3" d="M6005.41 7585.29l-864.28 0 0 297.13 438.33 0c-99.4,108.52 -189.35,206.95 -280.59,306.56 30.89,63.53 59.82,123.14 89.26,183.69 18.79,-7.9 31.63,-12.39 43.75,-18.31 47.97,-22.72 98.89,-26.94 150.56,-21.48 77.34,8.17 124.32,55.09 130.05,128.81 6.13,84.01 -30.95,140.4 -106.58,162.41 -93.43,26.94 -179.74,-10.41 -223.96,-97.65 -10.4,-20.76 -19.04,-42.29 -30.42,-68.24 -100.88,34.12 -198.72,66.99 -297.15,100.35 15.81,95.72 51.92,173.8 116.69,235.6 152.78,146.13 335.22,186.66 535.44,130.31 187.17,-52.64 305.83,-178.01 340.69,-371.32 37.35,-207.15 -50.67,-386.15 -226.97,-461.33 -7.12,-2.96 -13.58,-7.64 -24.18,-13.57 13.57,-16.07 25.69,-31.42 38.55,-45.99 48.22,-55.14 97.43,-109.24 144.35,-165.17 11.87,-14.04 24.51,-33.34 24.98,-50.67 2.76,-74.91 1.24,-149.82 1.24,-231.11l0.27 0zm-2729.99 -23.73c-382.93,-1.98 -695.16,306.04 -697.92,688.96 -2.7,382.19 305.83,696.19 688.02,699.63 384.9,3.48 698.9,-307.03 700.61,-692.71 1.46,-382.93 -307.07,-693.9 -690.47,-695.88l-0.25 0zm-1695.16 1362.62c7.92,0.99 15.56,2.71 23.46,2.71l870.99 0c9.1,0 18.52,-2.45 29.39,-4.22l0 -280.29c-3.44,-3.48 -6.65,-6.96 -10.15,-10.4 -19.76,-0.99 -39.27,-2.49 -59.04,-2.49 -108.77,-0.22 -217.34,0 -326.11,-0.74 -17.8,0 -39.53,8.17 -55.62,-18.26 30.91,-32.41 62.33,-64.29 92.71,-97.44 77.61,-84.05 157,-166.88 231.65,-253.65 76.64,-89.48 115.7,-196.27 115.7,-313.94 0,-119.65 -48.43,-218.54 -145.6,-290.75 -114.44,-85 -245.76,-106.02 -382.93,-89.21 -136.98,16.8 -251.21,80.57 -333.98,193.57 -41.3,56.12 -66.78,119.12 -72.71,191.85 99.61,32.1 196.31,63.53 293.45,94.89 13.11,-31.11 21.74,-57.33 34.64,-81.58 35.85,-67.46 107.01,-100.35 178.96,-84.52 60.81,13.36 89.73,52.38 86.77,115.17 -1.98,44.27 -24.45,79.39 -50.93,111.27 -45.46,54.62 -92.43,108.04 -141.65,159.45 -118.66,124.38 -239.03,247.2 -358.68,370.6 -16.32,16.8 -33.4,31.63 -32.41,59.82 2.76,72.93 2.51,146.07 3.49,219.01 2.7,2.96 5.66,5.93 8.38,8.89l0.25 0.25zm2931.73 -297.4c1.21,-2.96 0.74,-5.66 -0.99,-8.42 14.1,-16.29 27.16,-33.36 42.04,-48.9 73.66,-77.42 148.57,-153.31 221.23,-231.39 62.27,-66.8 116.17,-139.94 150.29,-225.72 60.34,-152.31 41.51,-366.65 -151.53,-481.81 -183.16,-109.56 -442.75,-89.27 -606.15,47.95 -83.6,69.93 -133.75,158.46 -148.83,271.92 98.12,32.15 195.03,63.78 293.92,96.19 11.86,-28.71 20.76,-54.68 33.13,-78.86 36.32,-70.49 109.77,-104.83 183.18,-87.56 63.57,15.1 96.65,65.3 82.61,128.35 -4.73,20.75 -12.65,42.03 -24.24,59.81 -21.75,32.88 -44.74,65.5 -71.68,93.96 -149.57,157.72 -300.64,314.19 -450.67,471.4 -13.11,13.85 -31.16,30.91 -31.88,47.25 -3.23,80.1 -1.5,160.42 -1.5,245.74l65.28 0c160.17,0 320.34,0.21 480.31,0 124.59,-0.27 248.97,-1.25 373.56,-1.98 4.42,-3.23 8.63,-6.46 13.11,-9.67l0 -286.01 -67.01 0c-128.07,-0.74 -256.15,-1.73 -384.18,-2.71l0 0.47zm2182.64 603.23l-5801.61 0 0 -1951.51 5801.61 0 0 1951.51z"/>
   <path class="fil2" d="M76.71 44l72.21 0c2269.92,0 4539.85,0 6809.72,-0.99 51.45,0 87.28,13.58 122.66,52.64 180.73,199.25 364.4,395.58 546.84,593.09 14.32,15.56 27.68,31.9 51.88,59.82 -40.01,0.74 -64.72,1.46 -89.69,1.46l-5481.02 0c-441.04,0 -881.8,-0.47 -1322.84,0.99 -41.04,0 -69.5,-10.87 -97.18,-41.24 -192.05,-210.18 -386.14,-418.57 -579.46,-627.68 -7.9,-8.43 -15.34,-17.59 -33.4,-38.09l0.27 0z"/>
   <path class="fil4" d="M7787.58 7987.75l0 0.99c-102.84,0 -205.94,-4.48 -308.27,0.99 -179.99,9.41 -298.14,206.15 -214.58,380.68 47.7,99.67 131.76,150.6 242.25,152.31 122.61,1.98 245.23,0.74 367.63,0.47 69.19,0 138.44,2.24 207.67,-0.99 168.08,-7.9 285.29,-162.41 250.64,-325.55 -23.46,-110.76 -133.75,-211.62 -254.59,-209.17 -96.91,1.98 -193.82,0.52 -290.48,0.52l-0.27 -0.25zm910.26 -707.8l0 1950.77 -1945.11 0c-12.33,-44.74 -14.3,-1885.96 -1.98,-1950.77l1946.83 0 0.25 0z"/>
   <path class="fil5" d="M8015.02 4064.95c42.03,-35.58 82.55,-66.74 119.18,-102.12 35.32,-33.87 83.55,-56.34 107.78,-109.25 -55.86,-15.34 -105.08,-6.92 -153.57,-8.42 -51.39,-1.46 -102.84,-1.71 -154.23,0 -47.7,1.77 -96.66,-7.9 -146.61,15.09 71.7,72.46 146.13,138.21 227.18,204.44l0.27 0.27zm4.22 6.65c-66.02,40.07 -206.95,165.44 -230.67,205.96 13.58,3.69 25.7,9.41 38.09,10.15 152.52,9.36 372.78,2.45 422.46,-17.59 -76.89,-70.96 -151.75,-134.47 -229.67,-198.51l-0.21 0zm-339.44 -399.72c2.7,-136.71 1.98,-265.78 0.99,-402.7 -150.09,0 -291.47,0 -433.12,0.47 -8.43,0 -16.81,7.18 -27.68,12.12 4.2,9.42 5.41,18.52 10.6,22.99 138.69,120.18 277.9,240.04 417.31,359.46 4.94,4.17 14.36,3.7 31.9,7.65zm-491.23 -301.1c-21.22,46.98 -22.21,337.2 -3.17,393.34 3.44,1.71 6.92,4.94 10.35,4.94 136.24,1.46 272.68,2.7 408.88,2.96 9.67,0 19.3,-8.69 29.45,-13.37 -25.97,-42.76 -249.96,-243.97 -410.65,-369.82 -10.15,-7.9 -23,-12.12 -34.86,-18.05zm824.94 -98.42c-161.16,9.67 -261.51,120.17 -253.38,266.28 7.43,134.22 129.06,241.01 265.25,233.11 139.2,-8.17 248.71,-117.67 239.55,-248.71 -80.57,-2.24 -162.15,-4.42 -251.42,-6.67l0 -243.77 0 -0.25zm-830.14 1012.11c121.15,0 240.35,10.15 357.02,-2.49 152,-16.29 232.85,-188.37 159.45,-320.34 -38.07,-68.51 -97.38,-111.02 -176.3,-113.72 -108.52,-3.75 -217.28,-1.25 -326.06,-0.99 -5.41,0 -10.6,3.95 -15.29,5.93 -13.37,50.15 -13.11,361.65 1.19,431.62zm-436.82 471.42l0 -1948.75 1944.34 0c11.65,44.21 15.34,1864.21 4.73,1943.59 -41.78,12.34 -1831.13,18.06 -1949.07,5.16z"/>
   <path class="fil3" d="M5520.37 3096.61c-148.83,440.3 -296.88,878.11 -446.7,1320.86l362.16 0c28.67,-82.81 57.58,-165.89 86.04,-247.94l401.71 0c28.92,83.82 57.11,165.64 84.79,245.96l362.43 0c-149.82,-442.75 -297.4,-879.57 -446.23,-1318.89l-404.2 0zm1173.27 1659.77l-1945.31 0c-11.86,-41.24 -16.59,-1845.89 -4.67,-1950.52l1949.74 0 0 1950.52 0.25 0z"/>
   <path class="fil6" d="M3009.92 4975.43c-18.52,10.41 -33.15,19.51 -48.69,27.21 -670.19,337.94 -1340.89,675.65 -2010.87,1014.31 -39.53,20.03 -74.91,47.7 -117.67,75.43 -45.98,-48.74 -98.62,-103.83 -150.54,-159.7 -145.09,-156.53 -289.97,-313.22 -434.58,-469.96 -13.37,-14.61 -27.21,-28.92 -38.61,-44.99 -23.46,-33.15 -19.51,-56.61 14.36,-79.86 17.8,-12.12 37.82,-21.53 57.13,-31.16 414.54,-208.91 829.36,-417.31 1243.96,-626.18 250.43,-126.36 500.86,-253.17 751.03,-379.74 75.43,-38.09 86.52,-34.59 141.65,25.48 128.07,139.88 257.08,278.83 385.89,418.04 60.34,65.24 121.15,130.27 181.24,195.55 8.89,9.63 15.56,21.23 25.44,35.33l0.27 0.25z"/>
   <path class="fil7" d="M690.54 2713.67c-165.11,-178.49 -320.86,-346.81 -476.61,-514.95 -45.73,-49.43 -90.73,-99.36 -137.49,-147.58 -20.5,-21.03 -30.38,-43.03 -30.13,-73.2 0.74,-614.78 0.74,-1229.61 0.74,-1844.72 0,-11.13 1.45,-22 2.96,-43.49 15.09,13.85 23.46,20.5 30.64,28.19 193.56,208.86 386.41,418.26 580.49,626.44 23.2,24.97 33.09,49.93 33.09,84.07 -0.74,608.85 -0.74,1217.74 -0.74,1826.92 0,15.03 -1.46,30.11 -2.96,58.31z"/>
   <path class="fil7" d="M838.14 9207.02c-165.17,-178.49 -320.87,-346.83 -476.62,-514.96 -45.77,-49.16 -90.72,-99.36 -137.49,-147.58 -20.5,-21.01 -30.38,-43.03 -30.11,-73.2 0.72,-614.78 0.72,-1229.61 0.72,-1844.7 0,-11.13 1.46,-22.02 2.96,-43.5 15.09,13.85 23.46,20.5 30.64,28.21 193.57,208.86 386.41,418.24 580.45,626.43 23.25,24.97 33.13,49.94 33.13,84.07 -0.72,608.85 -0.72,1217.76 -0.72,1826.92 0,15.03 -1.5,30.13 -2.96,58.32z"/>
   <path class="fil8" d="M1875.93 7226.08c-15.81,0.99 -31.41,2.96 -47.23,2.96 -302.34,0 -604.43,0 -906.78,0.53 -28.92,0 -51.39,-4.48 -72.93,-27.94 -194.81,-212.61 -391.08,-423.96 -586.89,-635.58 -8.89,-9.67 -16.8,-20.03 -31.36,-37.35 26.22,-1.98 42.76,-4.48 59.56,-4.48 298.39,-0.21 596.52,0 894.91,-0.93 32.88,0 59.1,4.9 83.82,31.88 197.52,215.53 396.55,429.64 595.06,644.23 5.21,5.41 8.38,12.86 12.39,19.51 -1.77,2.24 -2.03,4.73 -0.53,7.45l0 -0.27z"/>
   <path class="fil9" d="M3087.54 5212.03c0.52,35.58 1.5,71.21 1.5,106.79l0 1791.08 0 73.66c-15.35,-12.59 -25.95,-19.3 -34.39,-28.19 -193.57,-208.66 -386.88,-417.52 -580.24,-626.69 -38.55,-41.51 -38.55,-41.78 -10.6,-97.13 194.81,-386.14 389.84,-772.09 584.65,-1158.24 9.69,-19.24 18.31,-39.27 27.47,-58.82 3.69,-1.21 7.65,-1.99 11.61,-2.2l0 -0.25z"/>
   <path class="fil6" d="M3137.72 4346.53c-0.74,-67.26 -2.24,-134.22 -2.24,-201.48 -0.21,-237.06 0,-474.42 0,-711.5l0 -68.45c-133.75,-24.51 -264.01,-3.75 -399.99,-15.87 -0.74,-23.93 -1.73,-46.92 -2.24,-69.91 -0.21,-23.52 0,-47.25 0,-78.4l397.54 0c11.4,-134.2 -0.99,-262.02 7.65,-393.53l149.1 0c0.72,21.22 2.23,44 2.23,66.74l0 1227.17 0 29.65c0.21,72.2 0.47,72.67 72.42,72.67l1250.89 0 74.19 0 0 150.34c-17.08,1.21 -34.14,3.7 -51.2,3.7 -92.9,0.47 -185.65,-0.52 -278.57,0.72 -20.81,0.27 -41.3,7.65 -61.8,11.87l-3.02 11.86c-0.72,122.88 -1.45,245.49 -2.43,368.36 -1.99,1.5 -3.49,3.48 -4.69,5.68l-140.19 0c-1.73,-17.02 -4.69,-33.87 -4.69,-50.67 -0.52,-90.73 0,-181.45 -0.52,-272.18 0,-22.72 -4.69,-45.73 -7.9,-75.37l-74.39 0 -840.04 0c-23.77,0 -47.23,-1.52 -70.96,-2.24 -2.96,-2.96 -6.18,-6.19 -9.14,-9.16z"/>
   <path class="fil10" d="M4358.22 3827.87c97.38,104.83 194.81,209.64 294.7,317.44 -47.97,13.83 -1234.14,17.06 -1306.81,5.93 -11.87,-41.51 -15.82,-596.05 -4.69,-688.49 11.61,-2.24 24.51,-6.67 37.56,-6.92 61.33,-0.74 122.61,0 183.94,-0.74 25.44,-0.25 43.5,7.14 61.34,27.41 66.74,75.44 136.45,148.37 204.65,222.24 81.62,88.54 162.93,177.29 244.28,266.3 16.28,17.78 32.62,32.62 60.03,31.88 53.42,-1.5 106.81,0.21 160.23,-0.78 38.07,-0.72 47.23,-10.09 49.16,-50.4 2.02,-39.06 0.52,-78.39 0.52,-117.41 5.21,-2.24 10.15,-4.22 15.35,-6.46l-0.27 0z"/>
   <path class="fil7" d="M4050.93 2802.91l638.05 0 0 1311.5c-18.52,-19.3 -30.64,-31.16 -41.98,-43.55 -91.25,-98.37 -181.98,-197.77 -274.2,-295.16 -23.46,-24.71 -33.09,-50.21 -32.88,-84.07 1.5,-152 -0.72,-304.33 1.5,-456.33 0.47,-44.27 -10.13,-78.14 -42.03,-110.76 -77.4,-78.86 -150.34,-162.19 -226.44,-242.51 -20.76,-21.75 -33.61,-43.28 -21.75,-79.13l-0.27 0z"/>
   <path class="fil9" d="M4046.73 4757.9c-296.14,0.52 -592.57,0.52 -888.71,2.43 -33.4,0 -49.94,-18.26 -68.51,-38.02 -194.56,-210.18 -389.12,-420.54 -583.16,-630.91 -8.69,-9.42 -15.34,-20.29 -29.43,-38.81 99.87,0 189.87,-1.5 279.87,1.25 16.28,0.46 35.32,15.03 47.97,28.4 87.96,93.43 175.98,186.91 261.3,282.83 26.22,29.39 53.12,40.27 91.97,39.8 173.8,-1.71 347.55,0 521.35,-1.5 38.34,-0.47 66.02,9.16 92.24,38.8 91.19,103.64 185.14,204.97 277.84,307.09 -3.23,2.18 -4.22,4.94 -2.71,8.64z"/>
   <path class="fil10" d="M8667.9 2752.98l-894.64 0c-13.64,-42.29 -17.84,-621.24 -4.94,-701.87 14.1,-1.46 29.12,-4.42 44.21,-4.67 45.52,-0.74 91.25,2.7 136.5,-0.99 55.87,-4.69 91.45,19.29 125.58,61.33 50.93,62.79 108,120.64 163.4,179.72 129.26,138.69 259.06,277.12 388.38,415.81 11.87,12.59 22.02,26.94 41.51,50.93l0 -0.27z"/>
   <path class="fil10" d="M3085.06 3401.68l0 909.73c-21.75,-21.01 -37.56,-34.59 -51.66,-49.68 -93.95,-101.13 -187.38,-202.71 -281.07,-304.06 -94.94,-102.84 -190.61,-205.22 -284.35,-309 -12.06,-13.36 -21.74,-34.37 -21.74,-51.7 -1.73,-149.78 -0.99,-299.85 -0.99,-458.31 16.07,11.61 27.72,17.27 36.1,26.17 61.08,64.56 122.41,128.59 181.45,194.81 25.7,28.93 53.42,41.05 92.69,40.07 88.76,-2.71 177.76,-1 266.51,-0.74 19.3,0 38.61,1.73 63.05,2.96l0 -0.25z"/>
   <path class="fil8" d="M3039.09 7227.32c-136.24,0.74 -272.43,1.73 -408.88,1.73 -183.69,0 -367.38,-0.99 -551.06,-1.73 -0.74,-7.9 -1.46,-15.56 -2.24,-23.51 84.58,-169.33 168.86,-338.66 253.4,-507.99 26.48,-52.64 53.63,-105.08 82.34,-160.95 12.12,10.4 21.23,17.06 28.93,25.23 191.8,207.14 383.65,414.29 575.24,621.75 9.42,10.09 17.33,21.22 25.95,31.88 -1.24,4.42 -2.7,8.91 -3.95,13.33l0.27 0.25z"/>
   <path class="fil10" d="M3336.97 2806.63c23.25,-1.73 36.84,-3.7 50.4,-3.7 167.88,0 335.75,0.47 503.62,-0.78 29.65,0 52.64,6.46 73.41,29.18 92.69,102.12 186.64,203.24 281.33,306.3 -6.4,5.21 -10.35,11.4 -14.57,11.4 -215.1,3.21 -430.16,6.18 -645.01,8.89 -39.27,0.47 -72.15,-11.61 -99.09,-43.03 -42.56,-49.21 -88.28,-95.66 -131.56,-144.35 -8.64,-9.67 -17.02,-23.52 -17.53,-35.64 -2.24,-40.99 -0.72,-82.03 -0.72,-128.54l-0.27 0.27z"/>
   <path class="fil4" d="M4131.78 3364.84c-29.2,-3.95 -58.11,-11.13 -87.3,-11.4 -144.1,-1.19 -288.24,-0.46 -432.34,-0.46l-69.51 0 0 -154.04c247.98,1.98 493.74,-5.68 745.15,5.21 14.1,251.94 3.7,497.41 7.92,747.33l-151.55 0c-1.25,-21.03 -3.23,-41.78 -3.23,-62.79 -0.25,-148.11 0,-296.16 -0.25,-444.27 0,-23.46 -2.45,-47.17 -3.7,-70.69 -1.5,-2.96 -3.21,-5.93 -4.94,-8.89l-0.25 0z"/>
   <path class="fil11" d="M9280.01 4756.41l-530.3 0 0 -551.52c5.47,-4.75 10.93,-9.16 16.34,-13.85 167.87,180.46 335.69,361.17 503.36,541.9 4.94,5.41 7.12,13.05 10.6,19.77l0 3.69z"/>
   <path class="fil10" d="M3630.17 3400.94l453.41 0c14.05,45.26 16.03,442.01 0.99,509.49 -158.71,-166.63 -310.24,-332.26 -461.83,-497.89 2.49,-3.97 4.94,-7.65 7.18,-11.61l0.25 0z"/>
   <path class="fil7" d="M3077.65 4972.72c-64.31,-69.23 -128.54,-138.17 -192.58,-207.4 -135.72,-146.59 -270.46,-293.71 -407.37,-439.31 -26.48,-28.19 -39.08,-56.6 -36.63,-94.68 2.51,-40.26 0.53,-81.09 0.53,-121.63 3.69,-1.5 7.64,-2.7 11.34,-4.2 10.66,10.15 21.74,20.03 31.67,30.89 188.1,202.99 375.49,406.7 564.85,608.64 29.43,31.42 43.53,62.58 40.05,105.08 -3.17,39.08 -0.72,78.35 -0.72,117.67 -3.95,1.71 -7.65,3.23 -11.66,4.94l0.53 0z"/>
   <path class="fil6" d="M1813.88 7067.12c-24.45,-22.27 -50.4,-43.01 -72.93,-67.26 -185.14,-199.5 -370.07,-399.47 -554.48,-599.75 -16.81,-18.26 -30.91,-39.02 -54.62,-69.19 23.98,3.23 35.05,2.71 43.96,6.4 125.83,51.92 251.2,104.83 377.04,156.74 26.69,10.88 47.44,25.5 59.04,53.69 67.79,166.1 136.5,331.99 204.5,497.89 2.18,5.16 1.71,11.61 2.18,17.53 -1.46,1.52 -3.17,2.71 -4.94,3.95l0.25 0z"/>
   <path class="fil10" d="M3047.99 3152.98c-11.13,1.98 -20.04,4.94 -28.93,4.94 -87.03,0.47 -173.8,1.71 -260.83,-0.74 -19.24,-0.52 -43.49,-10.15 -56.6,-23.71 -97.91,-103.1 -193.32,-208.18 -289.49,-312.75 -2.24,-2.24 -1.73,-7.18 -3.23,-15.09 15.34,-0.99 30.17,-2.45 44.99,-2.45 81.1,0 161.94,0.47 243.04,-0.52 25.44,-0.27 45.46,6.18 63.05,25.44 93.17,102.12 186.86,203.5 280.34,305.36 3.44,3.69 4.16,10.09 7.65,19.76l0 -0.25z"/>
   <path class="fil11" d="M4358.22 4427.87c98.64,106.79 197.26,213.33 303.08,327.78l-318.68 0 0 -332.46c5.19,1.73 10.4,3.17 15.6,4.94l0 -0.25z"/>
   <path class="fil10" d="M2228.72 2807.12c6.44,-2.23 8.15,-3.21 10.13,-3.48 63.53,-10.87 111.23,8.95 154.51,59.62 85.53,100.08 177.23,195.28 267.23,291.47 17.59,18.77 26.22,38.03 24.98,63.26 -1.25,24.97 -0.27,50.2 -0.27,77.87 -50.15,-28.93 -427.93,-434.33 -456.58,-488.74z"/>
   <path class="fil10" d="M3798.27 4408.82l292.46 0 0 303.34c-106.32,-93.95 -187.38,-201.74 -292.46,-303.34z"/>
   <path class="fil7" d="M4400.75 4406.35l287.98 0 0 310.77c-97.9,-105.61 -188.82,-203.72 -287.98,-310.77z"/>
   <path class="fil10" d="M3076.66 3104.03c-89.21,-96.39 -178.22,-192.85 -268.48,-290.23 42.76,-13.36 197.52,-16.07 272.68,-5.46 14.57,46.97 4.95,96.19 6.67,144.61 1.71,48.96 0.52,98.16 0.52,147.37 -3.75,1.25 -7.43,2.45 -11.38,3.7z"/>
   <path class="fil10" d="M3480.11 3307.98c-18.51,-19.3 -37.09,-38.34 -55.14,-57.85 -9.36,-10.15 -15.56,-23.98 -26.16,-31.63 -63.57,-44.99 -72.99,-107.32 -56.4,-186.39 53.65,50.67 110.49,94.42 141.67,156.96 15.54,31.41 5.93,75.43 7.64,113.71 -3.95,1.73 -7.64,3.49 -11.61,5.21z"/>
   <path class="fil12" d="M3489.5 3405.88l-147.58 0 0 -158.98c3.69,-1.98 7.17,-4.17 10.87,-6.15 48.94,49.16 97.63,98.64 140.66,153.73 -1.25,3.95 -2.7,7.7 -3.95,11.65l0 -0.25z"/>
   <path class="fil13" d="M3489.5 3405.88c1.25,-3.97 2.7,-7.65 3.95,-11.61 13.11,2.7 25.95,5.41 39.06,8.11l0 3.49 -43.01 0z"/>
   <path class="fil1" d="M825.28 9176.11c5.46,-3.95 10.87,-8.17 16.32,-12.12l0 20.29c-5.46,-2.71 -10.87,-5.46 -16.32,-7.9l0 -0.27z"/>
   <path class="fil14" d="M8766.05 4191.03c-5.41,4.69 -10.87,9.16 -16.32,13.83 1.5,-7.64 3.21,-15.34 4.73,-22.99 3.95,2.96 7.64,6.19 11.59,9.16z"/>
   <path class="fil1" d="M2076.92 7203.83c0.74,7.92 1.52,15.56 2.24,23.52 -16.34,-5 -16.81,-7.96 -2.24,-23.52z"/>
   <path class="fil6" d="M1818.84 7063.16c1.25,6.19 2.45,12.12 3.69,18.31 -2.96,-4.73 -5.66,-9.67 -8.63,-14.36 1.71,-1.24 3.21,-2.43 4.94,-3.95z"/>
   <path class="fil14" d="M9280.01 4756.41l0 -3.69c1.52,0 2.98,0 4.69,0.21 -1.46,1.24 -2.96,2.23 -4.69,3.48z"/>
   <path class="fil15" d="M4358.22 4427.87c-5.21,-1.52 -10.41,-3.23 -15.6,-4.95 5.19,1.46 10.4,3.23 15.6,4.95z"/>
   <line class="fil16" x1="4292.71" y1="4382.13" x2="4295.67" y2= "4370.27" />
   <path class="fil17" d="M3137.72 4346.53c2.96,2.96 6.18,6.19 9.14,9.16 -2.96,-2.96 -6.18,-6.19 -9.14,-9.16z"/>
   <path class="fil13" d="M4046.73 4757.9c-1.5,-3.49 -0.72,-6.46 2.71,-8.64 2.49,2.18 4.94,4.67 7.43,6.92 -3.21,0.47 -6.71,0.99 -9.88,1.46l-0.27 0.27z"/>
   <path class="fil18" d="M4131.78 3364.84c1.71,2.96 3.21,5.93 4.94,8.89 -2.71,-2.45 -4.42,-5.41 -4.94,-8.89z"/>
   <path class="fil1" d="M204.51 6577.15l-4.41 1.71 -4.73 -0.47c0.78,-3.48 1.71,-6.65 2.49,-10.15 2.24,2.96 4.22,5.93 6.4,8.91l0.25 0z"/>
   <path class="fil13" d="M3347.6 3237.02l-2.24 3.97c-1.98,-1.52 -3.69,-2.96 -5.66,-4.48 1.46,-1.19 2.7,-2.45 4.22,-3.69 1.24,1.5 2.43,2.96 3.69,4.2z"/>
   <path class="fil18" d="M3087.54 5212.03c-3.95,0 -7.92,0.99 -11.61,2.23 1.46,-3.21 3.17,-6.44 4.69,-9.67 2.23,2.51 4.67,4.94 6.92,7.45z"/>
   <path class="fil17" d="M4285.54 4755.91c1.25,-2.24 2.7,-4.22 4.67,-5.66l0.27 4.94 -4.94 0.72z"/>
   <path class="fil1" d="M1875.93 7226.08c-1.5,-2.45 -1.24,-4.94 0.53,-7.43l7.84 4.98c-2.7,0.74 -5.66,1.46 -8.38,2.2l0 0.25z"/>
   <path class="fil1" d="M3039.09 7227.32c1.25,-4.47 2.7,-8.89 3.95,-13.36 1.98,3.95 3.95,8.15 6.19,12.11 -3.23,0.53 -6.71,0.74 -9.88,1.25l-0.27 0z"/>
   <path class="fil19" d="M7712.67 810.62c-3.21,-3.7 -6.44,-7.65 -9.41,-11.4 3.23,3.75 6.44,7.7 9.41,11.4z"/>
   <path class="fil1" d="M7676.58 744.37c-1.52,1.25 -2.96,3.69 -4.42,3.69 -1.5,0 -2.76,-2.43 -4.01,-3.95 1.52,-1.19 3.02,-3.69 4.48,-3.69 1.45,0 2.7,2.49 3.95,3.95z"/>
   <path class="fil20" d="M7432.08 5735.39c5.41,350.76 -273.16,694.42 -692.18,694.94 -403.95,0.47 -693.7,-320.92 -695.94,-692.71 -2.24,-382.72 310.98,-694.94 693.7,-694.21 387.39,1.05 693.9,306.56 694.17,691.99l0.25 0z"/>
   <path class="fil21" d="M8346.28 6190.49c0.74,-189.6 1.25,-379.22 1.98,-568.84l0 -79.13c113.46,-1.19 222.24,-0.46 334.23,-0.46l0 1322.37c-51.18,0 -102.32,-5.21 -152.05,1.19 -77.87,9.88 -124.34,-21.01 -168.81,-84.54 -128.07,-182.69 -263.79,-359.92 -396.82,-539.14 -11.34,-15.34 -26.16,-27.93 -39.53,-41.82 -0.27,-2.7 -0.72,-5.15 -0.99,-7.9 -0.52,2.49 -0.99,4.94 -1.5,7.7 -0.74,167.35 -1.46,334.71 -2.2,502.04l0 161.22c-55.86,0.47 -110.27,1.25 -164.43,1.25 -53.12,0 -106.27,-1.52 -159.43,-2.24 -3.19,-3.95 -6.4,-8.17 -9.63,-12.12 -0.52,-298.39 -0.99,-596.79 -1.25,-895.44 0,-132.49 0.74,-264.72 1.25,-397.23 3.23,-4.2 6.19,-8.69 9.36,-12.84 72.93,-0.78 145.87,-0.52 218.8,-3.23 29.43,-0.99 41.3,18.26 55.4,36.84 103.83,136.71 207.67,273.42 311.24,410.13 50.14,66.02 100.08,131.98 150.03,198 4.94,1.24 9.67,2.76 14.61,3.95l-0.27 0.25z"/>
   <path class="fil22" d="M5543.36 6413.98l-396.77 0 0 446.7 -333.5 0 0 -1315.92 331.52 0 0 530.05 409.62 0c2.96,-87.5 0.99,-175.79 1.25,-263.81 0.25,-86.77 0,-173.53 0,-268.22 110.74,-1.98 218.27,-0.72 330.02,-0.72l0 1318.62 -328.31 0c-1.46,-146.34 -2.96,-291.94 -4.42,-437.54 -3.21,-3.23 -6.71,-6.19 -9.88,-9.42l0.47 0.27z"/>
   <path class="fil21" d="M4059.82 5844.89l-304.58 0c-34.33,-101.13 -67.01,-197.77 -101.33,-299.37l1060.55 0 0 295.42 -307.03 0 0 1019.76 -336 0 0 -64.04 0 -877.85c0,-21.74 -1.46,-43.28 -2.18,-65.03 -2.96,-2.96 -6.19,-6.18 -9.16,-9.14l-0.27 0.25z"/>
   <path class="fil23" d="M7319.6 6861.19l-1160.69 0c63.05,-155.75 305.11,-318.41 545.65,-330.28 277.12,-13.83 538.16,159.97 615.04,330.28z"/>
   <path class="fil18" d="M7596.23 5544.53c-3.23,4.22 -6.19,8.64 -9.41,12.86 3.21,-4.22 6.18,-8.64 9.41,-12.86z"/>
   <path class="fil1" d="M4059.82 5844.89c2.96,2.96 6.19,6.19 9.16,9.16 -2.96,-2.96 -6.19,-6.19 -9.16,-9.16z"/>
   <path class="fil13" d="M7922.56 6199.89c0.52,-2.49 0.99,-4.94 1.5,-7.64 0.21,2.7 0.74,5.15 0.94,7.9l-2.45 -0.27z"/>
   <path class="fil15" d="M8346.28 6190.49c-4.94,-1.24 -9.61,-2.7 -14.55,-3.95 4.94,1.25 9.61,2.71 14.55,3.95z"/>
   <path class="fil18" d="M7586.84 6850.07c3.23,3.95 6.44,8.17 9.63,12.12 -3.19,-3.95 -6.4,-8.17 -9.63,-12.12z"/>
   <path class="fil19" d="M5543.36 6413.98c3.23,3.21 6.65,6.19 9.88,9.41 -3.23,-3.21 -6.65,-6.19 -9.88,-9.41z"/>
   <path class="fil24" d="M5365.38 1652.38c156.01,-0.99 311.97,-1.98 468.23,-2.7 66.76,-0.27 133.75,0 198.98,0 81.58,296.62 -115.43,652.13 -423.45,771.51 -330.28,128.07 -704.36,-10.87 -868.01,-322.32 -166.36,-316.7 -64.78,-710.04 233.42,-905.05 301.82,-197.52 690.47,-120.17 883.05,106.27 -76.89,76.62 -153.57,152.78 -233.16,232.12 -87.75,-89.21 -198,-133.95 -328.31,-112.73 -99.87,16.34 -179.46,68.51 -237.78,152.33 -119.18,171.04 -61.33,403.2 105.29,507.77 158.25,99.36 383.71,57.58 474.9,-93.95 -92.96,-1.25 -182.69,-2.7 -272.43,-3.95 -2.96,-2.96 -5.93,-5.93 -8.89,-8.89 -0.27,-102.59 -0.72,-204.97 -0.99,-307.56 2.96,-4.2 6.19,-8.38 9.16,-12.84z"/>
   <path class="fil21" d="M6951.74 1758.69c0.72,-191.6 1.25,-383.44 1.98,-575.04l0 -68.47 330.75 0 0 1321.13c-79.81,0 -158.2,2.24 -236.54,-1.73 -16.34,-0.77 -34.86,-22.25 -46.98,-38.07 -140.66,-188.37 -280.34,-377.51 -420.28,-566.6 -13.83,-18.83 -28.19,-37.35 -52.89,-54.88 -0.47,53.63 -1.46,107 -1.73,160.69 -0.25,55.36 0,110.76 0,166.1l0 330.28 -333.76 0 0 -1315.92c16.07,-1.5 32.88,-3.95 49.68,-3.95 51.45,-0.52 102.85,1.73 154.29,-0.99 35.13,-1.71 57.6,10.15 78.88,38.55 113.19,152.33 228.42,303.08 343.38,453.68 40.54,53.12 83.03,104.83 124.59,157.21 2.71,2.49 5.41,4.94 8.13,7.45 0,-2.98 0.25,-5.94 0.52,-8.91l0 -0.52z"/>
   <path class="fil25" d="M3282.1 1958.44c16.32,25.44 27.93,46.24 41.76,65.03 63.78,86.77 146.86,136.71 257.88,129.01 21.22,-1.46 43.01,-6.67 63,-14.57 28.98,-11.4 48.22,-29.65 48.74,-66.02 0.47,-36.57 -4.2,-67.01 -40.79,-83.08 -21.79,-9.61 -43.8,-18.26 -66,-25.95 -84.07,-28.67 -170.32,-52.13 -251.94,-86.25 -57.6,-23.98 -113.21,-56.6 -162.68,-94.68 -177.7,-137.43 -167.35,-451.17 22.53,-590.33 65.24,-47.75 137.43,-79.13 216.77,-89.52 225.47,-29.65 419.81,24.7 558.96,217.55 14.83,20.75 26.48,44 38.34,66.74 7.18,13.83 11.61,28.92 19.04,48.48 -93.48,40.52 -184.93,80.32 -277.64,120.64 -13.57,-22 -23.98,-41.05 -36.1,-58.57 -57.85,-82.36 -163.4,-121.68 -255.37,-94.21 -16.53,4.94 -34.59,11.86 -47.23,22.99 -46.92,41.26 -61.8,83.55 0.78,129.28 23.2,17.06 52.13,27.72 80.06,37.09 84.07,28.92 169.84,52.44 252.41,84.79 52.7,20.76 104.36,48.48 149.82,82.09 193.84,143.11 176.04,457.36 -15.09,595.8 -84.27,61.06 -178.69,91.97 -280.81,100.35 -209.13,17.06 -435.83,-69.45 -554.5,-281.8 -15.34,-27.21 -26.73,-56.65 -42.75,-91.25 94.67,-41.51 186.12,-81.83 281.53,-123.87l-0.72 0.27z"/>
   <path class="fil25" d="M1131.08 2469.92l0 -326.06c20.29,-5.21 40.52,-10.87 61.08,-15.09 182.69,-36.57 301.82,-187.64 294.43,-374.28 -6.71,-173.81 -143.42,-316.92 -322.89,-338.19 -9.63,-1.25 -19.24,-1.98 -32.1,-3.49l0 -324.29c290.23,-23.98 618.99,216.04 675.6,550.79 39.06,231.13 -12.59,437.29 -174.27,610.37 -133.23,142.89 -300.38,212.61 -502.1,220.25l0.25 0z"/>
   <path class="fil22" d="M4499.37 2434.32l-316.91 0 0 -1318.89 326.54 0c1.25,12.12 3.75,23.25 3.75,34.34l0 1245.21c0,9.94 -1.5,19.57 -2.49,29.45 -3.7,3.44 -7.18,6.65 -10.88,10.15l0 -0.27z"/>
   <path class="fil4" d="M1953.32 1445.47l0 -323.84c44.74,-15.35 810.63,-17.06 911.97,-0.99 0.53,106.02 0.99,213.6 -0.72,324.83l-911.25 0z"/>
   <path class="fil4" d="M1954.31 2429.13l0 -316.44c43.75,-12.59 839.77,-15.09 907.77,-2.45l0 316.64c-43.29,12.12 -841.5,14.63 -907.77,2.24z"/>
   <path class="fil4" d="M1953.81 1936.19l0 -325.8 901.12 0c13.11,40.99 16.07,252.87 3.95,325.8l-905.07 0z"/>
   <path class="fil26" d="M4499.37 2434.32c3.7,-3.48 7.18,-6.65 10.88,-10.15 -3.7,3.49 -7.18,6.67 -10.88,10.15z"/>
   <path class="fil18" d="M5357.21 1972.77c2.96,2.96 5.93,5.93 8.89,8.91 -2.96,-2.98 -5.93,-5.94 -8.89,-8.91z"/>
   <path class="fil14" d="M6951.74 1758.69c0,2.96 -0.27,5.93 -0.52,8.89 -2.71,-2.45 -5.41,-4.94 -8.13,-7.43 2.45,-2.45 5.41,-2.96 8.64,-1.73l0 0.27z"/>
   <path class="fil18" d="M5365.38 1652.38c-2.96,4.22 -6.19,8.43 -9.16,12.84 2.96,-4.2 6.19,-8.38 9.16,-12.84z"/>
   <path class="fil24" d="M3632.39 8254.98c0,-196.99 -160.95,-359.2 -357.69,-360.19 -200.02,-0.99 -363.42,160.95 -363.67,360.45 0,196.02 161.41,358.95 357.95,360.92 198.26,1.98 363.42,-162.15 363.42,-361.19zm-356.96 -693.7c383.65,1.99 692.18,313.01 690.47,695.94 -1.5,385.42 -315.71,696.15 -700.61,692.71 -381.94,-3.48 -690.73,-317.22 -687.98,-699.63 2.7,-382.72 314.93,-691 697.86,-689.02l0.27 0z"/>
   <path class="fil24" d="M6005.41 7585.04c0,81.31 1.5,156.22 -1.25,231.13 -0.72,17.33 -13.11,36.61 -24.97,50.67 -46.98,55.92 -96.13,110.29 -144.36,165.17 -12.84,14.55 -24.97,29.9 -38.59,45.98 10.66,5.93 17.06,10.62 24.24,13.58 176.29,75.18 264.26,254.18 226.96,461.32 -34.84,193.31 -153.77,318.68 -340.68,371.33 -200.24,56.33 -382.66,15.81 -535.46,-130.33 -64.76,-61.8 -100.86,-139.88 -116.67,-235.6 98.37,-33.09 196.27,-66.22 297.13,-100.35 11.61,25.95 20.04,47.5 30.44,68.24 44.22,87.25 130.27,124.6 223.95,97.65 75.65,-21.74 112.73,-78.39 106.54,-162.41 -5.41,-73.7 -52.38,-120.64 -130,-128.79 -51.92,-5.47 -102.63,-1.52 -150.6,21.48 -12.06,5.93 -24.92,10.4 -43.75,18.3 -29.39,-60.55 -58.31,-120.17 -89.21,-183.68 91.25,-99.62 181.18,-198.04 280.6,-306.56l-438.33 0 0 -297.15 864.28 0 -0.27 0z"/>
   <path class="fil24" d="M2053.68 8622.35c-1.24,-1.25 -2.7,-3.7 -3.95,-3.7 -1.24,0 -2.7,2.24 -3.95,3.44 1.98,1.25 3.95,2.76 5.93,3.95 0.74,-1.19 1.25,-2.43 1.98,-3.95l0 0.27zm450.2 20.03l0 280.34c-10.88,1.46 -20.03,4.22 -29.45,4.22l-870.93 0c-7.9,0 -15.56,-1.71 -23.46,-2.76 -2.76,-2.96 -5.72,-5.93 -8.43,-8.89 -0.99,-72.93 -0.72,-146.07 -3.42,-219.01 -0.99,-28.19 16.01,-43.03 32.35,-59.82 119.65,-123.34 240.08,-246.21 358.73,-370.6 49.16,-51.39 96.14,-104.81 141.67,-159.45 26.42,-31.88 48.69,-66.99 50.92,-111.21 2.96,-62.58 -25.95,-101.85 -86.77,-115.23 -71.95,-15.81 -143.42,17.06 -179,84.54 -12.86,24.24 -21.48,50.46 -34.59,81.62 -97.18,-31.42 -193.84,-62.79 -293.45,-94.95 6.18,-72.92 31.63,-135.71 72.67,-191.85 82.81,-112.98 197.01,-176.51 333.97,-193.57 136.98,-16.8 268.48,4.22 382.93,89.27 96.93,72.15 145.4,171.04 145.62,290.69 0,117.67 -38.81,224.46 -115.7,314 -74.39,86.77 -153.98,169.58 -231.6,253.6 -30.44,32.87 -62.07,65.02 -92.75,97.43 16.07,26.17 37.87,18.05 55.67,18.26 108.77,0.78 217.28,0.27 326.06,0.78 19.76,0 39.27,1.73 59.09,2.45 3.44,3.49 6.67,6.92 10.1,10.41l-0.21 -0.27z"/>
   <path class="fil24" d="M4950.31 8924.94c-124.59,0.72 -248.97,1.71 -373.56,1.98 -160.17,0.27 -320.4,0 -480.31,0l-65.3 0c0,-85.32 -1.71,-165.63 1.52,-245.74 0.72,-16.28 18.77,-33.36 31.88,-47.19 150.03,-157.52 301.1,-313.74 450.65,-471.46 26.96,-28.4 49.94,-61.08 71.7,-93.95 11.65,-17.53 19.55,-39.08 24.24,-59.82 14.1,-63.05 -19.3,-113.21 -82.56,-128.29 -73.45,-17.58 -147.12,17.06 -183.22,87.5 -12.33,24.24 -21.28,50.2 -33.13,78.86 -98.89,-32.35 -195.75,-64.04 -293.92,-96.19 14.82,-113.46 65.28,-201.95 148.83,-271.92 163.4,-137.23 422.98,-157.46 606.15,-47.95 193.1,115.23 211.87,329.54 151.53,481.81 -34.08,85.78 -87.96,158.98 -150.29,225.72 -72.67,78.14 -147.58,154.24 -221.23,231.39 -14.83,15.56 -28.19,32.62 -42.04,48.94 -2.7,1.98 -5.46,3.95 -8.17,5.68 2.98,0.72 6.19,1.77 9.16,2.49 128.08,0.99 256.11,1.73 384.18,2.71l67.01 0 0 286c-4.48,3.23 -8.69,6.46 -13.11,9.69l0 -0.27z"/>
   <path class="fil1" d="M4511.98 8626.79l-9.16 -2.43c2.71,-2.03 5.47,-4.01 8.17,-5.72 1.73,2.7 2.24,5.46 0.99,8.42l0 -0.27z"/>
   <path class="fil26" d="M2503.86 8642.38c-3.48,-3.48 -6.67,-6.92 -10.15,-10.4 3.48,3.48 6.67,6.92 10.15,10.4z"/>
   <path class="fil26" d="M1571.87 8915.06c2.7,2.96 5.66,5.93 8.38,8.89 -2.71,-2.96 -5.68,-5.93 -8.38,-8.89z"/>
   <path class="fil26" d="M4950.31 8924.94c4.42,-3.23 8.63,-6.46 13.11,-9.63 -4.48,3.17 -8.69,6.4 -13.11,9.63z"/>
   <path class="fil27" d="M8023.66 8474.52c23.46,0.52 47.45,3.21 70.71,0.72 109.75,-11.13 195.28,-104.05 200.02,-214.79 4.42,-109.03 -76.41,-204.97 -187.64,-222.49 -37.35,-1.99 -74.64,-5.47 -112,-5.47 -165.63,0 -331.27,0.72 -496.9,0.99 -110.29,0 -216.83,99.62 -213.35,223.23 3.23,120.64 94.17,216.83 218.8,218.54 173.55,2.49 346.83,-0.21 520.36,-0.72zm-236.07 -486.77c96.87,0 193.84,1.46 290.44,-0.52 120.9,-2.18 231.44,98.42 254.63,209.17 34.39,163.14 -82.55,317.64 -250.62,325.55 -68.98,3.23 -138.48,0.99 -207.67,0.99 -122.67,0 -245.23,1.25 -367.63,-0.47 -110.49,-1.71 -194.82,-52.64 -242.26,-152.27 -83.33,-174.52 34.59,-371.11 214.58,-380.73 102.59,-5.41 205.43,-0.99 308.28,-0.99l0 -0.99 0.25 0.25z"/>
   <path class="fil3" d="M7183.64 4284.48c-14.61,-69.97 -14.61,-381.48 -1.25,-431.62 4.69,-1.98 10.15,-5.93 15.35,-5.93 108.77,-0.27 217.55,-2.76 326.06,0.99 78.86,2.7 138.21,45.46 176.24,113.71 73.45,131.98 -7.39,304.06 -159.45,320.4 -116.67,12.59 -235.85,2.45 -356.96,2.45z"/>
   <path class="fil11" d="M8013.77 3272.38l0 243.77c89.27,2.45 170.85,4.69 251.42,6.67 8.89,131.03 -100.35,240.54 -239.55,248.71 -136.19,7.9 -257.82,-98.89 -265.25,-233.15 -8.17,-145.82 92.22,-256.57 253.38,-266.25l0 0.27z"/>
   <path class="fil11" d="M7188.81 3370.77c11.87,5.93 24.71,10.15 34.86,18.05 160.69,125.84 384.69,327.05 410.65,369.82 -10.15,4.73 -19.82,13.37 -29.45,13.37 -136.18,0 -272.68,-1.5 -408.88,-2.96 -3.48,0 -6.92,-3.23 -10.4,-4.94 -19.05,-56.14 -18.06,-346.36 3.21,-393.34z"/>
   <path class="fil11" d="M7680.05 3671.88c-17.53,-3.97 -26.96,-3.49 -31.9,-7.65 -139.41,-119.44 -278.63,-239.3 -417.31,-359.46 -5.19,-4.47 -6.44,-13.37 -10.6,-22.99 10.6,-4.94 19.24,-12.12 27.66,-12.12 141.67,-0.74 283.05,-0.47 433.14,-0.47 0.99,136.92 1.71,265.99 -0.99,402.7z"/>
   <path class="fil11" d="M8019.46 4071.62c77.87,64.04 153.05,127.57 229.68,198.51 -49.69,20.04 -270,26.69 -422.52,17.53 -12.33,-0.72 -24.45,-6.4 -38.03,-10.09 23.73,-40.58 164.6,-165.89 230.61,-205.96l0.25 0z"/>
   <path class="fil11" d="M8015.26 4064.95c-81.09,-66.49 -155.48,-132.04 -227.16,-204.44 49.93,-23 98.89,-13.37 146.59,-15.09 51.39,-1.73 102.84,-1.46 154.24,0 48.48,1.5 97.63,-6.93 153.51,8.42 -24.45,52.64 -72.67,75.38 -107.78,109.24 -36.84,35.13 -77.36,66.49 -119.13,102.12l-0.27 -0.25z"/>
   <path class="fil24" d="M5520.37 3096.61l404.2 0c148.57,439.52 296.41,876.14 446.23,1318.89l-362.43 0c-27.68,-80.32 -55.87,-162.15 -84.79,-245.96l-401.71 0c-28.46,82.09 -57.38,165.13 -86.04,247.94l-362.16 0c149.82,-442.75 297.87,-880.83 446.7,-1320.86z"/>
   <path class="fil11" d="M3632.39 8254.98c0,199.04 -165.16,363.17 -363.42,361.19 -196.54,-1.98 -357.95,-164.91 -357.95,-360.92 0,-199.29 163.65,-361.44 363.67,-360.45 196.74,0.99 357.69,162.93 357.69,360.19z"/>
   <path class="fil1" d="M2053.68 8622.1l-1.98 3.95c-1.98,-1.25 -3.95,-2.7 -5.93,-3.95 1.25,-1.25 2.71,-3.48 3.95,-3.48 1.25,0 2.71,2.23 3.95,3.75l0 -0.27z"/>
   <path class="fil11" d="M8023.66 8474.27c-173.53,0.52 -347.08,3.21 -520.36,0.72 -124.59,-1.71 -215.57,-98.11 -218.8,-218.54 -3.48,-123.6 103.06,-222.96 213.35,-223.23 165.63,-0.25 331.27,-1.24 496.9,-0.99 37.35,0 74.64,3.49 112,5.47l0 20.23c-12.12,0 -23.98,-0.72 -35.63,-0.47 -103.31,1.98 -179.68,68.72 -195.55,170.32 -14.57,93.95 42.29,182.17 137.96,214.33 11.12,3.69 22.52,6.92 33.86,10.4 -7.9,7.18 -15.81,14.3 -23.73,21.75z"/>
   <path class="fil19" d="M8023.66 8474.27c7.92,-7.18 15.82,-14.36 23.73,-21.75 15.6,-0.99 31.42,-1.25 46.72,-3.23 131.56,-18.3 208.18,-152.05 157,-272.68 -27.68,-65.03 -80.12,-99.11 -144.88,-118.66l0 -20.23c111.48,17.52 192.32,113.46 187.89,222.49 -4.42,110.76 -90.25,203.66 -200.02,214.79 -23.2,2.49 -47.19,-0.47 -70.69,-0.72l0.25 0z"/>
   <path class="fil27" d="M8073.84 8106.67c-95.92,-9.63 -154.76,77.87 -155.75,150.28 -0.99,76.68 69.97,145.62 149.1,147.59 82.55,2.23 158.71,-70.18 155.48,-153.26 -2.96,-77.36 -67.73,-152.78 -148.83,-144.61zm32.41 -48.69c64.51,19.76 117.16,53.63 144.82,118.66 51.2,120.62 -25.44,254.37 -156.94,272.68 -15.6,2.18 -31.16,2.18 -46.72,3.17 -11.38,-3.44 -22.78,-6.65 -33.86,-10.35 -95.94,-32.15 -152.58,-120.43 -137.96,-214.32 15.81,-101.64 92.18,-168.4 195.55,-170.38 11.86,0 23.73,0 35.32,0.53l-0.21 0z"/>
   <path class="fil10" d="M8074.11 8106.67c81.09,-8.17 145.85,67.26 148.83,144.61 3.21,83.08 -72.93,155.48 -155.5,153.26 -78.86,-2.18 -150.09,-70.91 -149.1,-147.59 0.99,-72.4 59.57,-159.91 155.76,-150.28z"/>
  </g>
 </g>
</svg>
