<?xml version="1.0" encoding="UTF-8"?>
<!DOCTYPE svg PUBLIC "-//W3C//DTD SVG 1.1//EN" "http://www.w3.org/Graphics/SVG/1.1/DTD/svg11.dtd">
<!-- Creator: CorelDRAW 2021 (64-Bit) -->
<svg xmlns="http://www.w3.org/2000/svg" xml:space="preserve" width="48.4468mm" height="32.4384mm" version="1.1" style="shape-rendering:geometricPrecision; text-rendering:geometricPrecision; image-rendering:optimizeQuality; fill-rule:evenodd; clip-rule:evenodd"
viewBox="0 0 2794.95 1871.41"
 xmlns:xlink="http://www.w3.org/1999/xlink"
 xmlns:xodm="http://www.corel.com/coreldraw/odm/2003">
 <defs>
  <style type="text/css">
   <![CDATA[
    .fil0 {fill:black;fill-rule:nonzero}
    .fil5 {fill:#458DC9;fill-rule:nonzero}
    .fil6 {fill:#5DB2ED;fill-rule:nonzero}
    .fil1 {fill:#A8542A;fill-rule:nonzero}
    .fil3 {fill:#FC7F3A;fill-rule:nonzero}
    .fil4 {fill:#FFC41F;fill-rule:nonzero}
    .fil2 {fill:white;fill-rule:nonzero}
   ]]>
  </style>
 </defs>
 <g id="Layer_x0020_1">
  <metadata id="CorelCorpID_0Corel-Layer"/>
  <g id="_1841305223104">
   <path class="fil0" d="M1067.64 1793.35c0.86,-4.53 0.22,-9.22 -1.83,-13.35 -5.07,-10.54 -17.34,-14.76 -28.08,-16.48l1.64 2.17c1.08,-8.08 0.47,-18.68 -8.61,-21.8 -4.03,-1.22 -8.32,-1.12 -12.29,0.28l1.75 4.13c5.9,-3.84 10.82,-9.03 14.37,-15.14 4.44,-7.55 8.22,-20.56 2.12,-28.25 -4.76,-5.98 -13.55,-7.41 -20.7,-8.04 -9.05,-0.65 -18.17,-0.35 -27.19,0.87 -5.6,0.67 -11.22,1.47 -16.73,2.62l1.75 4.14c6.25,-4.34 12.17,-9.12 17.71,-14.33 7.49,-6.98 17.13,-16.51 17.89,-27.37 0.73,-10.52 -8.94,-15.2 -18.01,-15.47 -11.92,-0.35 -24.08,3.52 -35.19,7.49 -7.96,2.79 -15.75,6.02 -23.34,9.69l3.09 3.12c8.41,-13.63 16.1,-27.74 23.28,-42.05 6.01,-11.71 11.35,-23.73 16.06,-36.01 4.36,-10.44 7.11,-21.49 8.1,-32.75 0.35,-7.39 -1.12,-16 -8.26,-19.81 -7.79,-4.15 -17.01,-1.2 -23.85,3.38 -9.85,6.62 -17.49,16.34 -24.22,25.97 -8.08,11.78 -15.33,24.11 -21.72,36.89 -5.82,11.38 -11.19,22.98 -16.24,34.72 -1.77,4.15 -3.5,8.3 -5.19,12.47 -1.12,2.28 -2.06,4.66 -2.81,7.08 -0.1,0.32 -0.22,0.63 -0.37,0.92l4.46 0.61c-0.84,-24.06 -5.02,-47.89 -12.44,-70.79 -4.72,-13.76 -11.07,-28.56 -21.77,-38.79 -5.74,-5.5 -14.53,-10.19 -21.86,-4.7 -9.02,6.78 -9.71,21.59 -9.77,31.75 -0.14,28.19 7.73,56.52 16.24,83.14l3.78 -2.22c-7.23,-9.03 -15.35,-17.3 -24.26,-24.69 -13.8,-11.56 -31.55,-23.27 -50.39,-22.06 -17.67,1.12 -35.76,16.14 -36.05,34.66 -0.27,17.26 13.29,32.3 25.24,43.17 9.66,8.83 20.23,16.59 31.56,23.16l1.14 -4.23c-7.79,0.36 -15.59,1.06 -23.32,1.97 -6.1,0.71 -12.21,1.56 -18.24,2.87 -4.72,0.73 -9.28,2.3 -13.49,4.6 -3.21,2.04 -5.23,5.56 -2.75,9.06 1.67,2.37 5.6,0.1 3.91,-2.28 -0.79,-1.1 -0.81,-1.26 0.22,-2.22 1.67,-1.29 3.58,-2.22 5.6,-2.75 6.31,-1.95 12.8,-3.32 19.36,-4.07 9.51,-1.34 19.13,-2.2 28.72,-2.65 1.26,-0.04 2.24,-1.08 2.22,-2.34 -0.02,-0.77 -0.43,-1.47 -1.08,-1.87 -8.53,-4.97 -16.63,-10.62 -24.22,-16.93 -12.11,-9.91 -25.64,-22.59 -29.51,-38.38 -4.25,-17.53 10.71,-34.09 27.54,-36.9 17.58,-2.91 35.07,8.04 48.13,18.58 9.79,7.81 18.66,16.71 26.46,26.51 1.42,1.81 4.44,-0.16 3.79,-2.22 -7.55,-23.65 -14.27,-48.24 -15.8,-73.15 -0.63,-7.41 -0.36,-14.88 0.8,-22.22 0.57,-4.58 2.24,-8.94 4.88,-12.72 4.68,-5.82 11.42,-3.42 16.63,1.1 9.91,8.63 15.93,21.76 20.43,33.81 8.31,23.75 12.97,48.64 13.78,73.8 0.04,1.26 1.08,2.24 2.34,2.2 0.98,-0.02 1.81,-0.67 2.1,-1.61 5.45,-14.49 11.76,-28.72 18.48,-42.7 5.86,-12.33 12.31,-24.39 19.37,-36.07 6.31,-10.91 13.94,-21 22.71,-30.04 5.88,-5.73 13.96,-12.23 22.75,-11.21 7.37,0.85 10.22,6.96 10.47,13.71 0.36,10.18 -2.87,20.5 -6.15,29.98 -4.25,11.86 -9.2,23.46 -14.82,34.72 -7.79,15.93 -16.69,31.12 -25.42,46.5 -0.14,0.27 -0.31,0.51 -0.47,0.76 -1.26,2.05 1.18,4.05 3.12,3.09 15.1,-7.37 31.91,-14.07 48.66,-16.16 6.96,-0.85 19.56,-1.37 21.01,8.02 1.49,9.5 -8.83,19.29 -14.92,25.19 -5.69,5.54 -11.84,10.59 -18.37,15.12 -1.08,0.67 -1.38,2.08 -0.73,3.13 0.52,0.84 1.52,1.22 2.46,1 11.46,-2.42 23.14,-3.66 34.86,-3.68 7.16,0.04 15.59,0.28 21.94,4.07 7.73,4.64 5.35,15.94 2.16,22.79 -3.16,6.72 -8.11,12.44 -14.33,16.49 -2.08,1.32 -0.77,5.02 1.75,4.15 2.77,-1 5.76,-1.22 8.65,-0.65 7.83,1.81 7.34,11.54 6.53,17.79 0,1.02 0.67,1.92 1.65,2.18 9.52,1.55 20.98,4.88 25.4,14.43 0.99,2.17 1.52,4.53 1.56,6.94 0.04,0.97 -0.02,1.95 -0.18,2.91 -0.65,2.83 3.7,4.05 4.36,1.2z"/>
   <path class="fil0" d="M908.23 1755.82c-3.28,-10.68 -8.91,-24.1 -18.82,-30.16 -5.92,-3.85 -13.8,-2.61 -18.25,2.87 -4.5,5.97 -3.24,14.56 -1.53,21.27 1.51,5.82 3.62,11.46 6.37,16.81l2.57 -3.34c-5.15,-2.05 -10.64,-3.13 -16.18,-3.2 -5.76,-0.06 -15.69,1.49 -17.54,8.16 -2.28,8.32 9.99,15.88 15.92,19.25l0 -3.93c-7.87,5.17 -12.62,14.64 -6.84,23.19 1.63,2.4 5.56,0.12 3.91,-2.3 -4.33,-6.39 -0.67,-13.12 5.21,-16.96 1.08,-0.67 1.42,-2.08 0.77,-3.16 -0.18,-0.3 -0.44,-0.57 -0.77,-0.77 -2.32,-1.32 -4.56,-2.8 -6.67,-4.45 -2.36,-1.83 -7.78,-5.78 -7.22,-9.34 0.39,-2.41 4.03,-3.62 5.94,-4.22 3.32,-0.93 6.77,-1.2 10.19,-0.81 4.15,0.39 8.22,1.37 12.09,2.91 1.97,0.79 3.36,-1.77 2.54,-3.34 -1.73,-3.44 -3.2,-7 -4.4,-10.64 -2,-5.92 -4.15,-13.25 -2.24,-19.44 1.56,-4.78 6.69,-7.38 11.47,-5.84 0.84,0.28 1.65,0.67 2.38,1.18 5.47,3.36 8.99,9.67 11.79,15.25 1.97,3.92 3.64,8.01 4.94,12.21 0.85,2.79 5.23,1.59 4.37,-1.2z"/>
   <path class="fil0" d="M2156.82 745.21l13.45 73.86c3.5,19.27 -3.52,38.98 -18.46,51.66l-36.25 30.81 -117.04 -102.8 158.3 -53.53z"/>
   <path class="fil0" d="M2152.46 746.42l11.44 62.85c2.11,11.58 4.09,22.55 0.57,34.25 -2.91,9.38 -8.45,17.75 -15.95,24.1 -2.97,2.56 -5.99,5.09 -8.96,7.63l-27.17 23.1 6.39 0 -39.56 -34.76 -63.05 -55.38 -14.43 -12.66c-4.36,-3.85 -10.78,2.54 -6.41,6.39l39.59 34.76 63.03 55.36 14.45 12.68c1.79,1.68 4.6,1.68 6.39,0l24.12 -20.5c10.44,-8.87 21.13,-17.13 27.07,-29.94 4.82,-10.28 6.63,-21.71 5.21,-32.97 -0.41,-3.12 -1.04,-6.19 -1.59,-9.28l-6.9 -37.91 -5.5 -30.12c-1.04,-5.72 -9.77,-3.3 -8.73,2.4z"/>
   <path class="fil1" d="M2328.02 1495.62l179.52 97.79 -133.4 246.83c0,0 -72.21,-33.6 -30.08,-129.52 7.97,-18.03 0.67,-39.18 -16.77,-48.42 -21.96,-11.6 -43.29,-22.74 -43.29,-22.74l44.02 -143.95z"/>
   <path class="fil0" d="M2325.73 1499.54l60.97 33.21 96.39 52.49 22.16 12.09 -1.63 -6.21 -13.21 24.46 -31.91 59.04 -38.46 71.17 -33.42 61.81 -10.95 20.27c-1.97,3.09 -3.72,6.33 -5.23,9.67 -0.06,0.14 -0.14,0.28 -0.22,0.43l6.18 -1.63c-1.32,-0.63 -2.6,-1.34 -3.84,-2.12 -1.38,-0.84 -2.73,-1.73 -4.07,-2.67 -0.76,-0.53 -1.51,-1.08 -2.26,-1.63 -0.59,-0.44 -0.95,-0.71 -2.13,-1.71 -9.34,-7.61 -16.81,-17.26 -21.84,-28.19 -6.94,-16.36 -8.77,-34.41 -5.26,-51.82 2.65,-12.8 6.62,-25.27 11.83,-37.24 4.19,-10.75 3.85,-22.74 -0.97,-33.22 -6.55,-14.43 -20.15,-20.35 -33.42,-27.33 -9.38,-4.92 -18.76,-9.85 -28.15,-14.75 -5.17,-2.69 -9.75,5.13 -4.57,7.82 7.81,4.09 15.63,8.18 23.45,12.27 6.92,3.64 13.96,7.1 20.76,10.95 4.84,2.71 8.94,6.61 11.87,11.34 6.33,10.3 5.98,21.88 1.34,32.72 -5.07,11.52 -8.77,23.61 -11.01,35.98 -3.54,18.24 -1.87,37.08 4.84,54.4 5.01,12.07 12.7,22.86 22.47,31.55 4.9,4.58 10.44,8.43 16.42,11.46 2.16,1.22 4.9,0.49 6.18,-1.63l13.21 -24.44 31.93 -59.06 38.47 -71.15 33.4 -61.81c5.39,-9.97 11.11,-19.81 16.18,-29.94 0.08,-0.14 0.16,-0.28 0.22,-0.43 1.24,-2.17 0.51,-4.9 -1.61,-6.21l-60.97 -33.21 -96.38 -52.49 -22.16 -12.07c-5.13,-2.79 -9.71,5.02 -4.58,7.82z"/>
   <path class="fil2" d="M2342.57 1683.61c4.81,10.15 4.97,21.89 0.43,32.17 -43.25,98.46 30.88,132.96 30.88,132.96l83.38 -194.02 -12.42 -1.71c-36.92,-5.11 -74.23,6.05 -102.27,30.59z"/>
   <path class="fil0" d="M2338.66 1685.89c2.45,5.42 3.48,11.38 2.97,17.3 -0.85,5.76 -2.62,11.35 -5.19,16.59 -3.91,9.42 -6.9,19.17 -8.98,29.16 -3.32,15.29 -3.34,31.1 -0.02,46.41 4.91,20.29 16.81,38.22 33.61,50.65 3.28,2.57 6.8,4.81 10.52,6.63 2.17,1.25 4.92,0.51 6.21,-1.6l28.19 -65.59 44.91 -104.51 10.3 -23.92c0.99,-2.32 0.51,-6.21 -2.71,-6.65 -6.14,-0.84 -12.29,-1.83 -18.46,-2.44 -36.59,-3.54 -73.03,8.22 -100.64,32.48 -4.4,3.85 2.04,10.23 6.39,6.41 17.12,-14.86 37.94,-24.77 60.26,-28.68 16.83,-2.97 33.28,-1.36 50.05,0.96l-2.73 -6.63 -28.19 65.58 -44.91 104.51 -10.28 23.91 6.18 -1.63c-2.88,-1.42 -5.65,-3.09 -8.26,-5.01 -0.61,-0.43 -1.22,-0.85 -1.83,-1.3 -1.14,-0.85 -0.51,-0.36 -1.49,-1.14 -1.48,-1.21 -2.93,-2.42 -4.33,-3.7 -3.3,-2.99 -6.33,-6.23 -9.12,-9.69 -16.3,-20.31 -19.98,-47.38 -14.92,-72.63 2.28,-11.03 5.7,-21.78 10.2,-32.1 5.56,-12.03 5.6,-25.89 0.08,-37.91 -2.4,-5.31 -10.19,-0.71 -7.82,4.56z"/>
   <path class="fil2" d="M2394.07 1864.94c14.33,7.59 21.47,-6.76 29.25,-21.01 7.75,-14.25 -5.97,-21.71 1.79,-35.96 7.75,-14.24 21.47,-6.77 29.23,-21.02 7.78,-14.23 -5.97,-21.71 1.79,-35.94 7.75,-14.24 21.49,-6.78 29.24,-21.01 7.75,-14.24 -5.97,-21.73 1.79,-35.96 7.76,-14.25 21.47,-6.76 29.23,-21.01 7.78,-14.24 -5.96,-21.71 1.79,-35.96 2.5,-4.72 6.84,-8.2 11.99,-9.63 5.76,-2.01 8.81,-8.34 6.8,-14.11 -0.88,-2.54 -2.67,-4.68 -5.01,-6l-38.94 -22 -134.91 252.23c10.7,10.72 22.79,19.92 35.96,27.37z"/>
   <path class="fil0" d="M2391.79 1868.85c6.76,3.99 15.29,3.26 21.25,-1.83 6.13,-5.15 9.93,-12.87 13.64,-19.78 3.7,-6.76 4.44,-14.77 2.01,-22.1 -1.85,-6.84 -2.34,-13.62 3.38,-18.95 4.88,-4.57 12.43,-4.64 17.99,-8.14 6.72,-4.33 10.91,-11.64 11.28,-19.62 0.22,-6.63 -3.65,-12.76 -3.1,-19.31 0.65,-7.86 6.51,-11.95 13.33,-14.13 7.02,-2.24 13.13,-5.17 17.13,-11.7 4.34,-7.04 4.14,-14.39 2.04,-22.08 -1.85,-6.84 -2.34,-13.59 3.38,-18.95 4.86,-4.58 12.43,-4.64 18.01,-8.14 6.7,-4.34 10.89,-11.64 11.26,-19.62 0.24,-6.74 -3.82,-13.07 -3.07,-19.74 0.49,-3.74 2.3,-7.21 5.11,-9.73 2.79,-2.42 6.31,-2.89 9.36,-4.78 5.88,-3.73 8.61,-10.91 6.72,-17.62 -1.57,-4.6 -4.95,-8.35 -9.36,-10.38l-12.96 -7.3 -23.88 -13.49c-2.15,-1.24 -4.9,-0.51 -6.18,1.61l-13.45 25.14 -32.26 60.32 -38.83 72.63 -33.74 63.1c-5.46,10.19 -11.26,20.27 -16.38,30.63 -0.08,0.14 -0.16,0.28 -0.22,0.43 -1,1.79 -0.72,4.01 0.69,5.49 10.81,11.16 23.24,20.62 36.88,28.07 5.13,2.75 9.71,-5.07 4.58,-7.81 -12.96,-7.07 -24.79,-16.06 -35.05,-26.66l0.72 5.5 13.43 -25.14 32.26 -60.32 38.85 -72.64 33.74 -63.09 11.07 -20.7c2,-3.2 3.77,-6.51 5.31,-9.93 0.06,-0.14 0.14,-0.29 0.22,-0.43l-6.19 1.63c12.91,7.3 26.21,14.14 38.85,21.96 3.21,1.77 4.37,5.82 2.6,9.06 -0.4,0.73 -0.95,1.36 -1.59,1.92 -2.48,1.32 -5.02,2.48 -7.61,3.5 -3.69,2.2 -6.7,5.35 -8.71,9.12 -3.26,6.25 -3.87,13.55 -1.69,20.27 1.85,6.92 2.91,13.25 -2.48,19.09 -4.22,4.56 -11.05,5.02 -16.45,7.59 -6.72,3.34 -11.54,9.59 -13.03,16.94 -1.34,6.72 1.17,12.5 2.37,18.95 1.3,6.94 -2.28,13.88 -8.71,16.83 -5.78,2.65 -11.95,3.38 -16.93,7.71 -5.64,5.03 -8.65,12.4 -8.12,19.93 0.55,6.06 3.99,12.13 2.79,18.26 -1.47,7.57 -7.24,10.74 -13.9,12.86 -7.98,2.54 -14.41,6.55 -17.93,14.49 -3.4,7.69 -1.49,14.51 0.39,22.22 2.04,8.49 -2.93,15.57 -7.29,22.53 -3.97,6.35 -8.98,12.54 -16.93,8.57 -5.21,-2.61 -9.81,5.21 -4.58,7.81z"/>
   <path class="fil2" d="M2446.33 1658.82l13.74 -118.12c0.63,-8.91 -6.11,-16.65 -15,-17.26 -1.45,-0.1 -2.87,0 -4.27,0.27 -7.51,-0.88 -14.29,4.5 -15.16,11.99l-13.74 118.15 34.44 4.98z"/>
   <path class="fil0" d="M2450.86 1658.82l5.82 -50.02 7.51 -64.5c1.03,-9.03 -1.55,-18.11 -10.16,-22.81 -4.11,-1.98 -8.69,-2.77 -13.25,-2.3 -4.23,-0.24 -8.41,0.88 -11.97,3.2 -4.56,3.33 -7.41,8.5 -7.81,14.15 -2.3,19.17 -4.46,38.34 -6.67,57.51l-4.36 37.39c-0.82,7.08 -1.98,14.23 -2.49,21.35 -0.02,0.35 -0.08,0.72 -0.12,1.06 0,2.04 1.36,3.82 3.32,4.36l34.46 4.98c2.38,0.59 4.82,-0.8 5.56,-3.16 0.65,-2.4 -0.76,-4.88 -3.16,-5.57l-34.44 -4.99 3.32 4.38 5.39 -46.45 7.59 -65.1c0.22,-2.04 0.39,-4.13 0.71,-6.17 0.2,-1.48 0.77,-2.89 1.63,-4.11 2.42,-3.4 5.76,-3.68 9.57,-3.84 3.61,-0.57 7.31,0.35 10.2,2.54 2.17,1.89 3.6,4.52 4.05,7.37 0.1,1.79 0,3.56 -0.33,5.33l-6.94 59.61 -4.05 34.84c-0.77,6.63 -1.87,13.33 -2.32,19.99 -0.02,0.32 -0.08,0.65 -0.12,0.97 -0.67,5.78 8.38,5.72 9.06,0z"/>
   <path class="fil0" d="M2430.26 1626.2c14.64,0 26.52,11.87 26.52,26.52 0,14.65 -11.88,26.52 -26.52,26.52 -14.65,0 -26.52,-11.87 -26.52,-26.52 0,-14.65 11.87,-26.52 26.52,-26.52z"/>
   <path class="fil0" d="M2422.58 1682.81c12.68,3.07 25.93,-1.96 33.36,-12.68 9.63,-14.19 5.9,-33.48 -8.28,-43.11 -14.19,-9.61 -33.5,-5.9 -43.11,8.31 -9.62,14.18 -5.9,33.48 8.28,43.1 2.97,2.02 6.27,3.48 9.75,4.38 2.44,0.57 4.89,-0.92 5.46,-3.36 0.55,-2.32 -0.78,-4.66 -3.06,-5.38 -11.78,-2.91 -18.97,-14.83 -16.06,-26.62 2.91,-11.78 14.84,-18.99 26.62,-16.06 11.8,2.91 18.99,14.83 16.08,26.62 -0.35,1.34 -0.81,2.67 -1.38,3.93 -4.52,9.48 -15.02,14.53 -25.26,12.13 -5.65,-1.34 -8.08,7.39 -2.4,8.73z"/>
   <path class="fil1" d="M1886.27 1623.46l-20.09 203.44 -279.31 -26.66c0,0 2.81,-79.6 107.56,-78.19 19.72,0.35 36.35,-14.63 38.06,-34.29 2.12,-24.77 4.05,-48.72 4.05,-48.72l149.73 -15.57z"/>
   <path class="fil0" d="M1881.75 1623.46l-6.82 69.11 -10.78 109.21 -2.49 25.11 4.52 -4.52 -27.66 -2.64 -66.81 -6.39 -80.54 -7.67 -69.95 -6.67 -22.94 -2.2c-3.62,-0.57 -7.26,-0.93 -10.93,-1.04 -0.16,-0.02 -0.32,-0.02 -0.49,-0.06l4.54 4.54c0,-0.39 0.02,-0.75 0.06,-1.14 0.08,-0.37 0.08,-0.8 0.12,-1.18 0.02,-0.24 0.06,-0.51 0.1,-0.77 0.1,-1.08 -0.18,1.14 0,0.02 0.53,-3.62 1.3,-7.2 2.32,-10.7 3.09,-10.95 8.57,-21.06 16.03,-29.61 11.48,-12.56 26.4,-21.45 42.9,-25.59 11.68,-3.05 23.69,-4.62 35.76,-4.68 6.29,0.28 12.58,-0.32 18.69,-1.85 5.94,-1.85 11.42,-4.98 16.04,-9.16 4.96,-4.52 8.79,-10.18 11.11,-16.47 2.89,-7.7 2.89,-16.18 3.58,-24.26 1,-11.94 1.99,-23.87 2.95,-35.81 0.47,-5.82 -8.58,-5.78 -9.06,0 -0.77,9.66 -1.56,19.33 -2.38,28.98 -1.14,13.72 -0.41,28.56 -10.56,39.18 -3.99,4.19 -9.02,7.29 -14.56,8.95 -6.27,1.85 -12.7,1.26 -19.13,1.47 -12.05,0.29 -24.03,2.02 -35.68,5.15 -29.77,8.32 -54.06,29.04 -63.66,58.76 -2.08,6.04 -3.32,12.33 -3.7,18.72 0.04,2.48 2.04,4.48 4.52,4.52l27.66 2.65 66.84 6.39 80.53 7.67 69.93 6.67 22.96 2.2c3.6,0.35 7.29,0.97 10.91,1.04 0.16,0.02 0.35,0.04 0.49,0.06 2.6,0.25 4.31,-2.3 4.53,-4.54l6.82 -69.09 10.79 -109.23 2.48 -25.11c0.57,-5.8 -8.49,-5.76 -9.06,0z"/>
   <path class="fil2" d="M1718.83 1710.12c-7.49,8.38 -18.24,13.11 -29.47,12.94 -107.52,-1.47 -110.41,80.23 -110.41,80.23l211.18 1.2 -3.26 -12.11c-9.69,-35.98 -34.5,-66 -68.04,-82.26z"/>
   <path class="fil0" d="M1715.62 1706.92c-3.6,4.05 -8.1,7.21 -13.12,9.24 -5.52,1.87 -11.36,2.67 -17.18,2.36 -10.36,0.02 -20.68,0.96 -30.85,2.83 -15.67,2.67 -30.57,8.75 -43.63,17.83 -17.1,12.37 -29.25,30.4 -34.3,50.9 -1.16,4.33 -1.85,8.75 -2.12,13.21 0.02,2.5 2.04,4.5 4.52,4.54l71.39 0.41 113.75 0.65 26.03 0.14c2.52,-0.04 4.56,-2.12 4.52,-4.64 0,-0.37 -0.06,-0.73 -0.14,-1.1 -3.05,-12.98 -7.45,-25.64 -13.11,-37.73 -8.34,-16.53 -20.09,-31.1 -34.45,-42.8 -7.94,-6.5 -16.61,-12.03 -25.81,-16.55 -5.23,-2.53 -9.83,5.27 -4.58,7.81 30.61,14.76 53.83,41.4 64.23,73.74 1.89,5.9 3.36,11.94 4.98,17.93l4.36 -5.72 -71.4 -0.4 -113.73 -0.65 -26.05 -0.14 4.53 4.52c0.04,-0.87 0.14,-1.77 0.22,-2.67 0.12,-1.1 0.08,-0.57 0.04,-0.31 0.08,-0.57 0.16,-1.14 0.27,-1.71 0.22,-1.36 0.49,-2.73 0.8,-4.09 1.6,-7.59 4.31,-14.94 8.08,-21.74 12.72,-23.32 36.02,-37 61.73,-42.25 11.26,-2.15 22.69,-3.15 34.15,-2.95 12.62,0.2 24.71,-4.98 33.28,-14.25 3.93,-4.29 -2.46,-10.72 -6.41,-6.41z"/>
   <path class="fil3" d="M1807 789.4l-89.96 844.12 249.24 22.45c0,0 69.24,-602.06 71.27,-695.15 2.05,-93.07 -44.6,-233.9 -44.6,-233.9l-185.96 62.48z"/>
   <path class="fil0" d="M1802.47 789.4l-2.4 22.61 -6.58 61.54 -9.65 90.63 -11.82 110.96 -12.91 121.08 -13.08 122.7 -12.19 114.38 -10.3 96.65 -7.37 69.24c-1.18,10.95 -2.79,21.94 -3.52,32.93 -0.04,0.47 -0.1,0.93 -0.14,1.4 -0.28,2.58 2.3,4.32 4.52,4.52l84.19 7.59 134.22 12.11 30.83 2.77c2.62,0.24 4.26,-2.28 4.52,-4.54 0.94,-8.22 1.9,-16.44 2.83,-24.69 2.5,-22.02 5.01,-44.06 7.49,-66.09 3.6,-31.99 7.18,-63.99 10.72,-95.98 4.19,-37.67 8.32,-75.34 12.44,-113.01 4.27,-39.48 8.5,-78.97 12.66,-118.47 3.93,-37.29 7.74,-74.59 11.46,-111.91 3.07,-31.12 6.06,-62.25 8.75,-93.41 1.83,-21.01 3.65,-42.03 4.62,-63.11 1.97,-42.64 -4.9,-85.5 -13.6,-127.14 -7.79,-37.33 -17.48,-74.24 -28.98,-110.59 -0.61,-1.96 -1.22,-3.91 -1.87,-5.84 -1.81,-5.52 -10.56,-3.16 -8.73,2.4 8.79,26.58 16.14,53.71 22.77,80.88 11.99,48.99 22.57,99.99 21.67,150.67 -0.32,18.38 -1.95,36.76 -3.44,55.05 -2.38,29.02 -5.09,58.03 -7.9,87 -3.52,36.25 -7.16,72.45 -10.94,108.66 -4.1,39.34 -8.27,78.66 -12.52,117.98 -4.15,38.49 -8.37,76.93 -12.62,115.39 -3.7,33.48 -7.43,66.94 -11.2,100.42 -2.79,24.79 -5.57,49.58 -8.41,74.37 -1.34,11.86 -3.48,23.93 -4.09,35.88 -0.04,0.51 -0.12,1.04 -0.18,1.55l4.52 -4.52 -84.2 -7.59 -134.22 -12.09 -30.81 -2.79 4.53 4.54 2.41 -22.61 6.55 -61.54 9.66 -90.63 11.83 -110.96 12.9 -121.09 13.09 -122.69 12.17 -114.4 10.32 -96.63 7.37 -69.24c1.18,-10.95 2.77,-21.94 3.52,-32.93 0.02,-0.47 0.1,-0.93 0.14,-1.4 0.61,-5.78 -8.45,-5.74 -9.06,0z"/>
   <path class="fil3" d="M1890.69 800.42l14.57 498.53c18.65,94.45 78.07,175.86 162.39,222.36l226.28 124.86 110.66 -194.44c0,0 -186.79,-119.65 -270.74,-159.91l13.12 -324.23c1.08,-26.48 -1,-52.98 -6.14,-78.97l-22.53 -113.46 -243.13 -67.98 15.52 93.23z"/>
   <path class="fil0" d="M1886.16 800.42l1.16 39.93 2.89 98.87 3.68 125.94 3.58 122.62 2.54 87.47 0.61 20.72c0.04,0.97 0,1.99 0.1,2.97 1.04,7.42 2.68,14.75 4.94,21.92 2.05,7.71 4.4,15.35 7,22.9 21.23,61.04 59.76,114.56 110.9,154.05 23.96,18.44 50.64,32.3 76.97,46.85l106.04 58.49 80.7 44.53 4.36 2.38c2.17,1.22 4.9,0.51 6.21,-1.61l37.53 -65.96 59.32 -104.27 13.8 -24.22c1.2,-2.18 0.49,-4.9 -1.63,-6.21 -22.57,-14.45 -45.28,-28.72 -68.1,-42.8 -44.73,-27.74 -89.73,-55.14 -135.48,-81.17 -22.06,-12.55 -44.29,-24.93 -67.19,-35.92l2.26 3.91 2.54 -62.91 5.25 -129.97 4.5 -110.61c0.27,-6.86 0.55,-13.72 0.81,-20.58 0.96,-28.31 -1.42,-56.64 -7.1,-84.4l-21.13 -106.38 -0.59 -3.03c-0.41,-1.52 -1.63,-2.73 -3.16,-3.16l-82.49 -23.06 -130.46 -36.47 -30.21 -8.45c-2.42,-0.57 -4.86,0.93 -5.45,3.36 -0.55,2.32 0.8,4.66 3.05,5.37l82.47 23.06 130.46 36.47 30.2 8.45 -3.16 -3.16 19.94 100.46c5.27,24.51 8.24,49.46 8.83,74.53 0.09,9.95 -0.43,19.88 -0.81,29.81l-4.15 102.27 -5.34 131.72c-1.02,25.11 -3.01,50.39 -3.05,75.52 0,0.39 -0.02,0.78 -0.04,1.17 -0.02,1.6 0.84,3.09 2.24,3.91 44.02,21.14 86.15,46.46 128.02,71.54 39.89,23.87 79.48,48.25 118.76,73.12 8,5.05 15.99,10.12 23.97,15.22l-1.6 -6.21 -37.53 65.96 -59.35 104.26 -13.8 24.22 6.21 -1.63 -58.91 -32.5 -108.46 -59.83 -58.92 -32.5c-56.35,-31.24 -102.15,-78.58 -131.45,-135.97 -7.45,-14.64 -13.74,-29.81 -18.85,-45.41 -2.48,-7.59 -4.7,-15.28 -6.61,-23.06 -1.38,-4.62 -2.46,-9.36 -3.24,-14.14 -0.45,-4.14 -0.24,-8.45 -0.36,-12.62l-2.2 -75.43 -3.42 -116.74 -3.7 -127.36 -3.13 -107.25 -1.67 -56.44 -0.06 -2.56c-0.17,-5.82 -9.22,-5.84 -9.06,0z"/>
   <path class="fil2" d="M1571.9 1828.22c-1.41,16.16 14.61,17.16 30.75,18.74 16.14,1.59 17.67,-13.96 33.81,-12.37 16.14,1.61 14.61,17.16 30.75,18.74 16.14,1.59 17.67,-13.96 33.81,-12.35 16.14,1.59 14.61,17.13 30.73,18.72 16.14,1.61 17.68,-13.96 33.82,-12.35 16.14,1.59 14.59,17.13 30.73,18.74 16.14,1.59 17.67,-13.96 33.81,-12.37 5.33,0.45 10.23,3.09 13.55,7.27 4.11,4.53 11.11,4.88 15.63,0.77 2,-1.81 3.28,-4.27 3.58,-6.96l5.09 -44.43 -284.87 -25.93c-5.7,14.02 -9.46,28.74 -11.19,43.78z"/>
   <path class="fil0" d="M1567.38 1828.22c-0.85,7.42 2.97,14.61 9.59,18.07 7.06,3.62 15.36,4.19 23.12,4.95 7.35,1.04 14.8,-1 20.6,-5.64 5.56,-4.27 10.56,-7.98 17.97,-6.05 6.39,1.67 9.43,7.73 13.98,11.95 5.78,5.27 13.72,7.51 21.41,6.02 6.84,-1.26 11.19,-6.21 16.81,-9.73 5.74,-3.69 13.23,-3.1 18.34,1.42 4.92,4.52 8.18,10.22 14.57,13.03 7.12,3.16 15.34,2.73 22.1,-1.16 5.23,-3.07 9.44,-8.55 15.81,-9.26 7.67,-0.88 12.19,3.62 16.77,8.94 4.57,5.86 11.46,9.48 18.88,9.93 7.59,0.41 13.36,-3.11 19.07,-7.59 5.64,-4.4 12.29,-6.94 19.13,-3.13 3.32,1.83 5.27,5.25 8.55,7.14 3.4,1.94 7.41,2.53 11.23,1.67 6.66,-1.61 11.52,-7.29 12.09,-14.11 0.43,-3.34 0.77,-6.67 1.16,-10.03l3.66 -32.04 0.24 -2.24c0.31,-2.58 -2.32,-4.33 -4.52,-4.52l-28.37 -2.58 -68.14 -6.21 -82.02 -7.47 -71.25 -6.49 -23.38 -2.12c-3.7,-0.35 -7.49,-0.96 -11.22,-1.02 -0.16,0 -0.32,-0.04 -0.48,-0.04 -2.02,0.02 -3.79,1.37 -4.36,3.32 -6.05,14.33 -9.87,29.49 -11.36,44.98 -0.55,5.8 8.51,5.76 9.06,0 1.51,-14.65 5.23,-29.02 11.03,-42.58l-4.37 3.33 28.39 2.57 68.12 6.21 82.04 7.47 71.23 6.5 23.41 2.12c3.7,0.59 7.45,0.91 11.19,1.04 0.16,0 0.33,0 0.49,0.04l-4.54 -4.54 -2.79 24.4 -1.73 15.14c0.14,2.73 -0.53,5.43 -1.93,7.8 -1.73,2.07 -4.56,2.91 -7.14,2.11 -3.03,-0.97 -5.22,-4.56 -7.78,-6.41 -6.78,-4.72 -15.51,-5.66 -23.14,-2.5 -5.6,2.38 -9.47,7.49 -15.06,9.77 -6.1,2.3 -13,0.52 -17.28,-4.4 -4.44,-4.72 -8,-9.65 -14.31,-12.03 -6.96,-2.61 -14.73,-1.92 -21.1,1.89 -4.94,3.01 -8.99,8.1 -14.96,9.02 -7.33,1.14 -12.19,-2.87 -16.61,-8.02 -3.97,-5.38 -9.79,-9.1 -16.34,-10.42 -7,-1.14 -14.15,0.73 -19.68,5.17 -5.09,3.83 -9.5,7.76 -16.36,6.92 -6.62,-0.84 -9.93,-5.7 -14.11,-10.28 -5.33,-6.12 -13.33,-9.28 -21.41,-8.42 -7.74,0.85 -12.4,5.84 -18.56,9.83 -6.74,4.36 -15.76,2.34 -23.2,0.97 -3.81,-0.4 -7.47,-1.71 -10.67,-3.82 -2.38,-2.28 -3.46,-5.64 -2.83,-8.87 0.36,-5.82 -8.67,-5.8 -9.06,0z"/>
   <path class="fil2" d="M1782.08 1796.02l114.16 -33.38c8.45,-2.91 12.92,-12.11 10.03,-20.56 -0.47,-1.36 -1.12,-2.64 -1.92,-3.82 -2.12,-7.25 -9.7,-11.4 -16.95,-9.28l-114.16 33.38 8.83 33.66z"/>
   <path class="fil0" d="M1783.3 1800.38l47.28 -13.84 62.7 -18.34c1.38,-0.39 2.79,-0.75 4.15,-1.2 8.14,-2.75 13.78,-10.18 14.23,-18.74 -0.17,-4.8 -1.51,-9.48 -3.87,-13.66 -1.91,-4.21 -5.35,-7.55 -9.62,-9.3 -4.23,-1.63 -8.9,-1.75 -13.19,-0.33 -18.77,5.39 -37.47,10.95 -56.19,16.42 -18.56,5.43 -37.27,10.47 -55.71,16.3 -0.35,0.1 -0.67,0.18 -1.02,0.28 -2.38,0.72 -3.78,3.18 -3.16,5.58l8.81 33.66c0.76,2.38 3.3,3.7 5.68,2.97 2.28,-0.71 3.6,-3.07 3.05,-5.39l-8.82 -33.64 -3.17 5.56 43.86 -12.82 63.03 -18.44c6.06,-1.77 13.98,-5.13 17.93,2.3 2,3.74 4.07,7.98 3.03,12.31 -0.85,3.5 -3.28,6.43 -6.55,7.96 -1.3,0.47 -2.63,0.85 -3.95,1.18l-58.07 16.97c-17.3,5.07 -34.76,9.75 -51.92,15.18 -0.32,0.1 -0.63,0.2 -0.93,0.28 -5.6,1.63 -3.22,10.38 2.4,8.73z"/>
   <path class="fil0" d="M1781.44 1752.32c14.63,0 26.51,11.87 26.51,26.52 0,14.65 -11.88,26.52 -26.51,26.52 -14.65,0 -26.52,-11.87 -26.52,-26.52 0,-14.65 11.87,-26.52 26.52,-26.52z"/>
   <path class="fil0" d="M1750.87 1784.11c2.91,16.89 18.97,28.21 35.86,25.28 16.87,-2.91 28.21,-18.97 25.28,-35.84 -2.91,-16.89 -18.97,-28.21 -35.86,-25.3 -1.79,0.31 -3.54,0.77 -5.27,1.41 -14.08,5.17 -22.49,19.64 -20.01,34.45 0.67,2.4 3.16,3.81 5.58,3.16 2.36,-0.72 3.74,-3.16 3.16,-5.56 -1.61,-12.07 6.88,-23.16 18.95,-24.75 12.07,-1.61 23.14,6.86 24.75,18.93 1.6,12.07 -6.88,23.16 -18.95,24.75 -1.3,0.18 -2.62,0.24 -3.92,0.18 -10.63,-0.57 -19.36,-8.58 -20.82,-19.11 -0.67,-2.41 -3.16,-3.81 -5.56,-3.18 -2.38,0.72 -3.79,3.18 -3.18,5.58z"/>
   <path class="fil0" d="M1972.04 1597.47l-24.93 -2.34 -59.49 -5.58 -72.33 -6.8 -62.25 -5.84 -20.74 -1.95c-3.24,-0.49 -6.49,-0.8 -9.75,-0.92 -0.14,0 -0.28,-0.02 -0.44,-0.04 -2.89,-0.27 -2.87,4.25 0,4.54l24.93 2.34 59.49 5.58 72.33 6.8 62.25 5.84 20.74 1.93c3.24,0.51 6.49,0.81 9.77,0.92 0.14,0.02 0.29,0.02 0.43,0.04 2.89,0.28 2.87,-4.26 0,-4.52z"/>
   <path class="fil0" d="M2130.86 1246.43l-4.15 88.73 -0.59 12.7c-0.28,5.82 8.77,5.8 9.06,0l4.15 -88.76 0.59 -12.68c0.27,-5.82 -8.79,-5.82 -9.06,0z"/>
   <path class="fil0" d="M2247.42 1620.57l37.89 -67.16 59.92 -106.2 13.76 -24.36c0.59,-1.1 0.18,-2.49 -0.92,-3.07 -1.06,-0.57 -2.36,-0.22 -2.99,0.77l-37.9 67.16 -59.92 106.19 -13.76 24.39c-0.59,1.1 -0.18,2.46 0.92,3.07 1.06,0.57 2.36,0.22 2.99,-0.79z"/>
   <path class="fil0" d="M2075.52 495.68c11.66,-2.71 16.26,-31.6 15.51,-65.06l-53.99 22.75c8.41,27.58 26.13,45.16 38.49,42.31z"/>
   <path class="fil0" d="M2076.72 500.05c9.65,-2.52 13.33,-14.35 15.29,-22.9 3.07,-15.31 4.27,-30.93 3.56,-46.55 -0.06,-2.6 -2.91,-5.56 -5.74,-4.36l-47.28 19.93 -6.73 2.83c-2.37,0.72 -3.77,3.16 -3.16,5.56 3.68,13.08 10.36,25.11 19.49,35.17 6.33,6.53 15.08,12.29 24.56,10.32 5.7,-1.18 3.3,-9.91 -2.4,-8.73 -2.56,0.31 -5.15,-0.21 -7.38,-1.49 -3.61,-2 -6.8,-4.6 -9.48,-7.69 -7.47,-8.71 -12.95,-18.95 -16.06,-29.98l-3.16 5.58 47.28 -19.93 6.72 -2.83 -5.72 -4.38c0.61,13.92 -0.28,27.84 -2.68,41.56 -0.76,4.68 -2.18,9.24 -4.18,13.53 -0.69,1.45 -1.59,2.79 -2.67,3.99 -0.39,0.41 -0.83,0.78 -1.3,1.08 -0.94,0.59 -0.31,0.27 -1.37,0.55 -2.4,0.75 -3.72,3.29 -2.97,5.68 0.72,2.28 3.05,3.6 5.37,3.05z"/>
   <path class="fil1" d="M1857.49 571.01l-171.16 148.98 -37.12 30.37c-50.55,40.19 -89.35,38.04 -176.27,-18.36l-236.98 -202.5 56.86 -90 277.71 181.78 13.25 -14.82 182.54 -210.21c17.65,-20.34 43.25,-32.01 70.19,-32.01l48.54 0 -27.55 206.78z"/>
   <path class="fil0" d="M1854.28 567.81l-36.05 31.38 -72.74 63.29 -56.31 49.03c-13.41,11.68 -27.4,22.71 -41.17,33.99 -11.54,10.02 -24.77,17.93 -39.06,23.36 -16.2,5.35 -33.62,5.72 -50.02,1.1 -23.55,-6.09 -45.33,-18.2 -65.96,-30.71 -7.65,-4.3 -14.96,-9.22 -21.82,-14.72l-46.48 -39.73 -72.86 -62.25 -70.71 -60.43 -40.05 -34.22 -1.89 -1.63 0.72 5.5 49.8 -78.85 7.04 -11.17 -6.19 1.63 27.72 18.15 66.23 43.35 80.08 52.43 69.51 45.51c11.17,7.31 22.12,15.37 33.68,22.04 0.17,0.08 0.33,0.2 0.49,0.31 1.77,1.04 4.03,0.73 5.47,-0.72 10.56,-11.76 20.96,-23.65 31.34,-35.6l62.64 -72.17 68.65 -79.07c11.05,-12.72 22.04,-25.5 33.14,-38.16 17.01,-19.48 41.6,-30.67 67.45,-30.71 14.51,-0.02 29.02,0 43.51,0l4.6 0c2.5,-0.08 4.46,-2.17 4.38,-4.68 -0.08,-2.38 -2,-4.3 -4.38,-4.38l-42 0c-7.94,-0.16 -15.85,0.35 -23.69,1.55 -14.17,2.49 -27.62,8.15 -39.32,16.51 -8.16,6.17 -15.55,13.27 -22.02,21.19l-20.06 23.1 -66.58 76.67 -66.29 76.36c-10.58,12.17 -21.09,24.4 -31.85,36.41l-5.9 6.59 5.47 -0.71 -27.7 -18.13 -66.25 -43.37 -80.09 -52.43 -69.5 -45.48c-11.15,-7.31 -22.12,-15.39 -33.69,-22.04 -0.16,-0.1 -0.32,-0.22 -0.47,-0.32 -2.17,-1.22 -4.93,-0.51 -6.21,1.63l-49.8 78.85 -7.04 11.15c-1.04,1.79 -0.73,4.03 0.72,5.49l28.83 24.65 66.66 56.96 75.36 64.39 54.99 46.99c3.58,3.07 7.12,6.21 10.79,9.22 7.61,5.66 15.67,10.75 24.06,15.18 11.38,6.86 23.14,13.04 35.23,18.54 18.05,8.04 37.55,14.37 57.54,13.64 17.56,-1.02 34.52,-6.7 49.15,-16.45 11.52,-7.79 22.57,-16.28 33.07,-25.4 7.21,-5.9 14.55,-11.68 21.63,-17.72 14.55,-12.46 28.9,-25.16 43.33,-37.71l74.09 -64.5 50.57 -44.02 2.62 -2.26c4.4,-3.85 -2.04,-10.22 -6.41,-6.41z"/>
   <path class="fil4" d="M1895.22 554.41l-168.13 161.04 -37.12 30.37c-50.57,40.21 -157.58,86.84 -244.51,30.44l-181.12 -163 99.4 -131.51 206.78 139.53 13.25 -14.82 182.54 -210.22c17.65,-20.33 43.27,-32.01 70.19,-32.01l48.54 0 10.18 190.17z"/>
   <path class="fil0" d="M1892.01 551.2l-30.24 28.96 -63.58 60.92 -58.29 55.82 -14.47 13.86c-4.23,4.05 -8.98,7.55 -13.49,11.25 -8.9,7.29 -17.67,14.76 -26.72,21.82 -15.59,11.95 -32.46,22.12 -50.29,30.35 -41.66,19.52 -89.96,29.88 -135.55,19.81 -12.16,-2.65 -23.96,-6.76 -35.13,-12.23 -5.74,-2.5 -11.22,-5.64 -16.29,-9.31 -4.29,-3.48 -8.28,-7.45 -12.39,-11.15l-56.42 -50.78 -67.69 -60.93 -41.85 -37.65 -2.07 -1.87 0.69 5.5 33.64 -44.51 53.57 -70.86 12.21 -16.14 -6.21 1.63 70.23 47.38 111.1 74.96 25.44 17.17c1.77,1.04 4.03,0.73 5.47,-0.71 10.56,-11.79 20.96,-23.67 31.34,-35.62l62.64 -72.15 68.65 -79.07c11.05,-12.72 22.04,-25.5 33.14,-38.16 17.01,-19.48 41.6,-30.67 67.45,-30.71 14.51,-0.04 29.02,0 43.51,0l4.6 0c2.5,-0.08 4.46,-2.18 4.38,-4.68 -0.08,-2.38 -2,-4.29 -4.38,-4.37l-42 0c-7.94,-0.18 -15.85,0.35 -23.69,1.55 -14.17,2.48 -27.62,8.12 -39.32,16.51 -8.16,6.17 -15.55,13.27 -22.02,21.17l-20.06 23.12 -66.58 76.67 -66.29 76.34c-10.58,12.2 -21.09,24.43 -31.85,36.43l-5.9 6.59 5.47 -0.71 -70.22 -47.4 -111.1 -74.95 -25.44 -17.18c-2.16,-1.2 -4.89,-0.48 -6.19,1.63l-33.64 44.51 -53.57 70.86 -12.21 16.14c-1.04,1.79 -0.76,4.03 0.71,5.49l30.47 27.41 65.54 58.98 62.58 56.34 18.37 16.52c7.62,6.47 16.16,11.75 25.36,15.65 44.81,20.62 95.74,18.91 142,4.07 34.23,-11.11 66.06,-28.56 93.82,-51.43 12.62,-10.32 25.64,-20.21 37.41,-31.51l50.35 -48.21 66.62 -63.81 42.66 -40.87 2.12 -2.01c4.21,-4.05 -2.2,-10.44 -6.42,-6.41z"/>
   <path class="fil4" d="M1885.03 363.68l156.71 3.62c23.9,-1.67 37.06,7.33 49.78,41.64 0,0 58.11,287.94 77.09,403.52 -38.7,-36.25 -363.2,-9.2 -363.2,-9.2l35.94 -356.41 43.67 -83.18z"/>
   <path class="fil0" d="M1885.03 368.21l103.94 2.41 49.64 1.16c6.39,0.14 12.74,-0.57 19.01,1.12 12.7,3.44 19.86,15.14 25.07,26.38 2.3,4.57 4.03,9.4 5.19,14.39 0.89,4.53 1.81,9.06 2.72,13.57 3.46,17.34 6.92,34.68 10.38,52.02 10.64,53.57 21.12,107.16 31.46,160.78 10.15,52.91 20.27,105.87 29.35,158.99 0.83,4.89 1.64,9.77 2.46,14.65l7.57 -4.4c-5.92,-4.82 -12.84,-8.18 -20.27,-9.87 -10.62,-2.83 -21.45,-4.82 -32.38,-5.96 -29.53,-3.2 -59.22,-4.66 -88.91,-4.4 -33.42,-0.14 -66.84,0.75 -100.24,2.13 -28.02,1.18 -56.01,2.71 -83.97,4.58 -9.04,0.61 -18.07,1.24 -27.11,1.91 -4.34,0.04 -8.69,0.37 -12.99,1.02 -0.18,0.02 -0.37,0.04 -0.55,0.04l4.52 4.52 3.58 -35.39 8.57 -85.03 10.38 -102.9 8.98 -89.04 2.97 -29.53c0.47,-4.58 1.24,-9.26 1.4,-13.86 0,-0.2 0.04,-0.43 0.06,-0.63 0.57,-5.8 -8.49,-5.76 -9.06,0l-3.56 35.39 -8.59 85.03 -10.36 102.92 -8.99 89.02 -2.97 29.56c-0.45,4.58 -1.22,9.24 -1.38,13.84 -0.02,0.22 -0.04,0.43 -0.08,0.63 0.02,2.5 2.04,4.54 4.54,4.54 10.78,-0.9 21.57,-1.67 32.36,-2.41 26.26,-1.81 52.51,-3.32 78.78,-4.53 32.93,-1.53 65.88,-2.58 98.85,-2.73 30.47,-0.16 61.06,0.27 91.42,3.05 11.46,0.92 22.86,2.57 34.09,4.9 4.44,0.94 8.79,2.14 13.08,3.58 0.86,0.29 1.71,0.61 2.54,0.94 0.43,0.16 0.86,0.35 1.29,0.51 -1.1,-0.45 0.47,0.22 0.75,0.35 1.47,0.67 2.89,1.44 4.26,2.28 0.61,0.39 1.2,0.79 1.79,1.22 -1.16,-0.85 0.45,0.39 0.8,0.72 1.83,1.73 4.74,1.65 6.45,-0.2 1.06,-1.12 1.48,-2.71 1.12,-4.19 -8.47,-51.45 -18.26,-102.7 -28.04,-153.9 -10.64,-55.84 -21.54,-111.63 -32.62,-167.4 -3.83,-19.29 -7.67,-38.59 -11.54,-57.88 -1.6,-8.02 -2.76,-16.28 -4.84,-24.2 -1.93,-6.21 -4.5,-12.19 -7.71,-17.84 -3.14,-6.43 -7.41,-12.28 -12.58,-17.24 -9.75,-8.84 -21.25,-10.26 -33.89,-10.04 -11.83,0.22 -23.73,-0.55 -35.54,-0.81l-118.69 -2.75 -2.5 -0.06c-5.82,-0.14 -5.82,8.92 0,9.06z"/>
   <path class="fil1" d="M2136.7 540.82l195.05 3.95 31.22 330.44 105.81 -11.72 10.38 -311.56c0.14,-101.66 -32.69,-134.77 -95.66,-149.18l-46.89 -10.07 -184.65 -35.76c-11.15,-2.16 -22.49,-3.25 -33.85,-3.25l-2.54 25.66 21.13 161.49z"/>
   <path class="fil0" d="M2136.7 545.35l65.86 1.34 105.02 2.12 24.18 0.49 -4.52 -4.52 3.12 32.97 7.45 78.81 8.99 95.31 7.82 82.71c1.26,13.35 2.36,26.72 3.78,40.05 0.02,0.2 0.04,0.39 0.06,0.59 0.2,2.22 1.91,4.81 4.53,4.52l92.66 -10.28 13.13 -1.47c2.48,-0.06 4.48,-2.05 4.54,-4.52l1.22 -36.67 2.85 -85.64 3.26 -97.63 2.46 -73.84c1.1,-22.18 0.27,-44.4 -2.54,-66.43 -2.22,-18.78 -7.97,-36.98 -16.99,-53.61 -7.75,-13.45 -18.69,-24.81 -31.81,-33.07 -24.65,-15.57 -54.42,-19.78 -82.41,-25.79 -14.86,-3.2 -29.77,-6.02 -44.68,-8.89l-93.01 -18.01c-19.44,-3.77 -38.85,-7.53 -58.29,-11.3 -11.62,-2.24 -23.43,-3.4 -35.27,-3.46 -2.48,0.06 -4.45,2.05 -4.52,4.54l-2.54 25.66c-0.59,5.78 8.47,5.74 9.03,0l2.57 -25.66 -4.54 4.52c23.86,0.1 47.4,5.94 70.72,10.46l92.74 17.97c17.93,3.46 35.92,6.76 53.81,10.42 11.39,2.32 22.75,4.89 34.11,7.33 12.66,2.38 25.12,5.7 37.27,9.95 13.96,4.99 26.6,13.07 36.98,23.65 10.81,12.01 18.58,26.42 22.69,42.03 7.55,26.07 8.79,53.73 7.9,80.72l-2.12 63.56 -3.16 95.13 -3.03 90.65 -1.69 51 -0.08 2.42 4.52 -4.54 -92.66 10.3 -13.13 1.45 4.52 4.53 -3.12 -32.99 -7.45 -78.81 -9.02 -95.29 -7.82 -82.71c-1.26,-13.35 -2.36,-26.74 -3.78,-40.07 -0.02,-0.18 -0.04,-0.39 -0.06,-0.57 -0.06,-2.48 -2.03,-4.48 -4.52,-4.53l-65.86 -1.33 -105.03 -2.13 -24.16 -0.49c-5.82,-0.12 -5.82,8.94 0,9.06z"/>
   <path class="fil4" d="M2095.95 571.01l194.69 0 16.6 182.62 164.51 -6.02 2.4 -63.13 5.01 -132.53c0.14,-101.68 -32.68,-134.77 -95.65,-149.2l-46.89 -10.06 -184.66 -35.76c-11.15,-2.16 -22.49,-3.25 -33.84,-3.25l-93.1 0 70.93 217.34z"/>
   <path class="fil0" d="M2095.95 575.53l194.69 0 -4.52 -4.52 5.62 61.91 8.94 98.18 2.05 22.53c0.04,2.48 2.04,4.48 4.52,4.52l55.6 -2.04 88.59 -3.25 20.31 -0.76c2.49,-0.04 4.48,-2.03 4.54,-4.52l2.38 -63.15 2.46 -64.78c0.85,-22.51 1.99,-45.02 2.54,-67.53 0.61,-21.37 -1.32,-42.71 -5.73,-63.62 -3.26,-16.85 -9.93,-32.85 -19.62,-47.02 -17.71,-24.52 -45.63,-37 -74.47,-43.31 -17.26,-3.76 -34.52,-7.65 -51.88,-11.01l-72.49 -14.04 -85.72 -16.59c-6.61,-1.28 -13.25,-2.56 -19.88,-3.84 -13.45,-2.49 -27.13,-3.69 -40.8,-3.57l-88.05 0c-2.5,0.1 -4.45,2.2 -4.37,4.7 0.08,2.38 2,4.27 4.37,4.36l71.32 0c9.83,0 19.74,-0.24 29.57,0.18 11.01,0.67 21.96,2.16 32.75,4.44l74.36 14.41 83.87 16.24c15.33,2.95 30.59,6.17 45.85,9.44 25.99,5.57 53.24,10.81 74.13,28.53 27.33,23.24 34.82,60.59 37.02,94.72 1.55,24.07 -0.1,48.15 -1.02,72.21l-3.05 80.72 -2.22 58.92 -0.37 9.58 4.52 -4.52 -55.58 2.04 -88.61 3.25 -20.31 0.73 4.54 4.54 -5.64 -61.93 -8.94 -98.18 -2.04 -22.51c-0.06,-2.48 -2.05,-4.48 -4.53,-4.54l-194.69 0c-2.5,0.09 -4.46,2.18 -4.38,4.68 0.08,2.38 2,4.29 4.38,4.37z"/>
   <path class="fil1" d="M2024.48 353c3.24,44.88 -30.53,83.89 -75.43,87.11 -44.88,3.24 -83.89,-30.53 -87.11,-75.41l-0.02 -0.24 162.55 -11.46z"/>
   <path class="fil0" d="M2019.95 353c3.18,42.39 -28.63,79.31 -71.01,82.49 -42.39,3.16 -79.31,-28.64 -82.49,-71.03l-4.52 4.54 55.05 -3.89 87.33 -6.17 20.17 -1.4c5.78,-0.41 5.82,-9.48 0,-9.06l-55.05 3.87 -87.35 6.17 -20.15 1.42c-2.5,0.02 -4.5,2.04 -4.54,4.52 3.13,47.38 44.08,83.24 91.46,80.1 25.52,-1.68 48.99,-14.65 63.99,-35.39 11.76,-16.26 17.49,-36.15 16.16,-56.17 -0.36,-5.78 -9.42,-5.82 -9.06,0z"/>
   <polygon class="fil1" points="1988.67,370.53 1980.81,268.06 1895.68,306.47 1896.76,373.97 "/>
   <path class="fil0" d="M1993.19 370.53l-6.88 -89.73 -0.96 -12.74c-0.08,-2.53 -2.2,-4.54 -4.74,-4.48 -0.73,0.02 -1.44,0.22 -2.08,0.57l-74.69 33.7 -10.44 4.7c-1.41,0.8 -2.26,2.3 -2.24,3.91l0.93 58.94 0.12 8.57c0.1,5.82 9.16,5.84 9.06,0l-0.93 -58.94 -0.13 -8.57 -2.26 3.91 74.69 -33.69 10.44 -4.72 -6.82 -3.91 6.88 89.73 0.98 12.74c0.44,5.78 9.5,5.82 9.05,0z"/>
   <path class="fil1" d="M1983.56 303.44c47.93,-41.56 30.39,-79.78 31.53,-108.27 0.67,-16.56 -23.04,-51.08 -23.04,-51.08l-136.7 -30.37 -29.98 45.75c0,0 -57.35,190.43 102.27,154.1l55.93 -10.14z"/>
   <path class="fil0" d="M1986.77 306.65c14.28,-12.52 26.38,-27.86 31.71,-46.34 3.93,-13.59 3.74,-27.7 2.5,-41.66 -0.53,-6.02 -1.22,-12.05 -1.38,-18.12 0.18,-5.84 -0.48,-11.68 -1.99,-17.34 -4.46,-12.72 -10.55,-24.81 -18.1,-35.99 -1.55,-2.44 -3.37,-6.45 -6.25,-7.49 -1.04,-0.31 -2.09,-0.53 -3.17,-0.69l-19.97 -4.44 -67.37 -14.98 -46.22 -10.26c-1.97,-0.49 -4.03,0.35 -5.11,2.08l-17.2 26.23 -10.38 15.83c-1.18,1.55 -2.16,3.22 -2.93,4.99 -3.17,10.23 -5.43,20.72 -6.78,31.34 -3.56,20 -4.23,40.4 -1.99,60.56 2.68,20.62 9.95,41.79 26.31,55.54 21.31,17.91 50.55,18.8 76.83,14.63 4.54,-0.71 9.06,-1.61 13.53,-2.62 5.7,-1.28 3.28,-10.02 -2.4,-8.73 -25.34,5.72 -55.46,8.45 -77.89,-6.9 -15.87,-10.87 -23.62,-29.51 -26.82,-48.56 -1.51,-9.81 -2.1,-19.72 -1.79,-29.63 0.1,-4.93 0.41,-9.87 0.84,-14.8 0.4,-4.45 1,-9.5 1.51,-13.03 1.75,-11.62 4.13,-23.14 7.14,-34.49 0.1,-0.33 0.2,-0.63 0.27,-0.98 0.04,-0.22 -0.93,1.49 -0.02,0.35 2.67,-3.66 5.15,-7.45 7.45,-11.35l20.68 -31.57 1.47 -2.24 -5.11 2.08 46.22 10.28 73.64 16.34 16.85 3.75 -2.71 -2.08c3.95,5.76 7.57,11.76 10.97,17.85 4.9,8.81 11.35,19.66 11.47,30.06 0.25,21.01 5.13,42.52 -0.71,63.17 -4.86,17.22 -16.24,31.18 -29.51,42.78 -4.4,3.85 2.03,10.23 6.41,6.41z"/>
   <path class="fil0" d="M1881.02 200.18c0.79,-0.52 1.6,-0.99 2.46,-1.4 0.43,-0.22 0.84,-0.4 1.26,-0.61 0.61,-0.28 0.22,-0.08 -0.16,0.06 0.28,-0.1 0.57,-0.22 0.85,-0.33 1.26,-0.48 2.54,-0.89 3.85,-1.22 0.69,-0.17 1.4,-0.33 2.12,-0.45 0.08,-0.02 1.42,-0.22 0.44,-0.08 0.35,-0.06 0.72,-0.1 1.06,-0.12 1.77,-0.16 3.54,-0.18 5.31,-0.04 0.67,0.04 1.36,0.12 2.01,0.27 0.96,0.18 1.91,0.4 2.85,0.69 2.05,0.61 4.05,1.44 5.94,2.5 2.16,1.26 4.93,0.53 6.18,-1.63 1.26,-2.16 0.55,-4.94 -1.63,-6.21 -7.87,-4.41 -17.12,-5.78 -25.97,-3.82 -3.97,0.81 -7.75,2.36 -11.16,4.58 -2.11,1.3 -2.83,4.03 -1.63,6.18 1.28,2.14 4.03,2.87 6.19,1.63z"/>
   <path class="fil0" d="M1823.07 200.19c0.88,-0.43 -1.04,0.32 0.32,-0.14 1.1,-0.39 2.2,-0.77 3.34,-1.08 3.69,-1 7.51,-1.47 11.34,-1.36 6.55,-0.04 12.35,4.19 14.37,10.42 1.83,6.02 -0.51,12.92 -3.24,18.34 -1.93,3.87 -4.32,7.49 -7.1,10.78 -1.69,1.55 -2.81,3.61 -3.2,5.84 -0.18,1.51 -0.1,3.01 0.28,4.48 2.24,8.32 12.11,7.82 18.85,6.88 2.4,-0.67 3.8,-3.15 3.16,-5.56 -0.72,-2.38 -3.16,-3.76 -5.56,-3.17 -2.46,0.51 -5,0.45 -7.42,-0.18 -0.27,-0.12 -0.29,-0.22 -0.31,-0.28 0.02,0.04 -0.04,-0.18 -0.04,-0.27 0.02,-0.39 0,-1.08 0.02,-1.28l-1.16 2.01c10.26,-11.54 21.62,-31.08 11.62,-46.16 -8.61,-12.95 -26.84,-13.39 -39.85,-7.08 -5.23,2.54 -0.65,10.36 4.58,7.82z"/>
   <path class="fil0" d="M1829.41 216.35c3.24,0 5.86,2.62 5.86,5.86 0,3.24 -2.62,5.86 -5.86,5.86 -3.24,0 -5.86,-2.62 -5.86,-5.86 0,-3.24 2.62,-5.86 5.86,-5.86z"/>
   <path class="fil0" d="M1825.82 222.34c0,-0.18 -0.06,-0.65 0.04,-0.82l-0.04 0.29c0.02,-0.1 0.04,-0.2 0.06,-0.31 0.02,-0.1 0.04,-0.2 0.08,-0.31 0.04,-0.14 0.1,-0.28 0.14,-0.45 0.1,-0.31 -0.06,0.06 -0.04,0.13 -0.06,-0.13 0.36,-0.67 0.45,-0.8 0.24,-0.43 -0.27,0.24 -0.05,0.02 0.1,-0.08 0.17,-0.2 0.25,-0.28 0.1,-0.1 0.43,-0.53 0.57,-0.53 -0.09,0 -0.37,0.27 -0.1,0.08 0.12,-0.08 0.27,-0.16 0.39,-0.24 0.08,-0.06 0.18,-0.1 0.27,-0.16 0.1,-0.04 0.18,-0.08 0.28,-0.12 -0.28,0.1 -0.35,0.12 -0.18,0.08 0.25,-0.06 0.49,-0.18 0.76,-0.24 0.08,-0.02 0.31,-0.1 0.39,-0.06 -0.27,-0.12 -0.39,0.02 -0.04,0 0.27,0 0.55,0 0.81,0.02 0.31,0.02 0.24,0.17 -0.04,-0.02 0.14,0.04 0.31,0.08 0.45,0.1 0.27,0.02 0.51,0.1 0.75,0.24l-0.27 -0.12c0.1,0.06 0.18,0.1 0.29,0.14 0.08,0.06 0.16,0.1 0.27,0.17 0.1,0.06 0.2,0.14 0.3,0.2 0.29,0.12 -0.39,-0.37 -0.02,-0.04 0.22,0.22 0.43,0.43 0.65,0.65 0.28,0.31 -0.06,-0.1 -0.06,-0.1 0.08,0.04 0.21,0.29 0.25,0.37 0.08,0.14 0.4,0.57 0.36,0.69 0,0 -0.18,-0.55 -0.04,-0.13 0.04,0.17 0.1,0.31 0.14,0.45 0.02,0.1 0.04,0.2 0.08,0.31 0.02,0.1 0.04,0.22 0.04,0.32 -0.02,-0.31 -0.04,-0.39 -0.02,-0.2 0,0.24 0.02,0.49 0.02,0.73 0.02,0.16 0,0.33 -0.04,0.47 0.12,-0.2 0.08,-0.39 0.02,-0.12 -0.08,0.27 -0.12,0.51 -0.2,0.76l-0.06 0.14c-0.1,0.25 -0.09,0.21 0.04,-0.1 0.04,0.06 -0.18,0.36 -0.21,0.4 -0.06,0.1 -0.14,0.22 -0.2,0.33 -0.1,0.18 -0.12,0.4 0.04,-0.02 -0.14,0.2 -0.31,0.41 -0.51,0.57 -0.1,0.06 -0.18,0.16 -0.29,0.24 -0.18,0.25 0.45,-0.28 0.05,-0.02 -0.27,0.16 -0.53,0.31 -0.8,0.47 -0.24,0.12 -0.02,0.1 0.12,-0.04 -0.14,0.08 -0.28,0.12 -0.44,0.14 -0.22,0.08 -0.47,0.12 -0.69,0.18 -0.33,0.06 0.57,-0.02 0.04,-0.02 -0.14,0 -0.27,0.02 -0.41,0.02 -0.14,0 -0.27,0 -0.4,0 -0.1,-0.02 -0.21,-0.02 -0.33,-0.04l0.28 0.04c-0.08,0.08 -0.75,-0.18 -0.89,-0.24 -0.1,-0.02 -0.44,-0.24 -0.16,-0.04 0.28,0.2 -0.22,-0.12 -0.28,-0.16 -0.08,-0.06 -0.18,-0.1 -0.27,-0.17 -0.08,-0.06 -0.16,-0.1 -0.25,-0.16 0.25,0.2 0.29,0.22 0.09,0.06 -0.18,-0.16 -0.37,-0.33 -0.55,-0.53l-0.1 -0.1c-0.14,-0.18 -0.13,-0.16 0.08,0.1 -0.12,-0.12 -0.21,-0.24 -0.27,-0.39 -0.08,-0.12 -0.16,-0.27 -0.22,-0.39l-0.08 -0.14c-0.1,-0.22 -0.08,-0.18 0.04,0.12 -0.14,-0.14 -0.24,-0.71 -0.27,-0.91 -0.02,-0.1 -0.04,-0.21 -0.06,-0.31 0.04,0.35 0.04,0.39 0.02,0.12 -0.02,-0.1 -0.02,-0.22 -0.02,-0.32 -0.02,-1.26 -1.04,-2.26 -2.3,-2.24 -1.22,0.02 -2.22,1.02 -2.22,2.24 0.09,3.42 2.3,6.43 5.54,7.57 3.17,1.06 6.67,0.06 8.82,-2.53 2.87,-3.44 2.38,-8.54 -1.06,-11.42 -3.44,-2.87 -8.57,-2.4 -11.42,1.04 -1.24,1.51 -1.92,3.4 -1.87,5.34 0,1.24 1.04,2.26 2.28,2.24 1.22,-0.02 2.22,-1.02 2.24,-2.24z"/>
   <path class="fil0" d="M1884.57 212.86c3.23,0 5.86,2.62 5.86,5.86 0,3.24 -2.63,5.86 -5.86,5.86 -3.24,0 -5.86,-2.62 -5.86,-5.86 0,-3.24 2.62,-5.86 5.86,-5.86z"/>
   <path class="fil0" d="M1880.97 218.85c0,-0.18 -0.06,-0.65 0.04,-0.81l-0.04 0.29c0.02,-0.1 0.04,-0.21 0.06,-0.31 0.02,-0.1 0.05,-0.21 0.09,-0.31 0.04,-0.14 0.1,-0.29 0.14,-0.45 0.1,-0.31 -0.06,0.08 -0.04,0.12 -0.06,-0.12 0.39,-0.67 0.45,-0.79 0.24,-0.43 -0.27,0.24 -0.04,0.02 0.1,-0.08 0.16,-0.2 0.27,-0.28 0.08,-0.1 0.4,-0.53 0.55,-0.53 -0.08,0 -0.37,0.27 -0.1,0.08 0.12,-0.08 0.27,-0.16 0.39,-0.24 0.08,-0.06 0.18,-0.1 0.27,-0.16 0.1,-0.04 0.18,-0.08 0.29,-0.13 -0.29,0.1 -0.35,0.14 -0.18,0.09 0.24,-0.06 0.48,-0.18 0.75,-0.25 0.08,-0.02 0.31,-0.1 0.39,-0.06 -0.27,-0.13 -0.39,0.04 -0.04,0.02 0.27,-0.02 0.55,-0.02 0.81,0 0.31,0.02 0.25,0.16 -0.04,-0.02 0.14,0.04 0.31,0.08 0.47,0.1 0.25,0.02 0.49,0.12 0.73,0.25l-0.26 -0.1c0.1,0.04 0.18,0.08 0.28,0.12 0.08,0.06 0.16,0.1 0.27,0.16 0.1,0.08 0.2,0.14 0.31,0.21 0.28,0.12 -0.39,-0.37 -0.02,-0.02 0.22,0.2 0.43,0.41 0.65,0.63 0.29,0.31 -0.06,-0.1 -0.06,-0.1 0.08,0.04 0.2,0.28 0.24,0.39 0.08,0.12 0.4,0.55 0.36,0.67 0,0 -0.18,-0.52 -0.04,-0.12 0.04,0.16 0.1,0.31 0.14,0.45l0.08 0.31 0.06 0.32c-0.04,-0.31 -0.06,-0.39 -0.04,-0.2 0,0.24 0.02,0.48 0.02,0.73 0.02,0.16 0,0.32 -0.04,0.48 0.12,-0.2 0.08,-0.4 0.02,-0.14 -0.08,0.27 -0.13,0.51 -0.21,0.75l-0.06 0.17c-0.08,0.22 -0.08,0.18 0.06,-0.13 0.02,0.06 -0.2,0.37 -0.22,0.41 -0.06,0.12 -0.14,0.22 -0.21,0.32 -0.1,0.18 -0.12,0.41 0.04,-0.02 -0.14,0.2 -0.31,0.4 -0.51,0.57 -0.1,0.08 -0.18,0.16 -0.28,0.24 -0.18,0.24 0.44,-0.28 0.04,-0.02 -0.27,0.17 -0.53,0.33 -0.8,0.47 -0.24,0.14 -0.02,0.1 0.12,-0.04 -0.14,0.08 -0.28,0.12 -0.44,0.16 -0.22,0.06 -0.47,0.1 -0.69,0.16 -0.33,0.06 0.57,-0.02 0.04,-0.02 -0.12,0 -0.27,0.02 -0.41,0.02 -0.12,0 -0.27,0 -0.4,0 -0.1,-0.02 -0.2,-0.02 -0.31,-0.04l0.27 0.04c-0.08,0.08 -0.76,-0.18 -0.89,-0.24 -0.1,-0.02 -0.43,-0.25 -0.17,-0.04 0.29,0.2 -0.22,-0.13 -0.28,-0.17 -0.08,-0.04 -0.18,-0.1 -0.27,-0.16 -0.08,-0.06 -0.16,-0.1 -0.24,-0.16 0.24,0.2 0.28,0.22 0.08,0.06 -0.18,-0.16 -0.37,-0.32 -0.55,-0.52l-0.1 -0.1c-0.14,-0.18 -0.12,-0.16 0.08,0.1 -0.12,-0.12 -0.2,-0.25 -0.27,-0.39 -0.08,-0.12 -0.16,-0.27 -0.22,-0.39l-0.08 -0.14c-0.1,-0.22 -0.08,-0.18 0.04,0.12 -0.14,-0.14 -0.22,-0.71 -0.27,-0.89 -0.02,-0.12 -0.04,-0.22 -0.06,-0.32 0.04,0.34 0.04,0.39 0.02,0.12 -0.02,-0.1 -0.02,-0.22 -0.02,-0.33 0,-1.24 -1.02,-2.26 -2.26,-2.26 -1.26,0 -2.26,1.02 -2.26,2.26 0.08,3.42 2.3,6.43 5.53,7.57 3.18,1.06 6.67,0.06 8.82,-2.53 2.87,-3.44 2.38,-8.55 -1.06,-11.42 -3.44,-2.87 -8.57,-2.4 -11.42,1.06 -1.24,1.49 -1.91,3.38 -1.87,5.31 0,1.26 1,2.26 2.26,2.26 1.24,0 2.26,-1 2.26,-2.26z"/>
   <path class="fil0" d="M1979.3 193.49c-2.54,-0.72 -5.23,-0.69 -7.75,0.02 -5.68,1.87 -10.34,6.03 -12.82,11.44 -2.48,5.01 -4.21,10.34 -5.13,15.85 -0.65,2.4 0.77,4.89 3.2,5.54 2.38,0.65 4.86,-0.76 5.53,-3.14 0.45,-2.52 1.04,-5.02 1.77,-7.47 0.31,-1.02 0.65,-2.04 1.02,-3.03 0.16,-0.43 0.35,-0.85 0.51,-1.3 0.22,-0.61 -0.47,1.04 -0.06,0.13 0.13,-0.25 0.25,-0.51 0.37,-0.78 0.67,-1.44 1.47,-2.84 2.36,-4.17 0.1,-0.12 0.18,-0.24 0.27,-0.36 0.28,-0.39 0.69,-0.53 -0.18,0.22 0.2,-0.21 0.37,-0.41 0.53,-0.65 0.43,-0.49 0.85,-0.96 1.32,-1.38 0.22,-0.2 0.43,-0.41 0.67,-0.61 0.08,-0.06 0.16,-0.14 0.27,-0.2 0.52,-0.49 -0.9,0.63 -0.47,0.35 0.45,-0.29 0.86,-0.61 1.33,-0.88 0.39,-0.22 0.79,-0.41 1.2,-0.63 0.55,-0.27 -1.34,0.48 -0.41,0.18 0.22,-0.08 0.45,-0.16 0.67,-0.22 0.35,-0.1 0.69,-0.21 1.04,-0.27 0.18,-0.04 0.36,-0.06 0.55,-0.1 0.53,-0.12 -1.49,0.14 -0.59,0.08 0.57,-0.06 1.16,-0.06 1.72,-0.04 0.14,0.02 0.29,0.04 0.45,0.04 0.73,0.04 -1.1,-0.18 -0.81,-0.12 0.18,0.06 0.39,0.08 0.57,0.12 0.16,0.02 0.32,0.06 0.48,0.12 2.41,0.65 4.89,-0.77 5.58,-3.15 0.59,-2.41 -0.8,-4.87 -3.17,-5.58z"/>
   <path class="fil1" d="M1250.89 542.25l-59.16 -35.68c-8.24,-4.98 -15.69,-11.17 -22.06,-18.37 -14.56,-16.42 -30.53,-28.74 -52.19,-32.24l-8.42 -16.93c0,0 71.27,-87.94 81.78,-86.03l29.36 -2.5c-2.83,-7.1 -1.26,-15.22 4.03,-20.74 7.47,-7.79 19.82,-8.04 27.59,-0.59 0.92,0.87 1.75,1.85 2.49,2.91l13.62 19.46c8.49,12.15 14.24,26.01 16.85,40.6l3.09 17.42c3.46,19.37 14.77,36.45 31.28,47.19l4.58 2.97 -72.84 82.53z"/>
   <path class="fil0" d="M1253.17 538.34l-39.4 -23.77c-6.22,-3.74 -12.43,-7.49 -18.66,-11.25 -3.99,-2.37 -7.81,-5.01 -11.43,-7.9 -6.59,-5.42 -11.91,-12.03 -17.95,-18.01 -13.04,-12.92 -28.74,-22.71 -47.03,-25.83l2.71 2.09 -8.43 -16.93 -0.71 5.47c11.54,-14.23 23.36,-28.25 35.47,-42.03 8.79,-10.05 17.72,-20.02 27.17,-29.45 3.5,-3.57 7.19,-6.96 11.03,-10.16 0.43,-0.39 0.92,-0.75 1.41,-1.08 0.67,-0.47 1.34,-0.95 2.05,-1.36 0.49,-0.28 1.89,-1.38 0.76,-0.47 0.75,-0.61 1.14,-0.04 0.27,-0.18 -0.63,-0.1 -0.94,0.06 0.44,0.02 0.18,0 0.37,-0.04 0.53,-0.04 0.96,-0.02 1.93,-0.17 2.89,-0.25l10.15 -0.85 15.77 -1.34c2.53,-0.04 4.56,-2.12 4.52,-4.64 0,-0.39 -0.06,-0.73 -0.14,-1.1 -3.1,-7.45 0.1,-16.02 7.33,-19.61 6.22,-2.87 13.59,-1.22 17.99,4.05 5.09,6.13 9.3,13.19 13.86,19.72 8.67,12.58 14.49,26.92 17.01,41.99 1.96,10.97 3.46,21.92 7.96,32.21 6.84,15.72 18.61,26.83 32.73,35.98 4.89,3.2 9.44,-4.64 4.56,-7.81 -13.39,-8.71 -24.46,-19.44 -30.24,-34.7 -3.66,-9.63 -4.78,-20.09 -6.63,-30.18 -3.22,-16.26 -9.91,-31.64 -19.68,-45.08l-9.48 -13.57c-2.72,-4.52 -6.61,-8.22 -11.27,-10.7 -12.19,-5.54 -26.54,-0.14 -32.08,12.02 -2.58,5.7 -2.87,12.2 -0.77,18.1l4.36 -5.72c-9.71,0.81 -19.44,1.61 -29.16,2.49 -0.65,0.04 0.89,0.14 0.85,0.14 -0.51,0.02 -1.04,-0.16 -1.57,-0.16 -0.81,0.04 -1.6,0.18 -2.38,0.43 -1.55,0.53 -2.99,1.29 -4.32,2.22 -3.74,2.62 -7.27,5.57 -10.52,8.77 -19.29,18.2 -36.39,38.87 -53.36,59.17 -4.68,5.57 -9.3,11.17 -13.88,16.81 -1.38,1.48 -1.67,3.68 -0.71,5.47l6.08 12.25c0.67,1.61 1.45,3.18 2.32,4.66 1.38,2.04 3.36,2.18 5.57,2.62 2.61,0.53 5.17,1.2 7.7,2.01 8.81,2.91 17.01,7.47 24.16,13.44 7.43,6.06 13.4,13.43 20.23,20.09 8.02,7.33 16.85,13.7 26.34,18.99l29.51 17.81 21.55 12.99c4.98,3.01 9.55,-4.81 4.56,-7.82z"/>
   <path class="fil1" d="M1162.18 431.96c-30.49,-8.65 -62.12,-12.54 -93.77,-11.52 -32.13,4.27 -29.91,27.74 1.67,31.12 31.59,3.36 44.59,-1.75 80.06,19.21l12.03 -38.81z"/>
   <path class="fil0" d="M1163.39 427.59c-9.54,-2.87 -19.25,-5.11 -29.06,-6.73 -10.32,-1.85 -20.72,-3.22 -31.16,-4.1 -6.04,-0.51 -12.11,-0.83 -18.17,-0.97 -6.31,-0.4 -12.66,-0.24 -18.95,0.45 -7.7,1.18 -16.41,3.82 -21.58,10.07 -4.11,4.64 -4.74,11.42 -1.56,16.73 3.87,6.45 11.54,9.89 18.54,11.6 9.35,1.83 18.85,2.79 28.4,2.85 8.58,0.18 17.16,1.2 25.56,2.99 11.46,3.13 22.38,7.92 32.46,14.21 2.2,1.18 4.95,0.36 6.15,-1.83 1.14,-2.09 0.44,-4.72 -1.57,-5.98 -15.02,-9.43 -31.91,-15.41 -49.49,-17.57 -7.62,-0.75 -15.29,-0.91 -22.9,-1.42 -8.22,-0.57 -17.2,-0.89 -24.51,-5.15 -2.12,-1.06 -3.88,-2.71 -5.09,-4.74 -0.63,-1.18 -0.77,-2.57 -0.35,-3.82 2.46,-5.8 10.64,-7.78 16.12,-8.83 5.78,-0.76 11.6,-0.94 17.42,-0.51 5.68,0.1 11.34,0.37 17.01,0.8 9.65,0.73 19.27,1.92 28.82,3.54 10.64,1.67 21.17,4.07 31.51,7.17 5.57,1.75 7.96,-6.98 2.4,-8.73z"/>
   <path class="fil1" d="M1163.49 397.27c0,0 -49.58,-20.45 -100.34,-28.21 -32.36,-1.83 -34.6,21.63 -4.19,30.88 30.41,9.22 58.04,19.98 108.94,39.32l-4.41 -41.99z"/>
   <path class="fil0" d="M1164.7 392.91c-12.21,-5.03 -24.77,-9.26 -37.37,-13.19 -12.36,-3.85 -24.85,-7.29 -37.47,-10.16 -12.42,-2.8 -25.6,-6.49 -38.38,-4.48 -7.23,1.12 -15.35,4.62 -17.85,12.11 -2.3,6.88 1.63,13.84 6.8,18.22 7.55,6.37 17.05,8.73 26.23,11.66 8.55,2.73 17.06,5.62 25.52,8.63 24.99,8.87 49.72,18.5 74.53,27.92 5.45,2.08 7.81,-6.67 2.4,-8.73 -21.14,-8.04 -42.27,-16.18 -63.52,-23.96 -15.92,-5.82 -32.16,-10.6 -48.11,-16.26 -5.45,-1.93 -14.45,-6.17 -15.43,-12.4 -0.28,-1.64 0.33,-3.32 1.59,-4.41 2.41,-2.04 5.34,-3.34 8.47,-3.74 11.3,-2.28 23.69,1.56 34.68,4.03 11.92,2.69 23.73,5.88 35.42,9.47 13.51,4.13 27.01,8.62 40.09,14.02 5.38,2.22 7.71,-6.53 2.41,-8.73z"/>
   <path class="fil5" d="M2367.46 1324.49l0 0c1.63,-6.78 -0.35,-13.92 -5.23,-18.91 -26.68,-27.05 -26.38,-70.59 0.65,-97.27 27.03,-26.68 70.59,-26.39 97.27,0.65 26.68,27.03 26.39,70.58 -0.65,97.26 -7.29,7.21 -16.12,12.68 -25.81,16.04 -6.72,2.26 -11.78,7.79 -13.45,14.68 -2.58,10.99 4.21,21.98 15.18,24.56l102.96 24.32c24.48,5.77 49.03,-9.39 54.81,-33.87l24.3 -102.96c2.6,-10.99 13.59,-17.79 24.56,-15.18l0.02 0c6.78,1.59 12.29,6.53 14.57,13.12 12.23,35.96 51.31,55.18 87.27,42.92 35.96,-12.23 55.18,-51.3 42.92,-87.27 -12.23,-35.96 -51.3,-55.18 -87.27,-42.92 -9.7,3.29 -18.56,8.73 -25.89,15.89 -5.02,4.98 -12.25,7.06 -19.15,5.47 -10.99,-2.61 -17.76,-13.6 -15.18,-24.56l24.38 -103.28c5.8,-24.48 -9.38,-49.03 -33.86,-54.81l-102.96 -24.32c-10.97,-2.58 -17.77,-13.57 -15.18,-24.56 1.67,-6.88 6.76,-12.42 13.45,-14.68 35.9,-12.43 54.93,-51.59 42.5,-87.49 -12.42,-35.9 -51.59,-54.91 -87.48,-42.5 -35.9,12.42 -54.93,51.59 -42.5,87.49 3.34,9.69 8.84,18.5 16.04,25.81 4.86,4.99 6.84,12.13 5.21,18.91l0 0c-2.58,10.97 -13.59,17.76 -24.56,15.18l-103.28 -24.4c-24.48,-5.77 -49.03,9.39 -54.81,33.87l-24.31 102.98c-2.6,10.97 -13.59,17.77 -24.56,15.16 -6.88,-1.67 -12.43,-6.73 -14.69,-13.43 -12.42,-35.9 -51.59,-54.93 -87.49,-42.5 -35.88,12.42 -54.9,51.59 -42.5,87.47 12.44,35.9 51.59,54.93 87.49,42.5 9.69,-3.36 18.52,-8.83 25.81,-16.03 4.98,-4.87 12.13,-6.84 18.91,-5.22l0 0c10.99,2.58 17.79,13.57 15.18,24.55l-24.39 103.31c-5.78,24.48 9.39,49.01 33.87,54.79l103.28 24.4c10.97,2.58 21.98,-4.22 24.56,-15.18z"/>
   <path class="fil0" d="M2371.82 1325.69c1.96,-8.75 -0.75,-17.89 -7.2,-24.16 -24.44,-25.71 -23.43,-66.37 2.3,-90.83 25.71,-24.46 66.37,-23.45 90.83,2.28 14.96,15.73 20.96,37.98 15.96,59.1 -3.77,15.84 -13.4,29.65 -26.93,38.67 -3.09,2.05 -6.35,3.85 -9.73,5.35 -3.91,1.34 -7.65,3.05 -11.19,5.15 -7.08,4.95 -11.11,13.19 -10.67,21.82 0.85,11.42 9.2,20.86 20.42,23.14 6.33,1.53 12.67,2.99 19,4.5l62.14 14.65 19.01 4.49c10.89,2.79 22.37,1.96 32.75,-2.34 14.53,-6.27 25.27,-18.99 29.04,-34.36 1.06,-4.3 2.04,-8.59 3.03,-12.88l14.41 -61.04 5.68 -24.02c1.67,-7.08 3.78,-13.96 11.6,-16.61 7.45,-2.46 15.59,0.82 19.23,7.76 1.71,3.36 2.73,7.1 4.38,10.52 1.79,3.73 3.93,7.29 6.37,10.64 23.63,32.83 69.4,40.3 102.23,16.67 32.85,-23.63 40.3,-69.4 16.67,-102.25 -23,-31.97 -67.2,-40.03 -100.01,-18.21 -7.29,4.9 -13.44,14 -23.16,13.27 -7.41,-0.63 -13.43,-6.29 -14.53,-13.64 -0.69,-4.92 1.41,-10.56 2.53,-15.28l14.06 -59.51 6.21 -26.28c1.59,-5.68 2.67,-11.5 3.2,-17.38 0.67,-16.04 -6.37,-31.45 -18.93,-41.44 -6.96,-5.19 -15,-8.75 -23.5,-10.44 -32.89,-7.77 -65.98,-14.94 -98.73,-23.32 -8.61,-2.05 -13.9,-10.7 -11.82,-19.31 1.24,-5.15 4.97,-9.36 9.93,-11.24 15.02,-5.45 27.99,-15.4 37.16,-28.49 22.57,-33.6 13.62,-79.15 -20.01,-101.72 -33.62,-22.57 -79.15,-13.6 -101.72,20 -11.5,17.14 -15.24,38.31 -10.34,58.33 2.22,9.06 6.17,17.58 11.6,25.15 5.07,7 13.21,12.56 11.75,22.25 -1.16,7.23 -7.02,12.76 -14.31,13.49 -2.42,0.1 -4.82,-0.18 -7.15,-0.88l-51.55 -12.17c-16.16,-3.81 -32.3,-7.66 -48.46,-11.44 -11.76,-2.93 -24.18,-1.65 -35.09,3.65 -13.23,6.65 -22.87,18.8 -26.35,33.21 -8.06,32.77 -15.51,65.68 -23.27,98.5 -0.35,1.42 -0.65,2.87 -1.02,4.27 -1.85,8.59 -10.3,14.04 -18.86,12.19 -5.43,-1.18 -9.87,-5.11 -11.68,-10.36 -2.69,-7.33 -6.39,-14.25 -10.99,-20.58 -24.47,-32.24 -70.42,-38.53 -102.64,-14.07 -32.21,24.47 -38.53,70.42 -14.07,102.66 23.98,31.56 68.73,38.34 100.97,15.28 6.98,-5.05 12.62,-13.19 22.25,-11.75 7.42,1.18 13.02,7.33 13.51,14.82 -0.24,4.92 -1.16,9.79 -2.73,14.45l-6.51 27.56 -13.74 58.19c-1.77,6.18 -2.83,12.58 -3.16,19.01 0.02,15.75 7.37,30.57 19.91,40.11 6.73,4.82 14.43,8.14 22.57,9.73l22.94 5.42 61.46 14.51c4.84,1.14 9.66,2.36 14.51,3.44 13.43,3.22 26.96,-4.9 30.44,-18.28 0.59,-2.44 -0.91,-4.88 -3.36,-5.45 -2.32,-0.55 -4.66,0.77 -5.37,3.05 -1.75,7.43 -8.47,12.6 -16.1,12.39 -1.85,-0.14 -3.69,-0.48 -5.47,-0.99l-20.39 -4.81 -61.71 -14.57c-5.86,-1.38 -11.71,-2.75 -17.54,-4.15 -22.23,-4.56 -36.55,-26.27 -32,-48.48 0.14,-0.69 0.31,-1.38 0.47,-2.05 1.38,-5.86 2.77,-11.7 4.15,-17.54l14.49 -61.42 4.86 -20.57c2.24,-9.51 1.24,-19.15 -6.09,-26.36 -5.8,-5.66 -13.98,-8.18 -21.96,-6.78 -9.28,1.63 -14.51,9.06 -21.92,14.05 -29.33,19.94 -69.28,12.35 -89.24,-16.98 -19.95,-29.35 -12.36,-69.3 16.99,-89.26 24,-16.33 55.95,-14.53 77.97,4.37 5.98,5.19 10.95,11.4 14.72,18.36 3.81,7.04 5.25,15 11.6,20.41 10.64,8.9 26.47,7.49 35.37,-3.15 1.47,-1.75 2.71,-3.73 3.64,-5.82 1.67,-4.6 2.93,-9.32 3.79,-14.13l13.98 -59.22 6.06 -25.71c1.02,-5.72 2.67,-11.3 4.93,-16.65 6.82,-13.8 20.7,-22.67 36.09,-23.08 5.98,0.2 11.91,1.14 17.62,2.83l57.49 13.57 27.35 6.47c4.3,1 8.61,2.28 12.99,2.95 13.76,1.95 26.5,-7.62 28.47,-21.37 0.37,-2.56 0.33,-5.15 -0.1,-7.69 -1.57,-9.3 -9.06,-14.53 -14.04,-21.92 -4.99,-7.38 -8.43,-15.73 -10.1,-24.5 -6.43,-34.9 16.65,-68.4 51.53,-74.81 34.9,-6.43 68.4,16.65 74.81,51.53 5.07,27.46 -8.18,55.01 -32.75,68.22 -7.02,3.81 -15,5.26 -20.39,11.6 -5.35,6.27 -7.29,14.76 -5.17,22.74 2.75,10.07 10.95,15.97 20.66,18.25l51.51 12.17c15.97,3.76 31.95,7.51 47.93,11.31 22.46,4.97 36.67,27.21 31.71,49.68 -0.06,0.34 -0.14,0.69 -0.22,1.03 -7.82,33.22 -15.65,66.41 -23.53,99.6 -2.34,9.87 -0.92,20.17 7.22,27.11 6.23,5.39 14.68,7.39 22.66,5.35 8.93,-2.3 14.59,-10.19 22.18,-14.94 30.08,-18.85 69.73,-9.75 88.57,20.33 18.85,30.06 9.73,69.73 -20.33,88.57 -24.51,15.35 -56.25,12.43 -77.57,-7.12 -5.82,-5.37 -10.6,-11.76 -14.15,-18.86 -1.71,-3.42 -2.75,-7.08 -4.37,-10.52 -1.83,-3.77 -4.6,-7 -8.02,-9.4 -11.48,-7.87 -27.17,-4.97 -35.05,6.51 -1.26,1.83 -2.26,3.82 -3.01,5.94 -1.42,4.17 -2.16,8.69 -3.17,12.99l-6.47 27.46 -13.56 57.35c-1.08,6.13 -2.99,12.07 -5.68,17.67 -7.49,13.44 -21.8,21.63 -37.18,21.27 -5.56,-0.45 -11.07,-1.47 -16.42,-3.03l-26.31 -6.21 -59.09 -13.96c-4.7,-1.1 -10.62,-1.77 -14.67,-4.52 -6.27,-4.33 -8.63,-12.5 -5.62,-19.52 3.5,-7.83 11.88,-9.16 18.82,-12.66 36.21,-18.28 50.72,-62.44 32.42,-98.65 -18.28,-36.18 -62.44,-50.69 -98.62,-32.42 -36.21,18.28 -50.72,62.46 -32.45,98.65 2.06,4.07 4.5,7.94 7.27,11.56 5.13,6.69 12.35,12.01 10.11,21.53 -1.34,5.66 7.39,8.08 8.73,2.4z"/>
   <path class="fil1" d="M1188.53 374.05c0,0 -57,-41.28 -104.65,-60.37 -31.1,-9.14 -38.61,13.21 -11.11,29.11 27.5,15.92 51.98,32.66 97.14,63.09l18.62 -31.83z"/>
   <path class="fil0" d="M1190.81 370.14c-30,-22.21 -62.21,-41.23 -96.12,-56.76 -9.89,-4.4 -21.37,-8.65 -32.26,-5.19 -7.75,2 -12.5,9.77 -10.72,17.57 2.2,10.1 11.9,16.96 20.25,21.82 8.38,4.88 16.69,9.93 24.89,15.16 23.91,15.18 47.28,31.24 70.76,47.05 4.85,3.28 9.39,-4.56 4.58,-7.82 -20.21,-13.62 -40.35,-27.35 -60.79,-40.64 -7.79,-5.07 -15.65,-10.05 -23.59,-14.87 -8.08,-4.89 -17.62,-9.02 -23.81,-16.34 -2.2,-2.26 -3.5,-5.25 -3.66,-8.41 0.22,-2.01 1.56,-3.7 3.46,-4.4 8.79,-4.05 19.86,0.97 27.84,4.56 21.09,9.77 41.46,21.01 61,33.6 11.4,7.19 22.69,14.6 33.6,22.49 4.74,3.42 9.26,-4.44 4.58,-7.82z"/>
   <path class="fil1" d="M1222.39 357.2c0,0 -58.94,-61.05 -102.7,-87.9 -29.12,-14.25 -40.27,6.53 -15.85,26.83 24.44,20.31 45.75,40.94 85.15,78.52l33.4 -17.45z"/>
   <path class="fil0" d="M1225.6 354c-24.83,-26.01 -51.58,-50.13 -80.01,-72.17 -9.46,-7.25 -19.5,-15.53 -30.88,-19.5 -8.73,-3.05 -21.49,-4.19 -26.92,5.15 -5.35,9.13 1.38,20.23 7.62,26.92 7.34,7.9 16.55,14.43 24.62,21.63 22.45,20.02 44,41.05 65.78,61.81 4.21,4.03 10.62,-2.38 6.39,-6.42 -18.74,-17.89 -37.39,-35.92 -56.5,-53.42 -7.29,-6.66 -14.65,-13.23 -22.16,-19.62 -6.88,-5.86 -17.83,-12.96 -18.54,-22.96 -0.63,-8.61 11.5,-6.33 16.79,-4.56 5.31,2.07 10.32,4.88 14.88,8.34 4.6,3.13 9.12,6.43 13.56,9.81 17.79,13.8 34.84,28.49 51.1,44.06 9.46,8.9 18.85,17.95 27.86,27.31 4.07,4.19 10.47,-2.22 6.42,-6.41z"/>
   <path class="fil1" d="M2297.59 899.53c-4.29,54.28 -5.8,68.16 -6.15,99.91 -0.32,31.76 -23.49,36.21 -30.81,4.64 -6.77,-50.9 1.17,-120.81 1.17,-120.81 0.97,-16.44 13.74,-29.73 30.1,-31.36l35.09 -3.52c18.34,-1.83 31.75,-18.13 30.02,-36.49l-1.24 -13.15 84.3 7.71 -18.09 95.09 -124.37 -2.01z"/>
   <path class="fil0" d="M2293.06 899.53c-2.44,30.81 -5.47,61.64 -6.02,92.58 -0.14,7.61 0.33,15.71 -2.99,22.77 -0.92,2.28 -2.49,4.21 -4.5,5.56 -1.36,0.85 -3.07,0.92 -4.5,0.18 -5.52,-2.42 -8.18,-10.6 -9.62,-16.04 -0.98,-4.66 -1.55,-9.38 -1.71,-14.15 -0.4,-4.88 -0.69,-9.79 -0.89,-14.69 -1.08,-30.1 0,-60.22 3.25,-90.16 0.22,-3.85 1,-7.65 2.3,-11.27 3.16,-7.71 9.47,-13.7 17.34,-16.45 3.95,-1.14 8,-1.81 12.07,-2.03l17.67 -1.77c3.81,-0.37 7.61,-0.72 11.39,-1.14 7.92,-0.75 15.43,-3.89 21.54,-8.99 6.47,-5.52 10.89,-13.07 12.54,-21.41 0.84,-5.94 0.81,-11.97 -0.08,-17.91l-0.55 -5.86c-0.55,-5.76 -9.61,-5.82 -9.06,0 0.4,4.36 0.87,8.73 1.24,13.09 0.84,8.28 -1.85,16.55 -7.41,22.73 -8.73,9.47 -20.58,9.55 -32.4,10.72 -10.93,1.1 -23.51,0.89 -33.65,5.56 -8.12,3.81 -14.61,10.38 -18.33,18.54 -2.02,4.86 -3.24,10.02 -3.58,15.28 -3.36,30.8 -4.44,61.81 -3.26,92.79 0.43,9.61 0.41,20.19 2.85,29.53 2,7.57 5.43,15.73 12.07,20.38 4.74,3.46 11.11,3.64 16.04,0.47 6.01,-3.91 8.98,-11.32 10.19,-18.09 1.04,-8 1.45,-16.04 1.25,-24.1 0.16,-6.41 0.43,-12.82 0.79,-19.23 0.94,-16.32 2.34,-32.62 3.65,-48.9 0.48,-5.98 0.96,-11.99 1.44,-17.97 0.47,-5.8 -8.61,-5.78 -9.06,0z"/>
   <path class="fil1" d="M2291.98 883.26c0,0 -7.94,69.93 -1.16,120.81 7.33,31.59 30.48,27.15 30.83,-4.62 0.33,-31.77 1.83,-45.65 6.13,-99.93l-35.8 -16.26z"/>
   <path class="fil0" d="M2287.44 883.26c-1.4,12.42 -2.26,24.93 -2.93,37.41 -1.6,24.91 -1.36,49.9 0.8,74.76 1.04,10.64 3.12,22.65 11.5,30.24 5.52,5.53 14.41,5.8 20.23,0.59 7.57,-6.67 9.01,-18.21 9.14,-27.66 0.12,-8.49 0.31,-16.97 0.69,-25.46 1.14,-24.59 3.5,-49.09 5.43,-73.61 0.47,-5.8 -8.59,-5.78 -9.06,0 -1.69,21.33 -3.61,42.63 -4.91,63.99 -0.44,7.49 -0.79,15 -0.99,22.51 -0.22,9.14 0.83,19.13 -2.65,27.78 -0.89,2.79 -2.73,5.19 -5.21,6.78 -1.79,0.89 -3.95,0.61 -5.46,-0.69 -7.69,-5.39 -8.97,-17.08 -9.78,-25.56 -1.96,-23.36 -2.22,-46.83 -0.84,-70.23 0.65,-13.62 1.57,-27.27 3.09,-40.83 0.65,-5.78 -8.41,-5.74 -9.06,0z"/>
   <path class="fil1" d="M2325.18 883.26c0,0 -7.94,69.93 -1.14,120.81 7.31,31.59 30.47,27.15 30.81,-4.62 0.33,-31.77 1.83,-45.65 6.13,-99.93l-35.8 -16.26z"/>
   <path class="fil0" d="M2320.65 883.26c-1.4,12.42 -2.26,24.93 -2.93,37.41 -1.63,24.91 -1.36,49.9 0.77,74.76 1.06,10.64 3.14,22.65 11.52,30.24 5.52,5.53 14.41,5.8 20.23,0.59 7.55,-6.67 9.01,-18.21 9.14,-27.66 0.12,-8.49 0.3,-16.97 0.69,-25.46 1.14,-24.59 3.48,-49.09 5.43,-73.61 0.47,-5.8 -8.58,-5.78 -9.05,0 -1.69,21.33 -3.62,42.63 -4.91,63.99 -0.47,7.49 -0.79,15 -0.99,22.51 -0.22,9.14 0.83,19.13 -2.65,27.78 -0.89,2.79 -2.73,5.19 -5.21,6.78 -1.79,0.89 -3.95,0.61 -5.46,-0.69 -7.69,-5.39 -8.97,-17.08 -9.79,-25.56 -1.95,-23.36 -2.22,-46.83 -0.83,-70.23 0.65,-13.62 1.56,-27.27 3.09,-40.83 0.65,-5.78 -8.41,-5.74 -9.06,0z"/>
   <path class="fil1" d="M2361.4 883.26c0,0 -7.94,69.93 -1.17,120.81 7.33,31.59 30.49,27.15 30.84,-4.62l1.53 -8.69c3.21,-18.26 -2.34,-36.39 35.31,-36.66 23.83,-5.13 40.89,-26.19 40.97,-50.57l2.89 -127.27 -110.37 106.99z"/>
   <path class="fil0" d="M2356.87 883.26c-4.32,35.56 -5.19,71.46 -2.61,107.17 0.94,11.28 2.04,22.94 9.22,32.2 4.66,5.98 12.24,9.67 19.52,6.01 7.75,-3.89 10.89,-13.39 11.98,-21.39 0.57,-4.13 0.67,-7.83 1.38,-11.97 0.53,-2.97 1.04,-5.97 1.41,-8.98 0.69,-5.88 0.63,-12.68 3.21,-17.85 3.36,-6.73 11.48,-8.71 18.54,-9.42 3.16,-0.31 6.45,-0.04 9.57,-0.57 2.54,-0.49 5.02,-1.22 7.43,-2.17 15.85,-5.88 28.25,-18.56 33.8,-34.56 3.32,-9.48 3.12,-19.42 3.34,-29.31l0.89 -39.79c0.55,-24.99 1.59,-50.01 1.69,-75 0,-0.45 0.02,-0.92 0.02,-1.37 0.14,-5.84 -8.91,-5.84 -9.03,0l-1.38 61.08c-0.51,21.96 -1,43.94 -1.51,65.92 -0.12,19.03 -11.48,36.21 -28.96,43.8 -2.46,1.1 -5.02,1.91 -7.67,2.44 -2.52,0.43 -5.47,0.2 -8.18,0.47 -4.82,0.37 -9.59,1.42 -14.12,3.17 -6.54,2.57 -11.62,7.92 -13.84,14.57 -2.14,6.17 -2.1,12.87 -2.93,19.26 -0.37,2.67 -0.89,5.29 -1.37,7.93 -0.69,3.97 -0.65,7.96 -1.3,11.93 -0.47,4.05 -1.92,7.89 -4.22,11.26 -1.2,1.99 -3.44,3.15 -5.76,2.97 -2.34,-0.8 -4.36,-2.34 -5.72,-4.4 -2.95,-4.23 -4.9,-9.1 -5.72,-14.21 -1.63,-11.7 -2.44,-23.49 -2.4,-35.31 -0.27,-11.81 -0.1,-23.65 0.35,-35.46 0.57,-15.35 1.59,-30.69 3.16,-45.97 0.08,-0.81 0.16,-1.65 0.27,-2.46 0.65,-5.78 -8.41,-5.74 -9.06,0z"/>
   <path class="fil0" d="M2395.39 1003.9c0.4,-9.06 1.12,-18.13 2.05,-27.15 0.69,-6.78 1.52,-13.53 2.83,-20.21 0.53,-2.85 1.22,-5.68 2.08,-8.46 0.18,-0.59 0.37,-1.17 0.59,-1.73 0.08,-0.27 0.18,-0.53 0.29,-0.77 -0.18,0.44 -0.18,0.44 0.02,-0.02 0.22,-0.49 1.61,-2.6 0.8,-1.57 1.69,-1.81 1.69,-4.6 0,-6.41 -1.79,-1.75 -4.64,-1.75 -6.41,0 -5.68,7.1 -6.55,18.12 -7.75,26.79 -1.49,10.74 -2.45,21.53 -3.14,32.34 -0.16,2.41 -0.31,4.81 -0.4,7.21 -0.27,5.82 8.79,5.82 9.06,0z"/>
   <path class="fil0" d="M2050.48 193.93l-35.31 89.1c-4.96,12.54 -17.2,20.65 -30.67,20.41l-0.92 -0.02 -0.02 0.02 -7.79 -54.89c7.49,-6.66 17.3,-30.88 16.44,-44.37 -1.28,-20.39 -12.52,-24.48 -26.76,-23.59 -5.19,0.33 -10.34,4.23 -14.73,10.04 -10.2,14.49 -6.74,46.68 -6.74,46.68l-14.82 -48.44c-6.47,-16.63 -22.31,-27.72 -40.15,-28.11l-64.09 -1.38c0,0 -23.28,1.1 -18.74,-45.69 -15.1,-43.78 6.02,-75.47 51.3,-73.96 22.66,-31.69 70.95,-55.85 101.13,-9.06 46.79,-13.57 72.43,9.06 66.41,45.28 37.73,-6.05 54.32,19.62 39.24,46.79 7.55,22.63 -7.94,56.32 -13.78,71.17z"/>
   <path class="fil0" d="M2046.11 192.73c-11.62,29.32 -23.04,58.74 -34.89,87.98 -1.73,4.5 -4.53,8.49 -8.16,11.67 -3.34,2.79 -7.27,4.78 -11.48,5.78 -3.4,0.83 -8.59,-0.33 -11.23,2.09l7.57 2 -7.79 -54.89 -1.16 4.42c8.5,-7.9 13.19,-21.35 15.89,-32.3 2.91,-11.7 3.28,-26.38 -5.37,-35.9 -6.98,-7.71 -21.35,-10.03 -30.67,-5.78 -12.88,5.86 -17.5,19.93 -19.11,32.87 -1.1,8.85 -1.18,17.8 -0.25,26.66l8.9 -1.2 -9.85 -32.12c-4.03,-13.15 -7.12,-25.67 -17.93,-35.29 -8.31,-7.39 -18.87,-11.76 -29.96,-12.4 -3.44,-0.2 -6.88,-0.18 -10.3,-0.26l-42.54 -0.92c-4.14,-0.08 -8.28,-0.12 -12.42,-0.27 -0.33,0 -0.65,-0.02 -0.98,-0.02 -1.12,0.02 -0.14,0 0,0.04 -0.57,-0.12 -1.12,-0.22 -1.67,-0.36 -0.32,-0.1 -0.65,-0.22 -0.97,-0.32 -1.04,-0.33 0.35,0.2 -0.22,-0.09 -0.8,-0.39 -1.55,-0.81 -2.28,-1.28 -0.98,-0.63 -0.04,0.04 -0.57,-0.4 -0.35,-0.31 -0.69,-0.61 -1.04,-0.94 -0.77,-0.71 -1.47,-1.52 -2.04,-2.4 -3.72,-6.31 -5.6,-13.55 -5.43,-20.88 -0.22,-6.01 1.34,-12.52 -0.47,-18.26 -1.63,-4.94 -2.76,-10.03 -3.4,-15.2 -1.22,-8.61 -0.22,-17.38 2.85,-25.52 6.62,-16.12 23.12,-23.73 39.71,-24.83 2.52,-0.16 5.05,-0.12 7.57,-0.16 3.42,-0.04 4.54,-1.73 6.47,-4.27 2.79,-3.58 5.82,-6.98 9.12,-10.14 6.62,-6.49 14.31,-11.82 22.71,-15.77 16.34,-7.53 34.99,-6.61 48.77,5.66 4.32,3.91 8.06,8.37 11.19,13.27 1.08,1.73 3.13,2.57 5.13,2.08 15.53,-4.44 34.93,-7.02 48.95,3.09 11.56,8.32 14.01,23.35 11.89,36.62 -0.61,2.46 0.91,4.96 3.37,5.57 0.72,0.16 1.47,0.16 2.18,0 16.12,-2.46 38.46,1.89 39.06,22.02 0.06,4.26 -0.72,8.49 -2.26,12.44 -0.8,2.16 -2.12,4.09 -2.89,6.21 -0.97,2.64 0.72,5.8 1.14,8.5 1.79,10.83 -0.77,22.25 -3.83,32.61 -3.07,10.46 -7.3,20.47 -11.31,30.61 -2.13,5.41 6.61,7.77 8.73,2.4 4.7,-10.99 8.77,-22.25 12.2,-33.7 3.46,-12.78 5.69,-26.96 1.59,-39.87l-0.47 3.48c6.92,-12.7 9.2,-28.74 -0.17,-40.87 -10.36,-13.43 -28.61,-14.94 -44.18,-12.58l5.57 5.58c2.09,-13.15 1.06,-27.29 -7.21,-38.28 -8.26,-10.99 -21.41,-15.93 -34.82,-16.63 -10.14,-0.28 -20.25,1.08 -29.96,4.07l5.11 2.07c-10.16,-15.51 -25.1,-27.51 -44.23,-28.35 -16.47,-0.73 -32.3,6.78 -45,16.73 -7.51,5.92 -14.15,12.88 -19.7,20.68l3.91 -2.24c-15.39,-0.43 -31.21,2.71 -43.4,12.58 -10.62,9.12 -16.89,22.31 -17.22,36.31 -0.29,8.2 0.69,16.38 2.91,24.28 0.73,1.97 1.29,3.99 1.69,6.06 0.04,2.6 -0.08,5.23 -0.39,7.83 -0.14,4.32 0.06,8.65 0.59,12.95 1.26,9.91 4.86,20.94 14.15,26.13 3.13,1.71 6.66,2.61 10.24,2.58 9.46,0.18 18.91,0.41 28.35,0.61l31.34 0.67c12.88,0.28 24.66,4.45 33.05,14.71 6.1,7.47 8,16.79 10.77,25.81l9.4 30.69 0.63 2.1c1.42,4.64 9.47,4.07 8.9,-1.2 -1.69,-12.44 -0.81,-25.08 2.58,-37.15 1.28,-4.09 3.6,-7.79 6.69,-10.74 3.32,-3.3 7.92,-4.93 12.56,-4.42 6.66,0.22 12.54,2.62 15.27,9.08 3.56,8.46 2.09,17.87 -0.39,26.35 -2.08,8.37 -5.8,16.24 -10.97,23.14 -1.85,2.22 -3.21,3.58 -2.76,6.67 0.18,1.41 0.39,2.79 0.59,4.17l2.46 17.38 4.66 32.81c0.51,3.62 5.33,4.05 7.57,2.01l0.02 -0.04 -3.19 1.32c15.79,0.45 30.16,-9.05 35.96,-23.75 1.92,-4.74 3.77,-9.5 5.64,-14.24l23.36 -58.92 6.29 -15.89c2.16,-5.41 -6.61,-7.78 -8.73,-2.4z"/>
   <path class="fil0" d="M1867.74 272.01c1.53,-0.4 3.01,-0.93 4.48,-1.55 3.54,-1.36 6.8,-3.38 9.63,-5.92 1.81,-1.77 3.24,-3.91 4.15,-6.25 0.32,-1.18 0.16,-2.44 -0.45,-3.5 -1.26,-2.16 -4.03,-2.89 -6.21,-1.63 -0.97,0.65 -1.69,1.61 -2.08,2.71l-0.06 0.16 0.44 -1.08c-0.22,0.53 -0.48,1.04 -0.79,1.51 -0.17,0.27 -0.35,0.53 -0.53,0.77 -0.24,0.39 0.81,-0.97 0.35,-0.43 -0.1,0.1 -0.18,0.22 -0.29,0.32 -0.39,0.43 -0.77,0.84 -1.2,1.24 -0.24,0.21 -0.47,0.41 -0.73,0.61 -0.08,0.08 -0.16,0.17 -0.27,0.22 -0.57,0.47 0.98,-0.71 0.37,-0.28 -1.83,1.3 -3.78,2.38 -5.84,3.25l1.08 -0.47c-1.44,0.65 -2.93,1.16 -4.45,1.57 -2.42,0.67 -3.82,3.15 -3.17,5.57 0.67,2.41 3.17,3.83 5.57,3.16z"/>
   <path class="fil0" d="M2290.65 575.53l27.17 0c2.5,0 4.52,-2.03 4.52,-4.53 0,-2.49 -2.02,-4.52 -4.52,-4.52l-27.17 0c-2.5,0 -4.52,2.04 -4.52,4.54 0,2.49 2.01,4.52 4.52,4.52z"/>
   <path class="fil0" d="M1558.92 641.76l15.73 -17.87 2.22 -2.53c1.75,-1.77 1.73,-4.64 -0.04,-6.41 -1.77,-1.73 -4.6,-1.73 -6.37,0l-15.72 17.87 -2.24 2.53c-1.77,1.77 -1.77,4.64 0,6.41 1.77,1.77 4.64,1.77 6.42,0z"/>
   <path class="fil5" d="M431.45 578.5l0 0c0.02,-6.98 -3.54,-13.47 -9.42,-17.2 -32.18,-20.19 -41.91,-62.62 -21.74,-94.82 20.19,-32.17 62.65,-41.91 94.82,-21.71 32.17,20.19 41.91,62.62 21.71,94.8 -5.45,8.69 -12.78,16.06 -21.43,21.55 -6,3.74 -9.66,10.3 -9.73,17.38 0,11.27 9.16,20.41 20.43,20.41l105.79 0c25.16,0 45.55,-20.39 45.55,-45.55l0 -105.79c0,-11.3 9.14,-20.43 20.43,-20.43l0 0c6.98,-0.02 13.47,3.54 17.19,9.42 20.19,32.2 62.62,41.93 94.8,21.74 32.2,-20.19 41.91,-62.62 21.74,-94.8 -20.19,-32.2 -62.62,-41.91 -94.8,-21.74 -8.69,5.45 -16.06,12.78 -21.55,21.45 -3.74,6.01 -10.32,9.67 -17.38,9.71 -11.28,0 -20.43,-9.14 -20.43,-20.41l0 -106.14c0,-25.15 -20.39,-45.55 -45.55,-45.55l-105.79 0c-11.27,0 -20.43,-9.14 -20.43,-20.43 0.06,-7.06 3.73,-13.63 9.73,-17.38 32.08,-20.33 41.58,-62.83 21.25,-94.9 -20.33,-32.07 -62.83,-41.6 -94.9,-21.25 -32.07,20.34 -41.6,62.83 -21.26,94.9 5.49,8.67 12.86,15.98 21.55,21.43 5.88,3.73 9.44,10.24 9.42,17.2l0 0c0,11.3 -9.14,20.43 -20.41,20.43l-106.14 0c-25.15,0 -45.55,20.39 -45.55,45.55l0 105.79c0,11.27 -9.14,20.43 -20.41,20.43 -7.08,-0.06 -13.66,-3.72 -17.4,-9.73 -20.34,-32.08 -62.83,-41.58 -94.9,-21.25 -32.08,20.33 -41.6,62.83 -21.25,94.9 20.33,32.1 62.83,41.6 94.9,21.27 8.67,-5.5 15.97,-12.87 21.43,-21.55 3.75,-5.88 10.24,-9.44 17.2,-9.43l0.02 0c11.27,0 20.41,9.14 20.41,20.42l0 106.13c0,25.16 20.39,45.55 45.55,45.55l106.14 0c11.27,0 20.41,-9.14 20.41,-20.41z"/>
   <path class="fil0" d="M435.98 578.5c-0.08,-8.55 -4.48,-16.48 -11.67,-21.1 -7.14,-4.62 -13.37,-10.55 -18.33,-17.42 -20.42,-29.06 -13.39,-69.15 15.65,-89.55 29.04,-20.42 69.14,-13.4 89.55,15.65 16.2,23.08 15.47,54.03 -1.81,76.32 -2.48,3.2 -5.27,6.14 -8.32,8.83 -3.33,2.97 -7.22,5.15 -10.66,7.98 -10.69,8.69 -12.29,24.38 -3.58,35.06 4.92,6.06 12.42,9.46 20.23,9.18 6.11,0.02 12.19,0 18.28,0l64.42 0c17.71,0 35.96,1.75 51.2,-9.3 12.85,-9.24 20.62,-23.95 21.05,-39.75 0.1,-4.44 0,-8.87 0,-13.29l0 -88.39c0,-7.38 0.63,-14.63 7.87,-18.88 6.96,-3.99 15.82,-2.24 20.72,4.11 4.68,6.96 10.23,13.31 16.51,18.91 31.38,25.52 77.52,20.78 103.04,-10.6 25.54,-31.38 20.78,-77.53 -10.6,-103.07 -29.23,-23.77 -71.72,-21.49 -98.24,5.27 -2.99,3.03 -5.72,6.33 -8.16,9.81 -2.08,3.78 -5.23,6.86 -9.04,8.87 -6.72,2.79 -14.45,0.73 -18.88,-5.02 -3.95,-5.17 -3.22,-11.64 -3.22,-17.75l0 -88.59c0.25,-5.9 0,-11.83 -0.71,-17.71 -2.61,-15.41 -12.23,-28.74 -26.05,-36.02 -8.28,-4.07 -17.42,-6.05 -26.62,-5.76 -34.09,0 -68.24,0.63 -102.33,0 -8.83,-0.12 -15.89,-7.37 -15.79,-16.2 0.08,-5.31 2.79,-10.23 7.22,-13.17 14.43,-9.4 25.26,-23.41 30.73,-39.75 12.29,-38.57 -9.03,-79.8 -47.61,-92.09 -38.58,-12.27 -79.82,9.06 -92.09,47.62 -5.84,18.36 -4.23,38.28 4.5,55.44 3.89,7.7 9.12,14.61 15.43,20.47 2.91,2.67 6.02,5.13 9.3,7.33 3.69,2.06 6.55,5.34 8.12,9.27 2.42,7.16 -0.51,15.06 -7.02,18.92 -2.89,1.57 -6.17,2.32 -9.44,2.16 -17.22,0.06 -34.42,0 -51.63,0l-51.71 0c-11.58,-0.16 -22.88,3.57 -32.08,10.59 -12.15,9.52 -19.27,24.07 -19.36,39.52 -0.35,33.74 0,67.53 0,101.27 0,1.48 0.02,2.97 0,4.46 -0.04,6.33 -3.78,12.07 -9.57,14.65 -7.94,3.44 -15.84,-0.29 -20.37,-7.08 -4.5,-6.8 -10.08,-12.82 -16.49,-17.85 -31.97,-24.79 -77.99,-18.99 -102.78,12.99 -24.79,31.95 -18.99,77.97 12.99,102.78 29.95,23.24 72.7,19.76 98.52,-8 5.56,-5.99 9.18,-15.43 17.62,-17.71 6.94,-1.83 14.24,1.14 17.89,7.31 2.95,5.02 2.17,11.39 2.17,17l0 88.61c-0.28,6.29 0.08,12.59 1.06,18.8 3.22,15.29 13.37,28.19 27.46,34.94 14.69,6.86 32.2,4.89 48.01,4.89l64.46 0c4.97,0 9.95,0.08 14.92,0 13.8,-0.04 25.03,-11.13 25.26,-24.95 0.14,-5.82 -8.91,-5.82 -9.06,0 -0.06,7.67 -5.56,14.24 -13.11,15.67 -1.75,0.22 -3.52,0.31 -5.29,0.22l-85.07 0c-5.92,0 -11.84,0.02 -17.77,0 -22.67,0.43 -41.4,-17.62 -41.83,-40.3 0,-0.67 0,-1.32 0.02,-2 -0.02,-6.33 -0.02,-12.67 0,-19l0 -84.02c0,-10.56 -4.9,-20.29 -14.94,-24.67 -7.65,-3.33 -16.46,-2.67 -23.49,1.81 -6.96,4.56 -10.44,12.68 -16.2,18.52 -24.89,25.28 -65.55,25.59 -90.83,0.67 -25.26,-24.89 -25.56,-65.55 -0.67,-90.83 18.95,-19.23 47.91,-24.56 72.48,-13.33 7.34,3.42 14.02,8.18 19.64,14.02 5.92,6.19 9.51,14.73 17.32,18.87 12.33,6.41 27.52,1.6 33.93,-10.73 1,-1.91 1.73,-3.95 2.22,-6.04 0.69,-5.15 0.87,-10.36 0.55,-15.55l0 -88.08c-0.37,-6.22 0.16,-12.5 1.55,-18.58 4.21,-14.49 15.93,-25.54 30.65,-28.86 5.74,-0.96 11.56,-1.28 17.38,-0.96l88.16 0c5.21,0.37 10.42,0.12 15.57,-0.75 13.45,-3.65 21.41,-17.46 17.79,-30.92 -0.65,-2.38 -1.65,-4.66 -2.95,-6.76 -4.53,-6.96 -12.66,-10.44 -18.52,-16.18 -25.26,-24.89 -25.58,-65.53 -0.69,-90.81 24.87,-25.27 65.54,-25.58 90.79,-0.71 25.27,24.89 25.6,65.53 0.71,90.81 -0.69,0.69 -1.38,1.36 -2.09,2.03 -6.05,5.64 -14.09,9.02 -18.1,16.61 -3.88,7.35 -3.88,16.14 -0.04,23.49 4.91,9.39 14.47,13.19 24.55,13.19l53.65 0c16.32,0 32.65,-0.04 48.95,0 11.93,-0.08 23.32,4.9 31.33,13.76 6.96,8 10.66,18.32 10.38,28.9 0,34.36 -0.1,68.71 0,103.07 -0.43,11.15 6.43,21.27 16.91,25.06 8,2.68 16.81,1.14 23.43,-4.09 2.99,-2.67 5.58,-5.76 7.65,-9.18 2.45,-3.42 5.21,-6.59 8.27,-9.48 25.76,-24.39 66.43,-23.24 90.83,2.52 24.38,25.79 23.26,66.45 -2.52,90.83 -19.6,18.54 -48.66,22.85 -72.8,10.85 -7.33,-3.69 -13.88,-8.71 -19.36,-14.82 -5.58,-6.21 -8.83,-14.02 -16.79,-17.73 -12.63,-5.78 -27.58,-0.22 -33.36,12.42 -1.02,2.26 -1.71,4.66 -2.05,7.1 -0.35,4.77 -0.43,9.55 -0.2,14.31l0 87.92c0.35,6.47 -0.33,12.96 -2,19.23 -4.76,14.49 -17.13,25.19 -32.17,27.84 -5.42,0.65 -10.87,0.84 -16.33,0.55l-88.16 0c-5.41,0 -11.34,0.67 -16.2,-2.17 -6.86,-4.05 -9.69,-12.56 -6.62,-19.9 1.77,-3.57 4.56,-6.5 8,-8.45 3.52,-2.41 6.86,-5.09 9.93,-8.04 29.19,-28.04 30.09,-74.45 2.02,-103.63 -28.07,-29.19 -74.47,-30.08 -103.64,-2.02 -12.86,12.37 -20.76,29 -22.25,46.77 -1.38,16.49 2.85,32.95 12.03,46.71 4.4,6.54 9.79,12.33 16,17.18 6.37,4.97 13.37,8.42 13.37,17.67 0.08,2.5 2.17,4.46 4.68,4.37 2.38,-0.08 4.3,-1.99 4.38,-4.37z"/>
   <path class="fil5" d="M485.35 1016.48l0 0c-0.02,6.98 3.54,13.47 9.43,17.2 32.17,20.19 41.9,62.62 21.73,94.82 -20.19,32.17 -62.64,41.9 -94.82,21.71 -32.18,-20.19 -41.91,-62.62 -21.72,-94.8 5.46,-8.69 12.76,-16.06 21.43,-21.55 6.01,-3.74 9.67,-10.3 9.73,-17.38 0,-11.28 -9.16,-20.42 -20.43,-20.42l-105.79 0c-25.15,0 -45.55,20.39 -45.55,45.55l0 105.79c0,11.3 -9.16,20.43 -20.43,20.43l0 0c-6.98,0.02 -13.47,-3.54 -17.2,-9.44 -20.19,-32.17 -62.62,-41.91 -94.8,-21.71 -32.2,20.17 -41.92,62.62 -21.74,94.8 20.19,32.2 62.62,41.91 94.8,21.74 8.69,-5.46 16.06,-12.78 21.55,-21.45 3.74,-6.01 10.32,-9.67 17.38,-9.71 11.27,0 20.43,9.14 20.43,20.41l0 106.14c0,25.15 20.39,45.55 45.55,45.55l105.79 0c11.27,0 20.41,9.14 20.41,20.43 -0.04,7.06 -3.7,13.63 -9.71,17.38 -32.08,20.34 -41.6,62.83 -21.25,94.9 20.33,32.08 62.83,41.6 94.9,21.25 32.08,-20.33 41.6,-62.83 21.25,-94.9 -5.47,-8.67 -12.84,-15.97 -21.53,-21.43 -5.88,-3.73 -9.44,-10.24 -9.43,-17.2l0 0c0,-11.3 9.14,-20.43 20.42,-20.43l106.13 0c25.15,0 45.55,-20.39 45.55,-45.55l0 0 0 -105.79c0,-11.27 9.14,-20.43 20.42,-20.43 7.08,0.06 13.66,3.73 17.4,9.73 20.33,32.07 62.83,41.58 94.9,21.25 32.08,-20.34 41.6,-62.83 21.25,-94.9 -20.33,-32.1 -62.83,-41.6 -94.9,-21.27 -8.67,5.49 -16,12.87 -21.43,21.55 -3.74,5.88 -10.23,9.44 -17.2,9.42l-0.02 0c-11.28,0 -20.42,-9.14 -20.42,-20.41l0 -106.13c0,-25.16 -20.39,-45.55 -45.55,-45.55l-106.13 0c-11.28,0 -20.42,9.14 -20.42,20.42z"/>
   <path class="fil0" d="M480.82 1016.48c0.1,8.54 4.48,16.48 11.67,21.1 7.14,4.62 13.37,10.54 18.33,17.42 20.41,29.06 13.39,69.14 -15.65,89.55 -29.04,20.41 -69.14,13.39 -89.55,-15.65 -16.2,-23.08 -15.47,-54.03 1.81,-76.32 2.5,-3.2 5.27,-6.14 8.32,-8.83 3.33,-2.97 7.22,-5.15 10.66,-7.98 10.68,-8.69 12.29,-24.4 3.58,-35.06 -4.92,-6.07 -12.42,-9.47 -20.23,-9.18 -6.09,-0.02 -12.19,0 -18.28,0l-64.42 0c-17.71,0 -35.96,-1.75 -51.21,9.3 -12.84,9.24 -20.61,23.95 -21.04,39.75 -0.1,4.44 0,8.87 0,13.29l0 88.39c0,7.39 -0.63,14.64 -7.88,18.89 -6.96,3.99 -15.79,2.24 -20.69,-4.11 -4.7,-6.96 -10.24,-13.32 -16.53,-18.91 -31.38,-25.52 -77.52,-20.78 -103.04,10.6 -25.54,31.41 -20.78,77.53 10.6,103.07 29.23,23.77 71.72,21.49 98.24,-5.25 2.99,-3.05 5.72,-6.33 8.16,-9.83 2.08,-3.78 5.23,-6.86 9.04,-8.87 6.72,-2.79 14.45,-0.73 18.88,5.02 3.95,5.19 3.22,11.64 3.22,17.75l0 88.6c-0.25,5.9 0,11.82 0.71,17.71 2.61,15.4 12.23,28.74 26.05,36.02 8.28,4.07 17.42,6.05 26.62,5.76 34.09,0 68.24,-0.63 102.33,0 8.83,0.13 15.89,7.37 15.79,16.21 -0.08,5.31 -2.76,10.23 -7.21,13.17 -14.45,9.4 -25.27,23.41 -30.75,39.75 -12.29,38.57 9.03,79.8 47.6,92.09 38.59,12.27 79.82,-9.03 92.1,-47.62 5.84,-18.36 4.23,-38.28 -4.5,-55.44 -3.89,-7.69 -9.12,-14.61 -15.43,-20.47 -2.91,-2.67 -6.02,-5.13 -9.3,-7.33 -3.69,-2.05 -6.55,-5.33 -8.12,-9.26 -2.4,-7.17 0.51,-15.06 7.02,-18.93 2.89,-1.56 6.17,-2.32 9.47,-2.16 17.2,-0.06 34.41,0 51.61,0l51.71 0c11.58,0.17 22.87,-3.56 32.08,-10.58 12.15,-9.52 19.27,-24.07 19.36,-39.5 0.35,-33.77 0,-67.53 0,-101.29 0,-1.49 -0.02,-2.97 0,-4.44 0.04,-6.35 3.78,-12.09 9.57,-14.68 7.94,-3.44 15.84,0.29 20.39,7.08 4.49,6.8 10.06,12.82 16.47,17.85 31.97,24.81 77.99,18.99 102.78,-12.99 24.79,-31.96 18.99,-77.97 -12.99,-102.78 -29.96,-23.24 -72.7,-19.76 -98.52,8 -5.56,5.98 -9.18,15.43 -17.62,17.71 -6.94,1.85 -14.23,-1.14 -17.89,-7.3 -2.95,-5.03 -2.17,-11.4 -2.17,-17l0 -88.61c0.28,-6.29 -0.08,-12.59 -1.06,-18.8 -3.21,-15.29 -13.37,-28.19 -27.46,-34.93 -14.69,-6.88 -32.19,-4.9 -48.01,-4.9l-64.45 0c-4.97,0 -9.93,-0.08 -14.92,0 -13.8,0.04 -25.03,11.13 -25.26,24.95 -0.14,5.82 8.91,5.82 9.06,0 0.06,-7.67 5.56,-14.23 13.11,-15.67 1.75,-0.22 3.52,-0.31 5.29,-0.22l85.07 0c5.92,0 11.84,-0.02 17.77,0 22.67,-0.41 41.39,17.62 41.83,40.31 0,0.65 0,1.3 -0.02,1.97 0.02,6.33 0.02,12.68 0,19.01l0 84.02c0,10.56 4.9,20.29 14.94,24.67 7.66,3.33 16.47,2.67 23.51,-1.81 6.94,-4.56 10.42,-12.68 16.18,-18.52 24.89,-25.27 65.55,-25.58 90.83,-0.67 25.26,24.89 25.56,65.55 0.67,90.83 -18.95,19.23 -47.91,24.56 -72.47,13.33 -7.34,-3.42 -14.02,-8.18 -19.64,-14.02 -5.92,-6.18 -9.51,-14.73 -17.32,-18.86 -12.33,-6.41 -27.52,-1.61 -33.93,10.72 -1,1.92 -1.73,3.95 -2.22,6.05 -0.69,5.15 -0.87,10.36 -0.55,15.55l0 88.08c0.37,6.23 -0.16,12.5 -1.55,18.58 -4.19,14.49 -15.93,25.55 -30.65,28.86 -5.74,0.96 -11.56,1.28 -17.38,0.96l-88.16 0c-5.21,-0.37 -10.42,-0.13 -15.57,0.75 -13.43,3.65 -21.41,17.46 -17.79,30.92 0.65,2.38 1.65,4.66 2.95,6.76 4.53,6.96 12.67,10.44 18.52,16.18 25.26,24.89 25.58,65.53 0.69,90.81 -24.87,25.27 -65.54,25.58 -90.79,0.71 -25.27,-24.89 -25.6,-65.53 -0.71,-90.81 0.69,-0.69 1.38,-1.36 2.09,-2.04 6.05,-5.64 14.08,-9.02 18.12,-16.6 3.87,-7.35 3.89,-16.14 0.02,-23.49 -4.9,-9.39 -14.47,-13.19 -24.52,-13.19l-53.67 0c-16.33,0 -32.65,0.04 -48.95,0 -11.92,0.08 -23.32,-4.93 -31.32,-13.76 -6.96,-8 -10.66,-18.32 -10.36,-28.9 0,-34.36 0.08,-68.7 0,-103.06 0.4,-11.16 -6.43,-21.27 -16.94,-25.06 -8,-2.69 -16.81,-1.14 -23.42,4.09 -2.99,2.67 -5.58,5.76 -7.65,9.18 -2.45,3.42 -5.19,6.59 -8.27,9.46 -25.76,24.4 -66.43,23.27 -90.83,-2.5 -24.38,-25.79 -23.24,-66.45 2.52,-90.83 19.6,-18.54 48.66,-22.87 72.8,-10.85 7.33,3.68 13.88,8.71 19.36,14.82 5.58,6.21 8.83,14.02 16.79,17.73 12.64,5.78 27.58,0.22 33.36,-12.42 1.02,-2.26 1.71,-4.66 2.06,-7.1 0.36,-4.77 0.43,-9.55 0.22,-14.31l0 -87.92c-0.37,-6.47 0.3,-12.97 1.97,-19.23 4.76,-14.49 17.13,-25.2 32.17,-27.84 5.42,-0.65 10.87,-0.84 16.32,-0.55l88.17 0c5.41,0 11.34,-0.67 16.2,2.17 6.86,4.05 9.69,12.56 6.61,19.9 -1.77,3.54 -4.56,6.5 -8,8.45 -3.52,2.4 -6.86,5.09 -9.93,8.02 -29.18,28.07 -30.08,74.47 -2.01,103.65 28.07,29.19 74.47,30.08 103.64,2.01 12.86,-12.35 20.78,-29 22.25,-46.76 1.38,-16.49 -2.85,-32.95 -12.03,-46.71 -4.4,-6.53 -9.79,-12.33 -16,-17.17 -6.37,-4.94 -13.37,-8.43 -13.37,-17.67 -0.08,-2.5 -2.2,-4.46 -4.7,-4.36 -2.36,0.08 -4.27,1.97 -4.36,4.36z"/>
   <path class="fil6" d="M278.94 825.95l0 0c6.98,-0.02 13.47,3.54 17.2,9.42 20.19,32.18 62.62,41.91 94.82,21.74 32.17,-20.19 41.9,-62.64 21.71,-94.82 -20.19,-32.17 -62.62,-41.91 -94.8,-21.71 -8.69,5.45 -16.06,12.76 -21.55,21.43 -3.74,6 -10.3,9.66 -17.38,9.73 -11.28,0 -20.42,-9.16 -20.42,-20.43l0 -105.79c0,-25.16 20.39,-45.55 45.55,-45.55l105.79 0c11.3,0 20.43,-9.16 20.43,-20.43l0 0c0.02,-6.98 -3.54,-13.48 -9.43,-17.2 -32.2,-20.19 -41.92,-62.62 -21.73,-94.8 20.17,-32.2 62.62,-41.9 94.8,-21.73 32.18,20.19 41.91,62.62 21.74,94.8 -5.46,8.69 -12.78,16.06 -21.45,21.55 -6.01,3.74 -9.67,10.32 -9.71,17.38 0,11.27 9.14,20.43 20.41,20.43l106.14 0c25.15,0 45.55,20.39 45.55,45.55l0 105.79c0,11.28 9.14,20.43 20.43,20.43 7.06,-0.06 13.63,-3.73 17.38,-9.73 20.34,-32.08 62.83,-41.58 94.9,-21.25 32.08,20.33 41.6,62.83 21.25,94.9 -20.33,32.08 -62.83,41.6 -94.9,21.26 -8.67,-5.49 -15.97,-12.86 -21.43,-21.55 -3.73,-5.88 -10.24,-9.44 -17.2,-9.42l0 0c-11.3,0 -20.43,9.14 -20.43,20.41l0 106.14c0,25.15 -20.39,45.55 -45.55,45.55l-105.79 0c-11.27,0 -20.43,9.14 -20.43,20.41 0.06,7.08 3.73,13.66 9.73,17.41 32.07,20.33 41.58,62.83 21.25,94.9 -20.34,32.07 -62.83,41.6 -94.92,21.25 -32.08,-20.34 -41.58,-62.83 -21.25,-94.9 5.49,-8.67 12.87,-15.98 21.55,-21.43 5.88,-3.74 9.44,-10.24 9.42,-17.2l0 -0.02c0,-11.27 -9.14,-20.41 -20.41,-20.41l-106.13 0c-25.16,0 -45.55,-20.39 -45.55,-45.55l0 0 0 -106.14c0,-11.27 9.14,-20.41 20.42,-20.41z"/>
   <path class="fil0" d="M278.94 830.48c9.65,0 13.11,7.65 18.32,14.2 25.34,31.59 71.47,36.63 103.04,11.3 13.39,-10.75 22.57,-25.85 25.97,-42.66 7.96,-39.71 -17.75,-78.34 -57.45,-86.32 -25.99,-5.21 -52.77,4.01 -70.05,24.14 -5.27,6.21 -8.69,14.72 -17.73,15.94 -7.33,0.91 -14.32,-3.28 -16.97,-10.16 -1.77,-4.66 -1.02,-10.64 -1.02,-15.52l0 -88.13c-0.35,-6.21 0.12,-12.43 1.42,-18.52 3.97,-14.35 15.37,-25.46 29.82,-29.11 5.92,-1.12 11.94,-1.51 17.97,-1.16l88.16 0c5.54,0.45 11.11,0.1 16.55,-1.04 13.31,-4.15 20.72,-18.29 16.57,-31.59 -0.63,-2.05 -1.53,-3.99 -2.67,-5.82 -2.26,-3.29 -5.22,-6.1 -8.63,-8.2 -3.82,-2.53 -7.41,-5.46 -10.64,-8.73 -24.85,-25.3 -24.48,-65.94 0.81,-90.81 25.3,-24.85 65.94,-24.48 90.81,0.81 24.85,25.28 24.48,65.94 -0.81,90.79 -0.45,0.44 -0.9,0.87 -1.34,1.28 -6.05,5.64 -14.08,9.03 -18.09,16.61 -3.73,7.04 -3.91,15.44 -0.47,22.63 4.68,9.77 14.39,14.06 24.7,14.06l52.98 0c16.65,0 33.3,-0.04 49.94,0 23.02,-0.18 41.8,18.34 41.97,41.36 0,0.31 0,0.61 0,0.93 0.04,34.29 0.04,68.59 0,102.88 -0.47,10.87 5.94,20.84 16.02,24.91 8.2,3.13 17.44,1.71 24.32,-3.74 2.99,-2.65 5.57,-5.74 7.67,-9.18 2.42,-3.42 5.19,-6.59 8.24,-9.47 25.79,-24.4 66.45,-23.26 90.83,2.5 24.38,25.79 23.26,66.45 -2.53,90.85 -19.57,18.52 -48.66,22.86 -72.8,10.83 -7.3,-3.69 -13.87,-8.71 -19.33,-14.82 -5.92,-6.59 -9.22,-14.57 -17.89,-18.18 -12.86,-5.19 -27.51,1.02 -32.71,13.88 -0.8,1.96 -1.34,4.01 -1.61,6.11 -0.36,4.72 -0.44,9.48 -0.22,14.23l0 87.96c0.36,6.43 -0.27,12.88 -1.83,19.11 -4.56,14.39 -16.57,25.16 -31.34,28.13 -5.6,0.79 -11.26,1.04 -16.89,0.73l-88.16 0c-5.58,-0.47 -11.19,-0.02 -16.63,1.34 -13.07,4.62 -19.91,18.99 -15.29,32.05 0.9,2.5 2.16,4.84 3.78,6.94 2.67,3.01 5.76,5.6 9.18,7.67 10.36,7.38 18.32,17.64 22.88,29.51 12.66,33.17 -3.97,70.31 -37.12,82.98 -33.17,12.66 -70.31,-3.97 -82.98,-37.14 -9.65,-25.32 -2.4,-53.96 18.14,-71.64 6.43,-5.6 13.9,-8.83 17.36,-17.16 3.01,-7.23 2.46,-15.43 -1.45,-22.21 -5.25,-8.94 -14.43,-12.35 -24.3,-12.35l-85.39 0c-5.78,0 -11.54,0.02 -17.32,0 -22.67,0.36 -41.34,-17.73 -41.7,-40.42 0,-0.67 0,-1.37 0.02,-2.04 0,-6.5 0,-12.96 0,-19.44l0 -83.2c-0.09,-1.96 0.06,-3.91 0.44,-5.8 1.79,-7.1 8.14,-12.09 15.45,-12.15 5.82,-0.14 5.84,-9.2 0,-9.06 -13.88,0.22 -25.01,11.58 -24.95,25.48 -0.04,5.61 0,11.25 0,16.87l0 64.19c0,16.64 -1.98,34.52 6.67,49.53 7.92,13.57 21.71,22.71 37.3,24.67 5.31,0.47 10.64,0.61 15.96,0.41l88.96 0c6.14,0 12.42,-0.59 17.52,3.68 5.88,5.01 7.39,13.52 3.54,20.21 -2.26,3.17 -5.19,5.8 -8.59,7.7 -3.8,2.68 -7.34,5.73 -10.58,9.1 -27.95,29.22 -26.91,75.6 2.34,103.55 29.24,27.95 75.6,26.91 103.55,-2.32 25.91,-27.09 27.17,-69.36 2.95,-97.95 -2.73,-3.24 -5.74,-6.23 -9,-8.92 -3.29,-2.71 -7.29,-4.76 -10.32,-7.71 -5.66,-5.45 -6.51,-14.23 -2,-20.65 4.72,-6.59 11.68,-6.67 18.81,-6.67l88.43 0c4.84,0 9.75,0.22 14.59,-0.1 15.73,-1.06 30.08,-9.38 38.81,-22.53 5.6,-8.79 8.46,-19.07 8.2,-29.49 0,-34.44 -0.2,-68.87 0,-103.31 0.06,-12.17 12.72,-21.01 23.9,-14.53 3.87,2.26 5.74,6.01 8.3,9.46 2.54,3.48 5.38,6.72 8.47,9.71 29.27,27.96 75.63,26.91 103.59,-2.34 27.95,-29.25 26.91,-75.63 -2.34,-103.6 -20.5,-19.56 -50.42,-25.58 -76.87,-15.43 -8,3.12 -15.4,7.59 -21.9,13.23 -2.93,2.53 -5.64,5.31 -8.1,8.3 -2.73,3.3 -4.76,7.27 -7.71,10.32 -10.27,10.64 -27.23,2.53 -27.33,-11.5 -0.14,-16.12 0,-32.24 0,-48.36l0 -54.63c0.27,-10.18 -2.4,-20.23 -7.67,-28.94 -8.46,-13.29 -22.63,-21.88 -38.32,-23.24 -4.91,-0.45 -9.93,-0.18 -14.86,-0.18l-88.79 0c-6.63,0 -13.09,0.33 -18.14,-5 -5.37,-5.74 -5.73,-14.56 -0.87,-20.74 2.76,-2.79 5.86,-5.25 9.22,-7.29 31.59,-23.87 38.4,-68.57 15.35,-100.79 -23.45,-32.97 -69.18,-40.68 -102.15,-17.24 -32.97,23.45 -40.68,69.18 -17.26,102.15 1.67,2.32 3.44,4.54 5.35,6.66 2.87,3.17 6.01,6.08 9.38,8.69 3.34,2.58 7.51,4.56 10.12,7.94 4.48,5.94 4.29,14.16 -0.43,19.93 -5.03,6 -11.85,5.69 -18.81,5.69l-88.37 0c-5.31,-0.2 -10.62,-0.1 -15.91,0.29 -15.65,1.67 -29.64,10.52 -37.84,23.95 -9.12,15.08 -7.16,33.01 -7.16,49.86l0 64.82c0,5.52 -0.08,11.03 0,16.53 -0.04,13.87 11.09,25.17 24.95,25.38 9.02,-0.25 17.28,-5.09 21.88,-12.87 19.58,-29.59 59.43,-37.71 89.04,-18.13 29.61,19.58 37.74,59.44 18.16,89.04 -19.58,29.59 -59.45,37.73 -89.06,18.16 -1.1,-0.73 -2.16,-1.49 -3.21,-2.28 -6.35,-5.09 -11.87,-11.17 -16.3,-17.99 -4.68,-6.72 -12.31,-10.72 -20.49,-10.77 -0.49,1.14 6.02,5.17 0,9.06z"/>
   <path class="fil5" d="M1278.18 498.05l0 0c-6.17,-3.26 -13.57,-3.12 -19.62,0.36 -32.81,19.13 -74.92,8.04 -94.05,-24.77 -19.15,-32.81 -8.06,-74.92 24.75,-94.05 32.83,-19.15 74.93,-8.06 94.07,24.75 5.17,8.87 8.28,18.76 9.14,29 0.53,7.04 4.64,13.35 10.89,16.67 9.99,5.23 22.33,1.38 27.55,-8.61l0 0 49.11 -93.7c11.68,-22.29 3.07,-49.82 -19.21,-61.5l-93.7 -49.11c-10,-5.23 -13.84,-17.57 -8.61,-27.56 3.32,-6.25 9.61,-10.36 16.67,-10.89 37.85,-3.14 66,-36.35 62.87,-74.21 -3.12,-37.85 -36.33,-66 -74.18,-62.89 -37.85,3.14 -66.02,36.35 -62.89,74.21 0.86,10.23 3.97,20.13 9.14,28.98 3.48,6.05 3.62,13.45 0.37,19.62l0 0c-5.23,9.99 -17.58,13.84 -27.58,8.61l-93.99 -49.25c-22.29,-11.68 -49.82,-3.09 -61.5,19.19l-52.59 100.38c-1.06,8.42 3.24,16.63 10.77,20.57 6.29,3.26 13.8,3.06 19.9,-0.52 32.91,-18.97 74.96,-7.67 93.93,25.23 18.99,32.89 7.69,74.96 -25.22,93.93 -32.91,18.97 -74.96,7.67 -93.93,-25.24 -5.13,-8.87 -8.2,-18.8 -8.99,-29.02 -0.57,-6.94 -4.68,-13.11 -10.87,-16.34l0 0c-7.53,-3.93 -16.71,-2.79 -23.06,2.87l-52.43 100.07c-11.68,22.29 -3.09,49.82 19.19,61.49l93.72 49.11c9.99,5.23 13.83,17.58 8.61,27.56l0 0.02c-3.34,6.25 -9.63,10.36 -16.69,10.89 -37.83,3.12 -66,36.35 -62.87,74.2 3.13,37.86 36.35,66 74.2,62.87 37.86,-3.13 66,-36.35 62.87,-74.2 -0.83,-10.22 -3.95,-20.13 -9.12,-28.98 -3.48,-6.05 -3.62,-13.44 -0.37,-19.6l0 -0.02c5.23,-9.97 17.57,-13.84 27.56,-8.61l94.01 49.27c22.29,11.68 49.82,3.07 61.5,-19.21l49.25 -94.01c5.23,-9.97 1.38,-22.33 -8.61,-27.55z"/>
   <path class="fil0" d="M1280.46 494.14c-8.99,-4.72 -17.75,-3.03 -26.3,1.55 -8.14,4.36 -17.12,6.9 -26.34,7.47 -35.43,2.16 -65.9,-24.79 -68.08,-60.22 -2.18,-35.41 24.78,-65.9 60.2,-68.06 29.67,-1.83 56.72,16.93 65.39,45.37 2.32,7.67 1.77,16.18 5.47,23.36 4.01,7.53 11.58,12.5 20.06,13.19 10.99,0.93 19.98,-5.56 24.89,-14.92l9.35 -17.83 29.9 -57.04 8.47 -16.18c5.73,-10.66 7.57,-23.02 5.11,-34.88 -3.17,-14.41 -12.52,-26.72 -25.56,-33.66 -4.15,-2.24 -8.38,-4.4 -12.58,-6.59l-56.4 -29.55 -20.96 -10.99c-1.22,-0.65 -2.46,-1.26 -3.66,-1.92 -5.62,-2.93 -9.03,-8.86 -8.73,-15.18 0.49,-8.61 7.41,-14.07 15.51,-14.96 8.06,-0.83 15.93,-2.91 23.34,-6.14 15.53,-6.96 28.12,-19.11 35.66,-34.36 17.95,-36.27 3.11,-80.25 -33.18,-98.2 -36.26,-17.95 -80.25,-3.11 -98.2,33.18 -9.63,19.44 -10.14,42.11 -1.42,61.97 1.73,3.99 4.62,7.75 5.52,12.03 1.83,8.61 -3.66,17.08 -12.27,18.89 -3.22,0.69 -6.55,0.34 -9.57,-0.94 -3.87,-1.65 -7.55,-3.93 -11.28,-5.88l-55.54 -29.11 -22.61 -11.84c-6.15,-3.65 -12.84,-6.29 -19.83,-7.86 -15.43,-2.75 -31.26,1.79 -42.9,12.29 -5.33,5.21 -9.69,11.35 -12.87,18.12 -16.51,31.52 -33.33,62.88 -49.56,94.56 -5.33,10.44 3.36,24.07 12.88,28.53 4.44,2.07 9.36,2.79 14.19,2.07 4.72,-1.06 9.22,-2.87 13.37,-5.37 8.16,-3.95 17.09,-6.1 26.17,-6.33 35.47,-0.96 65,27.03 65.96,62.5 0.93,35.47 -27.05,65 -62.52,65.96 -29.35,0.77 -55.5,-18.44 -63.52,-46.68 -2.18,-7.66 -1.49,-16.22 -5.66,-23.23 -4.42,-7.3 -12.23,-11.9 -20.78,-12.19 -6.09,-0.18 -14.67,2.2 -18.25,7.57 -0.73,1.26 -1.42,2.54 -2.04,3.88l-26.13 49.89 -23.49 44.8c-5.29,9.62 -7.41,20.69 -6.02,31.63 2.17,15.57 11.52,29.24 25.23,36.94 29.41,16.3 59.65,31.26 89.43,46.87 6.25,3.28 12.4,6.47 13.7,14.31 1.24,7.96 -3.62,15.59 -11.36,17.83 -3.66,1.06 -7.63,1.03 -11.35,1.75 -4.09,0.79 -8.12,1.93 -11.99,3.44 -37.83,14.41 -56.8,56.74 -42.4,94.58 14.41,37.81 56.74,56.78 94.56,42.37 37.41,-14.25 56.46,-55.87 42.8,-93.48 -3.11,-8.42 -10.34,-16.44 -6.47,-25.82 2.76,-6.58 9.54,-10.56 16.64,-9.75 4.86,0.59 9.73,3.97 13.98,6.18l24.87 13.03 53.57 28.08c5.47,3.2 11.27,5.8 17.32,7.71 15.18,3.99 31.36,0.67 43.78,-8.93 12.64,-9.85 19.07,-26.75 26.32,-40.59l29.31 -55.94c2.32,-4.42 4.7,-8.79 6.94,-13.25 6.45,-12.19 1.97,-27.31 -10.1,-34.01 -5.11,-2.83 -9.67,4.98 -4.58,7.82 6.8,3.54 10.16,11.38 8.04,18.74 -0.57,1.69 -1.33,3.32 -2.22,4.86l-9.65 18.4 -29.57 56.44c-2.79,5.33 -5.58,10.64 -8.37,15.97 -9.91,20.41 -34.49,28.92 -54.91,19.01 -0.63,-0.31 -1.24,-0.63 -1.85,-0.98 -5.33,-2.76 -10.66,-5.56 -15.97,-8.36l-56.44 -29.57 -18.4 -9.65c-8.67,-4.54 -18.37,-5.86 -27.11,-0.41 -7.08,4.46 -11.5,12.09 -11.82,20.43 -0.41,9.67 6.35,17.48 9.12,26.38 10.58,33.86 -8.28,69.91 -42.13,80.51 -33.87,10.58 -69.91,-8.28 -80.5,-42.13 -8.65,-27.63 2.26,-57.63 26.62,-73.27 6.72,-4.27 14.16,-7.29 21.98,-8.89 3.74,-0.77 7.63,-0.82 11.38,-1.69 4.11,-1 7.92,-3.01 11.07,-5.84 10.15,-9.5 10.66,-25.42 1.18,-35.57 -1.59,-1.67 -3.37,-3.14 -5.33,-4.32 -3.81,-2.26 -7.86,-4.13 -11.75,-6.19l-54.65 -28.63 -22.71 -11.88c-6.1,-2.79 -11.7,-6.58 -16.55,-11.22 -10.14,-10.89 -13.66,-26.38 -9.2,-40.59 1.83,-4.94 4.11,-9.74 6.8,-14.31l27.48 -52.41 13.86 -26.47 4.56 -8.69c0.59,-1.52 1.34,-2.97 2.26,-4.32 3.62,-3.96 12.19,-3.95 17.01,-1.51 2.97,1.51 5.41,3.91 6.96,6.88 1.45,3.85 2.26,7.87 2.42,11.97 2.65,16.45 10.81,31.46 23.16,42.62 30,27.23 76.4,24.99 103.61,-5.02 27.23,-30 24.97,-76.38 -5.03,-103.61 -21.39,-19.41 -52.18,-24.46 -78.66,-12.91 -3.83,2.2 -7.86,4.03 -12.03,5.5 -8.23,1.93 -16.49,-2.95 -18.78,-11.07 -0.49,-1.73 -0.1,-3.73 -0.57,-5.35 -0.39,-1.34 -0.89,1.1 -0.39,0.55 0.85,-1.28 1.59,-2.67 2.16,-4.11l26.07 -49.76 23.34 -44.57c4.42,-9.12 11.88,-16.4 21.13,-20.57 11.44,-4.82 24.44,-4.3 35.45,1.48 30.18,15.53 60.14,31.51 90.2,47.26 7.86,4.11 16.02,6.43 24.71,2.83 11.75,-4.82 17.99,-17.71 14.49,-29.92 -1.81,-4.45 -3.87,-8.81 -6.14,-13.06 -13.82,-32.77 1.55,-70.54 34.31,-84.36 32.77,-13.82 70.54,1.55 84.36,34.31 13.84,32.79 -1.55,70.56 -34.31,84.38 -2.38,1 -4.82,1.87 -7.33,2.56 -7.67,2.22 -16.22,1.63 -23.26,5.68 -11.88,7.14 -15.76,22.57 -8.61,34.48 1.36,2.3 3.11,4.36 5.15,6.13 4.09,2.93 8.45,5.43 13.05,7.49l24.34 12.76 53.34 27.96c5.21,2.36 10.14,5.29 14.72,8.71 11.62,9.83 16.93,25.23 13.82,40.14 -1.61,5.88 -4.01,11.52 -7.12,16.77l-11.99 22.9 -28.67 54.71c-1.85,4.23 -4.07,8.3 -6.62,12.15 -4.48,5.68 -12.19,7.65 -18.86,4.86 -8.99,-3.87 -9.06,-12.33 -10.52,-20.62 -7.17,-39.91 -45.32,-66.43 -85.22,-59.26 -39.91,7.16 -66.45,45.32 -59.27,85.23 7.17,39.89 45.33,66.43 85.22,59.24 4.93,-0.87 9.77,-2.26 14.41,-4.13 8.1,-3.28 15.71,-9.79 24.73,-5.07 5.17,2.71 9.75,-5.11 4.58,-7.82z"/>
   <path class="fil1" d="M1323.73 459.73l-4.6 -2.99c-16.48,-10.72 -27.8,-27.8 -31.26,-47.17l-3.12 -17.42c-2.58,-14.59 -8.34,-28.45 -16.85,-40.6l-13.6 -19.48c-6.17,-8.83 -18.33,-10.97 -27.17,-4.8 -1.04,0.73 -2.01,1.56 -2.91,2.48 -5.29,5.54 -6.88,13.64 -4.03,20.76l11.91 29.73c0,0 -23.83,37.45 -25.99,78.66l117.61 0.84z"/>
   <path class="fil0" d="M1326.01 455.82c-7.51,-4.56 -14.27,-10.26 -19.98,-16.92 -7.08,-8.87 -11.83,-19.37 -13.8,-30.55 -3.05,-16.52 -5.62,-32.58 -13.51,-47.75 -3.61,-6.49 -7.62,-12.76 -12.05,-18.74 -3.29,-4.7 -6.35,-9.77 -10.06,-14.19 -8.58,-10.1 -23.75,-11.31 -33.84,-2.73 -6.47,5.52 -9.57,14.02 -8.12,22.39 1.55,6.06 3.7,11.92 6.47,17.54l6.61 16.55 0.45 -3.5c-4.85,7.92 -9.06,16.2 -12.56,24.79 -7.87,17.77 -12.62,36.78 -14.02,56.17 -0.35,5.82 8.71,5.8 9.06,0 1.47,-25.51 10.58,-50.74 23.22,-72.8 1.36,-1.71 2.32,-3.73 2.75,-5.86 -0.39,-2.34 -1.18,-4.58 -2.34,-6.63l-9.12 -22.79c-2.01,-4.14 -2.3,-8.92 -0.73,-13.25 2.24,-5.35 7.33,-8.95 13.12,-9.28 9.59,-0.4 13.86,7.53 18.61,14.33 5.8,7.69 11.01,15.81 15.59,24.28 4.97,10.83 8.32,22.33 10.02,34.11 2.16,12.09 4.57,23.69 10.91,34.46 7.22,11.54 17.07,21.2 28.75,28.19 4.91,3.19 9.47,-4.64 4.58,-7.82z"/>
   <path class="fil0" d="M1854.59 798.74l2.79 67.04 1.81 43.65c0.39,9.24 -0.02,19.25 2.93,28.11 3.18,9.52 9.43,16.42 16.22,23.42l14.16 14.57c4.07,4.19 10.48,-2.22 6.42,-6.39l-11.79 -12.13c-5.25,-4.7 -9.85,-10.1 -13.68,-16.02 -5.07,-9.16 -4.68,-19.31 -5.11,-29.39l-3.65 -87.29 -1.06 -25.59c-0.24,-5.8 -9.3,-5.84 -9.06,0z"/>
   <path class="fil0" d="M1985.02 875.88c0.27,6.03 2.67,11.75 6.8,16.12 11.09,12.46 30.47,13.09 45.81,11.81l-2.28 -2.26c-2.71,25.54 -4.05,51.25 -5.25,76.91 -1.61,33.79 -2.67,67.59 -3.56,101.4 -0.92,35.13 -1.65,70.27 -2.16,105.4 -0.27,16.77 -1,33.62 -0.53,50.39 0.47,16.36 2.77,32.61 6.84,48.46 14.45,54.82 49.3,102.06 97.41,132.04l84.81 53.65 81.92 51.84 1.4 0.88c2.49,1.57 4.74,-2.34 2.3,-3.91l-68.89 -43.57 -93.8 -59.33c-14.41,-8.75 -27.95,-18.91 -40.38,-30.28 -36.05,-34.09 -59.17,-79.6 -65.46,-128.81 -1.63,-16.33 -2.09,-32.75 -1.42,-49.13 0.49,-34.66 1.12,-69.32 1.92,-103.98 1.44,-62.2 2.73,-124.61 7.96,-186.65 0.43,-5.11 0.9,-10.22 1.45,-15.31 0,-1.26 -1.02,-2.26 -2.28,-2.28 -14.13,1.2 -32.3,1.08 -42.6,-10.46 -3.21,-3.57 -5.15,-8.12 -5.47,-12.93 -0.04,-1.26 -1.08,-2.22 -2.34,-2.17 -1.18,0.04 -2.13,1 -2.17,2.17z"/>
   <path class="fil0" d="M1849.33 1588.01l1.32 -15.57 3.62 -42.64 5.31 -62.79 6.51 -76.58 7.14 -84.26 7.18 -84.68 6.7 -78.97 5.68 -66.73 4.07 -48.05c0.65,-7.59 1.59,-15.25 1.93,-22.86 0.02,-0.33 0.06,-0.65 0.08,-0.97 0.27,-2.91 -4.27,-2.89 -4.52,0l-1.32 15.57 -3.62 42.64 -5.34 62.79 -6.49 76.58 -7.14 84.26 -7.19 84.68 -6.72 78.97 -5.65 66.75 -4.07 48.03c-0.65,7.59 -1.59,15.24 -1.96,22.85 0,0.33 -0.04,0.65 -0.06,0.98 -0.27,2.91 4.27,2.89 4.52,0z"/>
   <path class="fil0" d="M572.32 1398.69c11.07,0 22.37,-0.85 33.05,2.68 15.61,5.34 27.74,17.83 32.62,33.61 3.66,12.01 2.26,25.97 2.26,38.4l0 136.64c0,12.64 -0.51,25.38 0,38.02 0,0.18 0,0.39 0,0.59 0.08,2.5 2.17,4.46 4.68,4.38 2.38,-0.08 4.27,-2 4.36,-4.38l0 -172.48c0,-12.5 1.22,-26.03 -1.24,-38.34 -5.35,-26.01 -27.11,-45.47 -53.57,-47.89 -5.52,-0.55 -11.19,-0.28 -16.75,-0.28l-5.41 0c-2.5,0.08 -4.46,2.17 -4.37,4.68 0.08,2.38 1.99,4.3 4.37,4.38z"/>
   <path class="fil0" d="M330.85 1389.63c-11.72,0 -23.67,-0.8 -34.98,2.87 -16.41,5.29 -29.77,17.32 -36.8,33.05 -6.21,14.21 -5.22,29.17 -5.22,44.25l0 138.44c0,13.23 -0.51,26.58 0,39.81 0.02,0.18 0,0.39 0,0.59 0.1,2.5 2.2,4.46 4.7,4.38 2.37,-0.08 4.27,-2 4.36,-4.38l0 -168.8c0,-10.91 -0.51,-21.96 0.08,-32.87 1.02,-16.45 9.83,-31.41 23.71,-40.28 6.92,-4.41 14.8,-7.08 22.98,-7.82 5.21,-0.43 10.52,-0.18 15.76,-0.18l5.41 0c2.5,-0.08 4.46,-2.18 4.37,-4.68 -0.08,-2.38 -1.99,-4.29 -4.37,-4.37z"/>
   <path class="fil0" d="M254.33 931.26c0,11.07 0.85,22.38 -2.69,33.05 -5.33,15.61 -17.83,27.74 -33.6,32.62 -12.01,3.66 -25.97,2.26 -38.4,2.26l-136.65 0c-12.63,0 -25.38,-0.51 -38.01,0 -0.18,0 -0.39,0 -0.59,0 -2.5,0.08 -4.45,2.17 -4.37,4.68 0.08,2.38 2,4.29 4.37,4.38l172.48 0c12.48,0 26.03,1.2 38.35,-1.26 26.01,-5.35 45.47,-27.09 47.88,-53.55 0.55,-5.53 0.29,-11.22 0.29,-16.77l0 -5.41c-0.08,-2.5 -2.18,-4.46 -4.68,-4.38 -2.38,0.09 -4.29,2 -4.37,4.38z"/>
   <path class="fil0" d="M263.38 671.67c0,-11.72 0.8,-23.67 -2.87,-34.98 -5.29,-16.4 -17.32,-29.77 -33.05,-36.8 -14.2,-6.21 -29.16,-5.19 -44.24,-5.19l-138.44 0c-13.23,0 -26.58,-0.53 -39.81,0 -0.18,0 -0.39,0 -0.59,0 -2.5,0.08 -4.46,2.18 -4.38,4.68 0.09,2.38 2,4.27 4.38,4.35l168.8 0c10.91,0 21.96,-0.51 32.87,0.1 16.44,1 31.4,9.81 40.27,23.69 4.42,6.92 7.08,14.8 7.82,22.98 0.43,5.21 0.18,10.52 0.18,15.76l0 5.41c0.08,2.5 2.17,4.46 4.68,4.38 2.38,-0.08 4.29,-2 4.37,-4.38z"/>
   <path class="fil0" d="M263.38 1076.16c0,-11.72 0.8,-23.67 -2.87,-34.99 -5.29,-16.4 -17.32,-29.77 -33.05,-36.8 -14.2,-6.21 -29.16,-5.21 -44.24,-5.21l-138.44 0c-13.23,0 -26.58,-0.51 -39.81,0 -0.18,0.02 -0.39,0 -0.59,0 -2.5,0.1 -4.46,2.2 -4.38,4.68 0.09,2.38 2,4.3 4.38,4.38l168.8 0c10.91,0 21.96,-0.51 32.87,0.08 16.44,1.02 31.4,9.83 40.27,23.71 4.42,6.92 7.08,14.8 7.82,22.98 0.43,5.21 0.18,10.52 0.18,15.75l0 5.42c0.08,2.5 2.17,4.45 4.68,4.37 2.38,-0.08 4.29,-2 4.37,-4.37z"/>
   <path class="fil0" d="M254.33 1323.67c0,11.07 0.85,22.37 -2.69,33.05 -5.33,15.61 -17.83,27.74 -33.6,32.62 -12.01,3.66 -25.97,2.26 -38.4,2.26l-136.65 0c-12.63,0 -25.38,-0.51 -38.01,0 -0.18,0 -0.39,0 -0.59,0 -2.5,0.08 -4.45,2.18 -4.37,4.68 0.08,2.38 2,4.27 4.37,4.36l172.48 0c12.48,0 26.03,1.22 38.35,-1.24 26.01,-5.35 45.47,-27.11 47.88,-53.57 0.55,-5.53 0.29,-11.19 0.29,-16.75l0 -5.42c-0.08,-2.5 -2.18,-4.45 -4.68,-4.37 -2.38,0.08 -4.29,2 -4.37,4.37z"/>
   <path class="fil0" d="M263.38 1468.57c0,-11.72 0.8,-23.67 -2.87,-34.99 -5.29,-16.4 -17.32,-29.77 -33.05,-36.8 -14.2,-6.21 -29.16,-5.19 -44.24,-5.19l-138.44 0c-13.23,0 -26.58,-0.53 -39.81,0 -0.18,0 -0.39,0 -0.59,0 -2.5,0.08 -4.46,2.17 -4.38,4.68 0.09,2.38 2,4.27 4.38,4.36l168.8 0c10.91,0 21.96,-0.51 32.87,0.1 16.44,1 31.4,9.81 40.27,23.69 4.42,6.92 7.08,14.8 7.82,22.98 0.43,5.21 0.18,10.52 0.18,15.75l0 5.42c0.08,2.5 2.17,4.45 4.68,4.37 2.38,-0.08 4.29,-2 4.37,-4.37z"/>
   <path class="fil0" d="M254.33 526.78c0,11.07 0.85,22.37 -2.69,33.05 -5.33,15.61 -17.83,27.74 -33.6,32.62 -12.01,3.66 -25.97,2.26 -38.4,2.26l-136.65 0c-12.63,0 -25.38,-0.51 -38.01,0 -0.18,0 -0.39,0 -0.59,0 -2.5,0.08 -4.45,2.17 -4.37,4.68 0.08,2.38 2,4.27 4.37,4.37l172.48 0c12.48,0 26.03,1.21 38.35,-1.26 26.01,-5.35 45.47,-27.09 47.88,-53.55 0.55,-5.53 0.29,-11.22 0.29,-16.77l0 -5.41c-0.08,-2.5 -2.18,-4.46 -4.68,-4.38 -2.38,0.08 -4.29,2 -4.37,4.38z"/>
   <path class="fil0" d="M263.38 267.19c0,-11.72 0.8,-23.67 -2.87,-34.98 -5.29,-16.41 -17.32,-29.77 -33.05,-36.8 -14.2,-6.21 -29.16,-5.19 -44.24,-5.19l-138.44 0c-13.23,0 -26.58,-0.53 -39.81,0 -0.18,0 -0.39,0 -0.59,0 -2.5,0.08 -4.46,2.17 -4.38,4.68 0.09,2.38 2,4.27 4.38,4.36l168.8 0c10.91,0 21.96,-0.51 32.87,0.1 16.44,1 31.4,9.81 40.27,23.69 4.42,6.92 7.08,14.8 7.82,22.98 0.43,5.21 0.18,10.52 0.18,15.76l0 5.41c0.08,2.5 2.17,4.46 4.68,4.38 2.38,-0.09 4.29,-2 4.37,-4.38z"/>
  </g>
 </g>
</svg>
