<?xml version="1.0" encoding="UTF-8"?>
<!DOCTYPE svg PUBLIC "-//W3C//DTD SVG 1.1//EN" "http://www.w3.org/Graphics/SVG/1.1/DTD/svg11.dtd">
<!-- Creator: CorelDRAW 2021 (64-Bit) -->
<svg xmlns="http://www.w3.org/2000/svg" xml:space="preserve" width="44.0567mm" height="34.5902mm" version="1.1" style="shape-rendering:geometricPrecision; text-rendering:geometricPrecision; image-rendering:optimizeQuality; fill-rule:evenodd; clip-rule:evenodd"
viewBox="0 0 1964.19 1542.14"
 xmlns:xlink="http://www.w3.org/1999/xlink"
 xmlns:xodm="http://www.corel.com/coreldraw/odm/2003">
 <defs>
  <style type="text/css">
   <![CDATA[
    .str0 {stroke:black;stroke-width:21.17;stroke-miterlimit:10}
    .fil6 {fill:none;fill-rule:nonzero}
    .fil1 {fill:black;fill-rule:nonzero}
    .fil8 {fill:#458DC9;fill-rule:nonzero}
    .fil5 {fill:#57F2A4;fill-rule:nonzero}
    .fil4 {fill:#A8542A;fill-rule:nonzero}
    .fil0 {fill:#BC8E4A;fill-rule:nonzero}
    .fil7 {fill:#EA2F2F;fill-rule:nonzero}
    .fil3 {fill:#FFC41F;fill-rule:nonzero}
    .fil2 {fill:white;fill-rule:nonzero}
   ]]>
  </style>
 </defs>
 <g id="Layer_x0020_1">
  <metadata id="CorelCorpID_0Corel-Layer"/>
  <g id="_1841320055216">
   <polygon class="fil0" points="1055.86,482.11 1046.81,416.85 959.11,392.55 966.92,492.6 "/>
   <path class="fil1" d="M962.81 492.6c0.41,5.14 8.65,5.14 8.45,0.21l-1.04 -12.35 -4.12 -53.74 -2.67 -33.75 -5.35 3.9 10.91 3.1 47.34 13.18 29.44 8.23 -2.88 -2.88 1.02 8.02 8.04 57.23c0.61,2.26 2.88,3.51 5.14,2.88 2.06,-0.62 3.5,-2.88 2.88,-5.14l-1.02 -8.02 -8.04 -57.23c-0.41,-1.45 -1.45,-2.47 -2.88,-2.88l-10.91 -3.1 -47.34 -13.17 -29.44 -8.24c-0.41,-0.21 -0.63,-0.21 -1.04,-0.21 -2.47,0 -4.32,1.85 -4.32,4.12l1.03 12.35 4.12 53.73 2.67 33.77z"/>
   <path class="fil0" d="M1017.16 428.37c159.34,11.12 75.56,-163.87 75.56,-163.87l-163.05 10.08c0,0 -17.71,36.85 -14.61,52.7 5.35,27.38 34.16,44.46 45.07,79.27l57.03 21.81z"/>
   <path class="fil1" d="M956.22 407.78c1.65,5.14 9.67,2.88 7.61,-1.86 -4.53,-13.17 -11.32,-25.52 -19.96,-36.64 -6.38,-8.64 -13.38,-16.88 -18.75,-26.14 -4.52,-8.02 -7.41,-16.06 -6.17,-24.71 1.65,-9.26 4.32,-18.53 8.02,-27.18 1.85,-4.94 3.71,-9.04 5.98,-14l-3.51 2.06 19.97 -1.23 87.9 -5.56 55.17 -3.5 -3.49 -2.06c0.21,0 0.21,0.21 0.21,0.21 0.21,0.82 0.62,1.45 1.02,2.26 0.21,0.62 0.63,1.23 0.82,1.85 0,0.41 0.22,0.82 0.42,1.23 0.41,1.03 -0.42,-0.82 0.21,0.42 1.85,4.51 3.7,9.26 5.35,14 4.94,13.78 8.65,27.99 11.12,42.4 0,1.03 0.2,2.06 0.41,3.09 0,0.41 0.21,1.04 0.21,1.44l0 0.62c0.21,2.06 0.41,4.12 0.63,6.18 0.41,4.12 0.62,8.02 0.62,12.14 0,3.91 -0.21,8.04 -0.62,12.14 -0.22,1.04 -0.22,2.06 -0.42,3.1 -0.21,0.82 0,0.21 0,0l0 0.62c0,0.41 -0.21,1.02 -0.21,1.44 -0.41,2.06 -0.82,3.9 -1.23,5.97 -0.83,3.91 -2.06,7.62 -3.51,11.12 -0.21,0.82 0.21,-0.21 0,0.21 0,0.2 -0.21,0.41 -0.21,0.61 -0.2,0.42 -0.41,0.83 -0.61,1.24 -0.41,0.82 -0.83,1.65 -1.24,2.47 -0.82,1.65 -1.85,3.29 -2.88,4.94 -0.62,1.04 -1.24,1.86 -1.86,2.67 -0.21,0.21 -1.02,1.24 -0.41,0.63 -0.21,0.21 -0.62,0.62 -0.82,1.03 -1.24,1.44 -2.47,2.88 -3.91,4.32 -2.67,2.88 -5.77,5.35 -9.26,7.41 -8.24,4.94 -17.3,8.24 -26.77,9.89 -12.96,2.25 -26.14,2.88 -39.32,1.64 -5.35,-0.41 -5.35,7.83 0,8.24 3.71,0.21 7.63,0.41 11.32,0.41 22.04,0.41 45.91,-2.88 63.83,-16.67 13.59,-10.3 21.61,-25.73 24.71,-42.42 3.08,-16.88 1.64,-34.18 -1.45,-51.06 -2.67,-14.2 -6.59,-28.2 -11.73,-41.79 -2.26,-6.18 -4.73,-12.55 -7.61,-18.53 -0.63,-1.24 -2.06,-2.06 -3.5,-2.06l-19.98 1.24 -87.9 5.55 -55.18 3.49c-1.43,0 -2.67,0.83 -3.49,2.06 -2.89,6.18 -5.36,12.36 -7.83,18.73 -3.7,9.26 -6.17,18.95 -7.41,28.83 -0.62,9.67 3.29,19.14 8.02,27.38 5.77,9.67 13.18,18.12 19.77,27.18 7.83,9.88 13.79,21 17.91,32.94z"/>
   <path class="fil1" d="M976.4 349.73c0.21,1.02 1.44,1.85 2.06,1.23 1.02,-0.21 1.65,-1.43 1.44,-2.47 -1.03,-2.47 -2.06,-4.73 -3.3,-7 -1.86,-3.7 -4.12,-7.41 -6.79,-10.7 -2.47,-2.88 -5.56,-5.98 -9.67,-6.39 -4.73,-0.41 -9.06,3.09 -9.47,7.82 0.21,3.1 1.23,5.97 3.29,8.24 0.83,0.82 2.06,0.82 2.89,0 0.82,-0.82 0.82,-2.06 0,-2.88 0,0 0.41,0.61 0.21,0.21 -0.21,-0.21 -0.21,-0.41 -0.43,-0.62 -0.41,-0.63 -0.82,-1.24 -1.02,-1.85 -0.21,0 -0.41,-0.63 -0.21,-0.21 0,-0.22 -0.21,-0.42 -0.21,-0.63 -0.21,-0.41 -0.41,-0.82 -0.41,-1.23 0,-0.62 0,-1.24 0.2,-1.86 0.21,-0.41 0,-0.21 0.21,-0.41 0.21,-0.21 0.21,-0.41 0.41,-0.62l0.62 -0.63c0.83,-0.62 1.65,-1.02 2.67,-1.23l0.22 0 0.41 0 0.41 0 0.21 0c0.41,0 0.62,0 1.02,0.21 0.21,0.2 0.63,0.2 0.43,0.2 -0.22,0 0.41,0.21 0.41,0.21 1.43,0.82 2.67,1.65 3.7,2.88 1.24,1.24 2.26,2.67 3.3,4.12 2.06,2.88 3.7,5.98 5.35,9.26 0.61,1.04 1.24,2.26 1.65,3.3 0,0.21 0.21,0.41 0.21,0.61 0.21,0.62 0,-0.2 0,0 0.21,0.21 0.21,0.21 0.21,0.41z"/>
   <path class="fil2" d="M842.99 503.1l-229.35 22.65 24.5 -73.5 -15.85 -53.32 225.23 24.28c16.87,2.06 29.65,14.83 30.46,30.69l1.65 34.58 -36.65 14.61z"/>
   <path class="fil1" d="M875.32 488.49c0.41,5.35 8.65,5.35 8.02,0l-0.21 -3.51c-0.41,-10.29 -0.82,-20.79 -1.43,-31.28 -1.24,-18.73 -16.69,-32.32 -34.79,-34.38 -12.56,-1.45 -24.91,-2.67 -37.48,-4.12l-77.2 -8.23 -76.17 -8.24 -34.38 -3.71c-0.41,0 -0.63,0.21 -1.03,0.21 -2.06,0.63 -3.5,2.89 -2.88,5.16l2.06 6.79 13.79 46.52 0 -2.26 -3.08 9.26 -21.42 64.24c-0.21,0.41 -0.21,0.61 -0.21,1.02 0,2.26 1.85,4.12 4.12,4.12l0.41 0c3.1,0 6.18,-0.61 9.06,-0.82l18.93 -1.85 57.24 -5.57 66.09 -6.58 54.97 -5.36 22.65 -2.26c2.26,0 4.11,-1.85 4.11,-4.12 0,-2.25 -1.84,-4.11 -4.11,-4.11l-0.42 0c-3.08,0 -6.17,0.62 -9.06,0.82l-18.93 1.85 -57.24 5.55 -66.07 6.59 -54.97 5.35 -22.65 2.26 3.92 5.36 8.02 -23.89 11.73 -35.2 3.92 -11.73c1.04,-1.85 1.23,-3.71 0.82,-5.55 -2.47,-9.69 -5.55,-19.16 -8.43,-28.63l-7.22 -24.08 -3.9 5.35 0.62 0c4.32,0.82 9.06,1.04 13.38,1.44l27.18 2.88 76.99 8.23 74.31 8.04 24.1 2.67c3.29,0.21 6.59,0.41 9.88,1.04 8.85,1.23 16.89,6.58 21.63,14.2 2.67,4.73 3.9,10.08 3.9,15.63l1.44 30.89z"/>
   <polygon class="fil1" points="615.1,988.13 473.05,767.84 1960.04,932.75 "/>
   <path class="fil1" d="M1959.84 928.01c-0.82,0 -1.65,-0.2 -2.47,-0.2 -19.16,-2.26 -38.5,-4.33 -57.65,-6.39l-122.9 -13.59 -169.64 -18.73 -201.35 -22.24 -215.94 -23.87 -213.29 -23.67 -195.37 -21.63 -160.16 -17.69 -108.29 -11.94 -39.73 -4.32c-3.1,-0.42 -5.16,3.7 -3.5,6.17l8.24 12.97 110.96 171.7 18.52 28.61c2.06,3.08 4.11,8.23 8.23,8.85 4.73,0.82 10.71,-0.41 15.65,-0.63l100.47 -4.11 171.07 -7 215.76 -8.85 233.65 -9.67 226.66 -9.26 194.56 -8.04 135.67 -5.55 51.05 -2.06c5.36,-0.21 5.36,-8.45 0.21,-7.41l-2.26 0c-17.49,0.21 -34.99,1.43 -52.5,2.06l-110.55 4.52 -153.77 6.38 -181.99 7.41 -195.17 8.04 -193.31 8.02 -176.44 7.22 -145.14 5.96 -97.37 3.91 -36.24 1.45 3.51 2.04 -17.71 -27.37 -76.38 -118.18 -48.18 -74.52 -3.5 6.18c0.83,0 1.65,0 2.48,0.21 6.37,1.43 13.17,1.64 19.75,2.26l37.87 4.11 122.91 13.59 169.64 18.73 201.33 22.24 215.96 23.88 213.27 23.68 195.37 21.61 160.17 17.71 108.28 11.93 39.73 4.33c5.36,0.61 5.36,-7.61 -0.2,-8.86z"/>
   <polygon class="fil3" points="1960.04,932.75 666.15,584.63 473.04,767.86 "/>
   <path class="fil1" d="M476.14 771.35l23.87 -22.65 104.18 -98.61 65.26 -61.97 -4.12 1.03c0.61,0.21 1.44,0.41 2.06,0.62 5.77,1.85 11.53,3.51 17.3,4.73l33.14 8.85 106.43 28.63 148.02 39.73 175.21 47.14 187.74 50.44 186.11 50.03 169.83 45.71 139.18 37.46 94.08 25.32 34.58 9.26 1.03 -8.24c-0.82,0 -1.64,0 -2.47,-0.21 -6.38,-1.43 -13.17,-1.64 -19.75,-2.26l-37.89 -4.11 -122.9 -13.59 -169.64 -18.73 -201.33 -22.24 -215.96 -23.87 -213.29 -23.69 -195.36 -21.61 -160.17 -17.71 -108.28 -11.94 -39.73 -4.32c-5.36,-0.61 -5.36,7.61 0,8.24 0.82,0 1.64,0.21 2.47,0.21 19.14,2.26 38.49,4.32 57.65,6.37l122.9 13.59 169.64 18.75 201.33 22.22 215.96 23.89 213.29 23.67 195.36 21.61 160.17 17.71 108.29 11.93 39.73 4.32c4.73,0.41 5.36,-7 1.04,-8.24l-3.1 -0.82 -71.24 -19.14 -147.4 -39.73 -197.62 -53.13 -223.16 -60.11 -224.2 -60.32 -198.45 -53.32 -149.87 -40.36 -74.73 -20.16c-1.44,-0.41 -2.67,-0.83 -4.12,-1.04 -4.32,-0.41 -8.24,4.94 -11.12,7.83l-63.42 60.11 -122.69 116.31c-3.9,3.71 2.06,9.67 6.18,6.38z"/>
   <path class="fil4" d="M1058.33 514.63l51.26 -3.5c22.45,-1.64 44.46,5.16 62.18,18.95l194.76 152.14 128.26 -268.26 105.19 52.3 -125.57 260.01c-27.18,55.99 -88.53,93.66 -150.5,68.14l-246.02 -142.25 -19.55 -137.53z"/>
   <path class="fil1" d="M1080.16 648.65c-4.73,-2.67 -8.85,4.53 -4.53,7.41l2.06 1.24 45.08 26.14 78.45 45.3 77.19 44.67 41.59 24.1c3.71,1.84 7.61,3.49 11.73,4.53 11.52,3.49 23.67,5.14 35.83,4.73 23.06,-1.24 45.28,-9.26 63.81,-23.06 19.16,-14.22 34.79,-32.52 45.3,-53.95 1.65,-3.49 3.29,-6.79 4.94,-10.08l27.99 -58.05 40.77 -84.2 36.85 -75.97 16.06 -33.14c1.24,-2.06 0.41,-4.53 -1.45,-5.77l-12.96 -6.38 -56.83 -28.2 -35.4 -17.7c-2.06,-1.24 -4.53,-0.42 -5.77,1.44 0,0 -0.21,0.2 -0.21,0.41 -1.85,3.51 -3.29,7 -4.94,10.51l-10.5 22.02 -31.9 66.91 -37.05 77.61 -30.69 64.03 -12.76 26.77 6.59 -0.83c-0.22,-0.21 -0.42,-0.21 -0.63,-0.41 -3.9,-3.7 -8.43,-6.79 -12.76,-10.08l-25.95 -20.18 -71.44 -55.58 -64.44 -50.24 -16.88 -13.18c-10.69,-8.85 -23.26,-15.23 -36.64,-19.14 -10.29,-2.67 -21,-3.71 -31.69,-2.88 -5.16,0.21 -10.5,0.62 -15.65,1.02l-34.81 2.47c-5.35,0.21 -5.35,8.65 0,8.24l3.1 -0.21 40.77 -2.89c5.55,-0.41 10.9,-0.62 16.47,-0.62 13.16,0.41 26.14,3.92 37.87,10.1 6.38,3.49 12.56,7.61 18.12,12.35l20.79 16.26 67.11 52.5 68.97 53.93 31.91 24.91c2.06,1.44 5.35,1.85 6.59,-0.82 0,0 0.2,-0.21 0.2,-0.41 1.86,-3.5 3.29,-7.01 4.94,-10.5l10.51 -22.04 31.91 -66.91 37.05 -77.6 30.67 -64.23 12.76 -26.77 -5.76 1.44 12.98 6.37 56.81 28.22 35.42 17.69 -1.44 -5.76 -1.02 2.26 -22.24 45.91 -38.91 80.29 -39.12 80.91 -23.06 47.77c-14.82,30.87 -38.91,57.85 -71.44,70.19 -21.2,8.24 -44.89,8.85 -66.7,2.06 -5.35,-1.65 -10.29,-3.91 -14.82,-6.79l-54.16 -31.3 -80.29 -46.52 -72.66 -41.99 -31.71 -18.32z"/>
   <path class="fil5" d="M1058.33 514.63l21.2 172.93 255.69 137.53c114.88,52.08 187.76,7.82 211.02,-64.44l62.99 -208.96c-13.79,-4.32 -78.23,-14.2 -94.49,-21.61 -24.28,-11.12 -45.08,-23.26 -59.3,-33.97l-89.13 186.11 -194.76 -152.14c-17.71,-13.79 -39.73,-20.59 -62.17,-18.95l-51.06 3.5z"/>
   <path class="fil1" d="M1109.39 515.25c5.55,-0.41 11.12,-0.21 16.67,0.41 15.85,2.06 30.67,8.24 43.24,17.92 3.29,2.47 6.59,5.14 9.88,7.61l45.7 35.62 61.36 47.97 54.14 42.2 23.06 17.71c2.06,1.43 5.36,1.84 6.59,-0.83 0.21,-0.21 0.21,-0.41 0.21,-0.41 4.12,-7.2 7.41,-15.24 10.91,-22.65l22.24 -46.32 25.73 -53.73 21.2 -44.46 8.85 -18.55 -5.77 1.45c13.39,9.88 27.38,18.32 42.22,25.73 9.47,5.16 19.55,9.47 29.85,12.57 9.88,2.67 19.75,4.73 29.65,6.79l31.48 6.17c7.2,1.24 14.41,2.89 21.41,4.73l-2.88 -5.14 -0.82 2.88 -17.5 57.85 -26.34 87.71 -17.5 57.85c-7.41,24.9 -21.61,48.17 -42.4,64.03 -31.1,23.47 -71.24,26.96 -108.49,19.14 -12.57,-2.47 -24.71,-6.18 -36.65,-10.71 -6.38,-2.26 -12.56,-4.94 -18.73,-7.82 -4.12,-2.06 -8.24,-4.32 -12.36,-6.59l-59.7 -32.12 -80.91 -43.44 -71.44 -38.5 -30.67 -16.46 2.06 3.5 -2.67 -21.2 -11.53 -92.86 -7.22 -58.67 -4.11 4.12 6.37 -0.42 44.89 -3.08c5.35,-0.21 5.35,-8.65 0,-8.24l-5.57 0.22 -44.87 3.08c-2.06,0 -4.32,1.85 -4.12,4.12l0.83 5.96 4.94 40.97 7.2 58.26 6.18 50.24 1.64 14.2c0.41,2.47 0.21,5.57 2.67,7 4.96,3.3 10.51,5.77 15.85,8.65l36.44 19.56 48.59 26.14 52.7 28.4 48.79 26.16 36.65 19.75c5.36,3.1 10.71,6.18 16.26,8.85 11.93,5.77 24.5,10.51 37.28,14.2 14.4,4.53 29.42,7.42 44.46,8.65 24.5,1.85 49.4,-1.65 71.64,-12.55 19.56,-9.69 36.03,-24.71 47.77,-43.24 7.2,-11.73 12.96,-24.3 16.87,-37.69l9.67 -32.1 15.65 -52.3 17.08 -56.62 13.79 -45.5 5.56 -18.73c0.62,-2.26 -0.61,-4.53 -2.88,-5.14 -8.04,-2.26 -16.06,-3.91 -24.3,-5.35 -20.18,-3.92 -40.77,-7.2 -60.52,-12.98 -1.86,-0.41 -3.71,-1.02 -5.57,-1.65 -0.62,-0.21 -1.23,-0.41 -1.84,-0.62 -0.42,-0.2 -0.63,-0.2 -1.04,-0.41 0.82,0.41 0,0 -0.21,0 -7.82,-3.51 -15.65,-7.41 -23.26,-11.53 -12.57,-6.59 -24.71,-14 -36.03,-22.44 -2.06,-1.23 -4.53,-0.62 -5.76,1.44 -0.2,0.21 -0.2,0.41 -0.2,0.41 -4.12,7.2 -7.43,15.24 -10.92,22.65l-22.24 46.32 -25.73 53.73 -21.2 44.48 -8.85 18.53 6.59 -0.83 -0.41 -0.41c-2.88,-2.67 -6.18,-4.73 -9.26,-7.2l-19.36 -15.03 -57.01 -44.46 -61.15 -47.77 -41.59 -32.53c-2.47,-2.06 -5.14,-4.12 -7.61,-5.96 -18.32,-13.59 -40.77,-20.38 -63.62,-18.95 -5.14,0.22 -5.14,8.65 0,8.24z"/>
   <path class="fil1" d="M1575.68 516.48l-15.24 31.3c26.56,8.43 46.11,10.29 49.21,3.49 3.09,-6.59 -10.71,-20.18 -33.97,-34.79z"/>
   <path class="fil1" d="M1606.16 549.42c-0.21,0.21 -0.21,0.41 -0.41,0.61 0.21,-0.41 0.41,-0.41 0,-0.2 -0.62,0.2 -0.41,0.2 0,0 -0.21,0.2 -0.41,0.2 -0.62,0.41 -0.22,0 -0.83,0.43 0,0 -0.22,0 -0.63,0.21 -0.83,0.21 -0.61,0.22 -1.23,0.22 -1.85,0.42 -0.41,0.21 -0.82,0.21 -1.23,0.21 -0.82,0.21 -1.65,0.21 -2.47,0.21 -2.06,0 -3.91,0 -5.77,-0.21 -10.69,-1.44 -21.2,-3.71 -31.48,-7.2l2.47 6.16 15.23 -31.28 -5.56 1.23c8.85,5.57 17.28,11.73 25.12,18.95 2.47,2.25 4.53,4.73 6.17,7.41 0,0.21 0.22,0.62 0.42,0.82 0,0.21 0.41,1.04 0.21,0.61 0,-0.41 0.41,0.83 0.41,1.04 0.21,1.03 0,-0.41 0,0l0 0.62c0,0.82 0.21,-0.62 0,-0.21 0,0.21 -0.21,0.82 0.21,-0.21 -1.24,2.06 -0.41,4.53 1.44,5.76 2.05,1.24 4.53,0.63 5.76,-1.43 2.88,-7 -2.26,-13.59 -6.79,-18.73 -8.23,-8.65 -18.52,-15.45 -28.61,-21.83 -2.06,-1.23 -4.53,-0.61 -5.77,1.45l-15.23 31.28c-0.22,0.21 -0.42,0.63 -0.42,0.83 -0.62,2.26 0.63,4.73 2.89,5.35 11.53,3.91 23.26,6.59 35.4,7.61 5.97,0.43 15.44,0.43 18.52,-5.96 2.26,-4.73 -4.94,-8.85 -7.2,-3.91z"/>
   <path class="fil0" d="M1455.46 496.1c14.2,10.71 34.99,22.85 59.3,33.97 16.26,7.41 46.93,18.73 60.72,23.06l13.79 -53.95 15.24 -58.26 -109.74 -26.97 -26.97 56.42 -12.35 25.73z"/>
   <path class="fil1" d="M1471.31 472.63l3.29 -7 23.68 -49.4 -4.73 1.84 13.57 3.3 59.09 14.41 37.26 9.06 -2.88 -5.14 -5.98 22.43c-3.49,13.59 -7.2,27.18 -10.7,40.77l-12.56 48.99 5.14 -2.88c-7.61,-2.47 -15.02,-5.14 -22.63,-7.82 -33.77,-12.36 -67.54,-27.18 -96.35,-48.79l1.45 5.76 12.35 -25.73c2.26,-4.73 -4.94,-8.85 -7.2,-4.12l-12.14 25.53c-1.04,2.06 -0.42,4.53 1.43,5.77 8.24,5.96 16.67,11.53 25.53,16.47 16.46,9.47 33.56,17.71 51.26,24.71 14.63,5.76 29.24,11.31 44.27,16.06 2.26,0.62 4.53,-0.63 5.14,-2.89l5.96 -23.47c3.51,-13.18 6.81,-26.34 10.3,-39.52l12.76 -48.99c0.63,-2.26 -0.62,-4.53 -2.88,-5.16l-13.59 -3.29 -59.07 -14.41 -37.26 -9.06c-1.86,-0.61 -3.71,0.21 -4.73,1.85l-3.3 7 -23.67 49.4c-2.26,4.73 4.94,9.06 7.2,4.32z"/>
   <path class="fil0" d="M1474.6 456.37l10.92 -22.85c7.41,-15.44 12.97,-31.71 16.87,-48.58 2.88,-12.97 6.18,-30.06 9.26,-50.64 7.2,-50.24 61.15,-64.65 95.12,-12.55 -32.54,21.41 -16.69,54.34 -16.69,54.34l9.26 89.55 -12.96 45.91 -111.8 -55.18z"/>
   <path class="fil1" d="M1582.48 510.51c-1.45,5.14 6.59,7.2 7.83,3.08l0.41 -1.02 11.73 -41.58c0.62,-2.47 0.82,-4.94 0.62,-7.41l-1.85 -17.3 -5.14 -50.44 -1.65 -16.47c-0.21,-0.82 -0.21,-1.85 -0.41,-2.88 0,-0.21 -1.02,-3.3 -0.41,-1.45 -0.21,-0.82 -0.61,-1.65 -0.82,-2.47 -1.04,-2.88 -1.65,-5.96 -2.06,-8.85 0.2,0.63 0,-0.61 0,-0.82 -0.22,-0.62 -0.22,-1.04 -0.22,-1.45 -0.19,-1.02 -0.19,-2.06 -0.19,-3.08 0,-2.06 0.19,-3.92 0.41,-5.98 1.84,-11.32 8.84,-20.38 18.12,-26.55 1.84,-1.24 2.47,-3.71 1.43,-5.77 -11.32,-17.28 -28.2,-32.32 -49.4,-34.59 -15.04,-1.23 -29.85,4.94 -39.52,16.47 -5.36,6.38 -9.49,13.99 -11.75,22.03 -1.23,4.94 -2.26,9.88 -2.88,14.82 -0.82,6.38 -1.86,12.57 -3.09,18.95 -4.12,23.47 -9.47,46.52 -19.14,68.34 -4.32,9.69 -9.28,19.16 -13.79,28.83 -2.26,4.73 4.94,8.85 7.2,4.12 5.55,-11.73 11.53,-23.26 16.46,-35.22 8.65,-20.99 13.59,-43.22 17.49,-65.46 3.3,-17.91 3.51,-37.67 16.26,-51.89 8.65,-9.88 22.03,-14.82 35.01,-12.55 17.08,3.09 30.67,15.85 39.93,30.06l1.44 -5.76c-6.59,4.11 -12.36,9.88 -16.46,16.46 -7.63,13.37 -8.24,29.65 -1.65,43.65l-0.63 -2.06 2.47 23.46 6.81 64.85c0,0.41 0.21,0.62 0.21,1.03 0.41,0.83 -1.04,-0.82 0.2,-0.82 -0.41,0.82 -0.63,1.85 -0.83,2.88l-4.31 15.44 -7.83 27.38z"/>
   <path class="fil0" d="M1500.75 391.73l4.53 -18.94c1.44,-5.97 2.26,-11.93 2.88,-17.91 1.65,-19.97 7.83,-71.03 26.16,-104.37 14.61,-25.73 33.75,-13.59 25.73,14.4 -8.04,28 -21.2,64.44 -19.57,81.73l-39.73 45.09z"/>
   <path class="fil1" d="M1536.36 346.64c0,2.26 1.85,4.12 4.32,4.12 2.26,0 4.12,-1.86 4.12,-4.12 -1.04,-10.71 2.26,-21.61 4.94,-31.91 3.49,-13.18 7.82,-26.34 11.73,-39.52 3.08,-10.08 6.79,-21.2 3.29,-31.71 -2.67,-7.61 -9.67,-13.18 -17.91,-10.49 -10.08,3.29 -15.84,14.2 -19.96,23.26 -4.73,10.7 -8.65,21.61 -11.53,32.93 -4.94,19.34 -8.44,39.32 -10.5,59.3 -0.82,8.44 -2.06,16.87 -3.9,25.32l-4.12 16.88c-1.24,5.35 6.79,7.41 8.02,2.26l4.32 -17.71c1.85,-9.47 3.29,-18.93 4.12,-28.61 2.06,-19.34 5.55,-38.3 10.49,-56.83 2.69,-10.49 6.38,-20.79 10.91,-30.67 2.06,-4.94 4.73,-9.26 8.04,-13.38 1.43,-1.43 2.88,-2.88 4.73,-3.9 0.41,-0.42 1.02,-0.63 1.65,-0.83 0.41,-0.21 2.05,-0.41 1.43,-0.41 2.26,-0.41 4.33,0.82 5.14,2.67 1.65,3.3 2.47,7.2 2.06,10.92 -0.61,5.35 -1.64,10.5 -3.49,15.65 -1.65,5.55 -3.51,11.32 -5.14,16.87 -3.3,10.91 -6.81,22.03 -9.48,33.14 -2.06,8.65 -4.11,17.91 -3.29,26.77z"/>
   <path class="fil0" d="M1561.68 352.4c0.21,-17.5 16.06,-61.76 26.97,-88.74 10.9,-26.96 -6.79,-41.36 -24.09,-17.28 -27.38,39.32 -38.91,109.11 -38.91,109.11l36.03 -3.09z"/>
   <path class="fil1" d="M1521.75 354.46c-0.61,2.06 0.62,4.32 3.29,5.76 2.28,0.63 4.53,-0.61 5.16,-2.88 1.63,-10.9 4.32,-21.61 7,-32.12 4.53,-18.73 11.11,-37.06 19.14,-54.54 4.32,-9.06 9.06,-18.75 16.06,-25.95 2.47,-2.88 6.18,-5.56 9.67,-5.76 1.04,0 2.26,0.41 3.09,1.02 -0.41,-0.21 0.83,0.83 1.03,1.04 -0.41,-0.41 0.21,0.21 0.21,0.41 0.21,0.41 0.41,0.62 0.62,1.03 3.91,8.24 -1.43,18.95 -4.53,26.77 -3.9,9.88 -7.61,19.97 -11.11,30.06 -3.5,9.88 -6.79,19.97 -9.48,30.26 -2.26,7.63 -3.7,15.44 -4.11,23.26 -0.21,5.36 8.23,5.36 8.23,0 0.21,-9.26 2.89,-18.73 5.57,-27.79 3.49,-12.14 7.61,-24.08 11.94,-36.02 1.85,-5.36 3.91,-10.71 5.96,-15.85 2.26,-5.16 4.12,-10.09 5.57,-15.44 2.06,-8.44 2.06,-20.38 -6.39,-25.52 -8.85,-5.35 -18.73,1.85 -24.49,8.44 -6.81,8.43 -12.16,17.7 -16.49,27.59 -8.23,18.52 -15.02,37.87 -19.75,57.64 -2.47,9.47 -4.53,18.93 -6.18,28.61z"/>
   <path class="fil0" d="M1582.27 359.61c1.03,-17.28 18.94,-60.95 31.3,-87.09 12.35,-26.14 -4.55,-41.38 -23.07,-18.32 -29.43,37.69 -44.47,106.86 -44.47,106.86l36.24 -1.44z"/>
   <path class="fil1" d="M1541.92 359.81c-1.02,5.35 7,7.61 8.45,1.86 2.26,-10.71 5.35,-21.2 8.63,-31.71 5.57,-18.53 12.98,-36.44 22.04,-53.52 4.73,-8.65 9.88,-18.12 17.3,-24.91 2.67,-2.67 6.37,-4.94 9.67,-5.14 1.02,0 2.26,0.41 3.08,1.02 0.82,0.83 1.45,1.65 1.86,2.47 3.7,8.65 -2.26,19.16 -5.77,26.77 -4.53,9.88 -8.64,19.77 -12.76,29.85 -3.91,9.88 -7.61,19.75 -10.91,29.85 -2.67,7.41 -4.32,15.23 -5.14,23.06 -0.41,5.35 7.82,5.35 8.24,0 0.61,-8.45 3.9,-18.73 6.98,-27.38 4.12,-12.14 9.06,-24.1 14.01,-35.83 2.05,-4.94 4.11,-9.67 6.37,-14.61 2.67,-5.35 4.95,-10.71 6.79,-16.26 2.06,-8.24 2.47,-19.98 -5.96,-25.12 -8.85,-5.14 -18.95,1.65 -24.91,8.03 -7,8.23 -12.97,17.08 -17.71,26.75 -9.26,18.12 -16.88,36.85 -22.65,56.42 -2.88,9.47 -5.56,18.94 -7.61,28.4z"/>
   <path class="fil0" d="M1583.71 519.98l20.79 -66.5c52.5,-11.73 83.38,-58.87 82.96,-80.09 0,-7.41 -5.35,-13.79 -12.77,-15.02l-0.41 0c-6.59,-1.04 -13.17,2.26 -16.26,8.43 -21.2,42.21 -56.81,27.81 -49.61,-4.31 11.73,-52.09 46.32,-17.91 70.4,-5.36 26.36,13.59 33.77,-10.9 14.42,-29.44 0,0 -70.62,-60.93 -104.8,-7 -9.67,14.63 -18.12,29.85 -25.12,45.91l20.38 153.38z"/>
   <path class="fil1" d="M1559.42 365.58c-0.61,2.06 0.62,4.33 3.1,4.73 2.25,0.62 4.52,-0.61 5.14,-2.88 0.21,-0.62 -0.63,1.23 0,-0.21 0.41,-0.83 0.82,-1.85 1.23,-2.88 4.53,-9.69 9.47,-19.16 15.04,-28.42 6.16,-10.29 12.14,-21.81 22.85,-28.2 15.23,-9.06 33.96,-5.35 49.4,1.45 7.41,3.29 14.63,7.2 21.4,11.73 2.69,1.84 5.16,3.49 7.63,5.35 0.62,0.41 1.03,0.82 1.65,1.23 0.19,0 0.41,0.22 0.61,0.42 0.62,0.62 -0.61,-0.42 0,0 0.62,0.41 1.23,0.82 1.86,1.43 5.35,4.33 9.26,10.3 10.7,16.89 0.2,1.64 0.2,3.29 0,4.94 -0.21,0.41 -0.21,1.02 -0.41,1.43 -0.21,0.83 0.21,0 -0.21,0.63 -0.21,0.41 -0.62,0.82 -0.82,1.23 -0.22,0.21 0,0 -0.43,0.41 -0.41,0.63 -1.02,1.04 -1.64,1.24 -0.63,0.41 0,0.21 -0.83,0.41 -0.41,0.21 -0.82,0.41 -1.23,0.41 -1.85,0.21 -3.91,0 -5.77,-0.41 -8.86,-2.06 -16.88,-8.44 -24.71,-13.18 -7.41,-4.73 -15.22,-9.47 -23.87,-11.73 -8.02,-2.06 -16.26,-1.23 -22.85,4.33 -8.43,7 -12.35,19.77 -13.59,30.26 -1.23,8.65 0.63,18.12 7,24.5 5.77,5.77 14.22,8.02 22.24,5.77 10.71,-2.89 18.93,-11.54 24.71,-20.59 3.29,-5.16 5.14,-11.95 12.14,-13.18 5.14,-0.83 10.08,1.65 12.36,6.38 0.82,1.84 1.23,4.11 1.02,6.17l0 1.24 0 0.41c0,0.62 0,-0.61 0,0 -0.21,0.82 -0.21,1.45 -0.41,2.26 -0.83,3.29 -1.86,6.59 -3.3,9.88 -3.9,8.44 -9.06,16.46 -15.23,23.46 -15.85,18.53 -37.28,31.5 -60.95,37.07 -1.43,0.41 -2.47,1.43 -2.88,2.88l-2.67 8.23 -18.12 58.27c-1.65,5.14 6.39,7.41 8.02,2.26l2.69 -8.24 18.1 -58.26 -2.88 2.88c6.59,-1.44 13.18,-3.49 19.36,-6.18 22.02,-9.47 40.96,-25.12 54.34,-45.08 4.94,-7.2 8.85,-15.24 11.12,-23.89 1.02,-3.7 1.45,-7.41 1.02,-11.11 -0.82,-6.79 -5.14,-12.57 -11.32,-15.44 -6.17,-2.67 -13.16,-2.26 -18.93,1.43 -6.18,4.12 -8.23,11.12 -12.35,16.89 -3.09,4.53 -7,8.44 -11.53,11.32 -3.29,2.06 -7,3.29 -10.92,3.29 -1.65,0 -3.29,-0.21 -4.73,-0.82 -0.62,-0.21 -1.23,-0.41 -1.86,-0.82 -0.82,-0.42 -1.43,-0.83 -2.06,-1.24 0.63,0.41 -0.41,-0.41 -0.61,-0.61 -0.21,-0.21 -0.62,-0.63 -0.82,-0.83 -0.41,-0.62 -0.82,-1.02 -1.24,-1.64 -1.02,-1.45 -1.84,-3.1 -2.26,-4.73 -1.23,-4.12 -1.43,-8.44 -0.61,-12.77 1.04,-5.98 3.08,-11.94 5.97,-17.51 1.64,-3.49 4.53,-6.17 7.82,-8.02 2.67,-1.04 5.76,-1.45 8.65,-1.04 8.43,1.24 15.64,5.77 23.06,10.3 8.44,4.94 16.67,11.12 25.93,14.4 9.26,3.3 21,1.45 24.1,-9.26 3.08,-10.71 -3.71,-22.65 -11.32,-29.64 -2.47,-2.06 -5.16,-4.33 -8.04,-6.17 -13.18,-9.69 -28.4,-18.12 -44.46,-22.04 -9.26,-2.67 -19.16,-2.88 -28.63,-0.82 -9.88,2.67 -18.93,8.43 -25.32,16.46 -4.73,5.96 -8.84,12.55 -12.55,19.14 -3.71,5.97 -7,11.93 -10.08,17.91 -2.89,5.35 -5.57,10.91 -7.83,16.46z"/>
   <path class="fil5" d="M901.46 564.86c7,-31.08 17.28,-40.56 38.08,-41.99l128.26 -8.85c19.36,-1.45 48.17,13.79 51.68,34.18l100.87 354.1c0,0 -338.23,73.48 -360.06,-17.91 2.47,-102.33 41.59,-319.51 41.18,-319.51z"/>
   <path class="fil1" d="M1102.6 515.66c5.35,-0.21 5.35,-8.65 0,-8.85l-1.85 0.21 -36.44 2.47 -59.7 4.12 -51.05 3.51c-10.7,0.61 -22.22,0.41 -32.12,5.35 -15.65,7.82 -21.2,27.38 -24.08,43.24 -1.86,11.32 -3.92,22.43 -5.77,33.55 -3.29,20.59 -6.79,40.97 -9.88,61.36 -4.12,25.52 -7.82,51.05 -11.32,76.78 -3.51,26.36 -6.79,52.71 -9.47,79.06 -2.26,22.43 -4.12,45.08 -4.73,67.52 0,1.45 0.82,2.67 2.06,3.49 2.88,1.24 5.55,2.49 8.45,3.51 24.69,9.67 50.83,15.04 76.99,18.73 28.81,4.12 57.85,6.38 87.08,7.2 26.96,0.83 54.14,0.62 81.11,-0.41 19.97,-0.62 39.93,-1.65 59.91,-3.29 7.82,-0.63 15.65,-1.24 23.47,-2.06 2.26,0 4.12,-1.85 4.12,-4.12l0 -1.45 -3.51 -73.91 -1.84 -39.52c-0.21,-4.12 0.21,-8.85 -1.04,-12.77l-17.28 -56.19 -27.18 -88.11 -14.2 -45.91c-1.65,-5.14 -9.69,-2.88 -8.03,2.26 0,0.21 0.2,0.62 0.2,0.82 5.36,18.32 11.32,36.44 16.89,54.77l27.16 87.9 10.3 33.77 3.09 10.08c0.21,0.83 0.61,3.91 1.24,4.32 -0.21,-0.21 0,-1.85 0,-0.21 0,1.02 0.2,2.26 0.2,3.51l0.62 13.78 2.06 42.83 2.88 64.24 4.12 -4.12 -0.41 0c-3.08,0 -6.18,0.62 -9.06,0.83 -6.59,0.62 -12.97,1.23 -19.56,1.64 -21,1.65 -41.79,2.67 -62.79,3.3 -27.18,0.82 -54.54,0.82 -81.72,-0.21 -28.63,-1.04 -57.24,-3.71 -85.66,-8.03 -25.1,-4.12 -50.42,-9.88 -73.91,-19.96l2.06 3.49c0.21,-4.73 0.41,-9.67 0.63,-14.4 1.23,-23.48 3.5,-47.16 6.17,-70.62 3.1,-25.93 6.39,-52.09 10.1,-78.03 3.49,-24.49 7.2,-48.79 11.11,-73.29 3.1,-18.73 6.18,-37.46 9.26,-55.99 1.44,-8.44 2.89,-16.87 4.53,-25.32 1.85,-9.67 4.73,-19.77 10.3,-27.79 5.35,-7.61 13.79,-10.71 23.06,-11.53 8.65,-0.82 17.28,-1.24 25.93,-1.85l55.79 -3.92 56.21 -3.9 25.52 -1.85z"/>
   <path class="fil0" d="M1216.85 913.19c0,0 112.21,37.46 192.91,18.73 8.02,-14.2 6.79,-31.71 1.02,-49.4 -16.67,-50.44 -62.99,-85.23 -116.1,-88.33l-78.23 -4.53 0.41 123.53z"/>
   <path class="fil1" d="M1216.44 785.56c-5.35,-0.41 -5.35,8.02 0.21,8.24l35.83 2.06 39.93 2.25c17.91,0.83 35.42,5.36 51.46,13.18 20.38,10.1 37.69,25.73 50.03,44.89 6.39,10.08 11.32,21.2 14.61,32.93 3.71,13.39 4.73,28 -2.25,40.57l2.47 -1.86c-18.12,4.12 -36.85,5.76 -55.38,5.14 -31.3,-0.82 -62.6,-4.94 -93.06,-12.35 -14.2,-3.1 -28.4,-6.79 -42.2,-11.32 -5.14,-1.65 -7.41,6.37 -2.26,8.02 0.41,0.21 0.82,0.21 1.23,0.41 24.5,7.63 49.62,13.59 75.15,17.71 20.59,3.5 41.38,5.55 62.17,5.97 10.71,0.21 21.2,-0.21 31.71,-1.24 5.14,-0.62 10.49,-1.43 15.65,-2.26 2.67,-0.62 5.14,-1.03 7.82,-1.65 3.29,-0.61 4.53,-3.08 5.77,-5.96 9.88,-22.24 1.64,-48.38 -8.85,-68.76 -9.48,-17.91 -22.85,-33.57 -39.32,-45.5 -16.49,-12.14 -35.22,-20.16 -55.19,-23.87 -10.08,-1.65 -20.58,-2.47 -30.87,-2.88l-64.65 -3.71z"/>
   <polygon class="fil3" points="546.54,947.99 1960.05,932.74 692.09,1363.63 418.69,945.52 "/>
   <path class="fil1" d="M415.2 947.78l33.77 51.67 146.98 225.23 92.45 141.24c1.02,1.64 2.88,2.26 4.73,1.84 0.62,-0.21 1.43,-0.41 2.06,-0.61 16.67,-5.14 33.14,-11.32 49.61,-16.88l104.16 -35.42 145.36 -49.4 171.28 -58.26 184.25 -62.59 182.6 -61.95 166.13 -56.42 136.08 -46.32 92.43 -31.5 33.97 -11.53c4.32,-1.64 3.91,-8.23 -1.02,-8.23l-2.88 0c-21.63,-0.21 -43.24,0.41 -64.85,0.62l-136.09 1.44 -185.27 2.05 -216.17 2.26 -224.19 2.48 -214.31 2.26 -181.38 1.84 -130.32 1.45c-18.93,0.2 -38.08,0.61 -57.01,0.61 -43.03,0 -86.06,-1.43 -128.89,-2.26 -5.35,-0.21 -5.35,8.24 0,8.24l25.75 0.41c36.44,0.82 72.66,2.26 109.1,1.86l76.99 -0.83 143.91 -1.43 192.07 -2.06 217.61 -2.26 225.23 -2.47 209.58 -2.26 176.22 -1.86 120.02 -1.23 44.89 -0.42 -1.04 -8.23c-0.62,0.21 -1.23,0.41 -2.06,0.62 -5.76,1.03 -11.53,3.91 -17.08,5.77l-32.52 11.11 -104.17 35.42 -145.34 49.4 -171.29 58.26 -184.25 62.6 -182.6 61.97 -166.13 56.4 -136.08 46.32 -92.45 31.5 -33.95 11.53 4.73 1.85 -33.77 -51.68 -147.2 -225.23 -92.43 -141.22c-2.88,-4.32 -10.08,-0.21 -7.2,4.32z"/>
   <path class="fil1" d="M494.04 1060.8l1388.79 -106.22 -1159.65 265.97c-37.48,8.65 -66.92,39.12 -75.76,78.23l-153.38 -237.98z"/>
   <path class="fil6 str0" d="M494.04 1060.8l1388.79 -106.22 -1159.65 265.97c-37.48,8.65 -66.92,39.12 -75.76,78.23l-153.38 -237.98z"/>
   <path class="fil3" d="M4.28 1300.43l355.12 -439.74c0,0 1586.64,66.09 1600.64,72.05l-1955.76 367.69z"/>
   <path class="fil1" d="M1961.07 928.43c-2.26,-0.61 -4.73,-0.82 -7,-0.82 -37.89,-3.51 -75.97,-4.75 -114.06,-6.59 -75.34,-3.71 -150.49,-7.2 -225.84,-10.71 -97.37,-4.32 -194.74,-8.65 -292.13,-12.97l-314.97 -13.58c-98.2,-4.12 -196.21,-8.44 -294.4,-12.56 -75.97,-3.29 -152.14,-6.39 -228.31,-9.67 -39.32,-1.65 -78.44,-3.3 -117.75,-4.94 -7.83,-0.21 -9.69,0.21 -14.83,6.59l-52.3 64.85 -186.72 231.18 -111.57 138.14c-1.03,1.04 -1.44,2.47 -1.03,3.91 0.63,2.26 2.89,3.7 5.16,3.09 1.23,-0.21 2.26,-0.41 3.29,-0.62 25.32,-4.53 50.64,-9.47 75.97,-14.2l160.58 -30.26 224.39 -42.22 264.54 -49.4 283.68 -53.32 281.23 -52.91 256.71 -48.17 211.02 -39.73 142.24 -26.77 52.3 -9.88c5.14,-1.04 2.88,-9.06 -2.26,-8.04 -1.23,0.21 -2.26,0.41 -3.29,0.62 -25.32,4.53 -50.65,9.47 -75.97,14.22l-160.58 30.26 -224.39 41.99 -264.13 49.83 -283.7 53.32 -281.22 52.91 -256.71 48.17 -211.03 39.73 -142.04 26.77 -52.3 9.88 4.12 7 8.02 -10.1 148.64 -184.05 171.89 -212.86 20.99 -25.93c1.24,-1.24 4.32,-3.91 4.75,-5.77 0.61,-2.67 0.21,1.45 -1.86,0.21 1.43,0.83 5.56,0.21 7.2,0.21l17.08 0.63c49.83,2.26 99.65,4.32 149.47,6.38 82.35,3.5 164.91,7 247.46,10.49 100.66,4.32 201.13,8.65 301.8,12.97 104.17,4.53 208.33,9.06 312.5,13.59 93.06,4.11 186.31,8.23 279.38,12.55 67.72,3.09 135.46,6.38 203.19,9.88 19.55,1.03 39.12,2.06 58.68,3.3 5.56,0.41 10.9,0.82 16.47,1.23 1.43,0 3.08,0.2 4.51,0.41 0.43,0 -0.41,-0.41 1.04,0.22 4.94,1.84 7,-6.18 2.06,-8.45z"/>
   <path class="fil5" d="M941.81 599.45l-24.5 147.81 349.98 46.32 0 106.02 -439.11 -18.32c-5.14,-0.21 -10.1,-1.02 -15.04,-2.26 -39.52,-10.08 -63.62,-50.22 -53.52,-89.96l53.52 -211.63c5.57,-27.79 29.04,-48.38 57.24,-50.22l81.11 -5.16 -9.67 77.41z"/>
   <path class="fil1" d="M951.49 526.16c5.35,-0.41 5.35,-8.65 0.41,-8.02l-12.35 0.82 -56.62 3.49c-4.73,0.22 -9.26,0.43 -14,0.83 -14.61,1.23 -28.4,7.41 -39.32,17.28 -10.08,9.67 -17.08,22.24 -19.98,35.83 -0.41,1.85 -1.02,3.91 -1.43,5.76l-9.26 36.85 -14.22 56.21 -14.61 58.05 -10.91 43.03c-2.67,10.9 -5.55,21.61 -5.35,32.93 0.83,28.4 17.1,54.14 42.2,67.32 11.55,5.57 24.3,8.65 37.07,8.85l23.05 1.02 39.54 1.65 51.06 2.06 58.66 2.47 61.97 2.67 60.54 2.47 54.54 2.26 44.69 1.86 29.85 1.24 10.9 0.41c2.26,0 4.12,-1.85 4.12,-4.12l0 -106.02c0,-2.26 -1.86,-4.12 -4.12,-4.12l-0.61 0c-4.53,-0.62 -9.06,-1.23 -13.59,-1.86l-28.81 -3.9 -40.16 -5.36 -47.34 -6.17 -50.85 -6.79 -50.03 -6.59 -45.91 -6.18 -37.67 -4.94 -25.53 -3.29 -9.28 -1.24 3.91 5.36 3.09 -18.34 13.18 -79.26 8.24 -50.23c0.61,-2.26 -0.63,-4.53 -2.88,-5.14 -2.26,-0.61 -4.53,0.62 -5.16,2.88l-3.08 18.32 -13.18 79.27 -8.23 50.22c-0.22,0.22 -0.22,0.63 -0.22,0.83 0,2.26 1.85,4.32 4.12,4.32l0.63 0c4.53,0.61 9.06,1.23 13.59,1.85l28.81 3.9 40.16 5.36 47.34 6.17 50.85 6.79 50.03 6.59 45.91 6.18 37.67 4.94 25.53 3.29 9.26 1.24 -4.1 -4.12 0 106.02 4.1 -4.12 -2.67 -0.2 -20.38 -0.82 -36.85 -1.44 -49.4 -2.06 -57.23 -2.47 -60.93 -2.47 -60.33 -2.47 -55.59 -2.26 -46.73 -1.85 -32.93 -1.43c-5.16,-0.21 -10.3,-0.41 -15.44,-0.62 -21.4,-0.83 -40.97,-11.12 -53.73,-28.22 -12.57,-17.28 -16.69,-39.32 -11.32,-59.91l7 -27.79 12.96 -51.67 14.83 -58.89 12.35 -49.19c1.85,-7.63 3.91,-15.24 5.77,-22.85 2.26,-11.12 7.61,-21.61 15.43,-29.85 9.69,-9.88 22.44,-16.06 36.24,-17.3 13.79,-1.23 27.79,-1.84 41.59,-2.67l41.17 -2.67z"/>
   <path class="fil1" d="M1379.08 905.37c1.24,5.14 9.26,3.09 8.24,-2.26 -0.63,-2.26 -1.24,-4.53 -1.85,-6.59 -6.79,-22.22 -19.16,-47.56 -42.2,-56.6 -2.26,-0.63 -4.53,0.61 -5.16,2.88 -0.62,2.26 0.63,4.53 2.89,5.14 6.17,2.67 11.52,6.59 15.84,11.53 7.42,8.65 13.18,18.73 17.1,29.44 2.06,5.35 3.91,10.91 5.14,16.46z"/>
   <path class="fil1" d="M1340.17 902.9c0,2.26 1.86,4.12 4.32,4.53 2.26,0 4.12,-1.85 4.12,-4.12l0 -3.7c-0.21,-6.59 -2.06,-12.98 -5.16,-18.95 -4.73,-8.64 -12.35,-15.23 -21.61,-18.53 -2.26,-0.62 -4.53,0.63 -5.14,2.89 -0.62,2.26 0.61,4.53 2.88,5.14 4.33,1.65 8.45,4.32 11.73,7.82 0.83,0.62 1.45,1.45 2.06,2.26 -0.41,-0.41 0.41,0.41 0.41,0.62 0.42,0.42 0.63,0.83 0.83,1.24 0.82,1.45 1.64,2.88 2.47,4.53 0,0 0.41,0.82 0.21,0.41 -0.21,-0.41 0,0.21 0,0.21 0.21,0.21 0.21,0.63 0.41,1.04 0.41,0.82 0.62,1.43 0.82,2.26 0.42,1.43 0.83,2.88 1.04,4.32 0.21,0.61 0.21,1.23 0.41,1.84 0.21,0.63 0,-1.03 0,0l0 0.83c0.21,0.82 0.21,1.84 0.21,2.88l0 2.47z"/>
   <path class="fil2" d="M963.43 521.42l10.3 30.46c7.41,21.63 19.96,41.18 36.85,56.62l46.32 42.61 15.64 -47.54c6.79,-20.79 8.65,-43.03 5.16,-64.64l-3.92 -24.71 -110.35 7.2z"/>
   <path class="fil1" d="M1072.95 509.89c-2.06,0.61 -3.49,2.88 -2.88,5.14l3.7 23.26c2.47,14.63 2.47,29.65 0,44.28 -1.84,9.06 -4.11,17.9 -7.2,26.55l-13.38 40.56 7 -1.85 -17.9 -16.47 -23.69 -21.83c-8.63,-7.61 -16.46,-16.05 -23.26,-25.32 -8.23,-11.94 -14.61,-25.12 -19.14,-38.91l-8.65 -25.32 -3.9 5.36 13.79 -0.83 59.28 -3.9 37.26 -2.47c5.36,-0.22 5.36,-8.65 0,-8.24l-13.79 0.82 -59.28 3.92 -37.26 2.47c-0.42,0 -0.63,0.2 -1.03,0.2 -2.26,0.62 -3.7,2.9 -3.09,5.14l9.67 28.42c5.14,15.65 12.97,30.26 23.05,43.44 6.59,8.23 14,16.06 22.04,23.06l39.73 36.65c0.41,0.41 1.02,0.82 1.65,1.02 2.05,0.62 4.52,-0.61 5.14,-2.88l6.38 -19.14c6.17,-18.54 13.17,-37.07 15.43,-56.62 1.45,-13.99 1.04,-27.99 -1.43,-41.79l-3.51 -21.42c-0.61,-2.25 -2.88,-3.49 -4.73,-3.29z"/>
   <path class="fil1" d="M1054.42 652.15l3.29 14.61 14.22 62.8 8.85 39.32c1.23,5.14 9.25,2.88 8.02,-2.26l-3.29 -14.63 -14.22 -62.79 -8.85 -39.32c-1.02,-5.14 -9.05,-2.88 -8.02,2.26z"/>
   <path class="fil2" d="M1028.28 531.51l-218.84 17.92c-0.82,0.2 -1.45,0.2 -2.26,0.2 -24.3,0.62 -44.46,-18.32 -45.3,-42.62l-1.43 -47.34 303.86 11.52 11.31 54.97 -47.34 5.35z"/>
   <path class="fil1" d="M764.56 459.66c0,-5.35 -8.44,-5.35 -8.23,0l0 2.88 1.23 38.5c0,5.35 0.41,10.49 1.45,15.65 2.26,9.88 7.41,18.73 15.02,25.32 10.1,8.85 23.46,12.96 36.85,11.73l18.53 -1.44 75.35 -6.17 83.78 -6.79 39.52 -3.3c5.36,-0.41 5.36,-8.65 0,-8.23l-0.61 0c-5.35,0.21 -10.49,0.82 -15.65,1.23l-30.87 2.47 -84.41 6.79 -71.23 5.77c-5.14,0.41 -10.29,0.82 -15.43,1.23 -14.63,1.45 -29.03,-5.35 -37.28,-17.49 -4.1,-6.38 -6.37,-13.79 -6.57,-21.42 -0.21,-4.94 -0.21,-9.88 -0.43,-14.82l-1.02 -31.91z"/>
   <path class="fil1" d="M1071.51 527.19c1.24,5.35 9.26,3.09 7.82,-2.06l-1.43 -6.79 -9.89 -48.17c-0.41,-1.86 -2.06,-3.09 -3.9,-3.09l-0.41 0c-9.06,-0.61 -17.91,-0.61 -26.97,-1.04l-55.18 -2.04 -64.23 -2.49 -52.91 -2.04 -22.03 -0.83c-5.35,-0.21 -5.35,8.04 0,8.24l0.42 0c9.06,0.62 17.9,0.62 26.96,1.03l55.17 2.06 64.24 2.47 52.91 2.06 22.04 0.82 -3.92 -3.08 1.45 6.79 9.88 48.17z"/>
   <path class="fil1" d="M760.65 459.66l1.85 51.87 -66.7 5.57c12.35,-4.12 64.64,-57.44 64.85,-57.44z"/>
   <path class="fil6 str0" d="M760.65 459.66l1.85 51.87 -66.7 5.57c12.35,-4.12 64.64,-57.44 64.85,-57.44z"/>
   <path class="fil1" d="M1036.93 679.94c3.98,0 7.2,3.22 7.2,7.2 0,3.98 -3.22,7.2 -7.2,7.2 -3.98,0 -7.2,-3.22 -7.2,-7.2 0,-3.98 3.22,-7.2 7.2,-7.2z"/>
   <path class="fil6 str0" d="M1036.93 679.94c3.98,0 7.2,3.22 7.2,7.2 0,3.98 -3.22,7.2 -7.2,7.2 -3.98,0 -7.2,-3.22 -7.2,-7.2 0,-3.98 3.22,-7.2 7.2,-7.2z"/>
   <path class="fil1" d="M1051.33 735.94c3.98,0 7.2,3.22 7.2,7.2 0,3.98 -3.22,7.2 -7.2,7.2 -3.98,0 -7.2,-3.22 -7.2,-7.2 0,-3.98 3.23,-7.2 7.2,-7.2z"/>
   <path class="fil6 str0" d="M1051.33 735.94c3.98,0 7.2,3.22 7.2,7.2 0,3.98 -3.22,7.2 -7.2,7.2 -3.98,0 -7.2,-3.22 -7.2,-7.2 0,-3.98 3.23,-7.2 7.2,-7.2z"/>
   <path class="fil1" d="M1592.16 594.71c5.35,0.21 5.35,-8.24 0,-8.45 -3.71,-0.2 -7.41,-0.41 -11.12,-0.82 -8.23,-0.82 -16.26,-2.06 -24.28,-3.71 -11.75,-2.26 -23.48,-5.35 -34.79,-9.26 -29.03,-9.47 -55.8,-24.28 -78.86,-44.06 -4.12,-3.29 -10.08,2.47 -5.96,5.98 14,12.14 29.42,22.44 45.91,30.87 23.67,12.16 48.79,20.59 74.93,25.32 11.32,2.26 22.65,3.71 34.18,4.12z"/>
   <path class="fil1" d="M1219.94 789.26c0,-5.35 -8.24,-5.35 -8.24,0l0 13.59 -0.21 59.5 -0.21 37.06c0,5.35 8.24,5.35 8.24,0l0 -13.59 0.21 -59.5 0.21 -37.05z"/>
   <path class="fil1" d="M587.92 259.35c1.24,-2.88 2.06,-5.77 2.88,-8.85 3.71,-13.59 4.32,-28.4 0.21,-41.99 -6.57,-20.79 -24.08,-33.77 -44.05,-40.57l1.44 1.45c-2.88,-13.59 -9.06,-26.14 -17.91,-36.65 -13.79,-16.06 -34.38,-26.77 -55.79,-26.34 -21.83,0.41 -40.36,13.17 -50.24,32.53l2.88 -0.83c-11.73,-6.79 -24.9,-10.9 -38.28,-12.14 -19.36,-1.24 -38.5,5.77 -52.5,19.14 -13.18,12.36 -22.04,28.42 -25.73,46.11l2.47 -1.43c-9.67,-2.06 -19.97,-3.1 -29.65,-0.83 -30.46,7.22 -35.62,43.85 -38.5,69.8 0,1.03 0.83,2.06 2.06,2.06 22.24,-1.03 44.26,-0.83 66.5,-1.03 58.89,-0.21 117.75,0 176.43,0.41 31.91,0.21 63.61,0.63 95.52,0.83 1.24,0 2.06,-1.04 2.06,-2.06 0,-1.04 -0.82,-2.06 -2.06,-2.06 -11.32,0 -22.65,-0.21 -33.97,-0.21 -53.52,-0.41 -106.84,-0.61 -160.16,-0.83 -29.03,0 -58.26,0 -87.29,0.22 -18.93,0.2 -38.09,0.2 -57.03,1.02l2.06 2.06c0.82,-7.82 1.85,-15.65 3.49,-23.46 2.69,-12.36 7,-25.53 16.69,-34.38 11.73,-10.51 28.2,-10.1 42.6,-6.79 1.04,0.21 2.06,-0.41 2.47,-1.45 1.86,-9.06 5.16,-17.71 9.89,-25.73 8.64,-15.04 22.22,-27.79 38.89,-33.34 20.81,-7.01 42.63,-1.85 61.36,8.43 1.04,0.41 2.26,0.21 2.88,-0.82 1.24,-2.47 2.69,-4.73 4.12,-7 10.91,-16.05 29.44,-25.11 48.79,-23.26 19.77,1.64 38.1,12.96 49.83,28.81 3.29,4.53 5.98,9.26 8.24,14.2 1.23,2.69 2.26,5.36 3.08,8.04 0.82,2.88 1.24,6.18 2.26,8.85 0.62,1.64 2.26,1.85 3.71,2.26 1.43,0.62 3.08,1.23 4.51,1.84 2.69,1.24 5.57,2.69 8.24,4.12 4.73,2.67 9.06,5.98 12.97,9.67 12.14,12.16 16.67,29.03 15.43,45.71 -0.41,8.44 -2.26,16.48 -5.35,24.3 -1.03,2.47 3.08,3.7 4.53,0.21z"/>
   <path class="fil1" d="M1244.03 101.45c-1.03,0 -2.06,1.04 -2.26,2.26 0,1.02 0.82,2.06 2.06,2.06l0.41 0c3.09,0.21 6.18,0 9.26,0l227.29 0c1.02,0 1.84,-0.61 2.06,-1.44 0.41,-2.67 0.41,-5.14 0.41,-7.82 -0.21,-12.14 -4.12,-23.67 -11.53,-33.36 -12.97,-16.67 -34.38,-23.06 -54.56,-25.1l2.06 1.43c-3.3,-10.29 -9.47,-19.75 -17.71,-26.98 -12.76,-11.1 -30.46,-15.22 -46.93,-10.69 -18.32,5.14 -31.09,20.18 -37.05,37.87l3.08 -1.23c-11.73,-5.57 -25.12,-6.59 -35.61,2.06 -7,5.76 -11.53,14 -12.97,23.06l2.06 -2.06c-5.77,-0.62 -11.53,0.82 -16.47,4.12 -11.52,8.02 -15.44,24.9 -15.44,38.28 0,1.24 1.04,2.06 2.06,2.06 1.03,0 2.06,-0.82 2.06,-2.06 0,-1.65 0,-3.29 0.21,-4.94 0.62,-7.61 2.47,-14.82 5.98,-21.4 3.9,-8.24 12.55,-12.98 21.61,-12.16 1.02,0 2.06,-0.82 2.06,-2.06 1.45,-7.61 5.35,-14.61 11.12,-19.55 9.06,-8.02 21,-7 31.28,-2.06 0.21,0.2 0.21,0.2 0.41,0.2 1.24,0.41 2.26,-0.41 2.69,-1.43 3.08,-9.69 8.64,-18.32 16.26,-25.11 11.73,-10.1 27.99,-13.79 43.01,-9.47 16.89,4.94 28.83,18.53 34.38,34.79 0.42,0.82 1.24,1.43 2.06,1.43 12.57,1.45 25.32,4.32 36.24,10.71 12.14,7 21,18.73 24.28,32.32 1.04,4.12 1.45,8.65 1.45,12.98 0,1.23 0,2.67 -0.21,3.9 -0.21,0.2 -0.21,0.63 -0.21,1.03l0 -0.2 2.06 -1.45 -0.41 0c-3.1,-0.21 -6.18,-0.21 -9.26,0l-227.29 0z"/>
   <path class="fil1" d="M1759.94 1331.52c-0.21,1.23 0.61,2.26 1.85,2.26l0.41 0c2.67,0.21 5.35,0 7.82,0l189.62 0c1.02,0 2.04,-0.82 2.04,-2.06 0,-2.88 -0.2,-5.77 -0.82,-8.45 -2.06,-12.76 -8.24,-24.28 -17.28,-33.34 -16.06,-15.24 -39.12,-18.12 -60.33,-16.26l2.06 1.44c-2.88,-9.88 -8.64,-18.94 -16.47,-25.73 -12.55,-10.29 -29.24,-13.17 -44.46,-7.82 -17.3,6.18 -28.83,21.4 -33.14,38.91l3.08 -1.24c-10.71,-5.14 -20.59,3.91 -26.15,12.36 -7.82,11.73 -10.7,26.34 -8.23,40.34 0.41,2.67 4.53,1.65 3.91,-1.02 -2.06,-12.36 0.21,-24.91 6.79,-35.62 4.11,-6.79 12.55,-16.88 21.61,-12.55 0.21,0 0.21,0.21 0.41,0.21 1.24,0.41 2.26,-0.41 2.67,-1.44 2.26,-9.67 7,-18.53 13.79,-25.53 10.3,-10.7 25.32,-15.23 39.95,-12.14 16.26,3.7 27.59,16.67 32.32,32.11 0.41,0.82 1.02,1.44 2.06,1.44 13.17,-1.03 26.96,-0.62 39.52,4.12 14,5.14 25.12,16.06 30.46,29.85 2.67,6.38 4.12,13.18 4.33,19.97l2.06 -2.06 -0.41 0c-2.69,-0.21 -5.16,-0.21 -7.83,0l-189.6 0c-1.04,0.21 -1.86,0.82 -2.06,2.26z"/>
   <path class="fil1" d="M1769.61 299.5c1.85,-1.23 2.47,-3.71 1.45,-5.76 -1.24,-1.86 -3.71,-2.69 -5.77,-1.45l-4.12 2.88 -28.81 20.18c-1.85,1.23 -2.47,3.71 -1.45,5.76 1.24,1.85 3.71,2.69 5.77,1.44l4.11 -2.88 28.83 -20.18z"/>
   <path class="fil1" d="M1729.26 257.5c0.41,-2.26 -0.82,-4.53 -2.88,-5.14 -2.26,-0.63 -4.53,0.61 -5.14,2.88l-1.65 4.32 -11.12 30.47c-0.61,2.26 0.62,4.53 2.88,5.14 2.26,0.63 4.53,-0.61 5.14,-2.88l1.65 -4.32 11.12 -30.47z"/>
   <path class="fil1" d="M1778.26 358.79l-4.12 -1.24 -28.81 -8.23c-5.14,-1.45 -7.41,6.59 -2.26,8.02l4.12 1.24 28.81 8.23c5.14,1.44 7.2,-6.58 2.26,-8.02z"/>
   <path class="fil1" d="M1268.53 1244.64c5.14,-1.65 2.88,-9.67 -1.85,-7.82 -0.62,0 -1.02,0.2 -1.65,0.41 -12.55,3.5 -24.9,7.61 -37.26,11.53l-78.23 24.28 -109.51 34.18 -128.67 40.15 -138.55 43.22 -137.12 42.83 -125.16 39.11 -102.73 31.91 -69.58 21.41 -25.73 8.03c-4.94,1.64 -2.88,9.67 2.26,8.02 0.62,0 1.03,-0.2 1.64,-0.41 12.57,-3.51 24.91,-7.61 37.28,-11.53l78.23 -24.3 109.51 -34.16 128.67 -40.15 138.55 -43.24 137.12 -42.81 125.16 -39.11 102.74 -31.91 69.17 -21.63 25.73 -8.02z"/>
   <path class="fil1" d="M603.57 1358.49c5.14,-1.45 2.88,-9.47 -2.26,-8.02 -0.21,0.2 -0.21,0.2 -0.41,0.2 -10.5,2.67 -20.58,6.37 -30.89,9.67l-63.4 19.96 -73.5 23.05 -60.93 19.16 -25.34 8.02c-4.94,1.65 -2.88,9.67 2.28,8.04 0.19,-0.21 0.19,-0.21 0.41,-0.21 10.49,-2.69 20.58,-6.38 30.87,-9.69l63.42 -19.96 73.5 -23.05 60.93 -19.16 25.32 -8.02z"/>
   <path class="fil1" d="M991.01 288.59l1.03 40.56c0.21,11.1 2.89,22.02 7.83,31.89 4.73,9.28 11.73,18.32 21.61,18.95 11.12,1.43 33.36,-30.46 62.38,-20.79 24.91,15.23 30.48,1.43 30.48,1.43 0,0 9.67,91.41 -62.38,87.29 -69.39,0 -73.51,-98.39 -73.51,-98.39l12.56 -60.95z"/>
   <path class="fil1" d="M982.57 349.52c-0.2,-5.35 -8.65,-5.35 -9.06,0l0 0.61c0.21,4.94 0.82,9.88 1.65,14.83 1.23,8.43 3.08,17.08 5.76,25.32 6.59,20.59 17.5,40.95 36.24,52.48 11.12,6.79 23.06,8.85 35.83,9.26 12.14,0.42 24.69,-1.84 35,-8.43 17.08,-10.91 25.32,-30.69 28.4,-49.83 2.06,-10.91 2.47,-22.02 1.44,-33.14 0,-1.85 -1.24,-3.3 -2.89,-3.91 -2.06,-0.82 -4.53,0.41 -5.14,2.67 0.83,-1.85 0.2,-0.61 0,-0.21 0,0.41 -0.21,0.62 -0.41,0.82 0.61,-0.82 0.41,-0.41 0,0 -0.21,0.22 -0.41,0.63 -0.83,0.83 -0.19,0.21 0.83,-0.41 0,0 -0.19,0.21 -0.41,0.21 -0.62,0.41 -0.21,0.2 -1.43,0.82 -0.61,0.41 -0.62,0.21 -1.45,0.41 -2.06,0.63 -0.82,0.21 0.61,0 -0.41,0l-0.82 0c-0.83,0.21 -1.65,0 -2.47,0 -1.86,-0.42 -3.71,-0.83 -5.57,-1.44 -5.56,-1.85 -10.08,-5.77 -16.06,-6.79 -16.87,-3.09 -31.5,5.35 -44.87,14.61 -2.47,1.65 -5.16,3.51 -7.83,5.14 -0.82,0.42 -1.43,0.63 -2.06,1.04 -0.21,0.2 -0.61,0.2 -0.82,0.41 -0.41,0.21 -1.03,0.21 -1.45,0.41 -0.41,0.21 -0.61,0.21 -0.82,0.21 -0.62,0.21 1.02,0 0,0 -8.85,-0.21 -14.61,-8.43 -18.32,-15.43 -5.14,-9.69 -7.82,-20.38 -8.02,-31.3 0,-3.92 -0.22,-7.61 -0.22,-11.32l-0.82 -29.24c0,-5.35 -8.43,-5.35 -8.23,0l1.02 35.21c0.41,17.92 3.71,36.02 15.44,50.24 5.35,6.37 14.41,12.35 22.85,9.67 6.17,-2.06 11.53,-6.59 16.67,-10.1 6.38,-4.94 13.59,-8.43 21.2,-10.9 4.12,-1.24 8.45,-1.44 12.57,-1.04 2.26,0.21 4.51,0.83 6.59,1.86 2.45,1.44 4.92,2.67 7.41,3.71 9.06,3.9 23.46,5.76 27.99,-5.57l-8.24 -1.02 0 0.62c0,4.12 0.41,8.44 0.41,12.77 0,3.7 -0.21,7.41 -0.61,11.11 -0.21,2.26 -0.41,3.5 -0.62,5.16 -0.41,2.26 -0.82,4.32 -1.24,6.58 -1.64,8.65 -4.73,17.09 -9.26,24.71 -4.73,8.03 -11.73,14.4 -20.16,18.12 -10.3,4.73 -23.06,4.94 -34.38,3.71 -10.5,-1.24 -20.38,-5.57 -28.42,-12.36 -15.22,-12.96 -23.26,-31.89 -28.2,-50.85 -1.02,-4.12 -1.85,-8.23 -2.67,-12.35 -0.2,-1.86 -0.63,-3.51 -0.82,-5.35 -0.22,-0.83 -0.22,-1.65 -0.42,-2.48 -0.21,-1.02 0.21,0.83 0,-0.21 -0.21,-0.41 -0.21,-0.62 -0.21,-1.02 -0.41,-3.09 -0.62,-6.18 -0.82,-9.26z"/>
   <path class="fil2" d="M1074.19 385.34c1.02,-0.2 1.85,-1.02 2.67,-1.65 1.24,-2.06 0.62,-4.53 -1.43,-5.76 -1.03,-0.62 -2.26,-0.62 -3.3,-0.41l-0.41 0c0.21,-0.21 0.61,-0.21 0.82,-0.21l-0.21 0 -0.61 0 -2.88 0 -0.83 0c-0.61,-0.22 1.24,0.21 0.62,0l-0.41 0c-0.61,0 -1.23,-0.22 -1.84,-0.42 -0.42,-0.21 -0.63,-0.21 -1.03,-0.41 -0.62,-0.21 1.03,0.41 0.41,0.21 -0.21,0 -0.21,-0.21 -0.41,-0.21 -0.41,-0.21 -0.62,-0.41 -1.03,-0.61 -0.21,0 -0.21,-0.21 -0.42,-0.21 0,-0.21 -0.19,-0.21 -0.19,-0.21 -0.43,-0.21 0.41,0.41 0.41,0.41 0,-0.21 -0.63,-0.62 -0.83,-0.82 -0.41,-0.21 -0.61,-0.63 -0.82,-0.83 -0.41,-0.41 0.62,0.83 0.21,0.21 -0.21,-0.21 -0.21,-0.41 -0.41,-0.61 -0.21,-0.41 -0.41,-0.62 -0.63,-1.03 -1.23,-1.85 -3.7,-2.69 -5.76,-1.44 -1.85,1.23 -2.67,3.71 -1.45,5.76 1.24,2.26 2.89,4.12 4.96,5.57 4.32,2.88 9.67,3.7 14.82,2.67z"/>
   <path class="fil7" d="M907.02 433.52c-11.53,-5.77 -16.06,-19.77 -10.3,-31.3 4.96,-9.47 6.81,-20.16 5.57,-30.67 -6.38,-45.5 -13.18,-108.9 -6.79,-140.41 10.51,-52.3 95.74,-67.32 95.74,-67.32 44.05,-7.2 82.55,3.09 107.45,64.03 3.92,9.47 3.3,19.34 12.57,24.9l9.06 2.89c5.96,3.5 3.9,11.73 -3.1,12.96l-122.49 18.75 -2.88 37.26c-3.3,40.75 -9.47,79.87 -30.05,115.08l-6.18 0.41c0,0.21 6.39,-0.41 6.18,-0.41 -16.89,0.82 -33.77,-0.63 -50.03,-4.73 -1.65,-0.43 -3.09,-1.04 -4.73,-1.45z"/>
   <path class="fil1" d="M910.93 439.28c16.67,4.32 33.77,5.97 51.05,4.73l0 -8.24c-1.02,0 -1.85,0.22 -2.88,0.22 -0.61,0.21 -1.44,0.21 -2.06,0.21 -1.04,0 -1.44,-0.21 -0.21,0.21l-1.02 8.23c1.84,-0.21 3.7,-0.21 5.55,-0.41 1.86,0 3.49,-1.02 4.32,-2.47 1.23,-1.85 2.26,-3.91 3.29,-5.97 3.91,-7.82 7.41,-15.64 10.5,-23.87 10.29,-28 14.2,-57.85 16.47,-87.29 0.82,-12.35 1.85,-24.69 2.88,-37.06l-3.08 3.92 2.47 -0.41 45.91 -7 58.46 -9.06c4.94,-0.83 9.88,-1.45 14.83,-2.26 3.08,-0.41 5.96,-2.06 8.02,-4.53 4.12,-5.36 2.67,-14.2 -4.12,-16.69 -2.06,-0.62 -4.12,-1.23 -6.17,-1.84 -2.06,-0.42 -3.92,-1.44 -5.16,-3.1 -2.05,-2.67 -3.49,-5.96 -4.11,-9.26 -0.83,-3.7 -1.85,-7.41 -3.3,-10.9 -5.76,-15.04 -14,-29.04 -24.49,-41.18 -8.44,-9.47 -18.73,-16.89 -30.48,-21.63 -11.11,-4.32 -22.84,-6.17 -34.59,-5.96 -14.2,0.41 -28.2,2.67 -41.58,6.79 -20.18,5.96 -40.14,14.61 -56.2,28.2 -8.65,7 -15.65,16.05 -20.18,26.14 -4.94,11.53 -5.77,24.5 -6.18,36.85 -1.02,33.57 2.69,67.32 7,100.47 1.24,8.23 3.1,16.87 2.47,25.32 -0.21,4.33 -1.23,8.45 -2.67,12.55 -1.23,3.5 -3.29,7 -4.31,10.71 -4.12,14.82 4.51,30.06 19.14,34.18 5.14,1.43 7.41,-6.59 2.26,-8.04 -5.77,-1.43 -10.51,-5.55 -12.77,-11.32 -1.02,-2.88 -1.43,-5.96 -1.23,-9.06 0.41,-3.29 1.43,-6.57 3.09,-9.47 3.71,-7.82 5.35,-16.67 5.14,-25.32 -0.21,-8.02 -1.84,-16.06 -2.88,-23.87 -1.03,-8.24 -2.06,-16.47 -2.88,-24.91 -1.85,-16.67 -3.1,-33.14 -3.71,-49.81 -0.82,-13.59 -0.41,-27.18 1.24,-40.56 1.43,-10.29 5.56,-19.97 12.14,-27.99 7,-8.04 15.03,-14.83 24.28,-19.98 15.44,-8.85 32.11,-15.44 49.42,-19.34 14.61,-3.91 29.85,-4.73 44.89,-2.47 10.7,1.84 21,5.96 30.04,12.35 10.51,7.82 19.16,17.71 25.53,29.24 4.32,7.2 7.83,14.61 10.71,22.43 2.26,7.02 3.1,14.42 7.83,20.38 1.84,2.47 4.32,4.32 7.2,5.57 2.06,0.82 4.32,1.43 6.37,2.06 0.83,0 1.65,0.21 2.28,0.62 -0.63,-0.41 0.41,1.02 0.41,1.43 0.41,1.65 -1.04,3.1 -3.1,3.51 -10.29,2.26 -21.2,3.29 -31.71,4.94l-59.08 9.06 -31.91 4.94c-1.86,0.41 -3.09,2.06 -3.09,3.91l-1.44 17.71c-1.45,17.49 -2.47,35.2 -5.14,52.69 -4.12,27.81 -11.73,55.39 -25.93,79.88l3.49 -2.06 -6.17 0.41c-1.85,0 -3.3,1.24 -3.91,2.89 -0.83,2.06 0.41,4.53 2.67,5.14 2.47,0.41 4.73,0.41 7.2,-0.21 5.35,-0.41 5.35,-8.65 0,-8.24 -16.47,1.24 -32.93,-0.41 -48.99,-4.53 -5.14,-1.23 -7.42,6.79 -1.85,8.45z"/>
   <path class="fil2" d="M1042.07 239.8c13.59,-12.55 38.91,-9.06 38.91,-9.06l0 -23.88 -10.51 -3.09c0,0 -20.79,-5.97 -31.28,9.06 -6.79,9.89 -8.85,29.64 2.88,26.97z"/>
   <path class="fil1" d="M1036.72 216.53c2.06,1.23 4.53,0.41 5.76,-1.45 2.89,-3.9 7.22,-6.57 12.16,-7.41 2.06,-0.41 4.12,-0.62 6.16,-0.62 1.04,0 2.06,0.21 3.1,0.21 0.62,0.21 1.03,0.21 1.43,0.21 1.24,0 -0.2,-0.21 0.43,0 4.94,1.04 9.67,2.26 14.2,3.71l-3.1 -3.91 0 23.87 5.36 -3.9c-14.4,-2.06 -31.71,0 -42.83,10.08l1.85 -1.02c-1.44,0.21 0.62,0 -0.61,0l-0.83 0c-0.82,0 0.42,0 0,0 -0.21,0 -0.41,-0.21 -0.62,-0.21 0.82,0.21 -0.41,-0.63 0.21,0 -0.21,-0.22 -0.41,-0.42 -0.61,-0.63 -0.41,-0.41 0.41,0.83 0,0 -0.21,-0.21 -0.41,-0.41 -0.41,-0.61 -0.41,-1.04 0.21,0.41 0,-0.21 -0.21,-0.62 -0.21,-1.04 -0.41,-1.65 -0.22,-0.82 0,0.21 0,-0.21l0 -0.82 0 -1.85c0.21,-5.35 1.84,-10.51 4.94,-15.04 1.23,-2.06 0.61,-4.53 -1.45,-5.76 -2.06,-1.24 -4.53,-0.41 -5.76,1.45 -3.91,5.76 -5.97,12.55 -5.97,19.14 -0.21,5.55 1.85,11.73 7.82,13.38 1.44,0.41 3.1,0.41 4.53,0.21 1.85,-0.41 3.71,-1.24 4.95,-2.67 2.47,-1.85 5.14,-3.1 8.02,-4.12 5.76,-1.85 11.53,-2.67 17.51,-2.67 2.04,0 4.1,0 6.17,0.21 0.61,0 1.24,0.21 1.85,0.21 0.41,0.21 1.65,0.21 -0.41,0 0.41,0.21 0.62,0.21 1.02,0.21 2.26,0 4.33,-1.86 4.33,-4.12l0 -23.87c0,-1.85 -1.23,-3.3 -3.09,-3.91l-9.06 -2.47c-13.59,-3.91 -29.03,-1.45 -37.67,10.51 -1.24,2.04 -0.42,4.53 1.02,5.76z"/>
   <path class="fil7" d="M921.13 291.3c18.62,-3.02 36.19,9.63 39.21,28.27 3.02,18.62 -9.63,36.17 -28.27,39.21 -18.64,3.02 -36.17,-9.64 -39.21,-28.27 -3.02,-18.64 9.63,-36.19 28.26,-39.21z"/>
   <path class="fil1" d="M888.49 324.82c0.2,18.32 12.97,33.97 30.87,37.67 2.47,0.63 4.95,0.83 7.42,0.83 21.2,0 38.28,-17.09 38.28,-38.3 0,-21.2 -17.08,-38.3 -38.28,-38.3 -21.22,0 -38.3,17.1 -38.3,38.09 -0.21,5.56 8.23,5.56 8.23,0.21 0,-14.4 10.3,-26.75 24.5,-29.44 1.85,-0.41 3.71,-0.61 5.57,-0.61 16.67,0 30.05,13.38 30.05,30.05 0,16.67 -13.38,30.06 -30.05,30.06 -16.69,0 -30.07,-13.38 -30.07,-30.06 0,-5.35 -8.43,-5.35 -8.23,-0.21z"/>
   <path class="fil7" d="M916.28 308.56c10.91,0 19.77,8.85 19.77,19.77 0,10.91 -8.86,19.75 -19.77,19.75 -10.91,0 -19.77,-8.84 -19.77,-19.75 0,-10.91 8.85,-19.77 19.77,-19.77z"/>
   <path class="fil1" d="M892.61 328.11c0,8.44 4.53,16.26 11.73,20.58 11.32,6.79 25.95,3.09 32.73,-8.24 3.51,-6.17 4.32,-13.59 1.85,-20.37 -4.53,-12.36 -18.32,-18.75 -30.67,-14.22 -9.26,3.51 -15.44,12.36 -15.65,22.44 -0.21,5.35 8.24,5.35 8.24,0 0,-7.41 5.35,-13.99 12.76,-15.44 0.82,-0.21 1.86,-0.21 2.67,-0.21 8.65,-0.21 15.44,6.79 15.65,15.45 0.21,8.65 -6.79,15.65 -15.44,15.65 -8.64,0.21 -15.64,-6.79 -15.64,-15.45 -0.22,-5.35 -8.44,-5.35 -8.24,-0.2z"/>
   <path class="fil2" d="M1016.95 248.65l-129.89 23.06c-6.79,1.02 -12.98,-4.12 -13.79,-11.53 -0.83,-6.38 2.67,-12.55 8.63,-14.82l124.57 -38.09 10.49 41.38z"/>
   <path class="fil1" d="M1007.48 211.38c5.14,-1.65 2.88,-9.67 -2.67,-8.24l-1.04 0.22 -57.85 17.7 -62.79 19.16c-2.47,0.61 -4.94,1.63 -7,2.88 -0.41,0.41 -0.82,0.62 -1.24,1.02 -7.82,6.79 -8.64,18.53 -1.84,26.36 3.7,4.32 9.67,6.17 15.23,4.94 2.47,-0.41 4.94,-0.83 7.41,-1.24l71.65 -12.76 50.22 -8.85c2.26,-0.62 3.5,-2.88 2.89,-5.14 -0.63,-2.06 -2.89,-3.5 -5.16,-2.89 -0.41,0 -0.62,0.21 -1.03,0.21 -18.73,3.3 -37.67,6.79 -56.42,10.1l-66.7 11.73c-1.84,0.41 -3.7,0.82 -5.55,1.02l0.2 0c-1.85,0.22 -3.7,-0.41 -5.14,-1.43 -1.45,-1.04 -2.47,-2.47 -3.1,-4.32 -0.19,-0.41 -0.19,-1.04 -0.41,-1.65 -0.21,-1.23 0,1.45 0,-0.82 0,-0.82 0,-1.85 0.22,-2.88 1.23,-7.22 8.84,-8.03 14.82,-9.89l68.56 -20.99 46.73 -14.2z"/>
   <path class="fil8" d="M1014.49 192.86c17.74,0 32.11,14.37 32.11,32.11 0,17.74 -14.37,32.12 -32.11,32.12 -17.74,0 -32.12,-14.37 -32.12,-32.12 0,-17.74 14.37,-32.11 32.12,-32.11z"/>
   <path class="fil1" d="M978.45 224.97c0.21,17.3 12.35,32.11 29.24,35.62 2.26,0.41 4.53,0.62 7,0.62 19.96,0 36.22,-16.26 36.22,-36.24 0,-19.98 -16.26,-36.24 -36.22,-36.24 -19.97,0 -36.24,16.26 -36.24,36.24 -0.21,5.35 8.24,5.35 8.24,0 0,-13.38 9.47,-24.91 22.85,-27.59 1.63,-0.21 3.49,-0.41 5.14,-0.41 15.43,0 28,12.55 28,28 0,15.44 -12.57,27.99 -28,27.99 -15.44,0 -27.99,-12.55 -27.99,-27.99 -0.22,-5.35 -8.45,-5.35 -8.24,0z"/>
   <path class="fil1" d="M978.45 224.97c0.21,17.3 12.35,32.11 29.24,35.62 2.26,0.41 4.53,0.62 7,0.62 19.96,0 36.22,-16.26 36.22,-36.24 0,-19.98 -16.26,-36.24 -36.22,-36.24 -19.97,0 -36.24,16.26 -36.24,36.24 -0.21,5.35 8.24,5.35 8.24,0 0,-13.38 9.47,-24.91 22.85,-27.59 1.63,-0.21 3.49,-0.41 5.14,-0.41 15.43,0 28,12.55 28,28 0,15.44 -12.57,27.99 -28,27.99 -15.44,0 -27.99,-12.55 -27.99,-27.99 -0.22,-5.35 -8.45,-5.35 -8.24,0z"/>
   <path class="fil8" d="M1100.54 176.18c17.28,0 31.3,14.01 31.3,31.3 0,17.29 -14.01,31.28 -31.3,31.28 -17.28,0 -31.3,-13.99 -31.3,-31.28 0,-17.28 14.02,-31.3 31.3,-31.3z"/>
   <path class="fil2" d="M1109.6 194.91c4.55,0 8.23,3.68 8.23,8.24 0,4.54 -3.68,8.23 -8.23,8.23 -4.54,0 -8.24,-3.68 -8.24,-8.23 0,-4.56 3.7,-8.24 8.24,-8.24z"/>
   <path class="fil2" d="M1025.81 212.83c4.54,0 8.23,3.68 8.23,8.24 0,4.55 -3.68,8.23 -8.23,8.23 -4.55,0 -8.24,-3.68 -8.24,-8.23 0,-4.56 3.7,-8.24 8.24,-8.24z"/>
   <path class="fil1" d="M1065.33 207.47c0.2,16.87 11.93,31.3 28.4,34.79 2.26,0.41 4.53,0.61 7,0.61 19.56,0 35.42,-16.06 35.42,-35.61 0,-19.56 -16.06,-35.4 -35.61,-35.4 -19.56,0 -35.42,16.05 -35.42,35.61 -0.21,5.35 8.23,5.35 8.23,0 0.22,-12.97 9.28,-24.08 22.03,-26.77 1.65,-0.21 3.51,-0.41 5.16,-0.41 15.02,0 27.16,12.14 27.16,27.18 0,15.04 -12.14,27.18 -27.16,27.18 -15.03,0 -27.19,-12.14 -27.19,-27.18 0,-5.35 -8.43,-5.35 -8.02,0z"/>
   <path class="fil2" d="M927.19 395.23c-17.91,-1.45 -25.53,-5.98 -25.53,-5.98l25.53 5.98z"/>
   <path class="fil1" d="M903.72 385.76l0 0c-2.06,-1.24 -4.53,-0.62 -5.55,1.23 -1.24,2.06 -0.63,4.53 1.43,5.77 2.26,1.24 4.53,2.26 7,2.88 6.79,2.06 13.59,3.3 20.59,3.71 2.26,0 4.12,-1.85 4.12,-4.12 0,-2.26 -1.85,-4.12 -4.12,-4.12 -3.49,-0.21 -7.2,-0.82 -10.7,-1.43 -2.47,-0.41 -5.16,-1.04 -7.63,-1.85 -0.82,-0.41 -1.85,-0.62 -2.67,-1.04 -0.41,-0.21 -0.61,-0.21 -1.02,-0.41 0.82,0.21 0.61,0.21 0,0 -0.42,-0.2 -1.04,-0.41 -1.45,-0.61z"/>
   <path class="fil1" d="M1027.66 286.32c2.26,-0.82 3.51,-3.09 2.88,-5.14 -0.62,-2.06 -2.88,-3.5 -5.14,-2.88l-7 1.23 -49.4 8.02c-2.28,0.63 -3.51,2.89 -2.89,5.16 0.61,2.06 2.89,3.49 5.16,2.88l7 -1.24 49.4 -8.02z"/>
   <path class="fil1" d="M1044.54 311.65c2.06,1.02 4.53,0.41 5.35,-1.24 1.24,-2.05 0.63,-4.53 -1.43,-5.76 -11.73,-5.35 -25.32,-3.71 -35.62,4.12 -1.85,1.23 -2.47,3.7 -1.43,5.76 1.23,1.85 3.7,2.67 5.76,1.45 3.1,-2.47 6.79,-4.32 10.51,-5.36 1.63,-0.41 3.08,-0.82 4.73,-0.82 1.43,-0.21 2.88,-0.21 4.33,0l1.02 0c1.04,0 -0.82,-0.21 0.21,0 0.41,0.21 1.04,0.21 1.65,0.41 1.02,0.21 2.06,0.41 3.09,0.83 0.83,0.21 1.44,0.41 2.06,0.62 0.61,0.41 -1.23,-0.41 -0.21,0z"/>
   <path class="fil1" d="M1101.36 303.41c5.14,1.65 7.41,-6.38 2.26,-7.82 -4.94,-1.24 -10.08,-1.65 -15.04,-1.04 -6.57,0.62 -12.96,2.47 -17.49,7.63 -4.33,4.51 -6.39,10.49 -6.18,16.67 0.83,12.55 10.3,23.88 19.57,31.49l-1.04 -1.84c0.21,0.82 0.41,1.64 0.41,2.47l-0.21 0.21c-2.47,1.02 -5.14,1.64 -7.82,1.43 -5.35,0 -5.35,8.24 0,8.24 6.59,-0.21 16.06,-1.65 16.47,-9.88 0,-1.44 -0.21,-2.89 -0.62,-4.32 -0.63,-2.26 -2.47,-3.51 -4.12,-4.94 -3.08,-2.67 -5.76,-5.77 -8.24,-9.06 -3.29,-4.73 -6.79,-10.91 -5.96,-16.89 1.63,-12.96 17.69,-15.43 27.99,-12.35z"/>
   <path class="fil1" d="M1091.89 315.76c3.18,0 5.76,2.58 5.76,5.77 0,3.17 -2.58,5.76 -5.76,5.76 -3.18,0 -5.76,-2.58 -5.76,-5.76 0,-3.2 2.58,-5.77 5.76,-5.77z"/>
   <path class="fil1" d="M1086.74 320.29c-1.02,0.21 -1.65,1.45 -1.45,2.47 0.22,1.65 1.04,3.09 2.26,4.32 3.1,2.88 8.04,2.67 10.92,-0.41 2.88,-3.1 2.67,-8.04 -0.41,-10.92 -2.47,-2.26 -6.18,-2.67 -9.06,-1.23 -2.88,1.43 -4.32,4.53 -4.12,7.61 0,1.02 0.83,2.06 2.06,2.06 1.04,0 2.06,-0.83 2.06,-2.06l0 -1.04 0 -0.21c0,-0.41 0,-0.21 0,0l0 -0.21c0,-0.21 0,-0.61 0.21,-0.82 -0.41,0.41 0,0.21 0,0 0,-0.21 0.21,-0.21 0.21,-0.41 0,-0.21 0.2,-0.21 0.2,-0.41 -0.41,0.41 0,0 0,0 0.21,-0.22 0.41,-0.63 0.63,-0.63 -0.22,0.21 -0.22,0.21 0,0 0,0 0.2,0 0.2,-0.21 0,-0.21 0.21,-0.21 0.21,-0.21 0,0 0.41,-0.41 0.21,-0.2 -0.21,0.2 0.21,0 0.21,0 0.21,-0.21 0.41,-0.21 0.82,-0.21 0,0 -0.41,0 0,0l0.43 0 0.41 0 0.21 0 -0.21 0c0.21,0 0.62,0.21 0.82,0.21 0.21,0 0.21,0.2 0.41,0.2 -0.41,-0.2 -0.21,0 0,0 0.2,0.21 0.41,0.21 0.63,0.41l0.19 0.21 -0.19 -0.21 0.19 0.21c0,0.21 0.42,0.42 0.42,0.63 -0.21,-0.21 -0.21,-0.21 0,0l0.21 0.21c0.21,0 0.21,0.21 0.21,0.21 0,0.21 0.21,0.21 0.21,0.41 0,0 -0.21,-0.41 0,0 0,0.41 0.21,0.61 0.21,0.82l0 0.21 0 0.21 0 1.04c0.21,-0.21 0,-0.21 0,0 -0.21,0.2 -0.21,0.2 -0.21,0.41l0 0.21c-0.21,0 -0.21,0.21 -0.21,0.21l0 -0.21c0,0.21 -0.41,0.41 -0.41,0.62 0,0.22 -0.21,0.22 -0.21,0.42 0.41,-0.42 0,0 0,0 0,0 -0.22,0.21 -0.41,0.41 -0.22,0.21 0.41,-0.21 0,0 -0.22,0 -0.22,0.21 -0.43,0.21 -0.2,0 -0.2,0.2 -0.41,0.2 0,0 -0.41,0.21 -0.21,0 0.21,0 -0.41,0.21 -0.41,0.21l-0.21 0 -0.42 0c0.42,0 0.22,0 0,0l-0.82 0 -0.21 0 0.21 0 -0.21 0c-0.21,0 -0.62,0 -0.82,-0.21 0.41,0.21 0.21,0 0,0 -0.21,0 -0.21,-0.2 -0.41,-0.2 -0.22,0 -0.22,-0.21 -0.43,-0.21 -0.21,-0.21 -0.41,0 0,0 -0.21,0 -0.41,-0.21 -0.61,-0.41 -0.21,-0.21 -0.21,-0.21 0,0 0,-0.21 -0.21,-0.21 -0.21,-0.42 -0.21,-0.21 -0.41,-0.41 -0.41,-0.62 0,0 0.21,0.41 0,0 -0.21,-0.21 -0.21,-0.21 -0.21,-0.41 -0.21,-0.2 -0.21,-0.61 -0.21,-0.82 -0.2,-1.04 -1.44,-1.85 -1.44,-1.45z"/>
   <path class="fil1" d="M1045.57 328.11c1.85,1.23 4.53,0.41 5.76,-1.24 1.24,-2.05 0.63,-4.53 -1.43,-5.76 -2.26,-1.24 -4.94,-1.86 -7.42,-1.86 -5.14,-0.2 -10.29,1.65 -14.2,5.14 -0.82,0.83 -1.23,1.85 -1.23,2.89 0,2.26 1.85,4.11 4.12,4.11 1.02,0 2.06,-0.41 2.88,-1.23 0.41,-0.41 0.41,-0.41 0,0 0.21,0 0.21,-0.21 0.41,-0.21 0.21,-0.21 0.41,-0.21 0.62,-0.41 0.41,-0.22 0.83,-0.63 1.45,-0.83 0.41,-0.21 0.61,-0.21 0.82,-0.41 0.83,-0.41 -0.82,0.21 0,0 0.41,-0.2 0.83,-0.2 1.24,-0.41 0.41,0 0.82,-0.21 1.23,-0.21 0.21,-0.21 0.42,-0.21 0.63,-0.21 -1.24,0.21 -0.63,0 -0.21,0l2.25 0 0.63 0c0.21,0 0.82,0.21 0,0 -0.82,-0.21 0.21,0 0.41,0 0.62,0.21 1.03,0.21 1.65,0.41 0.41,0.21 0.61,0.21 1.02,0.41 0.21,0 -1.23,-0.61 -0.61,-0.2z"/>
  </g>
 </g>
</svg>
