<?xml version="1.0" encoding="UTF-8"?>
<!DOCTYPE svg PUBLIC "-//W3C//DTD SVG 1.1//EN" "http://www.w3.org/Graphics/SVG/1.1/DTD/svg11.dtd">
<!-- Creator: CorelDRAW 2021 (64-Bit) -->
<svg xmlns="http://www.w3.org/2000/svg" xml:space="preserve" width="27.5116mm" height="25.6078mm" version="1.1" style="shape-rendering:geometricPrecision; text-rendering:geometricPrecision; image-rendering:optimizeQuality; fill-rule:evenodd; clip-rule:evenodd"
viewBox="0 0 1230.1 1144.98"
 xmlns:xlink="http://www.w3.org/1999/xlink"
 xmlns:xodm="http://www.corel.com/coreldraw/odm/2003">
 <defs>
  <style type="text/css">
   <![CDATA[
    .fil0 {fill:#234650;fill-rule:nonzero}
    .fil3 {fill:#46B175;fill-rule:nonzero}
    .fil1 {fill:#47B275;fill-rule:nonzero}
    .fil2 {fill:#9FCB58;fill-rule:nonzero}
   ]]>
  </style>
 </defs>
 <g id="Layer_x0020_1">
  <metadata id="CorelCorpID_0Corel-Layer"/>
  <g id="_1841029604944">
   <path class="fil0" d="M3.16 1142c-1.58,-12.62 -3.16,-23.66 -3.16,-34.7l0 -425.88 0 -18.93c1.58,-11.04 6.31,-17.35 17.35,-17.35l25.24 0 309.16 0c48.9,0 94.64,11.04 138.81,33.12 121.46,64.67 176.66,227.14 88.33,354.9 -33.12,47.32 -77.29,82.02 -134.07,99.37 -22.08,6.31 -42.59,11.04 -64.67,11.04l-345.44 0c-11.04,1.57 -18.93,0 -31.54,-1.58z"/>
   <path class="fil1" d="M944.83 143.54l0 93.06c0,44.17 0,44.17 44.17,45.75 63.09,1.58 126.19,0 187.7,0 56.78,0 59.94,6.31 47.32,59.94 -14.2,64.67 -50.48,116.72 -99.37,159.31 -39.44,33.12 -86.76,55.21 -138.81,59.94 -53.63,4.73 -107.26,6.31 -159.31,-15.77 -61.52,-26.81 -108.84,-69.4 -143.54,-127.77 -25.24,-42.59 -29.97,-89.91 -31.55,-137.23 -4.73,-140.38 99.37,-247.64 219.25,-272.88 11.04,-1.58 22.08,-4.74 33.13,-6.31 29.97,-1.58 37.85,4.73 37.85,34.7 3.16,36.28 3.16,72.55 3.16,107.26z"/>
   <path class="fil2" d="M694.03 646.71c11.04,0 22.08,-1.57 34.7,-1.57l429.04 0 9.47 0c14.2,-1.58 26.81,3.15 29.97,15.77 1.58,7.89 -6.31,18.93 -12.62,25.24 -39.43,36.28 -80.45,70.98 -119.88,105.68 -36.28,29.97 -70.98,61.52 -107.26,91.49 -3.15,3.16 -6.31,7.89 -11.04,14.2 29.97,26.81 59.94,53.63 89.91,80.45 36.28,31.54 74.14,63.09 110.41,93.06 14.2,12.62 28.39,23.66 41.01,36.28 4.73,4.74 9.46,15.77 7.89,20.51 -3.16,6.31 -12.62,12.62 -20.51,15.77 -4.73,3.16 -12.62,0 -18.93,0l-429.04 0 -18.93 0c-9.46,0 -20.51,-1.57 -22.08,-12.62 0,-9.47 1.58,-20.51 7.89,-26.81 9.47,-11.04 20.51,-18.93 31.55,-28.39 59.94,-52.05 121.46,-104.1 181.39,-156.16 7.89,-7.89 17.35,-12.62 29.97,-22.08 -28.39,-25.24 -55.21,-48.9 -83.6,-72.56 -39.44,-34.7 -78.87,-67.82 -118.3,-102.53 -11.04,-9.47 -22.08,-18.93 -33.12,-26.82 -11.04,-12.62 -18.93,-26.81 -7.89,-48.9z"/>
   <path class="fil1" d="M544.18 457.43c-29.97,-22.08 -488.98,-410.11 -500.02,-435.35 4.73,-20.51 20.51,-22.08 37.85,-22.08l386.45 0 55.21 0c44.17,0 45.75,1.58 45.75,44.17l0 260.27 0 113.57c1.58,20.51 -4.74,34.7 -25.24,39.43z"/>
   <path class="fil3" d="M1.58 563.11l0 -444.81c14.2,-9.47 25.24,-6.31 36.28,3.16 20.51,18.93 42.59,34.7 63.09,53.63 52.05,45.75 104.1,89.91 156.16,135.65 63.09,55.21 127.77,108.84 192.44,164.04 18.93,17.35 39.43,33.12 58.36,50.48 6.31,4.73 11.04,15.77 9.47,23.66 -1.58,11.04 -11.04,17.35 -23.66,15.77l-18.93 0 -432.19 0c-11.04,0 -23.66,-1.58 -41.01,-1.58z"/>
  </g>
 </g>
</svg>
