<?xml version="1.0" encoding="UTF-8"?>
<!DOCTYPE svg PUBLIC "-//W3C//DTD SVG 1.1//EN" "http://www.w3.org/Graphics/SVG/1.1/DTD/svg11.dtd">
<!-- Creator: CorelDRAW 2021 (64-Bit) -->
<svg xmlns="http://www.w3.org/2000/svg" xml:space="preserve" width="36.7076mm" height="29.4142mm" version="1.1" style="shape-rendering:geometricPrecision; text-rendering:geometricPrecision; image-rendering:optimizeQuality; fill-rule:evenodd; clip-rule:evenodd"
viewBox="0 0 2189.89 1754.78"
 xmlns:xlink="http://www.w3.org/1999/xlink"
 xmlns:xodm="http://www.corel.com/coreldraw/odm/2003">
 <defs>
  <style type="text/css">
   <![CDATA[
    .fil1 {fill:black;fill-rule:nonzero}
    .fil4 {fill:#389B48;fill-rule:nonzero}
    .fil6 {fill:#458DC9;fill-rule:nonzero}
    .fil5 {fill:#A8542A;fill-rule:nonzero}
    .fil2 {fill:#EA2F2F;fill-rule:nonzero}
    .fil7 {fill:#FC7F3A;fill-rule:nonzero}
    .fil3 {fill:#FFC41F;fill-rule:nonzero}
    .fil0 {fill:white;fill-rule:nonzero}
   ]]>
  </style>
 </defs>
 <g id="Layer_x0020_1">
  <metadata id="CorelCorpID_0Corel-Layer"/>
  <g id="_1841031989632">
   <path class="fil0" d="M966.62 1250.82c0,42.7 -34.67,77.36 -77.37,77.36l-807.48 0c-42.7,0 -77.36,-34.66 -77.36,-77.36l0 -1102.95 962.22 0 0 1102.95z"/>
   <path class="fil1" d="M962.49 1250.82c-0.23,35.13 -25.26,65.2 -59.92,72.08 -6.67,1.16 -13.32,1.39 -20.21,1.16l-781.77 0 -16.53 0c-40.64,1.16 -74.39,-30.77 -75.53,-71.18l0 -2.99 0 -11.24 0 -1090.55 -4.15 4.12 947.53 0c4.38,0.23 8.73,0.23 12.86,0l1.62 0 -4.15 -4.12 0 1057.96c0,14.22 -0.23,28.45 0,42.93 0.23,0.44 0.23,1.14 0.23,1.83 0,2.3 2.06,4.13 4.36,3.9 2.08,0 3.91,-1.83 3.91,-3.9l0 -1058.18c0,-14.23 0.23,-28.47 0,-42.94l0 -1.83c0,-2.29 -1.83,-4.15 -4.15,-4.15l-923.18 0c-12.4,0 -25.02,-0.23 -37.42,0l-1.62 0c-2.29,0 -4.12,1.86 -4.12,4.15l0 1074.02 0 28.7c0.23,28.48 14.92,54.87 39.27,70.02 13.53,8.04 29.15,12.19 44.99,11.72l780.82 0c19.53,0 38.57,1.14 56.95,-7.11 29.15,-13.32 47.99,-42.49 48.22,-74.4 0.23,-5.28 -8.04,-5.28 -8.04,0z"/>
   <path class="fil1" d="M81.77 4.13l807.23 0c42.7,0 77.39,34.67 77.39,77.37l0 66.36 -961.99 0 0 -66.36c0,-42.48 34.66,-77.37 77.36,-77.37z"/>
   <path class="fil1" d="M81.77 8.27l784.97 0c14.69,0 30.07,-1.16 44.55,3.45 29.61,9.64 50.05,36.73 51.19,67.96 0.46,16.98 0,34.2 0,51.41l0 17.01 4.15 -4.15 -923.2 0c-12.4,0 -25.02,-0.91 -37.42,0l-1.6 0 4.12 4.15 0 -53.73c-0.47,-8.27 0,-16.54 0.92,-24.79 5.96,-35.36 36.49,-61.31 72.32,-61.31 5.28,0 5.28,-8.27 0,-8.27 -34.67,0.23 -65.43,22.26 -77.14,54.87 -3.45,10.57 -4.84,21.59 -4.61,32.62l0 60.61c0,2.29 1.85,4.12 4.15,4.12l923.18 0c12.4,0 25.02,0.23 37.42,0l1.62 0c2.29,0 4.12,-1.83 4.12,-4.12l0 -51.44c0,-6.65 0.23,-13.09 -0.23,-19.74 -0.9,-15.15 -5.95,-29.63 -14.69,-42.03 -15.39,-21.57 -40.41,-34.66 -67.03,-34.66l-9.43 0 -753.51 0c-14.02,0 -28.02,-0.23 -42.03,0l-1.83 0c-3.22,0 -5.75,0.92 -5.75,4.12 0.23,2.99 2.76,5.51 5.75,3.91z"/>
   <path class="fil1" d="M227.1 811.61l468.38 0c8.48,0.23 16.75,-1.16 24.79,-3.9 36.95,-12.65 56.47,-52.83 43.84,-89.55 -6.42,-19.04 -20.65,-34.2 -39.25,-42 -9.18,-3.91 -19.07,-5.75 -28.94,-5.75l-462.84 0 -5.75 0c-39.04,0 -70.71,31.44 -70.71,70.48 0,39.04 31.44,70.72 70.48,70.72 -0.23,0 0,0 0,0 5.29,0 5.29,-8.27 0,-8.27 -34.43,0 -62.44,-28.01 -62.44,-62.44 0,-34.43 28.02,-62.44 62.44,-62.44l0.7 0 25.25 0 416.71 0 26.39 0c10.1,-0.23 19.97,2.06 28.93,6.42 30.77,15.39 43.4,52.81 28.02,83.57 -9.87,19.97 -29.63,33.06 -51.67,34.43 -6.88,0.46 -14,0.23 -21.11,0.23l-453.23 0c-2.29,0 -4.12,2.08 -3.89,4.14 0,2.53 1.83,4.13 3.89,4.36z"/>
   <path class="fil1" d="M227.1 1014.34l468.38 0c8.48,0.23 16.75,-1.16 24.79,-3.9 36.95,-12.63 56.47,-52.83 43.84,-89.55 -6.42,-19.04 -20.65,-34.2 -39.25,-42 -9.18,-3.91 -19.07,-5.75 -28.94,-5.75l-462.84 0 -5.75 0c-39.04,0 -70.49,31.67 -70.71,70.48 0,39.04 31.44,70.72 70.48,70.72 5.29,0 5.29,-8.27 0,-8.27 -34.43,0 -62.44,-28.01 -62.44,-62.44 0,-34.43 28.02,-62.44 62.44,-62.44l0.7 0 25.25 0 416.71 0 26.39 0c10.1,-0.23 19.97,2.06 28.93,6.41 30.77,15.39 43.4,52.81 28.02,83.57 -9.87,19.97 -29.63,33.06 -51.67,34.43 -6.88,0.46 -14,0.23 -21.11,0.23l-453.23 0c-2.29,0 -4.12,2.08 -3.89,4.15 0,2.52 1.83,4.36 3.89,4.36z"/>
   <path class="fil1" d="M725.32 1148.65l-508.78 0c-6.88,0 -13.76,-0.23 -20.65,0l-0.92 0c-2.29,0 -4.12,2.06 -3.89,4.36 0,2.06 1.83,3.91 3.89,3.91l508.78 0c6.88,0 13.76,0.23 20.65,0l0.92 0c2.3,0 4.13,-2.06 3.9,-4.38 0,-2.06 -1.83,-3.66 -3.9,-3.9z"/>
   <path class="fil1" d="M619.71 1211.79l-237.63 0c-11.03,0 -22.04,-0.47 -33.06,0l-0.47 0c-2.29,0 -4.12,2.06 -3.89,4.36 0,2.06 1.83,3.91 3.89,3.91l237.86 0c11.03,0 22.04,0.47 33.06,0l0.47 0c2.29,0 4.12,-2.06 3.9,-4.38 -0.23,-2.06 -1.83,-3.89 -4.13,-3.89z"/>
   <path class="fil2" d="M94.63 66.12c11.28,0 20.44,9.16 20.44,20.44 0,11.28 -9.16,20.43 -20.44,20.43 -11.28,0 -20.43,-9.15 -20.43,-20.43 0,-11.28 9.15,-20.44 20.43,-20.44z"/>
   <path class="fil3" d="M173.61 66.12c11.28,0 20.43,9.16 20.43,20.44 0,11.28 -9.15,20.43 -20.43,20.43 -11.28,0 -20.44,-9.15 -20.44,-20.43 0,-11.28 9.16,-20.44 20.44,-20.44z"/>
   <path class="fil4" d="M252.36 66.12c11.28,0 20.44,9.16 20.44,20.44 0,11.28 -9.16,20.43 -20.44,20.43 -11.28,0 -20.43,-9.15 -20.43,-20.43 0,-11.28 9.15,-20.44 20.43,-20.44z"/>
   <path class="fil1" d="M1573.2 761.56l4.82 25.72c6.44,34.89 -2.06,71.18 -23.66,99.4l-23.63 30.77 -86.33 -165.53 128.8 9.64z"/>
   <path class="fil1" d="M1569.29 762.71l4.13 22.73c2.76,13.32 3.22,27.08 1.62,40.64 -2.3,16.98 -8.04,33.29 -17.01,47.98 -4.82,7.58 -10.1,14.69 -15.59,21.8l-15.15 19.97 7.11 0 -29.38 -56.47 -46.39 -89.32 -10.57 -20.44c-2.52,-4.59 -9.63,-0.46 -7.11,4.13l29.15 56.02 46.38 89.32 10.57 20.43c1.14,2.06 3.66,2.52 5.75,1.37 0.44,-0.23 0.91,-0.9 1.37,-1.37l13.32 -17.44c5.05,-6.68 10.54,-13.33 15.38,-20.44 18.36,-28.47 25.26,-62.9 19.05,-95.97 -1.6,-8.5 -3.22,-16.75 -4.59,-25.25 -1.16,-5.05 -8.97,-2.99 -8.04,2.3z"/>
   <path class="fil4" d="M1734.83 1391.1l161.86 88.63 -124.91 229.82c0,0 -61.29,-37.88 -22.94,-124.21 7.34,-16.29 0.67,-35.35 -14.94,-43.84 -19.74,-10.57 -39.02,-20.67 -39.02,-20.67l39.95 -129.73z"/>
   <path class="fil1" d="M1732.77 1394.55l54.87 30.07 87.02 47.76 19.97 11.02 -1.39 -5.51 -12.4 22.73 -29.84 54.87 -36.05 66.36 -31.21 57.39 -10.33 19.07c-1.83,2.97 -3.45,5.96 -4.82,8.95 0,0.23 -0.23,0.23 -0.23,0.46l5.51 -1.39c-0.23,-0.21 -0.69,-0.44 -0.92,-0.67 -0.23,-0.23 -0.69,-0.46 -0.92,-0.69 -0.44,-0.23 -1.83,-1.37 -0.67,-0.47 -2.76,-2.29 -5.51,-4.59 -8.04,-7.11 -7.81,-8.04 -14,-17.68 -17.68,-28.24 -5.51,-16.06 -6.65,-33.06 -3.22,-49.59 2.53,-11.7 6.21,-22.96 11.03,-33.99 3.9,-10.1 3.45,-21.11 -1.39,-30.75 -6.19,-12.63 -18.82,-17.91 -30.75,-24.35 -8.04,-4.36 -16.31,-8.48 -24.35,-12.86 -4.59,-2.53 -8.71,4.59 -4.12,7.11 6.65,3.45 13.53,7.14 20.21,10.57 6.19,3.22 12.62,6.67 18.82,9.87 13.78,7.34 19.76,23.89 13.55,38.11 -4.81,10.8 -8.5,22.27 -11.02,33.76 -3.66,17.22 -2.76,35.13 2.52,52.11 4.15,11.96 10.57,22.73 19.07,32.14 4.13,4.61 8.72,8.73 14,12.18 2.06,1.14 4.38,0.47 5.52,-1.39l12.39 -22.73 29.85 -54.87 36.05 -66.36 31.23 -57.39c5.05,-9.18 10.33,-18.37 15.15,-28.01 0,-0.23 0.23,-0.23 0.23,-0.47 1.13,-2.06 0.44,-4.36 -1.39,-5.51l-54.87 -30.07 -87.02 -47.76 -19.97 -11.01c-4.82,-2.99 -8.94,4.12 -4.36,6.65z"/>
   <path class="fil0" d="M1810.83 1634.92l-67.5 -35.12c-23.19,68.65 18.58,102.62 27.08,108.83l0 0.23 29.15 19.05c5.75,-3.43 20,-8.48 24.35,-16.52 5.75,-10.57 -5.29,-16.54 0.69,-27.11 5.96,-10.54 16.75,-4.59 22.5,-15.15 5.72,-10.54 -5.29,-16.52 0.67,-27.08 5.98,-10.57 16.78,-4.59 22.5,-15.15 5.75,-10.57 -5.05,-16.53 0.69,-27.08 5.75,-10.57 16.78,-4.59 22.5,-15.15 5.75,-10.57 -5.05,-16.54 0.7,-27.09 5.75,-10.57 16.75,-4.61 22.5,-15.15 5.75,-10.57 -5.05,-16.54 0.69,-27.1 3.43,-6.42 8.95,-6.65 14,-8.25 2.99,-0.93 4.59,-4.15 3.69,-7.14 -0.47,-1.37 -1.62,-2.74 -2.99,-3.43l-13.32 -6.44 -22.96 -9.87 -84.94 154.75z"/>
   <path class="fil1" d="M1812.9 1631.25l-59.01 -30.77 -8.48 -4.36c-2.06,-1.16 -4.59,-0.47 -5.75,1.6 -0.23,0.23 -0.23,0.46 -0.46,0.92 -7.12,21.57 -9.87,44.99 -3.22,67.26 4.15,14.25 11.72,27.1 22.06,37.44 3.2,3.2 6.65,6.19 10.1,8.71l-1.38 -5.51 0 0.23c-1.14,2.06 -0.44,4.36 1.38,5.51l29.15 19.05c1.39,0.69 2.76,0.69 4.15,0 10.78,-6.19 27.32,-11.01 28.22,-25.93 0.23,-5.75 -4.12,-11.49 -2.52,-17.24 2.08,-6.88 8.97,-6.88 14.48,-9.18 6.88,-2.76 11.47,-9.64 11.24,-17.22 -0.23,-5.51 -4.59,-11.47 -2.06,-16.98 2.76,-6.44 9.87,-5.98 15.39,-8.73 6.65,-3.45 10.33,-10.57 9.64,-17.91 -0.7,-5.95 -4.82,-11.93 -0.93,-17.68 3.45,-5.05 10.57,-4.36 15.62,-7.34 6.44,-3.9 9.66,-11.47 8.27,-19.05 -1.13,-5.98 -4.59,-11.49 0.23,-17 2.06,-1.83 4.59,-2.97 7.34,-3.43 3.22,-0.7 6.21,-2.06 8.73,-3.69 5.96,-4.59 8.48,-12.16 6.65,-19.28 -1.39,-5.75 -4.36,-12.16 1.6,-16.75 5.29,-3.92 13.32,-2.31 15.62,-9.89 1.6,-5.73 -1.83,-9.87 -6.65,-12.16 -3.68,-1.83 -7.58,-3.66 -11.26,-5.52 -6.88,-3.2 -13.76,-5.95 -20.67,-8.94l-2.52 -1.16c-2.06,-1.14 -4.36,-0.44 -5.49,1.39l-28.7 52.57 -45.69 83.57 -10.33 19.05c-2.53,4.61 4.59,8.73 7.11,4.15l28.71 -52.58 45.69 -83.57 10.33 -19.07 -5.51 1.39 20.67 8.94c2.06,0.93 4.12,1.83 6.19,2.99l6.44 2.99c1.37,0.47 2.53,1.14 3.66,1.83 1.39,1.37 0,2.52 -1.37,2.99 -3.22,0.69 -6.21,1.83 -9.2,3.22 -6.42,3.89 -9.63,11.24 -8.25,18.58 0.91,5.75 4.59,11.02 0.45,16.54 -3.43,4.59 -10.55,4.12 -15.37,7.11 -6.44,3.9 -9.66,11.24 -8.27,18.58 0.92,5.75 4.59,11.03 0.46,16.54 -3.45,4.59 -10.56,4.12 -15.38,7.11 -6.21,3.91 -9.41,11.03 -8.27,18.37 0.92,5.75 4.59,11.01 0.7,16.52 -3.45,4.82 -10.33,4.38 -15.15,7.12 -6.44,3.91 -9.87,11.02 -8.73,18.37 0.92,5.75 4.59,11.02 0.69,16.54 -3.45,4.82 -10.33,4.36 -15.15,7.12 -6.21,3.66 -9.64,10.79 -8.73,17.91 0.69,5.51 4.61,11.01 1.16,16.52 -3.22,5.29 -10.1,8.27 -15.62,11.03 -2.29,1.13 -4.81,2.29 -7.11,3.66l4.12 0 -29.14 -19.05 1.37 5.51 0 -0.23c1.16,-2.06 0.46,-4.36 -1.37,-5.51 -0.47,-0.46 -0.93,-0.69 -1.37,-1.16 -0.23,-0.21 0.67,0.47 -0.23,-0.21 -0.23,-0.23 -0.69,-0.47 -0.92,-0.7 -1.6,-1.38 -3.22,-2.76 -4.59,-4.15 -3.91,-3.89 -7.58,-8.02 -10.57,-12.62 -9.18,-13.76 -14.01,-29.85 -14.23,-46.13 0,-13.32 2.3,-26.64 6.88,-39.04l-5.98 2.52 59.01 30.77 8.48 4.36c4.15,2.76 8.27,-4.36 3.68,-6.88z"/>
   <path class="fil1" d="M1770.19 1613.57l14.23 -28.24c1.85,-3.66 3.68,-7.34 5.51,-10.77 4.36,-8.5 5.51,-18.14 3.22,-27.34 -2.53,-9.87 -8.73,-18.37 -17.22,-23.86 -2.52,-1.62 -5.05,-2.76 -7.58,-4.15l-33.53 -17.91 -26.41 -14c-4.59,-2.53 -8.72,4.59 -4.13,7.11l55.33 29.61c8.73,4.61 17.68,8.73 22.73,17.91 4.36,8.27 5.05,17.91 1.39,26.64 -1.39,3.43 -3.22,6.65 -4.82,9.87l-15.85 31.23c-2.29,4.36 4.59,8.48 7.12,3.89z"/>
   <path class="fil1" d="M1868.92 1527.71c-4.59,-2.29 -8.73,-5.28 -12.4,-8.73 -9.2,-9.64 -12.63,-23.17 -9.2,-36.03 1.39,-3.92 2.99,-7.81 5.29,-11.5l6.2 -10.79c1.14,-2.06 0.23,-4.59 -1.6,-5.49 -1.85,-0.92 -4.38,-0.47 -5.51,1.37 -4.38,7.58 -9.64,15.15 -12.16,23.43 -4.38,14.69 -0.92,30.77 8.94,42.47 4.59,5.05 10.11,9.18 16.08,12.4 4.82,2.52 8.95,-4.59 4.36,-7.12z"/>
   <path class="fil5" d="M1753.66 1564.67c7.11,-1.83 14.69,-1.16 21.36,2.06l-21.36 -2.06z"/>
   <path class="fil1" d="M1754.81 1568.57c0.47,-0.23 1.16,-0.23 1.6,-0.46 0.23,0 0.47,0 0.7,-0.23l0.47 0c-0.23,0 -1.16,0.23 -0.47,0 0.92,0 1.6,-0.23 2.52,-0.23l2.99 0c0.47,0 1.16,0 1.6,0.23l0.7 0c-0.93,-0.23 0,0 0.23,0 1.37,0.23 2.52,0.47 3.89,0.92 0.7,0.23 1.16,0.47 1.86,0.7 0.46,0.23 0.67,0.23 1.13,0.44 0.23,0 1.16,0.46 0.47,0.23 0.92,0.47 2.06,0.7 3.22,0.47 2.3,-0.69 3.43,-2.76 2.76,-5.05 -0.23,-0.9 -0.93,-1.83 -1.86,-2.52 -5.26,-2.29 -11.24,-3.43 -16.98,-3.43 -2.52,0 -5.05,0.44 -7.58,1.14 -2.29,0.69 -3.45,2.76 -2.76,5.05 0.7,2.3 3.22,3.45 5.51,2.76z"/>
   <path class="fil5" d="M1747.23 1550.44c4.59,-5.75 11.03,-9.64 18.14,-11.26l-18.14 11.26z"/>
   <path class="fil1" d="M1750.68 1552.5c0.46,-0.69 -0.7,0.7 -0.47,0.47 0.23,-0.23 0.47,-0.7 0.92,-0.92 0.91,-1.14 2.06,-2.06 3.2,-2.99 0.23,-0.23 0.46,-0.23 0.69,-0.44 -0.91,0.9 -0.46,0.21 -0.23,0.21 0.47,-0.21 0.93,-0.67 1.39,-0.91 0.91,-0.69 2.06,-1.39 2.99,-1.83 0.44,-0.23 1.14,-0.46 1.6,-0.92 0.23,-0.23 0.7,-0.47 0.92,-0.47 -0.46,0.23 -0.69,0.23 -0.23,0 0.23,0 0.46,-0.23 0.46,-0.23 1.37,-0.47 2.74,-0.91 4.13,-1.37 2.29,-0.69 3.45,-2.76 2.76,-5.05 -0.7,-2.3 -2.76,-3.45 -5.05,-2.76 -5.75,1.37 -11.02,4.13 -15.39,7.81 -2.06,1.6 -3.68,3.43 -5.05,5.52 -1.16,2.06 -0.47,4.36 1.37,5.49 2.3,0.93 4.82,0.23 5.98,-1.6z"/>
   <path class="fil5" d="M1730.7 1539.19c1.6,-7.11 5.75,-13.55 11.47,-18.14l-11.47 18.14z"/>
   <path class="fil1" d="M1734.61 1540.1c0,-0.47 0.23,-1.14 0.46,-1.6 0.23,-0.7 0.47,-1.16 0.7,-1.86 0.21,-0.44 0.21,-0.67 0.44,-1.13 0.23,-0.69 -0.44,1.13 0,0.23 0,-0.23 0.23,-0.47 0.23,-0.7 0.92,-2.06 2.06,-3.89 3.45,-5.75 0,-0.23 0.23,-0.23 0.23,-0.46 -0.23,0.46 -0.47,0.46 -0.23,0.23l0.7 -0.67c0.44,-0.47 0.9,-0.93 1.37,-1.62 1.16,-1.14 2.29,-2.3 3.45,-3.2 1.6,-1.62 1.6,-4.15 0,-5.75 -1.62,-1.62 -4.15,-1.62 -5.75,0 -4.36,3.43 -7.8,7.8 -10.1,12.86 -1.16,2.3 -2.06,4.59 -2.52,6.88 -0.47,2.06 0.69,4.36 2.76,5.05 2.06,0.93 4.12,-0.23 4.82,-2.52z"/>
   <path class="fil5" d="M1711.18 1528.63c1.6,-7.11 5.75,-13.55 11.49,-18.14l-11.49 18.14z"/>
   <path class="fil1" d="M1715.09 1529.78c0,-0.47 0.23,-1.16 0.46,-1.6 0.23,-0.69 0.47,-1.16 0.67,-1.85 0.23,-0.44 0.23,-0.67 0.47,-1.13 0.23,-0.7 -0.47,1.13 0,0.23 0,-0.23 0.23,-0.46 0.23,-0.69 0.92,-2.06 2.06,-3.9 3.45,-5.75 0,-0.23 0.23,-0.23 0.23,-0.47 -0.23,0.47 -0.47,0.47 -0.23,0.23 0.23,-0.23 0.47,-0.44 0.7,-0.67 0.44,-0.46 0.9,-0.92 1.37,-1.62 1.16,-1.13 2.29,-2.29 3.45,-3.22 1.6,-1.6 1.6,-4.13 0,-5.73 -1.62,-1.62 -4.15,-1.62 -5.75,0 -4.36,3.43 -7.8,7.81 -10.1,12.86 -1.16,2.29 -2.06,4.59 -2.52,6.88 -0.47,2.06 0.69,4.36 2.76,5.05 2.06,0.92 4.36,-0.47 4.82,-2.52z"/>
   <path class="fil4" d="M1211.37 1532.3l-53.04 176.78 -250.72 -74.39c0,0 24.35,-67.73 116.87,-48.43 17.45,3.66 34.66,-6.67 39.71,-23.89 6.21,-21.57 11.93,-42.47 11.93,-42.47l135.24 12.4z"/>
   <path class="fil1" d="M1207.46 1531.38l-18.14 59.92 -28.45 94.83 -6.67 21.8 5.05 -2.76 -25.02 -7.34 -59.92 -17.68 -72.33 -21.36 -62.68 -18.58 -20.67 -6.2c-3.2,-1.14 -6.42,-2.06 -9.64,-2.99 -0.23,0 -0.23,0 -0.46,-0.21l2.76 5.05c0,-0.23 0.23,-0.92 0.47,-0.92 0.46,-0.23 -0.47,0.92 -0.23,0.46 0,-0.23 0.23,-0.46 0.23,-0.69 0.23,-0.47 0.46,-0.92 0.69,-1.6 1.37,-2.99 3.22,-5.98 5.05,-8.97 5.95,-8.94 13.53,-16.52 22.5,-22.5 13.55,-8.72 29.38,-13.76 45.46,-14.46 11.02,-0.46 22.03,0.23 33.06,2.3 5.75,1.37 11.7,1.83 17.45,1.37 11.7,-1.37 22.26,-8.48 28.24,-18.82 3.66,-6.44 5.28,-14.23 7.34,-21.36 2.76,-9.87 5.51,-19.75 8.27,-29.61 1.37,-5.05 -6.44,-7.34 -7.8,-2.3 -2.3,8.04 -4.61,16.08 -6.9,23.87 -3.44,11.96 -5.05,25.72 -15.6,33.75 -3.91,2.99 -8.73,5.05 -13.78,5.98 -5.75,0.91 -11.24,-0.46 -16.98,-1.38 -11.03,-2.06 -22.27,-2.76 -33.29,-2.3 -29.38,1.62 -56.49,14.92 -73.47,39.04 -3.45,4.82 -6.42,10.1 -8.5,15.62 -0.44,2.29 0.7,4.36 2.76,5.05l25.03 7.35 59.94 17.68 72.31 21.34 62.68 18.61c10.1,2.99 20.21,6.42 30.54,8.94 0.23,0 0.23,0 0.47,0.23 2.29,0.46 4.36,-0.7 5.05,-2.76l18.14 -59.92 28.47 -94.81 6.65 -21.82c1.37,-4.82 -6.65,-6.88 -8.04,-1.83z"/>
   <path class="fil6" d="M1252.46 771.43l-197.22 740.44 195.86 49.35c0,0 136.61,-541.6 151.3,-624.26 14.69,-82.65 24.56,-195.37 24.56,-195.37l-174.49 29.85z"/>
   <path class="fil1" d="M1248.56 770.29l-5.28 19.74 -14.46 53.96 -21.13 79.66 -25.95 97.36 -28.45 106.51 -28.47 107.46 -26.63 100.33 -22.5 84.73 -16.31 60.84c-2.52,9.64 -5.29,19.05 -7.58,28.69 0,0.46 -0.23,0.92 -0.23,1.16 -0.47,2.29 0.7,4.36 2.76,5.05l66.36 16.75 105.61 26.64 24.1 5.95c2.3,0.47 4.38,-0.69 5.05,-2.76 1.85,-6.88 3.45,-14 5.28,-20.88 4.59,-18.6 9.43,-37.44 14.02,-56.02 6.88,-27.32 13.53,-54.43 20.43,-81.74 8.02,-32.37 16.06,-64.74 24.1,-96.88 8.51,-34.45 16.98,-68.88 25.49,-103.33 8.04,-33.04 16.08,-65.9 24.1,-98.94 6.9,-28.47 13.55,-56.95 20.21,-85.64 4.84,-20.67 9.66,-41.1 14.01,-61.77 6.65,-31.46 11.01,-63.14 15.15,-94.81 5.05,-38.12 9.18,-76.23 12.86,-114.58 0.23,-2.06 0.46,-4.15 0.67,-6.44 0.47,-5.26 -7.79,-5.26 -8.24,0 -2.53,28.24 -5.52,56.26 -8.97,84.5 -4.59,39.71 -9.64,79.66 -17.45,118.93 -3.66,18.37 -7.81,36.73 -12.16,54.87 -6.21,27.09 -12.63,53.97 -19.05,81.05 -7.8,32.14 -15.38,64.53 -23.42,96.66 -8.27,34.2 -16.75,68.42 -25.25,102.85 -8.27,33.06 -16.31,66.12 -24.56,99.19 -7.14,28.68 -14.25,57.39 -21.36,85.87 -5.28,20.9 -10.57,42 -15.85,62.9 -2.53,10.11 -5.73,20.21 -7.58,30.31 0,0.47 -0.23,0.93 -0.23,1.37l5.05 -2.76 -66.34 -16.76 -105.61 -26.62 -24.12 -5.98 2.76 5.05 5.28 -19.74 14.46 -53.97 21.13 -79.65 25.93 -97.36 28.47 -106.53 28.71 -107.44 26.63 -100.33 22.5 -84.73 16.31 -60.84c2.52,-9.64 5.28,-19.05 7.58,-28.69 0,-0.46 0.23,-0.92 0.23,-1.16 1.13,-5.05 -6.68,-7.11 -8.04,-2.06z"/>
   <path class="fil6" d="M1365.19 780.61l-40.87 353.57c-11.7,105.84 32.6,210.77 118.24,274.14 10.1,7.58 20.9,14.46 31.92,20.41l205.03 111.36 98.7 -176.09c0,0 -169.21,-107 -245.2,-142.8l28.94 -283.09c3.22,-30.54 0.23,-61.54 -8.5,-90.92l-41.78 -114.81 -128.57 0 -17.91 48.22z"/>
   <path class="fil1" d="M1361.06 780.61l-4.36 38.12 -10.34 89.55 -12.39 106.74 -10.11 86.8c-1.83,15.39 -3.91,30.77 -5.05,46.37 -3.45,55.12 7.8,110.22 33.06,159.57 26.39,51.9 67.26,94.83 117.77,123.52 15.85,8.97 31.9,17.44 47.98,26.18l91.85 50.05 64.28 34.89 3.45 1.86c2.06,1.13 4.36,0.47 5.51,-1.39l33.51 -59.69 53.04 -94.83 12.18 -21.8c1.14,-2.06 0.44,-4.36 -1.39,-5.51 -20.43,-12.86 -40.87,-25.72 -61.54,-38.12 -40.39,-24.79 -81.26,-49.12 -122.59,-72.31 -19.97,-11.26 -40.18,-22.27 -61.08,-32.14l2.06 3.43 6.44 -61.98 12.63 -122.61 9.41 -91.15c2.06,-17.22 2.3,-34.43 1.16,-51.65 -1.85,-20.9 -6.44,-41.34 -13.79,-60.84l-36.05 -99.19 -0.9 -2.53c-0.47,-1.83 -2.06,-2.96 -3.92,-2.96l-128.57 0c-2.29,0 -4.12,2.06 -3.89,4.36 0,2.06 1.83,3.9 3.89,3.9l128.57 0 -3.89 -2.99 32.6 90.01c5.05,14.23 10.33,27.78 13.55,42.47 5.05,24.56 6.19,49.81 3.43,74.84l-8.27 81.04 -12.63 123.75 -5.05 49.37c-0.9,8.25 -2.06,16.52 -2.52,24.79l0 1.13c0,1.39 0.7,2.76 2.08,3.45 39.71,18.83 78.06,41.33 115.94,63.83 36.05,21.35 72.08,43.17 107.67,65.2 7.34,4.59 14.69,9.18 21.8,13.79l-2.06 -5.75 -33.5 59.69 -53.04 94.83 -12.19 21.8 5.52 -1.37 -46.6 -25.28 -91.15 -49.59 -64.06 -34.89c-40.18,-21.8 -74.61,-52.57 -100.79,-89.99 -31.23,-45.46 -49.35,-98.95 -52.11,-154.05 -1.16,-22.96 1.14,-45.46 3.66,-68.42l8.97 -77.38 12.16 -104.69 11.24 -96.43 6.21 -53.04 0.23 -2.52c0.7,-5.29 -7.58,-5.29 -8.04,-0.23z"/>
   <path class="fil1" d="M1264.63 1507.27l-19.28 -4.82 -46.85 -11.93 -56.47 -14.48 -49.14 -12.4c-7.81,-2.06 -15.85,-4.36 -23.89,-5.95l-0.45 0c-5.05,-1.39 -7.36,6.65 -2.29,7.8l19.28 4.82 46.83 11.93 56.48 14.46 49.12 12.4c7.81,2.06 15.85,4.38 23.89,5.98l0.47 0c5.28,1.37 7.58,-6.44 2.29,-7.81z"/>
   <path class="fil1" d="M1734.38 1338.75l-9.87 17.44 -23.42 42.01 -28.47 50.74 -24.79 44.09c-3.9,7.11 -8.25,14.23 -11.93,21.34l-0.23 0.23c-2.53,4.61 4.59,8.73 7.11,4.15l9.87 -17.45 23.65 -42.03 28.47 -50.74 24.56 -44.07c3.9,-7.12 8.27,-14.23 11.93,-21.36l0.23 -0.23c2.52,-4.59 -4.59,-8.71 -7.11,-4.12z"/>
   <path class="fil0" d="M988.66 1657.19l20.21 -73.47c-71.85,-8.5 -96.66,39.48 -100.79,49.14l-0.23 0 -12.4 32.37c4.59,5.05 12.62,17.68 21.34,20.44 11.49,3.43 15.17,-8.51 26.64,-5.05 11.47,3.43 8.04,15.39 19.51,18.82 11.49,3.45 15.15,-8.48 26.64,-5.05 11.47,3.45 8.04,15.39 19.51,18.83 11.47,3.43 15.15,-8.5 26.62,-5.05 11.49,3.43 8.04,15.39 19.53,18.82 11.47,3.45 15.15,-8.48 26.63,-5.05 11.49,3.45 8.04,15.39 19.51,18.83 11.49,3.45 15.15,-8.5 26.64,-5.05 7.12,2.06 8.5,7.34 11.03,11.93 1.6,2.76 5.03,3.68 7.79,2.06 1.39,-0.67 2.3,-2.06 2.76,-3.66l3.45 -14.25 5.05 -24.56 -169.44 -50.05z"/>
   <path class="fil1" d="M992.79 1658.35l17.68 -64.29 2.53 -9.18c0.46,-2.3 -0.7,-4.59 -2.99,-5.05 -0.23,0 -0.7,-0.23 -0.91,-0.23 -22.52,-2.52 -45.92,0 -66.12,10.8 -12.86,6.88 -23.89,16.98 -31.93,29.15 -2.52,3.68 -4.59,7.34 -6.19,11.26l4.59 -1.83 -0.23 0c-2.06,-0.46 -4.36,0.67 -5.05,2.74l-12.4 32.39c-0.47,1.37 0,2.99 1.16,3.9 8.48,9.41 18.35,26.85 33.74,21.36 5.51,-1.86 10.1,-6.91 16.31,-4.82 5.75,2.06 6.88,8.71 10.33,13.07 4.59,5.52 12.16,7.81 19.05,5.52 5.28,-1.83 9.87,-6.65 15.85,-5.05 6.19,1.62 7.34,8.04 10.57,12.63 4.36,5.75 11.93,8.27 19.05,6.44 5.28,-1.62 10.1,-6.67 16.08,-5.28 6.19,1.6 7.34,7.81 10.77,12.4 4.38,5.97 11.96,8.71 19.07,6.88 5.29,-1.37 9.87,-6.42 15.62,-5.51 6.65,1.16 7.81,7.34 11.24,11.96 4.15,6.19 11.72,9.18 18.83,7.58 5.28,-1.16 10.1,-6.44 15.85,-5.75 8.02,0.92 7.79,9.41 13.3,13.55 4.38,3.2 10.57,2.06 13.79,-2.31 0.69,-0.9 1.13,-2.06 1.6,-3.43 1.16,-4.36 2.06,-8.73 3.22,-12.86 1.83,-7.34 2.98,-15.15 4.59,-22.5l0.69 -2.99c0.47,-2.06 -0.69,-4.36 -2.76,-5.05l-57.39 -17.22 -91.15 -27.32 -20.67 -6.2c-5.05,-1.6 -7.35,6.44 -2.3,8.04l57.39 17.22 91.15 27.32 20.67 6.21 -2.76 -5.05 -4.59 23.19c-0.46,2.76 -1.39,5.49 -2.06,8.25 -0.46,1.38 -1.16,9.43 -3.68,8.73 -1.83,-0.47 -2.99,-4.82 -3.9,-6.44 -1.85,-2.96 -4.37,-5.49 -7.58,-7.11 -6.9,-3.2 -13.09,-1.83 -19.53,1.85 -4.82,2.74 -10.57,4.13 -14.69,-0.69 -1.6,-2.06 -2.76,-4.36 -3.89,-6.88 -1.62,-2.99 -3.69,-5.28 -6.44,-7.14 -5.95,-3.66 -13.3,-3.66 -19.28,-0.23 -4.82,2.53 -9.87,5.75 -15.15,1.62 -1.83,-1.83 -3.45,-4.15 -4.36,-6.44 -1.38,-2.76 -3.22,-5.29 -5.28,-7.35 -5.51,-4.59 -13.09,-5.51 -19.53,-2.29 -5.05,2.29 -9.41,6.21 -15.39,3.22 -4.81,-2.53 -5.95,-9.2 -9.63,-13.09 -4.82,-5.28 -12.4,-7.11 -19.05,-4.59 -5.28,1.83 -9.64,6.65 -15.62,4.82 -5.75,-1.6 -6.88,-7.81 -9.87,-12.16 -4.36,-5.98 -11.7,-8.73 -18.83,-7.11 -5.05,1.13 -9.64,6.19 -15.15,5.72 -6.88,-0.67 -11.94,-7.81 -15.83,-12.62 -1.86,-2.3 -3.69,-4.82 -5.75,-7.12l1.13 3.91 12.41 -32.39 -5.07 2.76 0.23 0c1.85,0.47 3.68,-0.23 4.61,-1.83 10.1,-23.19 32.14,-39.94 57.16,-45.69 13.09,-2.76 26.63,-3.22 39.95,-1.6l-3.9 -5.28 -17.68 64.28 -2.53 9.19c-0.46,2.3 0.91,4.36 2.99,5.05 1.14,0.47 3.2,-0.92 3.9,-2.99z"/>
   <path class="fil1" d="M1001.29 1613.11l30.54 8.04c3.9,1.13 7.81,2.06 11.7,3.22 9.41,2.52 19.3,1.37 27.78,-2.76 9.2,-4.59 16.08,-12.62 19.3,-22.28 0.91,-2.74 1.6,-5.26 2.3,-8.02l10.54 -36.74 8.27 -28.47c1.39,-5.05 -6.41,-7.34 -8.04,-2.3l-17.22 59.94c-0.91,3.43 -2.06,6.88 -2.99,10.55 -1.6,6.21 -5.26,11.96 -10.31,16.08 -7.14,5.75 -16.31,8.27 -25.28,6.65 -3.66,-0.67 -7.34,-1.83 -10.77,-2.74l-33.99 -8.97c-4.82,-1.37 -6.88,6.65 -1.83,7.81z"/>
   <path class="fil1" d="M1105.75 1691.63c1.37,-4.82 3.22,-9.41 5.98,-13.78 7.34,-11.01 20.2,-17.45 33.5,-16.53 4.38,0.47 8.5,1.37 12.62,2.99l11.72 3.9c5.05,1.62 7.12,-6.19 2.3,-8.04 -8.27,-2.73 -16.78,-6.19 -25.72,-6.88 -15.15,-1.14 -29.84,5.51 -39.25,17.44 -4.15,5.52 -7.14,11.96 -8.97,18.61 -1.83,5.28 6.21,7.34 7.81,2.29z"/>
   <path class="fil5" d="M1045.6 1586.94c3.22,6.65 4.13,14.02 2.53,21.36l-2.53 -21.36z"/>
   <path class="fil1" d="M1041.93 1589.01c0.23,0.47 0.47,0.93 0.69,1.37 -0.69,-1.37 -0.23,-0.44 0,0 0.23,0.23 0.23,0.69 0.45,0.92 0.23,0.69 0.46,1.6 0.69,2.3 0.23,0.92 0.47,1.83 0.69,2.98 0,0.23 0.23,1.16 0,0l0 0.93c0,0.44 0,1.13 0.23,1.6l0 3.89c0,0.7 0,1.39 -0.23,2.32l0 0.21c0,0.46 -0.23,0.92 -0.23,1.39 -0.7,2.29 0.69,4.36 2.76,5.05 2.29,0.7 4.36,-0.69 5.05,-2.76 1.16,-5.75 1.16,-11.7 -0.23,-17.44 -0.47,-2.53 -1.37,-4.82 -2.53,-7.12 -1.13,-2.08 -3.68,-2.52 -5.51,-1.39 -2.3,1.16 -2.99,3.69 -1.83,5.75z"/>
   <path class="fil5" d="M1058.23 1577.53c6.42,3.22 11.7,8.73 14.92,15.39l-14.92 -15.39z"/>
   <path class="fil1" d="M1056.16 1580.98c1.16,0.46 2.29,1.16 3.45,2.06 0.23,0.23 0.47,0.23 0.67,0.47 0.23,0 0.23,0.23 0.47,0.23l0.23 0.23c0.46,0.23 -0.47,-0.47 -0.47,-0.47 0.47,0.47 1.16,0.92 1.86,1.6 1.37,1.16 2.52,2.52 3.66,3.91 0.47,0.7 -0.46,-0.69 0,0 0.23,0.23 0.47,0.47 0.47,0.7 0.23,0.44 0.69,0.9 0.92,1.37 0.67,1.16 1.37,2.29 2.06,3.45 1.13,1.83 3.66,2.53 5.51,1.37 1.83,-1.14 2.53,-3.66 1.37,-5.51 -3.22,-6.88 -8.51,-12.4 -15.15,-16.29 -0.47,-0.23 -0.93,-0.47 -1.37,-0.69 -0.92,-0.47 -2.08,-0.7 -3.22,-0.47 -0.92,0.23 -1.83,0.92 -2.52,1.83 -0.46,0.92 -0.69,2.08 -0.46,3.22 0.92,1.62 1.6,2.52 2.52,2.99z"/>
   <path class="fil5" d="M1065.57 1559.16c7.35,0.23 14.46,2.76 19.97,7.58l-19.97 -7.58z"/>
   <path class="fil1" d="M1065.57 1563.29l1.6 0 0.92 0 0.46 0c0.7,0 -1.16,-0.23 -0.46,0 0.92,0.23 1.6,0.23 2.52,0.47 0.92,0.23 1.83,0.46 2.76,0.67 0.47,0.23 0.93,0.23 1.37,0.46 0.23,0 0.46,0.23 0.92,0.23 -0.92,-0.46 0,0 0.23,0 1.16,0.47 2.52,1.16 3.68,1.83 0.67,0.47 1.13,0.7 1.83,1.16 0.23,0.23 0.47,0.47 0.69,0.47 0.21,0 1.14,0.9 0.44,0.46 0.7,0.67 1.86,1.14 2.99,1.14 2.3,0 4.15,-1.83 4.15,-4.13 0,-1.16 -0.46,-2.06 -1.16,-2.99 -4.59,-3.68 -9.87,-6.42 -15.39,-7.8 -2.52,-0.7 -5.05,-0.93 -7.58,-0.93 -2.29,0 -4.12,1.86 -4.12,4.15 0.23,2.99 2.06,4.59 4.12,4.82z"/>
   <path class="fil5" d="M1072.01 1537.81c7.34,0.23 14.46,2.76 19.97,7.58l-19.97 -7.58z"/>
   <path class="fil1" d="M1072.01 1541.94l1.6 0 0.92 0 0.47 0c0.69,0 -1.16,-0.23 -0.47,0 0.92,0.23 1.6,0.23 2.52,0.47 0.92,0.23 1.83,0.46 2.76,0.69 0.47,0.23 0.93,0.23 1.37,0.44 0.23,0 0.46,0.23 0.92,0.23 -0.92,-0.44 0,0 0.23,0 1.13,0.47 2.52,1.16 3.66,1.85 0.69,0.44 1.16,0.67 1.85,1.14 0.23,0.23 0.47,0.46 0.67,0.46 0.23,0 1.16,0.93 0.46,0.47 0.7,0.69 1.86,1.14 2.99,1.14 2.3,0 4.13,-1.83 4.13,-4.13 0,-1.16 -0.44,-2.06 -1.14,-2.99 -4.59,-3.66 -9.87,-6.42 -15.38,-7.81 -2.53,-0.69 -5.05,-0.9 -7.58,-0.9 -2.3,0 -4.13,1.83 -4.13,4.12 0,2.99 1.83,4.82 4.13,4.82z"/>
   <path class="fil1" d="M1494.45 507.17c10.57,-2.53 14.69,-28.71 14,-59.01l-48.89 20.67c7.58,24.79 23.63,40.87 34.89,38.35z"/>
   <path class="fil1" d="M1495.6 511.08c8.73,-2.29 12.16,-13.09 13.79,-20.9 2.76,-13.76 3.89,-28.01 3.2,-42.24 0,-2.3 -2.53,-5.05 -5.29,-3.9l-42.7 18.12 -6.19 2.52c-2.06,0.69 -3.45,2.99 -2.76,5.05 3.45,11.95 9.41,22.73 17.68,31.92 5.52,5.96 13.55,11.24 22.27,9.41 5.28,-1.16 2.99,-8.94 -2.3,-8.04 -0.92,0.23 -1.83,0.23 -2.76,0 -1.37,-0.23 -2.76,-0.69 -3.89,-1.37 -3.22,-1.85 -6.21,-4.15 -8.51,-6.9 -6.88,-7.81 -11.7,-17.22 -14.46,-27.08l-2.76 5.05 42.7 -17.91 6.19 -2.52 -5.26 -3.9c0.44,12.63 -0.23,25.26 -2.53,37.66 -0.69,4.12 -2.08,8.27 -3.68,12.16 -0.69,1.38 -1.37,2.52 -2.52,3.68 -0.7,0.67 -1.37,1.37 -2.53,1.6 -5.05,0.92 -2.99,8.94 2.3,7.58z"/>
   <path class="fil5" d="M1296.77 575.36l-155.21 135.22 -33.74 27.55c-45.92,36.51 -81.04,34.45 -159.8,-16.53l-214.9 -183.67 51.67 -81.74 251.86 164.85 11.93 -13.32 165.54 -190.55c16.06,-18.37 39.25,-28.94 63.6,-28.94l44.07 0 -25.02 187.12z"/>
   <path class="fil1" d="M1293.79 572.37l-32.83 28.48 -66.13 57.62 -50.97 44.3c-12.16,10.56 -25.02,20.67 -37.42,31 -10.8,8.73 -22.5,16.75 -35.82,21.13 -14.69,4.59 -30.31,4.82 -45.23,0.67 -21.34,-5.49 -41.1,-16.53 -59.91,-27.99 -6.88,-3.91 -13.32,-8.27 -19.28,-13.09l-42.26 -36.06 -66.12 -56.48 -63.81 -54.63 -36.28 -31 -1.83 -1.37 0.7 5.05 45.23 -71.64 6.42 -10.1 -5.52 1.39 25.03 16.29 60.17 39.51 72.78 47.75 62.9 41.09c10.11,6.67 19.97,13.78 30.54,19.97 0.23,0 0.23,0.23 0.47,0.23 1.6,0.92 3.66,0.7 5.05,-0.67 9.63,-10.79 19.04,-21.59 28.45,-32.36l56.72 -65.22 61.98 -71.39c10.1,-11.72 20.2,-23.43 30.31,-34.92 15.39,-17.68 37.65,-27.78 61.07,-27.78l39.71 0 3.91 0c2.3,0 4.13,-2.06 3.9,-4.36 0,-2.06 -1.83,-3.89 -3.9,-3.89l-38.11 0c-7.35,-0.23 -14.69,0.23 -21.8,1.37 -13.09,2.29 -25.49,7.58 -36.28,15.62 -7.11,5.51 -13.55,11.7 -19.28,18.58l-18.37 21.12 -60.61 69.81 -59.69 68.86c-9.66,11.03 -19.3,22.26 -28.94,33.06l-5.28 5.75 5.05 -0.69 -25.03 -16.29 -60.15 -39.5 -72.78 -47.76 -62.91 -41.08c-10.1,-6.67 -19.99,-13.79 -30.54,-19.99 -0.23,0 -0.23,-0.23 -0.46,-0.23 -2.06,-1.14 -4.38,-0.44 -5.52,1.39l-45.23 71.64 -6.44 10.1c-0.91,1.6 -0.67,3.66 0.69,5.05l26.18 22.27 60.15 51.41 68.65 58.55 49.81 42.47c3.22,2.76 6.44,5.75 9.87,8.5 0.93,0.7 2.06,1.6 3.22,2.3 5.95,3.91 12.16,7.58 18.14,11.26 10.54,6.19 21.34,11.94 32.37,16.98 16.29,7.34 33.97,13.09 51.88,12.4 15.85,-0.92 31.23,-5.98 44.32,-14.69 10.57,-7.12 20.67,-14.92 30.31,-23.19 6.65,-5.51 13.32,-10.8 19.74,-16.29 13.09,-11.26 26.18,-22.75 39.25,-34.23l67.28 -58.55 45.92 -39.95 2.29 -2.06c4.13,-2.99 -1.85,-8.97 -5.75,-5.52z"/>
   <path class="fil4" d="M1330.98 560.44l-152.46 146.02 -33.74 27.55c-45.92,36.51 -142.81,78.75 -221.78,27.55l-164.39 -147.85 90.22 -119.39 187.59 126.5 11.93 -13.32 165.53 -190.55c16.08,-18.37 39.27,-28.94 63.6,-28.94l44.09 0 9.41 172.43z"/>
   <path class="fil1" d="M1328 557.45l-27.32 26.18 -58.09 55.57 -52.8 50.51 -13.09 12.63c-3.92,3.66 -8.27,7.11 -12.63,10.55 -8.04,6.67 -15.85,13.32 -24.12,19.76 -14.23,10.77 -29.61,20.21 -45.9,27.55 -37.65,17.44 -81.28,26.85 -122.38,17.68 -11.01,-2.52 -21.8,-6.2 -32.14,-11.26 -5.05,-2.3 -9.87,-5.05 -14.46,-8.25 -3.91,-3.22 -7.58,-6.67 -11.26,-10.1l-51.2 -46.16 -61.52 -55.33 -37.88 -33.99 -1.85 -1.6 0.69 5.05 30.54 -40.41 48.45 -64.07 11.24 -14.69 -5.49 1.37 18.58 12.63 44.79 30.31 54.18 36.51 46.83 31.68c7.6,5.05 14.94,10.79 22.75,15.38l0.21 0.23c1.62,0.92 3.68,0.7 5.05,-0.67 9.66,-10.57 18.84,-21.36 28.25,-32.16l56.72 -65.43 62.21 -71.85c10.11,-11.49 19.97,-23.19 30.31,-34.91 15.39,-17.68 37.65,-27.78 61.08,-27.78l39.48 0 4.15 0c2.29,0 4.12,-2.06 3.9,-4.36 0,-2.06 -1.83,-3.9 -3.9,-3.9l-37.88 0c-7.11,-0.23 -14.48,0.23 -21.6,1.37 -13.09,2.3 -25.49,7.58 -36.26,15.39 -7.34,5.51 -13.79,11.93 -19.53,19.05l-18.35 21.13 -60.4 69.58 -59.68 68.63c-9.64,11.02 -19.05,22.06 -28.69,32.83l-5.28 5.98 5.05 -0.7 -18.6 -12.62 -45 -30.07 -54.19 -36.5 -46.83 -31.69c-7.58,-5.05 -14.92,-10.8 -22.73,-15.39l-0.23 -0.23c-2.06,-1.14 -4.36,-0.44 -5.51,1.39l-30.54 40.41 -48.45 64.04 -11.24 14.71c-0.92,1.6 -0.69,3.66 0.67,5.05l27.57 24.79 59.45 53.5 56.95 51.19 16.75 14.94c6.65,5.73 14.23,10.31 22.26,14 40.64,19.05 86.8,17.68 128.8,4.36 31.46,-10.11 60.61,-25.93 85.87,-46.83 11.49,-9.43 23.19,-18.37 33.99,-28.71l45.67 -43.63 60.4 -57.86 38.56 -36.95 1.85 -1.83c3.43,-3.91 -2.29,-9.66 -6.2,-5.98z"/>
   <path class="fil4" d="M1321.57 387.33l142.12 3.22c21.57,-1.62 33.51,6.65 45.23,37.66 0,0 52.57,261.03 70.02,365.96 -35.13,-32.83 -329.45,-8.27 -329.45,-8.27l32.6 -323.27 39.48 -75.3z"/>
   <path class="fil1" d="M1321.57 391.46l31.68 0.69 62.93 1.37 44.76 1.16c5.75,0.23 11.7,-0.46 17.22,1.14 11.26,2.99 17.68,13.32 22.26,23.42 2.3,4.36 3.92,8.72 4.82,13.55 0.92,4.13 1.62,8.02 2.53,12.16 3.22,15.62 6.2,31.45 9.43,47.06 4.59,22.73 8.94,45.46 13.3,67.96 5.05,26.18 10.1,52.13 15.15,78.29 5.05,25.95 9.87,51.9 14.69,77.61 4.15,22.04 8.04,44.07 11.96,66.34 0.67,4.38 1.6,8.97 2.29,13.32l6.88 -3.9c-5.05,-4.61 -11.93,-7.14 -18.61,-8.97 -9.63,-2.52 -19.51,-4.36 -29.61,-5.51 -26.86,-2.76 -53.73,-4.12 -80.59,-3.89 -30.31,-0.23 -60.61,0.69 -90.69,1.83 -25.49,1.16 -50.74,2.53 -76.23,4.13 -8.25,0.47 -16.29,1.16 -24.56,1.85 -3.91,0 -7.81,0.47 -11.7,0.91l-0.47 0 4.13 4.15 3.22 -32.16 7.81 -77.14 9.41 -93.44 8.04 -80.82 2.76 -26.62c0.46,-4.15 1.13,-8.51 1.37,-12.65l0 -0.44c0.47,-5.28 -7.58,-5.28 -8.25,0l-3.22 32.14 -7.8 77.14 -9.41 93.44 -8.04 80.82 -2.76 26.64c-0.47,4.12 -1.16,8.5 -1.39,12.62l0 0.47c0,2.3 1.86,4.12 4.15,4.12 9.87,-0.92 19.74,-1.6 29.38,-2.29 23.89,-1.6 47.52,-2.99 71.41,-4.13 29.84,-1.38 59.68,-2.29 89.53,-2.52 27.78,-0.23 55.56,0.23 83.11,2.76 10.33,0.91 20.67,2.3 30.77,4.36 4.15,0.9 8.04,1.83 11.95,3.22 0.67,0.21 1.6,0.67 2.3,0.91 0.23,0 1.37,0.47 0.67,0.23 -0.67,-0.23 0.69,0.23 0.92,0.46 1.37,0.7 2.52,1.37 3.9,2.06 0.46,0.23 1.16,0.7 1.62,1.16 -0.92,-0.69 0.23,0.23 0.7,0.67 1.6,1.62 4.36,1.39 5.95,-0.23 0.92,-0.9 1.39,-2.52 0.92,-3.89 -3.45,-20.9 -7.11,-41.8 -11.02,-62.44 -4.59,-25.49 -9.41,-51.2 -14.46,-76.7 -5.05,-26.62 -10.33,-53.5 -15.39,-80.12 -4.59,-23.89 -9.41,-47.75 -14,-71.64 -3.45,-17.45 -6.9,-35.13 -10.57,-52.58 -1.38,-7.34 -2.52,-14.92 -4.59,-22.26 -1.62,-5.51 -3.91,-10.8 -6.67,-15.85 -2.76,-5.97 -6.65,-11.26 -11.47,-15.85 -3.91,-3.66 -8.73,-6.42 -14.01,-8.04 -5.49,-1.37 -11.24,-1.83 -16.98,-1.37 -10.8,0.23 -21.57,-0.46 -32.37,-0.69l-63.14 -1.37 -44.33 -0.92 -2.29 0c-4.59,0 -4.59,8.27 0.69,8.27z"/>
   <path class="fil5" d="M746.44 549.42l-53.73 -32.37c-7.58,-4.59 -14.23,-10.1 -19.97,-16.75 -13.09,-14.94 -27.78,-25.95 -47.29,-29.17l-7.58 -15.39c0,0 64.73,-79.65 74.17,-78.06l26.62 -2.3c-2.52,-6.42 -1.16,-13.78 3.66,-18.83 6.67,-7.11 17.91,-7.34 25.04,-0.44 0.91,0.67 1.6,1.6 2.3,2.52l12.4 17.68c7.8,11.01 12.86,23.63 15.38,36.73l2.76 15.85c3.2,17.68 13.3,33.06 28.45,42.7l4.15 2.76 -66.36 75.07z"/>
   <path class="fil1" d="M748.51 545.74l-35.59 -21.36 -16.98 -10.31c-3.69,-2.09 -7.12,-4.61 -10.57,-7.34 -5.98,-4.84 -10.8,-10.8 -16.31,-16.32 -11.7,-11.7 -26.16,-20.67 -42.7,-23.42l2.52 1.83 -7.58 -15.36 -0.67 5.05c10.55,-12.86 21.11,-25.72 32.14,-38.11 8.04,-9.2 16.08,-18.14 24.56,-26.65 3.22,-3.22 6.44,-6.42 9.87,-9.18 0.23,-0.23 0.92,-0.69 0.23,-0.23 0.23,-0.23 0.7,-0.46 0.93,-0.69 0.69,-0.47 1.13,-0.91 1.83,-1.37 0.23,-0.23 1.6,-0.92 0.92,-0.47 -0.7,0.23 0,0 0.23,0 0.9,-0.23 -0.93,0 -0.23,0l0.23 0c-2.09,0.23 -0.23,0 0.23,0l0.45 0c0.92,0 1.85,-0.23 2.52,-0.23l9.2 -0.69 14.46 -1.14c2.3,0 4.13,-1.83 4.13,-4.15 0,-0.21 0,-0.67 -0.23,-0.9 -2.74,-6.68 0,-14.25 6.44,-17.68 5.52,-2.76 12.16,-1.38 16.29,2.99 2.08,2.53 3.91,5.29 5.75,8.02 2.29,3.45 4.59,6.68 7.11,10.11 7.81,11.26 13.09,24.12 15.62,37.44 1.85,9.87 2.99,19.97 7.11,29.38 3.45,7.81 8.27,15.15 14.25,21.13 4.81,4.59 10.1,8.72 15.82,12.16 4.38,2.99 8.51,-4.15 4.15,-7.11 -5.05,-2.99 -9.87,-6.67 -14.01,-10.8 -5.73,-5.75 -10.1,-12.62 -13.07,-19.97 -3.45,-8.96 -4.61,-18.6 -6.21,-28.01 -2.76,-14.69 -8.71,-28.47 -17.44,-40.41l-8.27 -11.94c-2.52,-4.15 -5.95,-7.58 -10.1,-10.1 -10.8,-5.51 -23.86,-1.39 -29.38,9.41 -2.76,5.51 -3.22,11.93 -1.16,17.68l3.92 -5.28c-8.74,0.69 -17.68,1.37 -26.42,2.29l-0.23 0 -0.46 0c-0.67,0 -1.37,0.23 -2.06,0.47 -1.37,0.47 -2.76,1.13 -3.9,2.06 -3.45,2.52 -6.67,5.05 -9.63,8.04 -17.47,16.53 -32.84,35.13 -48.22,53.5 -4.15,5.05 -8.27,10.1 -12.4,15.15 -1.16,1.37 -1.62,3.43 -0.7,5.05l5.52 11.23c0.67,1.39 1.37,2.76 2.06,4.15 1.37,2.06 3.45,2.06 5.52,2.53 2.06,0.44 4.36,0.9 6.41,1.6 7.81,2.52 15.15,6.65 21.6,11.93 6.88,5.51 12.16,12.16 18.58,18.37 7.34,6.65 15.39,12.62 24.12,17.44l27.08 16.31 19.28 11.7c3.91,2.06 8.04,-5.05 3.45,-7.81z"/>
   <path class="fil5" d="M666.08 449.31c-27.55,-7.8 -56.26,-11.26 -84.94,-10.56 -29.17,3.91 -27.11,25.25 1.6,28.24 28.71,2.99 40.41,-1.6 72.54,17.44l10.8 -35.13z"/>
   <path class="fil1" d="M667.24 445.41c-8.51,-2.52 -17.45,-4.59 -26.18,-5.97 -9.18,-1.6 -18.58,-2.97 -28.02,-3.66 -5.49,-0.47 -11.23,-0.7 -16.75,-0.93 -5.75,-0.46 -11.47,-0.23 -17.21,0.47 -6.88,1.16 -14.93,3.45 -19.74,8.94 -3.92,4.15 -4.38,10.34 -1.39,15.39 3.45,5.75 10.57,8.97 16.77,10.57 8.48,2.06 17.45,2.06 25.93,2.52 7.8,0.23 15.61,1.16 23.19,2.76 10.33,2.76 19.97,7.11 29.17,12.86 2.06,1.16 4.59,0.23 5.49,-1.6 0.93,-1.85 0.47,-4.38 -1.37,-5.51 -14.23,-8.27 -28.92,-14.46 -45.46,-16.08 -6.88,-0.69 -14,-0.9 -20.9,-1.37 -7.34,-0.46 -15.39,-0.92 -21.8,-4.82 -1.83,-0.92 -3.45,-2.52 -4.36,-4.37 -0.47,-0.91 -0.47,-2.06 -0.23,-3.2 2.06,-4.82 9.18,-6.9 14.23,-7.81 5.05,-0.69 10.33,-0.92 15.39,-0.46 5.05,0 10.33,0.23 15.39,0.69 8.94,0.67 17.68,1.6 26.62,3.2 9.66,1.62 19.3,3.68 28.94,6.67 5.05,1.13 7.34,-6.67 2.3,-8.27z"/>
   <path class="fil5" d="M667.24 417.86c0,0 -45,-18.6 -90.92,-25.49 -29.38,-1.6 -31.47,19.74 -3.9,28.02 27.55,8.27 52.57,18.14 98.7,35.59l-3.89 -38.12z"/>
   <path class="fil1" d="M668.38 413.96c-11.02,-4.59 -22.5,-8.5 -33.99,-11.93 -11.01,-3.45 -22.27,-6.44 -33.5,-9.2 -11.26,-2.52 -23.19,-5.95 -34.89,-4.12 -6.68,0.92 -14.25,4.12 -16.54,11.02 -2.06,6.42 1.83,12.84 6.65,16.75 6.91,5.75 15.62,7.81 23.89,10.34 7.81,2.52 15.39,5.05 23.19,7.8 22.5,8.04 44.77,16.76 67.03,25.26 5.05,1.83 7.11,-5.98 2.3,-8.04 -19.28,-7.34 -38.56,-14.69 -57.86,-21.8 -7.34,-2.76 -14.92,-5.28 -22.27,-7.8 -7.34,-2.53 -14.69,-4.38 -22.03,-7.14 -5.05,-1.83 -12.16,-5.73 -13.09,-11.24l0 -1.16c0,-0.67 0,0.69 0,0 0,-0.23 0,-0.44 0.23,-0.67 0,-0.23 0.23,-0.7 0.47,-0.92 0.23,-0.47 0.47,-0.7 0.91,-0.93 2.29,-1.83 4.81,-2.96 7.58,-3.43 4.61,-0.92 9.19,-0.69 13.78,0.23 5.75,0.91 11.47,2.06 17.22,3.43 10.8,2.53 21.6,5.29 32.14,8.5 12.4,3.9 24.79,8.04 36.98,12.86 2.3,0.69 4.36,-0.69 5.05,-2.76 0.23,-2.3 -1.16,-4.59 -3.22,-5.05z"/>
   <path class="fil5" d="M689.96 396.74c0,0 -51.65,-37.42 -94.81,-54.63 -28.25,-8.27 -35.13,11.93 -10.11,26.39 25.03,14.46 47.06,29.61 88.16,57.18l16.75 -28.94z"/>
   <path class="fil1" d="M692.03 393.3c-8.97,-6.44 -18.37,-12.63 -27.78,-18.61 -18.6,-12.16 -38.34,-23.17 -58.55,-32.37 -9.18,-4.12 -19.74,-8.27 -30.07,-5.05 -7.12,2.29 -11.7,8.73 -9.87,16.08 2.3,9.18 11.03,15.39 18.61,19.74 7.58,4.36 14.92,8.94 22.26,13.55 21.57,13.76 42.7,28.22 64.04,42.7 4.38,2.96 8.5,-4.15 4.15,-7.12 -18.37,-12.41 -36.74,-25.04 -55.33,-36.98 -7.14,-4.59 -14.25,-9.18 -21.36,-13.55 -7.34,-4.36 -16.29,-8.25 -21.8,-15.13 -1.83,-2.09 -2.76,-4.61 -2.99,-7.14 0.23,-1.83 1.37,-3.43 3.22,-4.13 7.58,-3.68 17.68,0.7 24.79,3.9 19.28,8.97 37.88,19.07 55.79,30.54 10.33,6.44 20.67,13.32 30.54,20.43 4.59,3.22 8.48,-3.89 4.36,-6.88z"/>
   <path class="fil5" d="M720.73 381.59c0,0 -53.5,-55.33 -93.22,-79.68 -26.41,-12.84 -36.51,5.97 -14.46,24.35 22.26,18.37 41.55,37.19 77.13,71.18l30.54 -15.85z"/>
   <path class="fil1" d="M723.48 378.6c-22.5,-23.65 -46.59,-45.46 -72.54,-65.43 -8.27,-6.44 -17.24,-13.55 -27.08,-17.44 -8.04,-2.99 -20.22,-4.59 -25.49,4.12 -5.05,8.73 1.37,19.07 7.34,25.26 3.66,3.68 7.81,6.88 11.7,10.33 3.69,2.99 7.12,6.2 10.57,9.18 20.21,17.91 39.48,36.98 59.01,55.58 3.9,3.66 9.64,-2.09 5.73,-5.75 -16.98,-16.31 -33.97,-32.6 -51.2,-48.45 -6.65,-6.21 -13.54,-12.16 -20.41,-18.14 -6.21,-5.29 -15.85,-11.7 -16.54,-20.44 -0.47,-2.06 0.69,-4.12 2.76,-5.05 3.91,-1.6 8.73,-0.47 12.4,0.92 4.82,1.83 9.18,4.36 13.32,7.34 4.12,2.76 8.27,5.75 12.16,8.71 16.31,12.63 31.9,25.95 46.62,40.2 8.71,8.02 17.22,16.29 25.47,24.79 4.14,3.9 9.89,-2.06 6.2,-5.75z"/>
   <path class="fil5" d="M812.57 474.57l-4.13 -2.76c-14.94,-9.64 -25.25,-25.25 -28.47,-42.7l-2.76 -15.85c-2.3,-13.32 -7.58,-25.72 -15.39,-36.73l-12.4 -17.68c-5.51,-8.04 -16.54,-9.87 -24.56,-4.37 -0.92,0.69 -1.85,1.38 -2.52,2.31 -4.82,5.05 -6.21,12.4 -3.68,18.82l10.79 26.85c0,0 -21.59,33.99 -23.65,71.41l106.77 0.69z"/>
   <path class="fil1" d="M814.63 470.9c-7.12,-4.36 -13.32,-9.64 -18.61,-16.08 -6.19,-7.81 -10.33,-17.22 -11.93,-27.08 -0.92,-5.05 -1.83,-9.87 -2.76,-14.92 -1.83,-9.87 -5.05,-19.28 -9.41,-28.25 -3.22,-5.75 -6.88,-11.47 -10.8,-16.75 -2.99,-4.36 -5.75,-8.73 -8.94,-12.86 -7.58,-9.41 -21.36,-10.8 -30.54,-3.22 -6.21,5.05 -9.2,13.32 -7.58,21.13 0.91,5.51 3.9,10.77 5.95,15.83l5.75 14.48 0.47 -3.22c-4.36,7.11 -8.27,14.69 -11.24,22.26 -7.14,16.08 -11.49,33.53 -12.86,50.98 -0.23,5.28 7.79,5.28 8.25,0 1.38,-23.19 9.63,-45.92 21.12,-65.9 1.14,-1.6 2.06,-3.45 2.53,-5.51 -0.47,-2.06 -1.16,-4.12 -2.06,-6.19l-8.27 -20.67c-1.83,-3.69 -2.06,-8.04 -0.7,-11.94 2.06,-4.82 6.68,-8.04 11.72,-8.27 8.72,-0.47 12.63,6.65 16.75,12.63 5.05,6.88 9.64,13.99 13.79,21.34 4.59,9.89 7.79,20.43 9.41,31.23 1.83,10.8 3.9,21.13 9.41,30.77 6.42,11.47 15.85,19.51 26.64,26.62 4.12,3.69 8.25,-3.43 3.9,-6.42z"/>
   <path class="fil1" d="M1428.79 851.33c-0.47,6.88 0.47,13.79 2.76,20.44 3.9,12.86 14.46,22.73 27.55,25.95l-2.76 -5.05c-4.13,26.85 -8.04,53.94 -11.7,81.04 -4.82,33.74 -9.43,67.5 -14.01,101.23 -2.3,16.31 -4.36,32.62 -6.65,49.14 -2.06,15.39 -5.28,31.24 -5.28,46.85 0,33.97 12.86,66.57 36.51,90.9 8.25,8.04 17.45,15.38 27.09,22.06l35.12 25.72 49.82 36.26 52.34 38.12 43.4 31.7 22.73 16.52 1.16 0.69c4.36,3.22 8.48,-3.91 4.12,-7.11l-15.62 -11.26 -39.02 -28.25 -50.74 -36.95 -51.2 -37.19 -39.94 -29.17c-5.98,-4.36 -11.7,-8.51 -17.68,-12.86 -24.79,-18.35 -41.77,-45.23 -47.75,-75.53 -2.99,-16.06 -2.06,-31.9 0.23,-47.98 2.06,-15.62 4.12,-31 6.42,-46.6 4.59,-33.76 9.19,-67.51 14.01,-101.02 4.12,-29.17 8.25,-58.32 12.4,-87.26 0.91,-5.52 1.6,-10.8 2.52,-16.29 0.47,-2.08 -0.69,-4.38 -2.76,-5.05 -10.8,-2.52 -19.51,-10.79 -22.26,-21.59 -1.86,-5.51 -2.53,-11.24 -2.06,-16.75 -0.23,-5.98 -8.27,-5.98 -8.73,-0.7z"/>
   <path class="fil1" d="M1322.72 863.04l-4.13 16.75 -11.26 45.46 -16.75 67.29 -20.43 81.95 -22.27 89.78 -22.5 90.69 -20.9 84.25 -17.68 71.41 -12.63 51.44c-2.06,8.04 -4.15,16.06 -5.98,24.33 0,0.47 -0.23,0.69 -0.23,1.16 -1.37,5.05 6.67,7.34 7.81,2.29l4.12 -16.77 11.26 -45.46 16.75 -67.26 20.43 -81.95 22.29 -89.78 22.5 -90.69 20.88 -84.27 17.68 -71.39 12.63 -51.44c2.08,-8.04 4.15,-16.08 5.98,-24.33 0,-0.47 0.23,-0.7 0.23,-1.16 1.37,-5.05 -6.44,-7.34 -7.81,-2.3z"/>
   <path class="fil1" d="M1339.25 779.7l-9.18 52.58 -5.29 30.77c-1.85,10.57 -2.99,20.9 0,31.45 3.66,12.65 12.63,22.96 20.21,33.29 2.99,4.15 10.1,0.23 7.11,-4.13 -5.75,-7.81 -12.63,-15.61 -16.75,-24.56 -4.15,-8.5 -5.28,-18.14 -3.91,-27.55 0.23,-1.85 0.69,-3.45 0.92,-5.28l11.01 -64.53 3.45 -20.44c1.16,-4.59 -6.65,-6.88 -7.58,-1.6z"/>
   <path class="fil1" d="M1025.86 639.65l14.23 -16.31 2.08 -2.3c1.6,-1.6 1.6,-4.12 0,-5.72 -1.62,-1.62 -4.15,-1.62 -5.75,0l-14.25 16.29 -2.06 2.3c-1.6,1.62 -1.6,4.15 0,5.75 1.62,1.6 4.15,1.6 5.75,0z"/>
   <path class="fil5" d="M1477.69 564.34l155.21 135.24 33.74 27.55c45.92,36.49 81.05,34.43 159.8,-16.54l214.9 -183.67 -51.67 -81.74 -251.86 164.85 -11.93 -13.32 -165.54 -190.55c-16.06,-18.37 -39.25,-28.94 -63.6,-28.94l-44.07 0 25.02 187.12z"/>
   <path class="fil1" d="M1474.71 567.33l33.29 28.93 66.36 57.86 50.74 44.07c12.16,10.57 25.03,20.9 37.66,31 11.7,9.64 24.56,18.14 39.02,22.73 15.62,4.82 32.14,5.05 47.76,0.92 21.36,-5.28 41.1,-16.08 59.94,-27.34 8.25,-4.59 16.05,-9.87 23.4,-15.6l41.56 -35.59 66.36 -56.72 64.73 -55.33 36.73 -31.44 1.86 -1.39c1.37,-1.37 1.6,-3.45 0.67,-5.05l-45 -71.41 -6.42 -10.1c-1.16,-1.83 -3.68,-2.52 -5.51,-1.37l-25.02 16.29 -60.15 39.51 -73.03 47.75 -62.91 41.1 -20.64 13.53c-3.45,2.06 -6.68,4.13 -9.9,6.44 -0.21,0 -0.21,0.21 -0.44,0.21l5.05 0.7c-9.66,-10.78 -19.3,-21.8 -28.71,-32.84l-57.16 -65.89 -62.47 -72.08c-9.63,-11.26 -19.28,-22.5 -29.15,-33.53 -16.98,-19.28 -41.33,-30.31 -66.82,-30.31l-39.71 0 -3.9 0c-2.31,0 -4.15,2.06 -3.91,4.36 0,2.08 1.83,3.91 3.91,3.91l37.65 0c7.12,-0.23 14,0.23 20.88,1.37 12.86,2.53 25.04,8.04 35.35,16.08 5.75,5.05 11.26,10.57 16.08,16.53l18.83 21.82 60.15 69.33 59.45 68.65c9.43,10.8 18.84,21.82 28.48,32.6l5.28 5.75c1.37,1.37 3.45,1.6 5.05,0.69l25.02 -16.31 60.15 -39.48 72.78 -47.75 62.9 -41.1 20.67 -13.55c3.45,-2.06 6.68,-4.13 9.87,-6.42 0.23,0 0.23,-0.23 0.47,-0.23l-5.52 -1.37 45.23 71.62 6.44 10.1 0.69 -5.05 -25.72 22.04 -59.71 51.2 -67.72 57.86 -50.51 43.16c-3.43,2.99 -6.88,6.21 -10.57,8.97 -5.26,3.9 -11.01,7.35 -16.75,10.57 -10.57,6.42 -21.34,12.38 -32.6,17.66 -15.85,7.37 -33.07,13.09 -50.51,12.63 -15.39,-0.44 -29.38,-6.19 -42.24,-14.46 -10.11,-7.11 -19.97,-14.69 -29.17,-22.73 -5.95,-4.82 -11.93,-9.64 -17.68,-14.69 -13.54,-11.7 -26.86,-23.43 -40.41,-35.13l-66.57 -58.09 -45.69 -39.27 -2.29 -2.06c-4.15,-3.43 -9.87,2.29 -5.98,5.75z"/>
   <path class="fil4" d="M1477.46 564.34l118.69 131.09 33.76 27.55c45.92,36.52 142.8,78.75 221.78,27.55l164.15 -147.85 -90.22 -119.39 -187.58 126.51 -11.94 -13.33 -165.54 -190.55c-16.06,-18.37 -39.25,-28.94 -63.6,-28.94l-57.62 1.39 38.12 185.96z"/>
   <path class="fil1" d="M1474.47 567.33l26.63 29.38 52.36 57.87 37.42 41.31c2.76,2.99 5.75,5.51 8.94,8.04 8.73,7.11 17.44,14.22 26.18,21.34 26.18,20.9 56.26,36.28 88.39,45.24 39.95,11.24 83.34,11.47 121.69,-6.44 7.8,-3.45 15.15,-7.81 21.8,-13.32l14.93 -13.3 51.9 -46.85 57.62 -51.87 34.66 -31.24 1.6 -1.37c1.38,-1.39 1.62,-3.45 0.69,-5.05l-30.54 -40.41 -48.42 -64.07 -11.26 -14.69c-1.16,-1.85 -3.68,-2.52 -5.51,-1.39l-18.6 12.63 -44.77 30.31 -54.18 36.52 -46.84 31.67 -15.39 10.33c-2.53,1.62 -5.05,3.22 -7.34,5.05l-0.23 0.23 5.05 0.7c-10.33,-11.49 -20.2,-22.96 -30.31,-34.43l-61.07 -70.27 -62.91 -72.54 -18.81 -21.8c-6.88,-8.5 -14.93,-15.61 -23.89,-21.59 -11.7,-7.35 -25.02,-11.7 -38.78,-13.09 -5.51,-0.44 -11.26,-0.44 -17.01,-0.21l-45.46 1.14 -3.43 0c-5.28,0.23 -5.28,8.27 0,8.27l37.66 -0.92 18.6 -0.47c9.87,-0.23 19.51,1.39 28.68,4.82 14.02,5.29 26.18,14.25 35.82,25.72l16.08 18.61 60.38 69.55 62.91 72.57c10.1,11.7 20.2,23.4 30.53,34.89l5.52 5.95c1.37,1.39 3.43,1.62 5.05,0.69l18.58 -12.62 44.77 -30.31 54.19 -36.49 46.83 -31.7 15.39 -10.33c2.52,-1.6 5.05,-3.2 7.34,-5.05l0.23 -0.23 -5.49 -1.37 30.52 40.41 48.45 64.07 11.26 14.69 0.69 -5.05 -24.58 22.03 -53.94 48.68 -55.79 50.28 -19.74 17.91c-3.22,2.76 -6.21,5.95 -9.66,8.71 -4.82,3.45 -10.11,6.44 -15.62,8.73 -9.64,4.59 -19.74,8.04 -30.07,10.57 -19.74,4.36 -40.18,4.82 -60.15,1.83 -36.73,-5.75 -71.39,-19.97 -101.72,-41.56 -8.25,-5.73 -15.83,-12.4 -23.64,-18.58l-14.25 -11.72c-1.6,-1.37 -3.43,-2.52 -4.82,-3.9 -3.2,-2.99 -5.95,-6.44 -8.71,-9.63l-19.75 -21.83 -52.13 -57.62 -36.03 -39.71 -1.86 -2.06c-4.36,-5.29 -10.33,0.46 -6.65,4.36z"/>
   <path class="fil1" d="M1754.35 622.89l-14.23 -16.31 -2.08 -2.29c-1.6,-1.6 -4.12,-1.6 -5.72,0 -1.62,1.62 -1.62,4.15 0,5.75l14.22 16.31 2.06 2.29c1.62,1.6 4.15,1.6 5.75,0 1.6,-1.62 1.6,-4.15 0,-5.75z"/>
   <path class="fil0" d="M475.98 219.49c99.92,0 180.91,81.01 180.91,180.91 0,99.93 -80.99,180.93 -180.91,180.93 -99.93,0 -180.91,-81 -180.91,-180.93 0,-99.9 80.99,-180.91 180.91,-180.91z"/>
   <path class="fil1" d="M290.93 400.41c0,102.16 82.88,185.06 185.06,185.06 102.15,0 185.03,-82.9 185.03,-185.06 0,-102.18 -82.88,-185.05 -185.03,-185.05 -90.92,0 -168.54,66.12 -182.77,156.12 -1.6,9.66 -2.29,19.3 -2.29,28.93 0,2.3 2.06,4.13 4.36,3.9 2.06,0 3.91,-1.83 3.91,-3.9 0.23,-97.12 79.2,-175.63 176.09,-175.42 97.13,0.23 175.63,79.22 175.42,176.12 -0.23,96.87 -79.21,175.63 -176.11,175.39 -86.54,-0.23 -160.25,-63.6 -173.34,-149 -1.39,-8.95 -2.06,-17.92 -2.06,-27.09 0,-2.29 -2.06,-4.12 -4.38,-3.89 -2.06,0 -3.89,1.6 -3.89,3.89z"/>
   <path class="fil7" d="M475.98 581.33c-47.99,0 -94.14,-19.04 -127.88,-53.04l16.98 -54.87c9.63,-31.46 38.81,-53.04 71.64,-53.04l67.96 0c30.98,0 58.76,19.05 70.02,48.22l26.39 62.68c-33.97,32.14 -78.73,50.05 -125.11,50.05z"/>
   <path class="fil1" d="M475.98 577.2c-46.83,0 -91.85,-18.61 -125.12,-51.88l1.13 3.89c5.52,-18.14 11.26,-36.28 16.78,-54.4 4.82,-15.85 14.92,-29.4 28.46,-38.57 12.16,-8.04 26.64,-12.16 41.33,-11.96l64.07 0c14.92,-0.21 29.84,4.15 42.24,12.62 12.4,8.51 20.67,20.67 26.39,34.45l24.79 59.23 0.69 1.62 1.16 -3.91c-32.83,31.46 -76.46,48.91 -121.92,48.91 -2.3,0 -4.13,2.06 -3.9,4.36 0,2.06 1.83,3.91 3.9,3.91 37.18,0 73.47,-11.26 104.24,-32.16 8.48,-5.73 16.29,-12.16 23.63,-19.28 1.16,-0.92 1.39,-2.52 1.16,-3.89l-24.11 -57.41c-1.37,-3.2 -2.53,-6.42 -3.9,-9.41 -3.9,-8.94 -9.64,-17.22 -16.75,-24.33 -14.48,-14.25 -33.76,-22.27 -53.96,-22.73 -20.9,-0.47 -42.01,0 -63.14,0 -12.86,0 -25.49,1.13 -37.42,6.42 -17.91,7.58 -32.6,21.8 -40.87,39.5 -4.13,9.41 -6.65,19.51 -9.87,29.15l-10.33 33.53 -0.69 2.06c-0.47,1.37 0,2.99 1.16,3.89 26.62,26.65 60.61,44.33 97.57,51.21 11.02,2.06 22.03,2.98 33.29,2.98 2.29,0 4.12,-2.06 3.89,-4.36 -0.21,-1.62 -1.83,-3.45 -3.89,-3.45z"/>
   <path class="fil1" d="M495.27 277.12l24.12 0c14.69,0 26.63,11.93 26.63,26.63 0,26.18 -21.13,47.31 -47.29,47.31l-19.07 0 15.61 -73.93z"/>
   <path class="fil1" d="M495.27 281.02l21.13 0c3.66,-0.23 7.34,0.23 11.01,1.37 5.52,2.08 10.11,6.44 12.4,11.95 4.82,10.8 0.47,24.56 -5.95,33.74 -7.12,10.11 -18.37,16.78 -30.54,18.14 -8.04,0.47 -15.85,0.47 -23.89,0.23l3.91 5.29 13.76 -64.51 2.06 -9.43c1.16,-5.05 -6.88,-7.35 -7.79,-2.3l-13.79 64.53 -2.06 9.41c-0.46,2.3 0.67,4.59 2.99,5.05 0.23,0 0.67,0.23 0.91,0.23 7.58,0 15.15,0.46 22.73,-0.23 14.25,-1.16 27.55,-8.04 36.52,-19.07 8.48,-10.55 13.76,-25.93 10.57,-39.49 -3.45,-13.76 -15.85,-23.19 -29.85,-23.42l-24.12 0c-2.29,0 -4.12,2.08 -3.89,4.38 0,2.52 1.6,4.12 3.89,4.12z"/>
   <path class="fil5" d="M473.91 313.63c21.93,0 39.71,17.78 39.71,39.71 0,21.95 -17.78,39.73 -39.71,39.73 -21.92,0 -39.71,-17.78 -39.71,-39.73 0,-21.93 17.78,-39.71 39.71,-39.71z"/>
   <path class="fil1" d="M430.07 353.35c0,24.1 19.51,43.86 43.86,43.86 24.33,0 43.84,-19.53 43.84,-43.86 0,-24.33 -19.51,-43.86 -43.84,-43.86 -2.76,0 -5.75,0.23 -8.51,0.92 -20.43,4.13 -35.13,22.04 -35.35,42.94 0,5.29 8.27,5.29 8.27,0 0,-19.74 16.06,-35.59 35.59,-35.59 19.74,0 35.59,16.08 35.59,35.59 0,19.74 -16.08,35.59 -35.59,35.59 -2.32,0 -4.61,-0.23 -6.68,-0.7 -16.75,-3.43 -28.68,-17.91 -28.92,-34.89 0,-5.28 -8.27,-5.28 -8.27,0z"/>
   <path class="fil1" d="M526.72 291.82c0,-8.04 -6.42,-14.46 -14.46,-14.46 -22.5,-0.23 -46.15,-0.23 -64.29,0 -23.4,0 -42.47,19.05 -42.47,42.47 0,5.98 1.16,11.7 3.68,17.22l4.12 9.41 10.57 22.96c3.43,7.58 12.4,11.02 19.97,7.58 4.13,-1.83 7.34,-5.73 8.48,-10.1 0.69,-2.76 0.92,-5.49 1.16,-8.48 -13.09,-5.05 -7.11,-24.12 2.06,-21.13 9.19,2.99 8.04,24.1 8.04,24.1 0,0 3.22,-1.37 4.59,-14.69 0.7,-6.65 6.21,-11.93 13.09,-12.4l3.68 0c22.94,-0.23 41.78,-19.28 41.78,-42.47z"/>
   <path class="fil1" d="M530.86 291.82c0,-5.51 -2.53,-10.57 -6.42,-14.23 -4.61,-3.91 -9.66,-4.61 -15.39,-4.61 -14.02,-0.21 -28.02,-0.21 -42.03,-0.21 -10.57,0 -22.04,-1.16 -32.37,2.06 -9.18,2.76 -17.44,8.25 -23.42,16.06 -5.96,7.58 -9.41,17 -9.87,26.64 0,8.48 1.86,16.75 5.51,24.33 4.36,9.64 8.51,19.07 12.86,28.71 3.68,8.04 11.93,12.4 20.67,11.02 4.59,-0.69 8.72,-2.98 11.7,-6.67 3.91,-4.82 4.81,-11.01 5.05,-16.98 0,-1.83 -1.13,-3.45 -2.99,-3.91 -3.43,-1.6 -5.28,-5.49 -4.36,-9.18 0.23,-0.92 0.47,-1.83 1.16,-2.52 0.67,-0.93 -0.23,0.23 0.44,-0.7 0,0 0.92,-0.9 0.47,-0.46 0.92,-0.67 1.62,-0.91 2.76,0 2.76,2.08 3.68,7.58 4.15,11.02 0.44,2.99 0.44,5.75 0.21,8.73 0,2.3 2.08,4.13 4.38,4.13 0.67,0 1.37,-0.23 1.83,-0.47 3.45,-1.6 4.82,-7.34 5.51,-10.57 0.91,-4.12 0.47,-8.71 2.99,-12.16 2.06,-2.29 5.05,-3.66 8.25,-3.66 7.81,0.23 15.39,-1.39 22.26,-4.61 16.54,-7.79 26.65,-24.1 26.65,-41.78 0,-2.3 -2.06,-4.12 -4.36,-3.9 -2.06,0 -3.91,1.83 -3.91,3.9 0,15.15 -8.94,28.94 -22.96,34.89 -6.19,2.76 -12.16,2.76 -18.58,3.22 -8.27,0.23 -15.15,6.19 -17,14.23 -0.67,3.91 -0.91,8.73 -2.3,12.16 0,0 -0.44,0.69 -0.67,1.16 -0.46,0.92 0.23,0 0,0 -0.92,0.46 0.67,-0.47 0.23,0l6.19 3.45c0.47,-7.81 -0.46,-17.91 -5.51,-24.35 -3.2,-4.13 -8.94,-5.52 -13.53,-2.99 -4.38,2.99 -6.9,7.8 -6.68,12.86 -0.23,6.9 4.15,13.09 10.57,15.15l-2.99 -3.9c-0.23,6.88 -2.06,14.69 -10.1,15.85 -5.51,0.67 -9.64,-2.52 -11.93,-7.34 -3.69,-8.04 -7.34,-16.08 -11.03,-24.35 -2.96,-5.51 -5.05,-11.7 -6.19,-17.91 -0.92,-8.02 0.7,-15.83 4.36,-22.96 3.92,-6.88 9.64,-12.63 16.78,-16.06 8.02,-3.91 16.52,-3.91 25.03,-3.91l40.17 0 10.31 0c2.99,-0.23 5.75,0 8.5,0.7 4.36,1.37 7.11,5.51 7.11,9.87 0.47,5.51 8.73,5.51 8.51,0.23z"/>
   <path class="fil5" d="M1448.07 377.68c2.99,40.64 -27.78,76 -68.42,78.99 -40.64,2.99 -76,-27.78 -78.99,-68.42l147.4 -10.57z"/>
   <path class="fil1" d="M1443.94 377.68c2.99,38.35 -25.95,71.88 -64.51,74.84 -38.34,2.99 -71.87,-25.93 -74.86,-64.51l-4.12 4.13 49.81 -3.43 79.45 -5.51 18.12 -1.39c5.28,-0.47 5.28,-8.48 0,-8.25l-49.82 3.43 -79.43 5.51 -18.14 1.39c-2.3,0 -4.15,1.83 -4.15,4.12 2.76,42.94 39.96,75.54 82.89,72.55 23.18,-1.6 44.53,-13.32 58.09,-32.37 10.55,-14.69 15.59,-32.6 14.46,-50.74 0.23,-5.05 -8.04,-5.05 -7.81,0.23z"/>
   <polygon class="fil5" points="1415.7,393.53 1408.59,300.54 1331.2,335.44 1332.36,396.74 "/>
   <path class="fil1" d="M1419.83 393.53l-6.21 -81.28 -0.91 -11.7c0,-2.3 -2.06,-4.15 -4.36,-4.15 -0.69,0 -1.39,0.23 -1.85,0.47l-67.5 30.53 -9.64 4.36c-1.38,0.69 -2.06,2.08 -2.06,3.45l0.9 53.5 0.23 7.58c0,5.28 8.27,5.28 8.27,0l-0.93 -53.5 -0.23 -7.58 -2.06 3.45 67.49 -30.54 9.66 -4.38 -6.21 -3.43 6.21 81.28 0.9 11.7c0.47,5.51 8.51,5.51 8.27,0.23z"/>
   <path class="fil5" d="M1411.11 332.69c43.4,-37.66 27.55,-72.32 28.71,-98.27 0.67,-14.92 -20.9,-46.38 -20.9,-46.38l-123.98 -27.55 -27.08 41.57c0,0 -52.13,172.64 92.75,139.81l50.51 -9.18z"/>
   <path class="fil1" d="M1413.86 335.66c13.09,-11.47 24.1,-25.49 28.71,-42.24 3.43,-12.16 3.43,-25.02 2.3,-37.42 -0.47,-5.29 -1.16,-10.8 -1.16,-16.08 0.23,-5.29 -0.47,-10.57 -1.6,-15.85 -3.45,-11.47 -9.87,-22.5 -16.31,-32.6 -1.37,-2.3 -3.2,-6.19 -5.96,-7.12 -0.92,-0.23 -1.85,-0.46 -2.76,-0.69l-18.37 -4.13 -61.07 -13.55c-13.76,-2.99 -27.32,-6.42 -41.1,-9.18 -0.21,0 -0.44,0 -0.67,-0.23 -1.85,-0.47 -3.68,0.23 -4.59,1.83l-15.39 23.65 -9.43 14.46c-1.14,1.39 -2.06,2.99 -2.76,4.59 -2.76,9.2 -4.82,18.61 -6.19,28.25 -3.22,18.14 -3.92,36.74 -1.83,55.09 2.52,18.84 8.94,37.88 23.86,50.51 19.3,16.31 45.92,17.24 69.81,13.32 4.12,-0.69 8.25,-1.37 12.4,-2.29 5.05,-1.16 2.96,-9.18 -2.3,-8.04 -14.01,3.45 -28.47,4.59 -42.94,3.45 -9.89,-0.93 -19.53,-4.36 -27.78,-9.87 -3.45,-2.52 -6.68,-5.28 -9.43,-8.5 -1.37,-1.6 -2.52,-2.99 -3.66,-4.82 -1.16,-1.83 -2.29,-3.68 -3.22,-5.51 -2.06,-3.66 -3.69,-7.58 -4.82,-11.7 -1.39,-4.36 -2.3,-8.73 -3.22,-13.32 -0.47,-2.76 -0.69,-3.66 -0.92,-6.19 -0.21,-2.31 -0.44,-4.61 -0.67,-7.14 -0.23,-4.59 -0.23,-9.18 -0.23,-13.76 0,-4.38 0.47,-8.97 0.7,-13.32 0.21,-2.06 0.44,-4.36 0.67,-6.42 0.23,-0.92 0.23,-2.08 0.47,-2.99 0,-0.23 0.23,-1.62 0,-0.7 0,-0.69 0.23,-1.13 0.23,-1.83 1.6,-10.57 3.68,-20.9 6.42,-31.24 0,-0.23 0.23,-0.69 0.23,-0.92 0,0 -0.67,1.39 0,0.23 2.52,-3.2 4.61,-6.88 6.67,-10.33l18.82 -28.69 1.39 -1.83 -4.59 1.83 41.77 9.41 66.82 14.93 15.39 3.45 -2.53 -1.83c3.66,5.26 6.88,10.77 10.11,16.29 4.36,8.04 10.1,17.91 10.31,26.88 0.23,8.94 0.93,17.89 1.62,26.85 1.13,10.33 0.23,20.67 -2.3,30.77 -4.37,15.59 -14.69,28.01 -26.64,38.56 -3.89,3.68 1.83,9.43 5.75,5.97z"/>
   <path class="fil1" d="M1318.13 239.01c0.69,-0.46 1.37,-0.92 2.29,-1.37 0.47,-0.23 0.69,-0.46 1.16,-0.46 0.44,-0.23 0.21,0 -0.23,0 0.23,0 0.44,-0.23 0.67,-0.23 1.16,-0.47 2.3,-0.7 3.45,-1.16 0.69,-0.23 1.37,-0.23 1.83,-0.47 0,0 1.38,-0.23 0.46,0l0.92 0c1.6,-0.23 3.22,-0.23 4.82,0 0.7,0 1.14,0 1.83,0.23 0.92,0.23 1.83,0.46 2.53,0.69 1.83,0.47 3.68,1.39 5.28,2.3 2.06,1.16 4.36,0.46 5.51,-1.37 1.14,-2.09 0.47,-4.38 -1.39,-5.52 -7.11,-3.91 -15.59,-5.28 -23.63,-3.45 -3.69,0.69 -7.12,2.06 -10.11,4.15 -1.85,1.13 -2.52,3.66 -1.38,5.49 1.38,1.62 3.91,2.31 5.98,1.16z"/>
   <path class="fil1" d="M1265.55 239.01c0.69,-0.46 -0.92,0.23 0.23,-0.23 0.92,-0.47 2.06,-0.7 2.99,-0.93 3.43,-0.9 6.88,-1.37 10.33,-1.13 5.95,0 11.24,3.9 13.09,9.41 1.6,5.51 -0.46,11.72 -2.99,16.54 -1.85,3.43 -3.91,6.88 -6.44,9.87 -1.6,1.37 -2.53,3.2 -2.99,5.29 -0.21,1.37 0,2.73 0.23,4.12 2.08,7.58 11.02,7.11 17,6.19 2.06,-0.67 3.43,-2.73 2.74,-5.05 -0.67,-2.06 -2.97,-3.43 -5.05,-2.74 -2.29,0.44 -4.59,0.44 -6.65,-0.23 -0.23,0 -0.23,-0.23 -0.23,-0.23l0 -0.23 0 -1.16 -1.13 1.85c9.18,-10.57 19.51,-28.24 10.54,-41.8 -7.79,-11.7 -24.33,-12.16 -36.03,-6.42 -4.59,2.06 -0.47,9.18 4.36,6.88z"/>
   <path class="fil1" d="M1271.29 253.7c2.93,0 5.29,2.36 5.29,5.29 0,2.92 -2.36,5.28 -5.29,5.28 -2.92,0 -5.28,-2.36 -5.28,-5.28 0,-2.93 2.36,-5.29 5.28,-5.29z"/>
   <path class="fil1" d="M1267.84 259.21l0 -0.69 0 0.23 0 -0.23 0 -0.23c0,-0.23 0,-0.23 0.23,-0.44 0,-0.23 0,0 0,0 0,-0.23 0.46,-0.7 0.46,-0.7 0.23,-0.46 -0.23,0.23 0,0l0.23 -0.23 0.44 -0.47c0,0 -0.21,0.23 0,0 0.23,0 0.23,-0.23 0.47,-0.23 0,0 0.23,0 0.23,-0.23 0,-0.23 0.23,0 0.23,-0.23 -0.23,0 -0.23,0.23 -0.23,0 0.23,0 0.46,-0.23 0.69,-0.23l0.47 0c-0.23,0 -0.47,0 0,0l0.67 0c0.23,0 0.23,0.23 0,0l0.46 0c0.23,0 0.47,0 0.7,0.23l-0.23 0c0,0 0.23,0 0.23,0.23 0,0 0.23,0 0.23,0.23l0.23 0.23c0.23,0 -0.46,-0.23 0,0 0.23,0.23 0.47,0.47 0.7,0.69 0.21,0.23 0,0 0,0l0.21 0.23c0,0 0.47,0.47 0.23,0.67 0,0 -0.23,-0.44 0,0 0,0.23 0,0.23 0.23,0.47l0 0.23 0 0.23 0 -0.23 0 0.7 0 0.47 0 -0.23c0,0.23 0,0.46 -0.23,0.69l0 0.21c0,0.23 0,0.23 0,0 0,0 -0.23,0.23 -0.23,0.47l-0.21 0.23c0,0.23 0,0.46 0,0 -0.23,0.23 -0.23,0.46 -0.47,0.46l-0.23 0.23c-0.23,0.23 0.47,-0.23 0,0 -0.23,0.23 -0.46,0.23 -0.69,0.47 -0.23,0.23 0,0 0,0 -0.23,0 -0.23,0.23 -0.47,0.23 -0.23,0 -0.46,0 -0.67,0.23 -0.23,0 0.44,0 0,0l-0.46 0 -0.47 0 -0.23 0 0.23 0c0,0 -0.69,-0.23 -0.92,-0.23 0,0 -0.47,-0.23 -0.23,0 0.23,0.23 -0.23,0 -0.23,-0.23 0,0 -0.21,0 -0.21,-0.23 0,-0.23 -0.23,0 -0.23,-0.23 0.23,0.23 0.23,0.23 0,0 -0.23,-0.23 -0.23,-0.23 -0.46,-0.46 -0.23,-0.23 -0.23,-0.23 0,0l-0.23 -0.23c0,-0.23 -0.23,-0.23 -0.23,-0.47l0 -0.23c0,-0.21 0,-0.21 0,0 -0.23,-0.21 -0.23,-0.67 -0.23,-0.9 0.47,-0.23 0.47,-0.23 0.23,-0.47l0 0.23 0 -0.23c0,-1.16 -0.92,-2.06 -2.06,-2.06 -1.16,0 -2.06,0.91 -2.06,2.06 0,3.22 2.06,5.75 5.05,6.88 2.97,0.92 5.96,0 8.02,-2.3 2.53,-3.22 2.09,-7.81 -0.9,-10.33 -2.99,-2.52 -7.81,-2.06 -10.34,0.92 -1.16,1.37 -1.83,2.99 -1.6,4.82 0,1.16 0.91,2.06 2.06,2.06 0.91,0 1.83,-0.91 1.83,-2.06z"/>
   <path class="fil1" d="M1321.34 250.48c2.93,0 5.29,2.36 5.29,5.29 0,2.92 -2.36,5.28 -5.29,5.28 -2.92,0 -5.28,-2.36 -5.28,-5.28 0,-2.92 2.36,-5.29 5.28,-5.29z"/>
   <path class="fil1" d="M1317.9 256l0 -0.69 0 0.23 0 -0.23 0 -0.23c0,-0.23 0,-0.23 0.23,-0.44 0,-0.23 0,0 0,0 0,-0.23 0.46,-0.69 0.46,-0.69 0.23,-0.47 -0.23,0.23 0,0l0.23 -0.23 0.44 -0.47c0,0 -0.21,0.23 0,0 0.23,0 0.23,-0.23 0.47,-0.23 0,0 0.23,0 0.23,-0.23 0,-0.23 0.23,0 0.23,-0.23 -0.23,0 -0.23,0.23 -0.23,0 0.23,0 0.47,-0.23 0.7,-0.23l0.46 0c-0.23,0 -0.46,0 0,0l0.67 0c0.23,0 0.23,0.23 0,0l0.47 0c0.23,0 0.47,0 0.69,0.23l-0.23 0c0,0 0.23,0 0.23,0.23 0,0 0.23,0 0.23,0.23l0.23 0.23c0.23,0 -0.47,-0.23 0,0 0.23,0.23 0.47,0.47 0.69,0.7 0.21,0.23 0,0 0,0l0.21 0.23c0,0 0.46,0.47 0.23,0.67 0,0 -0.23,-0.44 0,0 0,0.23 0,0.23 0.23,0.47l0 0.23 0 0.23 0 -0.23 0 0.69 0 0.47 0 -0.23c0,0.23 0,0.47 -0.23,0.69l0 0.21c0,0.23 0,0.23 0,0 0,0 -0.23,0.23 -0.23,0.46l-0.21 0.23c0,0.23 0,0.47 0,0 -0.23,0.23 -0.23,0.47 -0.46,0.47l-0.23 0.23c-0.23,0.23 0.47,-0.23 0,0 -0.23,0.23 -0.47,0.23 -0.69,0.46 -0.23,0.23 0,0 0,0 -0.23,0 -0.23,0.23 -0.47,0.23 -0.23,0 -0.47,0 -0.67,0.23 -0.23,0 0.44,0 0,0l-0.47 0 -0.46 0 -0.23 0 0.23 0c0,0 -0.7,-0.23 -0.92,-0.23 0,0 -0.47,-0.23 -0.23,0 0.23,0.23 -0.23,0 -0.23,-0.23 0,0 -0.21,0 -0.21,-0.23 0,-0.23 -0.23,0 -0.23,-0.23 0.23,0.23 0.23,0.23 0,0 -0.23,-0.23 -0.23,-0.23 -0.47,-0.47 -0.23,-0.23 -0.23,-0.23 0,0l-0.23 -0.23c0,-0.23 -0.23,-0.23 -0.23,-0.46l0 -0.23c0,-0.21 0,-0.21 0,0 -0.23,-0.21 -0.23,-0.67 -0.23,-0.91 0.23,0 0.23,-0.23 0.23,-0.47l0 0.23 0 -0.23c0,-1.16 -0.93,-2.06 -2.06,-2.06 -1.16,0 -2.06,0.9 -2.06,2.06 0,3.22 2.06,5.75 5.05,6.88 2.96,0.92 5.95,0 8.02,-2.3 2.52,-3.22 2.08,-7.8 -0.91,-10.33 -2.99,-2.52 -7.8,-2.06 -10.33,0.93 -1.16,1.37 -1.83,2.98 -1.6,4.81 0,1.16 0.91,2.06 2.06,2.06 0.9,0 1.83,-0.91 1.83,-2.06z"/>
   <path class="fil1" d="M1308.25 298.93c2.06,4.13 7.34,5.75 11.47,3.66 4.15,-2.06 5.75,-7.34 3.68,-11.47l-15.15 7.81z"/>
   <path class="fil1" d="M1306.42 300.08c2.76,5.29 9.18,7.12 14.22,4.36 2.76,-1.37 4.61,-3.9 5.29,-6.88 0.47,-2.52 0.23,-5.05 -0.91,-7.34 -0.69,-0.92 -1.85,-1.39 -2.76,-0.7l-13.32 6.9 -1.83 0.91c-0.92,0.47 -1.39,1.83 -0.69,2.76 0.69,0.93 1.83,1.39 2.76,0.7l13.32 -6.88 1.83 -0.92 -2.76 -0.69c0,0.23 0.23,0.23 0.23,0.46 0,-0.23 0,-0.23 0,0 0,0.23 0.23,0.47 0.23,0.7 0,0.23 0.23,0.46 0.23,0.67l0 0.23 0 0.7 0 0.46c0,0.47 -0.23,0.92 -0.23,1.37 0,0 -0.23,0.69 -0.23,0.46 0,0.23 -0.23,0.47 -0.46,0.7 0,0.23 -0.23,0.23 -0.23,0.46l-0.23 0.23c0.23,-0.23 0,-0.23 0,0 -0.23,0.23 -0.67,0.91 -0.9,0.91 -0.47,0.23 -0.7,0.46 -1.16,0.69 -0.23,0.23 -0.7,0.23 -1.14,0.47 -0.23,0 -0.47,0.23 -0.69,0.23 -0.23,0 -0.23,0 0,0l-0.47 0 -1.37 0 -0.47 0c-0.23,0 -0.47,-0.23 -0.69,-0.23 -0.23,0 -0.47,-0.23 -0.47,-0.23 0.47,0.23 -0.23,-0.23 -0.47,-0.23 -0.23,-0.23 -0.44,-0.23 -0.67,-0.46l-0.23 -0.23c0.23,0.23 0.23,0 0,0 -0.47,-0.23 -0.7,-0.67 -0.92,-0.91 0.23,0.23 -0.23,-0.47 -0.23,-0.47 -0.23,-0.23 -0.23,-0.46 -0.47,-0.69 -0.44,-0.92 -1.83,-1.37 -2.76,-0.69 -1.6,0.92 -2.06,2.29 -1.37,3.22z"/>
   <path class="fil1" d="M1407.21 233.04c-2.29,-0.7 -4.82,-0.7 -7.11,0 -5.05,1.6 -9.41,5.51 -11.72,10.33 -2.3,4.59 -3.9,9.41 -4.59,14.46 -0.67,2.3 0.69,4.36 2.76,5.05 2.29,0.69 4.36,-0.69 5.05,-2.76 0.46,-2.3 0.92,-4.59 1.62,-6.88 0.21,-0.92 0.67,-1.83 0.91,-2.76 0.23,-0.46 0.23,-0.69 0.47,-1.13 0.23,-0.47 -0.47,0.9 0,0.23 0,-0.23 0.23,-0.46 0.23,-0.69 0.7,-1.39 1.37,-2.52 2.06,-3.68l0.23 -0.23c0.23,-0.44 0.69,-0.44 -0.23,0.23 0.23,-0.23 0.23,-0.47 0.47,-0.67 0.46,-0.47 0.69,-0.92 1.13,-1.39 0.23,-0.23 0.47,-0.47 0.7,-0.47l0.23 -0.23c0.47,-0.47 -0.92,0.69 -0.46,0.23 0.46,-0.46 0.69,-0.46 1.16,-0.69 0.46,-0.21 0.69,-0.44 1.13,-0.44 0.47,-0.23 -1.13,0.44 -0.44,0.23 0.21,0 0.44,-0.23 0.67,-0.23 0.23,0 0.7,-0.23 0.92,-0.23l0.47 0c0.47,0 -1.39,0.23 -0.47,0l1.6 0 0.47 0c0.69,0 -0.92,-0.23 -0.69,0l0.46 0c0.23,0 0.23,0 0.47,0.23 2.29,0.67 4.36,-0.7 5.05,-2.76 0.92,-2.99 -0.47,-5.05 -2.53,-5.75z"/>
   <path class="fil1" d="M1471.72 233.5l-32.14 80.82c-4.59,11.26 -15.61,18.81 -27.78,18.6l-0.93 0 -7.11 -49.84c6.88,-5.95 15.62,-28.01 14.92,-40.17 -1.13,-18.58 -11.47,-22.27 -24.33,-21.34 -4.61,0.23 -9.43,3.89 -13.32,9.18 -9.18,13.09 -6.21,42.24 -6.21,42.24l-13.53 -43.84c-5.98,-15.15 -20.21,-25.26 -36.52,-25.49l-58.08 -1.16c0,0 -82.65,-8.48 -53.94,-103.08l139.58 0c36.52,0 70.49,18.84 89.78,50.05l11.47 18.37c16.08,0 28.94,13.09 28.94,28.94 0,3.2 -0.47,6.65 -1.62,9.64l-9.18 27.08z"/>
   <path class="fil1" d="M1467.82 232.35l-14.46 36.73c-5.75,14.48 -11.26,28.94 -17.22,43.17 -1.62,4.15 -4.15,7.8 -7.58,10.57 -2.99,2.52 -6.44,4.15 -10.1,5.05 -1.86,0.47 -3.92,0.7 -5.75,0.7 -1.62,-0.23 -3.22,0.23 -4.59,1.13l6.88 1.86 -6.21 -43.4 -0.9 -6.44 -1.16 3.91c3.45,-3.45 6.2,-7.58 8.04,-12.16 2.76,-5.51 4.82,-11.49 6.42,-17.45 2.52,-10.56 2.76,-23.89 -5.05,-32.39 -6.41,-7.11 -19.74,-8.94 -28.22,-4.82 -11.49,5.52 -15.39,18.14 -16.78,29.63 -0.91,8.04 -1.13,16.06 -0.23,24.1l8.04 -1.16 -7.34 -24.1c-2.53,-8.27 -4.36,-17.44 -8.48,-25.25 -7.81,-14 -22.29,-22.73 -38.35,-22.96 -8.73,-0.23 -17.44,-0.46 -26.41,-0.46l-29.61 -0.67 -1.62 0 0.46 0c-1.37,-0.23 -2.99,-0.47 -4.36,-0.7 -13.55,-2.52 -25.95,-8.96 -35.82,-18.6 -6.88,-6.88 -11.7,-15.62 -14,-24.79 -3.45,-13.09 -2.52,-27.32 0.23,-40.41 0.9,-4.36 2.06,-8.72 3.43,-13.09l-3.9 2.99 137.52 0c12.18,-0.23 24.11,1.83 35.59,5.75 18.14,6.41 33.99,17.68 46.16,32.6 6.88,8.72 11.93,18.82 18.14,28.02 2.06,3.22 6.19,2.06 9.64,2.98 3.9,0.91 7.58,2.76 10.57,5.49 5.95,5.51 9.18,13.32 8.27,21.6 -0.93,4.36 -2.09,8.71 -3.92,12.86l-5.98 16.52 -1.37 3.22c-1.83,5.05 6.21,7.12 7.81,2.3l8.73 -24.56c2.06,-4.82 2.96,-10.1 2.74,-15.39 -0.44,-7.81 -3.9,-15.15 -9.18,-20.9 -6.21,-6.42 -14.93,-10.1 -23.89,-10.1l3.45 2.06c-3.66,-6.19 -7.58,-12.16 -11.24,-18.35 -20.43,-33.06 -56.95,-53.04 -95.97,-52.13l-101.26 0c-11.72,0 -23.65,-0.47 -35.35,0l-0.47 0c-1.83,0 -3.45,1.16 -3.91,2.99 -7.58,25.49 -10.54,55.56 5.75,78.52 9.64,13.55 24.33,22.73 40.41,27.32 3.69,1.16 7.58,2.06 11.5,2.52 5.26,0.47 10.77,0.23 16.05,0.47l34.43 0.69c2.52,0 5.28,0 7.8,0.23 7.81,0.21 15.39,2.97 21.6,7.81 5.05,3.9 8.94,9.18 11.24,15.36 1.16,3.45 2.31,7.14 3.22,10.8l9.4 30.54 0.7 2.06c1.39,4.15 8.5,3.69 8.04,-1.13 -1.16,-11.03 -1.16,-23.19 2.29,-33.99 1.16,-3.66 3.22,-7.12 6.21,-9.64 2.76,-2.76 6.65,-4.13 10.77,-3.9 5.98,0 11.49,2.06 14.25,7.79 3.43,7.36 2.3,15.85 0.23,23.42 -1.85,7.81 -5.28,14.92 -9.87,21.59 -1.86,2.3 -3.45,3.43 -2.99,6.65 0.23,1.16 0.46,2.53 0.46,3.69l2.3 15.59 4.36 29.84c0.47,3.22 4.82,3.68 6.88,1.86l-2.99 1.13c14.25,0.47 27.34,-8.25 32.6,-21.57 1.62,-4.12 3.45,-8.5 5.05,-12.63l21.36 -53.73 5.75 -14.46c0.67,-2.29 -0.7,-4.36 -2.76,-5.05 -2.76,-1.16 -5.05,0 -5.51,2.29z"/>
   <path class="fil5" d="M1990.6 569.85l54.87 -46.15c7.58,-4.59 14.25,-10.11 19.97,-16.75 13.09,-14.93 27.78,-25.95 47.31,-29.17l7.58 -15.36c0,0 -64.76,-79.68 -74.16,-78.08l-26.63 -2.3c2.52,-6.42 1.13,-13.76 -3.68,-18.82 -6.65,-7.11 -17.92,-7.34 -25.03,-0.46 -0.92,0.69 -1.6,1.6 -2.3,2.52l-12.39 17.68c-7.81,11.03 -12.86,23.66 -15.39,36.73l-2.76 15.85c-3.22,17.68 -13.32,33.06 -28.47,42.7l-4.13 2.76 65.2 88.85z"/>
   <path class="fil1" d="M1993.58 572.83l41.34 -34.66c5.05,-4.59 10.54,-8.97 16.06,-12.86 8.5,-5.75 14.92,-12.86 22.06,-20.21 6.19,-6.67 13.53,-12.4 21.57,-16.78 4.36,-2.29 9.18,-4.12 14,-5.28 2.52,-0.67 6.2,-0.44 7.81,-2.97 0.23,-0.46 0.46,-1.16 0.69,-1.62l6.88 -13.76c0.92,-1.62 0.69,-3.69 -0.67,-5.05 -10.8,-13.32 -21.83,-26.41 -33.06,-39.27 -8.04,-9.18 -16.08,-18.12 -24.79,-26.85 -3.22,-3.22 -6.68,-6.21 -10.11,-8.95 -2.31,-2.31 -5.28,-3.68 -8.5,-4.15l-0.92 0c-1.6,0 0.92,0.23 0.23,0 -0.7,-0.23 -1.6,-0.23 -2.3,-0.23l-8.94 -0.67 -14.92 -1.39 3.89 5.28c4.13,-11.49 -1.83,-24.12 -13.32,-28.01 -3.89,-1.37 -8.02,-1.6 -11.93,-0.7 -10.57,2.3 -15.85,13.09 -21.57,21.36 -7.81,11.24 -14.48,22.96 -18.14,36.49 -2.52,9.43 -2.99,19.53 -5.75,28.94 -2.52,8.73 -6.88,16.52 -12.63,23.19 -4.81,5.28 -10.33,9.63 -16.52,13.32 -4.38,2.96 -0.23,9.87 4.13,7.11 11.23,-7.34 21.12,-16.08 27.54,-28.24 5.29,-10.11 7.12,-20.67 8.95,-31.7 2.08,-14 7.36,-27.55 15.39,-39.25 4.15,-5.98 8.04,-11.94 12.39,-17.68 4.38,-6.2 12.86,-7.8 19.07,-3.45 5.28,3.68 7.34,10.8 4.59,16.54 -0.7,2.29 0.69,4.59 2.99,5.05 0.23,0 0.69,0.23 0.92,0.23l12.16 1.14c4.59,0.46 9.41,1.16 14.23,1.16l0.23 0 0.47 0c0.69,0 -1.16,-0.23 -0.47,0 0.23,0 0.47,0.23 0.7,0.23 -1.39,-0.69 0.23,0.23 0.67,0.47 0.69,0.44 1.16,0.67 1.85,1.14 0.23,0.23 0.67,0.46 0.91,0.69l0.23 0.23c0.92,0.67 1.62,1.37 2.52,2.06 1.62,1.37 3.22,2.99 4.82,4.59 17,16.31 32.39,34.66 47.54,52.8 4.13,4.82 8.25,9.87 12.16,14.69l-0.69 -5.05 -7.58 15.39 2.52 -1.83c-16.08,2.76 -30.07,11.24 -41.78,22.5 -6.2,5.97 -11.26,12.62 -17.91,17.91 -3.45,2.76 -7.34,4.82 -10.57,7.58l-40.17 32.83 -14.02 11.7c-4.12,3.45 1.62,9.43 5.75,5.98z"/>
   <path class="fil5" d="M2072.33 456.2c27.55,-7.81 56.26,-11.26 84.94,-10.57 29.17,3.91 27.11,25.25 -1.6,28.24 -28.71,2.99 -40.41,-1.6 -72.54,17.45l-10.8 -35.13z"/>
   <path class="fil1" d="M2073.48 460.1c7.58,-2.29 15.15,-4.12 22.96,-5.51 18.37,-3.43 36.96,-5.29 55.56,-5.05 6.65,0 15.15,0.92 20.44,5.98 0.69,0.7 1.37,1.37 1.6,2.3 0,0.23 0.23,0.46 0.23,0.69 0.23,0.47 0,0 0,0.91 0,0.46 0,1.16 -0.23,1.62 -0.47,0.91 -0.91,1.6 -1.6,2.3 -4.59,4.59 -11.93,5.95 -18.14,6.65 -7.34,0.69 -14.92,0.92 -22.26,1.39 -7.81,0.44 -15.39,1.6 -22.73,3.66 -9.87,2.99 -19.28,7.35 -28.02,12.86 -1.83,1.16 -2.52,3.68 -1.39,5.75 1.16,1.83 3.45,2.52 5.52,1.37 8.04,-5.05 17,-8.94 25.95,-11.93 6.88,-1.83 13.79,-2.99 20.9,-3.22 8.04,-0.46 16.06,-0.67 24.1,-1.6 7.58,-0.92 15.85,-2.76 21.59,-8.27 4.36,-3.9 5.73,-9.87 3.43,-15.15 -2.76,-5.98 -9.41,-9.41 -15.39,-11.03 -10.1,-2.96 -21.57,-2.06 -31.9,-1.37 -10.1,0.46 -20.2,1.6 -30.31,3.22 -11.02,1.6 -21.8,3.89 -32.36,7.11 -5.05,0.92 -2.99,8.94 2.06,7.34z"/>
   <path class="fil5" d="M2071.18 424.75c0,0 45,-18.61 90.92,-25.49 29.38,-1.6 31.46,19.74 3.9,28.01 -27.55,8.27 -52.57,18.14 -98.7,35.59l3.89 -38.12z"/>
   <path class="fil1" d="M2072.33 428.65c9.64,-4.13 19.74,-7.34 29.84,-10.57 10.11,-3.22 20.21,-6.19 30.54,-8.72 5.51,-1.38 11.26,-2.76 16.98,-3.91 5.51,-1.37 11.26,-2.29 17.01,-2.29 3.43,0 6.88,0.69 10.33,2.06 1.13,0.47 2.06,1.16 2.96,1.86 0.23,0.21 0.47,0.44 0.7,0.91 0.23,0.23 0.92,1.62 0.69,0.92 0.69,1.6 0.23,3.43 -0.69,4.82 -1.83,2.52 -4.13,4.59 -6.65,5.98 -6.68,3.89 -14.69,5.49 -22.04,7.79 -7.37,2.31 -14.71,4.84 -21.82,7.58 -21.34,7.58 -42.47,15.85 -63.83,23.89 -4.82,1.83 -2.76,9.87 2.3,7.81 20.43,-7.81 40.87,-15.62 61.3,-22.96 7.81,-2.76 15.39,-5.51 23.19,-8.04 8.04,-2.76 16.75,-4.59 24.33,-8.71 5.98,-3.22 12.18,-8.97 12.4,-16.31 0.23,-6.88 -5.26,-11.7 -11.47,-14 -10.1,-3.69 -21.13,-1.16 -31.23,0.9 -11.93,2.3 -23.64,5.52 -35.36,8.97 -14,3.9 -27.78,8.72 -41.31,14.23 -2.06,0.69 -3.45,2.99 -2.76,5.05 0.23,2.06 2.29,3.22 4.59,2.76z"/>
   <path class="fil5" d="M2048.45 403.63c0,0 51.67,-37.42 94.81,-54.63 28.24,-8.27 35.14,11.93 10.1,26.39 -25.02,14.46 -47.06,29.61 -88.16,57.18l-16.76 -28.94z"/>
   <path class="fil1" d="M2050.52 407.07c24.79,-18.14 51.44,-34.2 79.21,-47.75 8.72,-4.12 18.36,-9.41 28.22,-8.27 1.16,0.23 2.52,0.46 3.68,0.92 0.47,0.23 1.6,0.9 1.6,0.9 0.46,0.23 0.69,0.7 1.16,1.16 0.46,0.7 0.23,0.47 0.46,0.93 0,0.23 0.23,0.67 0.23,0.9 0.23,0.7 0,-0.46 0,0.23 0,1.39 -0.23,2.53 -0.69,3.69 -3.22,7.58 -12.16,11.7 -18.84,15.61 -7.11,4.13 -14,8.48 -20.87,13.07 -20.44,13.09 -40.64,26.88 -60.84,40.64 -4.36,2.99 -0.23,10.1 4.12,7.11 19.28,-13.07 38.58,-26.16 58.09,-38.78 7.34,-4.82 14.92,-9.43 22.5,-14.02 8.04,-4.82 17.22,-9.41 22.27,-17.91 3.68,-6.42 3.68,-14.46 -2.76,-19.05 -7.34,-5.28 -19.04,-3.91 -26.85,-0.69 -20.9,8.97 -40.87,19.53 -60.15,31.7 -11.7,7.11 -23.19,14.69 -34.23,22.73 -4.59,2.96 -0.44,10.1 3.69,6.88z"/>
   <path class="fil5" d="M2017.69 388.24c0,0 53.5,-55.33 93.21,-79.65 26.41,-12.86 36.52,5.95 14.46,24.33 -22.27,18.37 -41.55,37.18 -77.14,71.18l-30.53 -15.85z"/>
   <path class="fil1" d="M2020.68 391.23c20.67,-21.57 42.7,-41.55 65.9,-60.38 7.8,-6.44 16.08,-12.16 24.56,-17.68 4.36,-2.76 9.41,-4.36 14.46,-4.82 1.62,-0.23 3.22,0 4.82,0.7 0.92,0.44 1.62,0.91 2.08,1.83 1.14,2.06 0.67,5.28 -0.69,7.81 -2.76,4.81 -6.21,8.71 -10.57,12.16 -6.65,5.51 -13.32,11.26 -19.74,17.21 -19.28,17.22 -37.88,35.36 -56.49,53.27 -3.89,3.68 2.08,9.41 5.75,5.75 17.91,-17 35.59,-34.22 53.97,-50.97 6.88,-6.42 13.99,-12.63 21.34,-18.61 7.34,-6.19 16.31,-14.69 15.38,-25.25 -0.92,-9.18 -9.87,-12.86 -18.14,-11.7 -11.47,1.37 -20.65,8.27 -29.61,14.92 -17.68,13.32 -34.66,27.55 -50.74,42.7 -9.4,8.96 -18.81,17.91 -28.01,27.32 -3.66,3.68 2.06,9.63 5.75,5.75z"/>
   <path class="fil5" d="M1925.86 481.23l4.12 -2.76c14.92,-9.64 25.25,-25.25 28.47,-42.7l2.76 -15.85c2.3,-13.3 7.58,-25.72 15.39,-36.73l12.4 -17.68c5.51,-8.04 16.52,-9.87 24.56,-4.36 0.92,0.67 1.85,1.37 2.52,2.3 4.82,5.05 6.21,12.39 3.69,18.81l-10.8 26.88c0,0 21.57,33.97 23.65,71.39l-106.76 0.69z"/>
   <path class="fil1" d="M1927.92 484.9c9.41,-5.75 17.68,-13.33 24.12,-22.27 5.72,-8.97 9.41,-18.83 11.01,-29.4 1.38,-9.18 3.45,-18.35 6.2,-27.32 3.66,-9.41 8.48,-18.14 14.69,-26.16l6.88 -9.87c1.6,-2.52 3.69,-4.84 6.44,-6.44 10.77,-5.52 22.94,5.28 19.04,16.77 -2.06,5.96 -4.59,11.7 -6.88,17.45l-3.69 8.94c-0.67,1.6 -0.67,3.69 0.47,5.29 11.93,21.13 21.13,44.07 22.5,68.42 0.23,5.28 8.51,5.28 8.27,0 -1.39,-17.68 -5.52,-34.9 -12.86,-50.98 -3.22,-7.81 -6.88,-15.15 -11.26,-22.26l0.46 3.22c3.45,-8.97 7.12,-17.68 10.8,-26.65 4.36,-11.23 -1.16,-23.86 -12.4,-28.24 -6.65,-2.52 -14.01,-1.83 -19.97,2.06 -4.82,3.22 -7.81,8.5 -11.03,13.32 -3.22,4.59 -6.42,8.97 -9.41,13.79 -6.21,9.63 -10.57,20.43 -12.86,31.67 -1.16,5.51 -2.06,11.26 -2.99,16.78 -1.6,9.41 -5.05,18.35 -10.34,26.39 -5.51,7.58 -12.62,13.79 -20.67,18.61 -5.05,2.52 -0.9,9.64 3.45,6.88z"/>
   <path class="fil0" d="M1322.72 522.79l-45.23 -2.99 -11.49 102.41 8.5 -1.85c23.42,-5.29 40.41,-22.96 42.7,-44.3l5.51 -53.27z"/>
   <path class="fil1" d="M1322.72 518.65l-45.23 -2.99c-2.3,0 -4.13,1.83 -4.13,4.15l-3.91 34.66 -6.19 55.1 -1.39 12.63c-0.23,2.76 2.76,4.59 5.29,3.89 10.1,-2.29 19.74,-4.59 28.7,-10.1 11.01,-6.88 19.51,-17.44 23.64,-29.84 1.62,-6.19 2.53,-12.4 2.99,-18.82l2.76 -26.42 1.83 -18.14c-0.23,-2.3 -2.06,-4.13 -4.36,-4.13 -2.3,0 -4.13,1.83 -4.13,4.13l-4.14 39.73c-0.47,4.82 -0.91,9.41 -1.37,14.23 -1.83,11.7 -8.04,22.5 -17.68,29.61 -8.97,6.9 -19.51,9.64 -30.31,11.96l5.28 3.9 3.9 -34.67 6.21 -55.09 1.37 -12.63 -4.12 4.13 45.23 2.98c5.05,0.23 5.05,-8.04 -0.23,-8.27z"/>
  </g>
 </g>
</svg>
