<?xml version="1.0" encoding="UTF-8"?>
<!DOCTYPE svg PUBLIC "-//W3C//DTD SVG 1.1//EN" "http://www.w3.org/Graphics/SVG/1.1/DTD/svg11.dtd">
<!-- Creator: CorelDRAW 2021 (64-Bit) -->
<svg xmlns="http://www.w3.org/2000/svg" xml:space="preserve" width="32.8365mm" height="33.9949mm" version="1.1" style="shape-rendering:geometricPrecision; text-rendering:geometricPrecision; image-rendering:optimizeQuality; fill-rule:evenodd; clip-rule:evenodd"
viewBox="0 0 1605.77 1662.42"
 xmlns:xlink="http://www.w3.org/1999/xlink"
 xmlns:xodm="http://www.corel.com/coreldraw/odm/2003">
 <defs>
  <style type="text/css">
   <![CDATA[
    .fil1 {fill:black;fill-rule:nonzero}
    .fil4 {fill:#389B48;fill-rule:nonzero}
    .fil7 {fill:#458DC9;fill-rule:nonzero}
    .fil5 {fill:#B57F31;fill-rule:nonzero}
    .fil2 {fill:#D34AA2;fill-rule:nonzero}
    .fil3 {fill:#FC7272;fill-rule:nonzero}
    .fil8 {fill:#FC7F3A;fill-rule:nonzero}
    .fil6 {fill:#FFC41F;fill-rule:nonzero}
    .fil0 {fill:white;fill-rule:nonzero}
   ]]>
  </style>
 </defs>
 <g id="Layer_x0020_1">
  <metadata id="CorelCorpID_0Corel-Layer"/>
  <g id="_1841035031056">
   <path class="fil0" d="M128 893.22l460.91 -665.32c16.2,-23.34 47.39,-30.49 72.15,-16.72l706.61 394.51 150.04 644.07 -1233.75 312.62 -155.95 -669.15z"/>
   <path class="fil1" d="M285 1566.2c0.69,-0.17 1.4,-0.34 2.09,-0.52 16.04,-3.84 32.07,-8.19 48.1,-12.2l101.42 -25.79 140.98 -35.73 166.75 -42.35 178.97 -45.3 177.92 -45.13 161.89 -40.96 132.61 -33.63 90.09 -22.82 32.94 -8.37c1.91,-0.71 3.14,-2.62 2.61,-4.54l-4.87 -20.91 -33.47 -143.76 -48.61 -208.76 -43.91 -188.37 -13.96 -60.12 -3.83 -16.39c-0.34,-1.91 -0.69,-4 -1.39,-5.92 -1.04,-2.26 -3.12,-2.96 -5.23,-4.19l-11.66 -6.44 -43.75 -24.39 -149.86 -83.65 -188.89 -105.77 -177.06 -98.8 -114.48 -63.97c-5.75,-3.29 -11.51,-6.61 -17.42,-9.75 -28.22,-15.16 -60.64,-5.57 -78.58,20.03 -17.61,25.44 -35.21,50.89 -52.81,76.34l-105.25 151.95 -124.25 179.49 -110.13 158.92 -62.38 90.43c-2.97,4.19 -5.57,6.45 -4.37,11.68 2.45,11.34 5.25,22.65 7.85,33.99l36.76 158.04 49.15 210.68 43.04 185.25 18.46 78.93c1.05,4.53 8.02,2.62 6.97,-1.92l-4.69 -19.85 -32.25 -138.36 -48.1 -206.16 -45.3 -194.65 -24.74 -106.29c0,-1.22 -0.36,-2.26 -0.71,-3.31 -1.03,-1.4 1.06,2.26 -0.34,2.09 0.69,0.17 3.49,-4.89 3.83,-5.4l22.13 -31.9 88.35 -127.54 120.07 -173.23 119.02 -171.81 85.38 -123.38 19.7 -28.4c15.85,-23.01 44.08,-32.59 69.7,-18.82 21.79,11.85 43.39,24.22 65.18,36.42l151.78 84.69 188.19 105.08 174.61 97.4 110.82 61.86 12.03 6.63c0.88,0.52 1.92,1.22 2.97,1.57 3.31,0.86 -4.54,0.52 -0.71,-1.57 -0.86,0.52 5.06,21.6 5.42,22.99l33.8 145.16 48.44 208.42 43.39 186.28 18.82 81.2 2.62 -4.53 -2.09 0.53c-5.59,0.69 -11.16,2.78 -16.56,4.18l-31.54 8.02 -101.42 25.79 -140.98 35.73 -166.75 42.33 -178.97 45.3 -177.92 45.13 -161.89 40.96 -132.61 33.64 -90.09 22.82 -32.94 8.37c-4.54,1.04 -2.62,8.01 1.92,7.32z"/>
   <path class="fil2" d="M733.54 776.64c0,0 -90.09,-158.4 -47.05,-174.43 43.04,-16.03 76.15,17.94 82.24,47.92 57.35,8.18 67.63,53.32 67.63,53.32l-102.82 73.18z"/>
   <path class="fil1" d="M832.87 704.5c1.05,4.54 8.2,2.62 6.8,-1.91 -0.52,-1.92 -1.05,-3.83 -1.91,-5.75 -4.2,-10.46 -10.63,-19.87 -18.82,-27.54 -13.59,-12.73 -31.02,-19.87 -49.32,-22.67l2.62 2.62c-0.71,-3.31 -1.57,-6.45 -2.79,-9.58 -5.4,-14.13 -14.97,-26.32 -27.71,-34.86 -13.94,-9.23 -31.02,-12.37 -47.39,-8.54 -8.54,1.93 -16.56,4.89 -20.22,13.42 -2.97,6.97 -3.14,14.99 -2.44,22.48 1.92,21.08 9.4,41.47 17.25,60.81 8.18,20.22 17.42,39.9 27.35,59.26 4.53,8.89 9.24,17.77 14.13,26.48 2.26,4.01 8.54,0.35 6.26,-3.66 0,0 -0.17,-0.17 -0.17,-0.34 -5.4,-10.11 -10.8,-20.05 -16.03,-30.33 -9.59,-18.99 -18.48,-38.16 -26.14,-57.68 -3.83,-10.11 -7.5,-20.22 -10.46,-30.67 -1.39,-4.71 -2.62,-9.42 -3.48,-14.28 -0.36,-2.28 -0.71,-4.36 -1.05,-6.45 0,-0.69 0.17,0.34 0,-0.52 -0.18,-0.36 -0.18,-0.53 -0.18,-0.88 0,-0.52 -0.17,-0.86 -0.17,-1.4 0,-1.03 -0.17,-1.91 -0.17,-2.95 -0.18,-1.92 -0.18,-3.85 -0.18,-5.76 0,-0.87 0.18,-1.92 0.18,-2.78 0.17,-0.36 0.17,-0.88 0.17,-1.23 0,-0.52 0.17,-1.4 0,-0.52 0.17,-1.57 0.52,-3.14 1.04,-4.71 0.19,-0.69 0.36,-1.39 0.7,-2.09 -0.52,1.04 0.35,-0.88 0.52,-1.22 0.35,-0.52 0.71,-1.22 1.05,-1.74 0.69,-0.88 -0.17,0.17 0.18,-0.18 0.17,-0.17 0.51,-0.51 0.69,-0.7 0.36,-0.52 0.88,-0.87 1.39,-1.38 0.52,-0.35 -0.51,0.51 -0.17,0.17 0,-0.17 0.17,-0.17 0.35,-0.35 0.34,-0.17 0.52,-0.36 0.88,-0.53 0.69,-0.35 1.21,-0.52 1.91,-0.86 -1.05,0.51 0.69,-0.18 1.04,-0.35 0.88,-0.36 1.93,-0.71 2.97,-1.05 4.19,-1.23 8.37,-2.09 12.73,-2.44 29.26,-2.1 55.24,21.08 60.99,49.13 0.34,1.4 1.4,2.26 2.61,2.63 10.45,1.38 20.73,4.69 30.32,9.58 11.51,6.1 21.26,15.34 28.06,26.48 1.22,1.93 2.26,4.02 3.31,6.11 0.17,0.51 0.52,1.05 0.71,1.57 0.17,0.17 0.86,1.57 0.34,0.51 0.35,0.71 0.52,1.4 0.87,2.09 0.51,1.57 1.05,2.97 1.39,4.54z"/>
   <path class="fil3" d="M741.9 720.53l94.63 -23.36 234.55 -219.39 -46.35 -256.15 101.42 -16.73 43.9 248.83c9.59,53.67 3.66,85.4 -52.79,142.04l-252.51 254.58 -122.85 -129.82z"/>
   <path class="fil1" d="M862.14 847.74c-3.31,3.31 1.91,8.37 5.23,4.88l1.57 -1.57 33.81 -33.99 62.02 -62.56 70.4 -70.92 58.72 -59.07c8.71,-8.71 17.25,-17.42 25.96,-26.15 16.73,-16.89 33.3,-34.85 44.44,-55.93 9.23,-17.25 13.77,-36.42 13.25,-55.93 -0.34,-19.7 -4.71,-39.38 -8.19,-58.91l-15.16 -85.9 -16.54 -93.4 -7.85 -44.27c-0.69,-1.92 -2.6,-3.14 -4.53,-2.61l-12.71 2.09 -88.86 14.63c-1.93,0.71 -3.14,2.63 -2.62,4.54l0 0.35c1.74,10.46 3.83,20.73 5.75,31.19l11.68 63.95 13.42 73.89 11.14 60.99 4.54 25.44 0.87 -3.49c-0.18,0.35 -0.52,0.52 -0.69,0.69 -5.22,4.19 -10.11,9.42 -14.99,14.13l-30.66 28.57 -84.86 79.29 -77.72 72.66 -21.61 20.22c-1.57,1.04 -2.8,2.26 -4.01,3.66 -0.17,0.34 2.61,-0.86 0.52,-0.52 -1.91,0.35 -3.83,0.86 -5.74,1.38l-87.83 21.79c-4.54,1.05 -2.63,8.02 1.91,6.97l7.14 -1.74 81.55 -20.22c2.45,-0.52 5.57,-0.86 7.67,-2.43 0.69,-0.52 1.38,-1.23 2.09,-1.92l13.59 -12.71 55.41 -51.75 71.44 -66.92 62.74 -58.73 20.38 -18.99c2.79,-2.62 6.11,-5.23 8.71,-8.2 2.28,-2.6 0.19,-8.19 -0.34,-11.33l-4.89 -27.17 -16.03 -88.17 -16.54 -90.97 -7.68 -41.82 -2.61 4.52 12.71 -2.09 88.86 -14.63 -4.52 -2.62 0.51 2.97 10.8 60.99 17.25 96.2 13.42 76.15c4.19,23.17 8.71,46.7 3.49,70.06 -7.49,33.63 -32.42,60.11 -55.93,83.81l-36.42 36.59 -63.26 63.61 -69.89 70.58 -56.79 57.15 -23.53 23.71z"/>
   <path class="fil4" d="M888.81 875.27l166.06 -136.79c-10.8,-9.59 -75.09,-48.27 -86.6,-61.52 -19.51,-22.65 -34.68,-45.13 -43.04,-62.73l-88.86 83.12 -94.63 23.34 147.07 154.57z"/>
   <path class="fil1" d="M742.43 724.37c0.34,0 0.52,-0.18 0.88,-0.18 15.32,-3.65 30.48,-7.49 45.65,-11.33l47.05 -11.68c2.62,-0.69 4.36,-2.78 6.28,-4.52l15.16 -14.28 44.96 -42.01 25.26 -23.69 -5.75 -0.7c8.2,17.08 19.16,32.76 30.67,47.75 4.52,6.26 9.4,12.02 14.63,17.59 2.97,2.79 6.11,5.4 9.42,7.85 8.89,6.8 18.11,13.06 27.36,19.16 9.92,6.61 19.86,13.06 29.8,19.69 3.83,2.62 7.83,5.22 11.68,8.02 1.55,1.04 2.95,2.09 4.35,3.14 0.34,0.17 1.4,1.04 0.53,0.35 0.17,0.17 0.52,0.34 0.69,0.51 0.52,0.35 1.04,0.69 1.4,1.06l0 -5.06c-0.17,0 -0.17,0.17 -0.36,0.17 -2.26,1.75 -4.35,3.49 -6.44,5.4l-13.77 11.32 -41.47 34.16 -47.92 39.56 -39.73 32.59 -16.56 13.59 5.06 0c0,-0.18 -0.18,-0.18 -0.18,-0.35 -1.74,-2.27 -3.83,-4.19 -5.75,-6.11l-12.02 -12.71 -36.42 -38.69 -42.52 -44.6 -35.19 -36.95 -14.65 -15.34c-3.14,-3.49 -8.2,1.74 -5.06,5.05 0,0.17 0.17,0.17 0.17,0.35 5.77,6.28 11.85,12.39 17.79,18.65l36.59 38.53 42.53 44.59 35.19 36.96 14.65 15.34c1.38,1.38 3.66,1.38 5.04,0 0.17,0 0.17,-0.17 0.36,-0.17 6.8,-5.42 13.4,-10.99 20.2,-16.56l41.47 -34.16 47.92 -39.56 39.73 -32.59 16.56 -13.58c1.4,-1.39 1.4,-3.67 0,-5.05 -6.63,-5.94 -14.65,-10.82 -22.13,-15.68 -10.11,-6.8 -20.22,-13.25 -30.16,-20.04 -8.71,-5.75 -18.11,-12.2 -25.96,-18.3 -9.92,-7.83 -17.42,-17.94 -24.91,-28.05 -9.94,-12.89 -18.65,-26.83 -25.96,-41.47 -0.18,-0.35 -0.35,-0.52 -0.52,-0.69 -1.4,-1.4 -3.85,-1.4 -5.23,0l-10.99 10.28 -47.93 44.77 -30.14 28.06 1.57 -0.88 -11.68 2.96 -50.87 12.54 -31.9 7.85c-4.54,1.04 -2.61,8.01 1.57,7.14z"/>
   <path class="fil1" d="M1034.66 679.05l-32.41 32.59c25.96,30.31 45.13,32.94 52.63,26.48 7.66,-6.62 -1.05,-30.31 -20.22,-59.07z"/>
   <path class="fil1" d="M1052.61 735.52c-0.35,0.34 0.51,-0.35 -0.18,0.17 -0.34,0 -0.51,0.17 -0.69,0.35 -0.36,0 -0.53,0.17 -0.88,0.36 -0.69,0.34 0.35,-0.19 -0.17,0 -0.52,0.17 -1.05,0.34 -1.57,0.51 -0.35,0 -0.52,0.18 -0.86,0.18 -0.88,0.17 0.51,0 -0.36,0 -1.21,0.17 -2.44,0.17 -3.66,0l-0.69 0 0.17 0c-0.35,0 -0.88,-0.18 -1.23,-0.18 -0.69,-0.17 -1.39,-0.34 -2.09,-0.51 -3.48,-1.06 -6.79,-2.45 -9.76,-4.37 -9.92,-5.92 -18.11,-14.28 -25.62,-22.99l0 5.05 4.02 -4.02 28.4 -28.57 -5.75 -0.7c7.49,11.33 14.8,23.36 19.51,36.24 1.57,4.02 2.62,8.2 2.97,12.37l0 2.45c-0.18,0.69 0,-0.17 -0.18,0.69 0,0.36 -0.17,0.53 -0.17,0.88 -0.17,0.34 -0.53,1.4 -0.17,0.52 0,0.34 -0.17,0.51 -0.36,0.88 -0.18,0.17 -0.87,0.86 -0.18,0.17 -0.17,0.17 -0.51,0.52 -0.69,0.69 -3.48,2.97 1.57,8.2 5.06,5.06 6.45,-5.92 3.49,-17.08 1.22,-23.71 -4.88,-14.11 -12.73,-27.17 -20.93,-39.56 -0.17,-0.34 -0.34,-0.52 -0.52,-0.69 -1.39,-1.57 -3.83,-1.57 -5.22,-0.17l-4.01 4 -28.41 28.59c-1.38,1.4 -1.38,3.66 0,5.05 5.05,6.09 10.82,11.85 16.91,16.91 10.11,8.18 28.59,20.03 40.96,9.58 3.49,-2.97 -1.57,-8.2 -4.88,-5.23z"/>
   <path class="fil5" d="M925.22 614.06c8.37,17.6 23.53,40.08 43.04,62.73 11.51,13.25 37.47,39.56 48.44,49.32l32.42 -32.59 82.6 -83.11c56.45,-56.64 88.52,-102.46 67.95,-168.86l-73.54 -236.47 -3.12 -33.45 -98.28 50.18 46.34 255.98 -120.57 112.74 -25.27 23.53z"/>
   <path class="fil1" d="M952.76 592.8l1.4 -1.22 26.83 -25.09 43.92 -41.13 37.99 -35.56 9.4 -8.71c1.4,-0.87 2.11,-2.44 2.11,-4.01 -0.19,-0.51 -0.19,-1.05 -0.37,-1.57l-4.52 -25.27 -8.89 -49.13 -10.99 -60.3 -10.63 -58.38 -8.02 -44.27 -3.12 -17.59 -1.74 4.02 12.2 -6.28 52.96 -27.02 33.11 -16.89 -5.4 -3.14 1.05 10.46 1.74 17.94c0.18,2.09 0.35,4.01 0.69,6.11 0.71,3.14 1.92,6.44 2.97,9.58l15.85 51.23 22.31 71.8 20.73 66.73 11.16 35.73c3.83,11.51 5.92,23.53 6.43,35.73 0.37,17.25 -3.12,34.31 -10.45,50.01 -14.46,31.71 -39.37,57.5 -63.61,81.89l-41.28 41.65 -39.56 39.9c-10.99,11.16 -21.96,22.13 -32.94,33.29l5.06 0c-6.28,-5.59 -12.39,-11.51 -18.3,-17.44 -28.06,-27.71 -55.42,-57.85 -72.66,-93.75l-0.52 4.36 25.25 -23.53c3.49,-3.14 -1.57,-8.19 -5.05,-5.05l-25.09 23.7c-1.05,1.22 -1.39,2.97 -0.53,4.35 5.06,10.28 10.99,20.04 17.42,29.45 11.68,17.08 24.93,33.29 39.21,48.27 11.34,12.02 23.01,24.05 35.38,35.04 1.38,1.38 3.66,1.38 5.06,0l5.92 -5.94c10.8,-10.8 21.42,-21.43 32.07,-32.23l48.1 -48.44c12.89,-13.08 25.96,-25.96 38.68,-39.21 26.31,-27.36 53.49,-58.72 62.38,-96.71 3.83,-17.6 3.83,-35.73 -0.17,-53.33 -1.23,-5.74 -2.97,-11.51 -4.71,-17.08l-13.77 -44.44 -21.77 -70.21 -21.79 -70.06 -13.42 -43.21c-0.17,-1.23 -0.51,-2.26 -1.03,-3.49 -0.36,-0.7 0,0 0,0.52 0,-1.4 -0.17,-2.78 -0.36,-4.18l-2.78 -29.1c0,-0.69 -0.18,-1.22 -0.52,-1.74 -1.05,-1.75 -3.31,-2.44 -5.06,-1.4l-12.2 6.28 -52.98 27 -33.1 16.91c-1.4,0.71 -2.11,2.45 -1.75,4.02l0 0.52c1.75,10.46 3.66,20.73 5.57,31.19l11.68 63.95 13.4 73.72 11.16 61.16 4.71 25.44 0.86 -3.48 -14.8 13.94 -64.83 60.47 -40.96 38.33c-3.31,3.31 1.74,8.37 4.88,4.88z"/>
   <path class="fil5" d="M1125.62 205.08c12.03,-14.82 4.37,-41.47 1.05,-50.87 -0.88,-2.45 -1.39,-4.89 -1.39,-7.34 -2.45,-63.95 -55.24,-56.98 -83.48,-50.01 -28.92,7.14 -14.63,48.44 -14.63,48.44 0,0 -20.39,-20.54 -33.11,-18.46 -12.73,2.08 1.75,29.79 1.75,29.79 8.37,16.03 14.8,29.97 19.34,40.78 5.92,13.94 10.28,28.39 12.91,43.21l3.83 21.77 93.75 -57.33z"/>
   <path class="fil1" d="M1028.38 263.28c0.52,1.92 2.63,3.14 4.54,2.97 1.92,-0.71 3.12,-2.62 2.61,-4.54 -1.75,-9.77 -3.32,-19.51 -5.4,-29.1 -4.01,-18.99 -11.34,-36.76 -19.51,-54.19 -3.83,-8.02 -7.68,-15.68 -11.68,-23.53 -1.57,-3.14 -2.96,-6.26 -4,-9.4 -0.88,-2.45 -1.57,-5.05 -2.1,-7.67 -0.35,-1.04 -0.35,-2.09 -0.35,-3.14l0 -1.38c-0.17,0.87 0.17,-0.7 0.17,-0.88 0,-0.17 0.36,-0.86 0,-0.17 0.18,-0.17 0.18,-0.34 0.36,-0.52 0,0 0.52,-0.88 0.18,-0.34 -0.18,0.52 0.34,-0.19 0.34,-0.19 -0.7,0.36 0.35,0 0.52,-0.17 -0.69,0.36 0.71,-0.18 1.05,-0.18l1.4 0c0.52,0 1.04,0 1.55,0.18 1.23,0.17 2.63,0.53 3.85,1.05 8.54,3.14 16.37,9.77 22.65,16.2 2.44,2.45 7.32,0 6.09,-3.48 0,-0.18 -0.17,-0.52 -0.17,-0.69 -0.52,-1.75 -1.04,-3.32 -1.4,-5.06 -0.34,-1.22 -0.69,-2.43 -0.86,-3.83 -0.17,-1.92 -0.35,-2.8 -0.52,-4.02 -0.7,-6.97 -0.7,-13.77 1.92,-19.68 1.21,-2.97 3.14,-5.4 5.57,-7.32 2.97,-2.09 6.46,-3.31 9.94,-4.02 2.95,-0.69 5.92,-1.38 8.89,-1.92 3.49,-0.51 5.75,-0.86 9.06,-1.21 6.63,-0.88 13.42,-0.88 20.04,0 6.63,0.69 12.89,2.95 18.46,6.26 5.76,3.83 10.47,9.08 13.59,15.34 4.37,8.54 5.76,18.3 6.28,27.88 0.35,5.06 1.92,9.59 3.31,14.48 1.4,4.35 2.26,8.89 2.97,13.42 1.21,9.23 1.21,20.55 -4.88,28.23 -1.4,1.4 -1.4,3.66 0,5.06 1.4,1.39 3.66,1.39 5.06,0 1.74,-2.11 3.31,-4.54 4.35,-6.97 4.53,-10.45 3.83,-22.48 1.57,-33.47 -0.87,-4.35 -1.92,-8.54 -3.32,-12.54 -1.03,-2.8 -1.57,-5.57 -1.74,-8.54 -0.17,-2.97 -0.52,-6.09 -0.86,-9.23 -2.28,-17.59 -10.28,-34.68 -27.02,-42.53 -13.59,-6.45 -29.1,-6.45 -43.73,-4.35 -6.63,1.04 -13.94,1.92 -20.22,4.52 -7.85,3.32 -13.59,10.11 -15.51,18.3 -2.79,10.63 -1.22,23 2.26,33.28l6.11 -3.49c-3.14,-3.31 -6.45,-6.09 -10.11,-8.89 -5.92,-4.54 -12.54,-9.23 -20.05,-10.46 -5.92,-1.05 -12.02,0.52 -13.77,6.8 -1.57,5.06 0,11.14 1.75,16.03 1.22,4 2.96,8.02 4.88,11.85 3.83,7.85 8.02,15.68 11.68,23.7 8.54,18.11 15.85,36.59 19.68,56.45 1.57,8.37 2.97,16.73 4.54,25.1z"/>
   <path class="fil5" d="M1106.28 173.54c-8.89,-32.42 -79.29,-28.4 -79.29,-28.4 0,0 -28.76,-55.6 -38.33,-95.51 -3.49,-25.62 14.99,-29.1 24.39,-5.4 9.4,23.7 16.91,40.96 35.73,80.15l57.5 49.15z"/>
   <path class="fil1" d="M1045.63 126.31c2.09,4.18 8.37,0.52 6.28,-3.66 -9.59,-19.87 -18.99,-39.9 -27.53,-60.29 -3.14,-7.49 -5.94,-15.51 -9.42,-22.83 -3.14,-6.62 -8.71,-14.13 -16.72,-14.65 -7.33,-0.52 -11.85,6.28 -12.91,12.73 -1.74,9.75 1.23,18.99 4.2,28.22 6.09,18.65 13.23,36.94 21.6,54.72 4,8.89 8.19,17.94 12.71,26.66 0.71,1.05 1.94,1.74 3.14,1.74 2.96,-0.17 5.76,-0.17 8.54,-0.17 12.91,-0.18 25.79,1.39 38.33,4.53 6.62,1.56 12.9,4.35 18.65,8.01 2.62,1.75 4.71,3.83 6.63,6.11 0,0 0,0.17 0.34,0.52 0.18,0.35 0.35,0.52 0.54,0.88 0.34,0.69 0.69,1.21 1.03,1.92 0.35,0.51 0.52,0.86 0.71,1.38 0,0.19 0.17,0.36 0.17,0.53 0.17,0.69 0.52,1.4 0.69,2.09 1.23,4.54 8.2,2.61 6.97,-1.92 -2.44,-7.67 -7.49,-14.11 -14.46,-18.3 -12.56,-8 -28.58,-10.63 -43.21,-12.02 -8.37,-0.87 -16.73,-1.04 -25.1,-0.69l3.14 1.75c-5.05,-9.77 -9.59,-19.68 -14.11,-29.62 -7.68,-16.91 -14.48,-34.16 -20.05,-51.76 -2.43,-8.02 -5.74,-16.73 -3.14,-25.1 0.18,-0.69 0.54,-1.21 0.88,-1.91 0.17,-0.18 1.05,-1.4 0.69,-1.05 0.18,-0.35 1.4,-1.38 0.88,-1.04 0.17,-0.17 1.4,-0.88 0.69,-0.52 0.52,-0.17 0.88,-0.36 1.23,-0.36 0.69,-0.17 0.17,0 0,0l0.86 0c1.05,0 -0.69,-0.17 0.36,0 1.04,0.19 2.09,0.53 2.95,1.22 5.93,3.83 8.54,12.37 11.16,18.82 2.78,6.8 5.57,13.77 8.54,20.56 7.83,18.12 16.2,35.73 24.74,53.5z"/>
   <path class="fil5" d="M1075.26 117.25c-11.32,-42.16 -17.77,-65.01 -22.65,-89.92 -4.88,-24.93 -23.7,-25.1 -24.93,0.86 2.11,40.96 20.56,95.51 20.56,95.51l27.02 -6.45z"/>
   <path class="fil1" d="M1044.76 124.74c1.57,4.35 8.54,2.43 7.14,-2.26 -3.49,-10.28 -6.46,-20.93 -9.23,-31.55 -5.05,-18.12 -8.54,-36.59 -10.63,-55.42 -0.53,-4.35 -0.53,-8.89 0.18,-13.23 0.51,-2.96 1.74,-5.76 3.48,-8.19l1.04 -1.05c0.53,-0.35 0.17,0 0,0 0.36,-0.18 0.53,-0.35 0.88,-0.52 0.69,-0.52 -0.71,0.17 0.17,-0.18 0.17,0 1.57,-0.17 0.69,-0.17 0.35,0 1.74,0.17 0.88,0 0.35,0.17 1.74,0.69 1.23,0.35 0.51,0.17 1.03,0.52 1.55,0.86 0.88,0.71 1.57,1.4 2.28,2.28 4.69,6.09 5.4,14.63 6.97,21.94 1.57,7.33 3.31,14.65 5.06,21.96 4.88,19.7 10.28,39.04 15.51,58.55 1.21,4.54 8.18,2.63 6.97,-1.91 -6.11,-22.31 -12.2,-44.44 -17.59,-66.92 -1.92,-7.66 -3.49,-15.34 -5.06,-22.99 -1.57,-7.32 -4.71,-16.2 -11.85,-19.87 -6.28,-3.12 -12.56,-0.35 -16.04,5.23 -5.04,8.02 -4.35,17.79 -3.47,26.67 2.26,19.68 6.09,39.21 11.49,58.21 2.44,9.4 5.23,18.99 8.37,28.22z"/>
   <path class="fil5" d="M1101.57 123.17c-1.23,-43.56 -0.69,-73.18 0.34,-98.45 1.06,-25.27 -17.25,-29.79 -24.39,-4.88 -7.49,40.44 -2.26,97.77 -2.26,97.77l26.31 5.57z"/>
   <path class="fil1" d="M1071.6 117.6c0.35,4.54 7.66,4.71 6.97,-0.34 -1.05,-10.8 -1.57,-21.79 -1.74,-32.59 -0.52,-18.48 0.17,-36.94 2.43,-55.42 0.36,-4.53 1.4,-8.88 2.97,-13.25 1.05,-2.97 2.97,-5.57 5.23,-7.83 0.88,-0.7 1.92,-1.22 3.14,-1.39l0.87 0c-0.87,0 0.53,0.17 0.88,0.34 -0.69,-0.17 0.69,0.52 1.06,0.69l0.86 0.88c0.88,1.05 1.57,2.09 2.09,3.32 2.97,6.97 1.57,15.34 1.4,22.65 -0.18,8.37 -0.35,16.73 -0.52,25.08 -0.35,21.27 0,42.35 0.52,63.61 0.17,4.71 7.49,4.71 7.31,0 -0.69,-24.22 -0.86,-48.61 -0.34,-73.01 0.17,-8.37 0.34,-16.56 0.71,-24.91 0.34,-7.5 -0.54,-17.25 -6.8,-22.65 -5.23,-4.54 -12.2,-3.14 -16.91,1.56 -6.62,6.8 -8.19,16.56 -9.42,25.61 -2.26,19.34 -2.95,39.04 -2.26,58.56 0.17,9.59 0.69,19.34 1.57,29.1z"/>
   <path class="fil5" d="M1125.27 150.88c6.63,-43.21 10.11,-61.69 15.68,-86.43 5.57,-24.74 -11.68,-32.42 -23.17,-9.23 -8.2,21.08 -13.94,51.04 -16.91,70.92l24.39 24.74z"/>
   <path class="fil1" d="M1097.39 125.09c-0.51,1.92 0.69,4.01 2.09,4.71 1.92,0.35 4.02,-0.7 4.54,-2.62 2.61,-17.42 6.09,-34.68 10.63,-51.58 1.05,-3.83 2.09,-7.49 3.32,-11.32 1.05,-3.49 2.43,-6.97 4.17,-10.28 1.57,-2.79 3.49,-5.23 5.94,-7.14 0.69,-0.54 1.57,-1.05 2.43,-1.4 0.71,-0.17 1.4,-0.35 2.09,-0.35l0.53 0c-0.34,-0.17 0.18,0 0.35,0 0.17,0 0.35,0.18 0.52,0.18 0.52,0.17 -0.52,-0.18 0,0 0.17,0.17 1.05,0.69 0.88,0.52 -0.18,-0.18 0.69,0.69 0.86,0.88 1.05,1.57 1.92,3.49 2.11,5.57 0.86,6.09 -1.06,12.2 -2.28,18.11 -5.75,26.32 -10.11,52.81 -14.11,79.46 -0.34,1.93 0.69,4.02 2.62,4.54 1.92,0.34 4.01,-0.69 4.52,-2.61 2.79,-17.96 5.57,-35.9 8.88,-53.68 1.06,-5.75 2.28,-11.66 3.49,-17.42 1.4,-6.26 3.14,-12.54 4.02,-18.82 1.04,-6.26 1.04,-13.58 -2.62,-18.99 -2.8,-4.35 -8.2,-6.26 -13.06,-4.69 -6.62,2.09 -11.33,8.54 -14.3,14.46 -1.75,3.66 -3.14,7.49 -4.18,11.51 -1.22,4 -2.45,8.18 -3.49,12.2 -4.19,16.03 -7.5,32.41 -9.94,48.78z"/>
   <path class="fil0" d="M661.4 775.6c1.23,-28.05 8.71,-37.64 26.48,-41.99l109.27 -26.84c16.37,-4.01 33.28,5.93 39.37,23.01l111.87 258.95c0,0 -255.63,32.93 -275.31,68.3 -13.08,-88.52 -11.85,-281.6 -11.68,-281.42z"/>
   <path class="fil1" d="M295.11 1613.08l1237.75 -287 -137.67 -601.89 -27.53 -118.5 -0.18 -0.18 -496.62 419.79c-28.93,28.76 -71.8,38.87 -110.49,25.79l-524.16 -175.64c-28.05,-9.42 -48.1,-34.33 -51.23,-63.95l-56.98 81.55 167.11 720.03z"/>
   <path class="fil1" d="M130.96 894.96l56.98 -81.55 -6.8 -1.74c1.92,20.03 11.51,38.68 26.65,51.93 11.51,9.94 24.58,14.63 38.35,19.34l44.61 14.99 154.21 51.58 176 58.9 121.62 40.76c9.25,3.14 18.48,6.63 28.07,8.71 22.65,4.88 46.34,2.62 67.78,-6.44 13.42,-5.77 24.39,-14.13 35.19,-23.88 19.17,-17.08 39.39,-33.11 58.9,-49.66l123.73 -104.56 143.93 -121.62 119.73 -101.25 50.01 -42.16 -4.37 0.51c-2.43,-1.2 -1.4,-2.78 -1.04,0 0.18,1.75 0.52,3.32 1.04,4.89 9.25,39.56 18.48,79.11 27.53,118.85l27.88 121.8 45.84 200.76 43.21 188.71 19.16 83.48 2.62 -4.54c-0.7,0.17 -1.4,0.35 -2.1,0.52 -5.4,0.53 -11.14,2.62 -16.54,3.83l-31.9 7.33 -101.4 23.52 -141.5 32.76 -167.29 38.7 -179.66 41.65 -178.11 41.3 -162.58 37.63 -133.3 30.85 -90.09 20.91 -33.11 7.68 4.52 2.6c-0.17,-0.34 -0.34,-0.86 -0.34,-1.21 0,-2.96 -1.57,-6.62 -2.26,-9.59l-4.37 -18.46 -13.77 -59.08 -41.65 -179.49 -48.27 -208.23 -39.9 -171.82 -16.73 -71.79c-1.03,-4.53 -8,-2.62 -6.97,1.92 0.18,0.35 0.35,0.86 0.35,1.21 1.57,9.42 4.36,18.82 6.45,28.07l13.77 59.07 41.65 179.49 47.93 208.05 39.9 171.82 16.73 71.8c0.69,1.92 2.61,3.12 4.54,2.61 0.69,-0.17 1.38,-0.35 2.09,-0.52 16.2,-3.49 32.23,-7.51 48.44,-11.16l101.42 -23.51 141.5 -32.76 167.63 -38.87 179.66 -41.65 178.09 -41.3 162.58 -37.64 133.3 -30.85 90.11 -20.91 33.11 -7.66c1.91,-0.71 3.14,-2.62 2.61,-4.54 -0.18,-0.34 -0.18,-0.86 -0.35,-1.4 -2.09,-11.14 -5.06,-22.48 -7.66,-33.62l-15.68 -68.32 -44.78 -196.38 -45.15 -197.27c-7.83,-34.51 -15.85,-68.83 -23.69,-103.34 -3.85,-16.55 -7.68,-32.94 -11.51,-49.48l-11.51 -49.84 -3.83 -16.03c-0.52,-2.28 -0.69,-5.94 -2.97,-7.16 -1.38,-0.87 -3.12,-0.52 -4.35,0.53l-3.31 2.78 -69.01 58.38 -127.56 107.87 -141.15 119.37 -113.79 96.2 -32.23 27.34c-9.08,7.68 -17.6,16.22 -27.36,22.31 -27.88,17.59 -61.18,20.04 -92,9.77l-32.07 -10.8 -137.67 -46.18 -176.35 -59.07 -138.87 -46.53 -32.94 -10.99c-27.53,-9.4 -48.8,-31.88 -51.94,-61.68 0,-1.23 -0.69,-2.28 -1.74,-2.97 -1.75,-1.05 -4.01,-0.52 -5.06,1.22l-56.98 81.55c-2.61,3.83 3.67,7.32 6.11,3.66z"/>
   <path class="fil1" d="M893.51 986.45l33.81 63.95 18.29 -21.6c9.94,-11.85 11.68,-28.59 4.36,-42.18l-10.46 -19.34 -46.01 19.16z"/>
   <path class="fil1" d="M942.65 965.54c-2.26,-4.18 -8.54,-0.52 -6.46,3.83l8.02 14.82c3.14,5.75 6.09,11.32 6.45,18.12 0.69,8.88 -2.28,17.59 -7.85,24.39 -5.92,7.16 -12.03,14.3 -17.94,21.44l5.75 0.69 -4.18 -7.83 -29.64 -56.12c-2.26,-4.18 -8.35,-0.52 -6.26,3.65l4.17 7.85 29.62 56.1c0.17,0.17 0.36,0.53 0.53,0.71 1.57,1.38 3.83,1.38 5.23,0l10.46 -12.54c3.14,-3.85 6.62,-7.51 9.58,-11.51 6.62,-9.06 9.25,-20.22 7.5,-31.19 -1.05,-6.97 -4.36,-12.91 -7.68,-18.99l-7.31 -13.42z"/>
   <path class="fil1" d="M766.65 996.03l-30.14 109.79 -43.21 -20.39c-11.34,-5.23 -19.18,-16.03 -20.56,-28.59l-2.62 -23.34 96.54 -37.47z"/>
   <path class="fil1" d="M673.77 1033.5c0,-1.91 -1.57,-3.48 -3.65,-3.83 -2.09,0 -3.66,1.74 -3.66,3.66l2.43 21.6c1.23,10.64 5.23,20.56 13.59,27.72 5.06,4.18 10.8,6.61 16.56,9.4l35.71 16.73c0.17,0.17 0.53,0.34 0.71,0.34 1.91,0.69 4,-0.52 4.52,-2.45l3.67 -13.4 16.2 -59.26 10.28 -37.11c1.21,-4.54 -5.75,-6.46 -6.97,-1.92l-3.66 13.4 -16.22 59.26 -10.28 37.11 5.4 -2.09 -15.49 -7.32 -21.61 -10.11c-5.57,-2.61 -11.16,-5.06 -15.68,-9.59 -4.19,-4.18 -7.14,-9.4 -8.54,-15.14 -0.52,-2.62 -1.05,-5.4 -1.23,-8.2l-2.09 -18.82z"/>
   <path class="fil2" d="M728.84 743.19c0,0 -38.51,22.99 -194.31,70.06 -39.9,-38.7 -31.36,-111.01 30.16,-130.35 2.26,-63.95 42.16,-61.52 42.16,-61.52 91.85,12.03 121.99,121.82 121.99,121.82z"/>
   <path class="fil1" d="M606.68 617.72c-1.91,0 -4,0.18 -5.92,0.52 -9.25,1.74 -17.61,6.63 -23.7,13.77 -12.03,13.77 -15.51,33.13 -16.2,50.89l2.61 -3.48c-12.89,4 -24.74,10.97 -34.5,20.39 -15.16,15.51 -23.36,36.42 -22.65,58.02 0.51,21.96 9.58,42.7 25.25,58.04 0.88,0.86 2.28,1.22 3.5,0.86 3.66,-1.03 7.32,-2.26 10.97,-3.31 25.27,-7.66 50.53,-15.68 75.63,-24.22 17.59,-5.92 35.02,-12.03 52.44,-18.63 11.34,-4.37 22.65,-8.9 33.82,-13.59 5.92,-2.62 11.68,-5.23 17.42,-8.02 1.74,-0.87 3.48,-1.75 5.05,-2.61 1.4,-0.71 2.09,-2.45 1.75,-4.02 -1.23,-4.71 -2.97,-9.4 -4.71,-13.94 -8.71,-22.99 -21.26,-44.44 -37.11,-63.24 -9.94,-11.85 -21.79,-22.13 -34.86,-30.33 -14.8,-9.06 -31.37,-14.82 -48.61,-17.08 -1.92,-0.17 -3.66,1.92 -3.66,3.66 0.17,2.09 1.74,3.66 3.66,3.66 18.13,2.45 35.38,9.25 50.18,19.53 22.82,15.68 40.08,38.33 52.8,62.73 4.35,8.37 8.2,17.08 11.49,25.96 1.4,3.66 2.62,7.32 3.67,10.97l1.75 -4.01c-2.11,0.86 -4.2,2.26 -6.28,3.31 -6.28,3.14 -12.54,5.92 -18.99,8.54 0.69,-0.35 0,0 -0.34,0.17 -0.17,0.17 -0.54,0.17 -0.71,0.34 -0.52,0.18 -1.21,0.54 -1.74,0.71 -1.21,0.52 -2.44,1.04 -3.66,1.56 -2.78,1.05 -5.57,2.27 -8.37,3.31 -6.61,2.62 -13.23,5.23 -19.85,7.68 -18.13,6.8 -36.42,13.25 -54.9,19.34 -25.96,8.54 -52.1,16.73 -78.41,24.74l3.49 0.88c-22.67,-21.96 -29.45,-55.41 -17.42,-84.34 8.71,-19.68 25.77,-33.63 45.99,-40.08 1.57,-0.52 2.62,-1.92 2.62,-3.49 0.18,-10.99 2.26,-21.96 6.09,-32.24 2.27,-5.75 5.57,-10.97 9.76,-15.51 1.57,-1.74 3.49,-3.14 5.4,-4.52 1.75,-1.22 3.66,-2.28 5.75,-3.14 0.54,-0.35 -0.86,0.17 0.19,-0.17 0.35,0 0.52,-0.18 0.69,-0.18 0.35,-0.19 0.87,-0.36 1.23,-0.53 0.86,-0.34 1.57,-0.52 2.26,-0.69 0.86,-0.17 1.57,-0.35 2.43,-0.53 0.36,0 2.62,-0.35 1.05,-0.18 1.23,-0.17 2.61,-0.17 3.83,-0.17 4.71,0.17 4.71,-6.97 -0.18,-7.32z"/>
   <polygon class="fil0" points="669.59,996.73 699.21,1253.93 742.6,1286.52 1002.25,1154.96 915.29,960.48 "/>
   <path class="fil1" d="M918.43 958.74c-1.06,-1.74 -3.32,-2.26 -5.06,-1.57 -1.57,1.05 -2.09,3.14 -1.22,4.88 0,0.18 0.17,0.18 0.17,0.35 3.5,7.85 7.16,15.68 10.64,23.53l21.6 48.44 25.1 56.1 20.74 46.53 8.71 19.36 1.21 -4.89c-0.17,0 -0.35,0.18 -0.52,0.18 -3.48,1.57 -6.8,3.48 -10.11,5.23l-21.08 10.8 -64.83 32.93 -74.93 37.99 -62.03 31.36 -25.97 13.08 3.66 0 -5.4 -4 -37.99 -28.59 1.74 3.14 0 -0.34c-0.17,-3.32 -0.86,-6.63 -1.22,-9.94l-2.44 -21.08 -7.32 -64.32 -8.54 -74.23 -7.14 -61.5 -2.97 -25.62c0,-2.09 -1.74,-3.66 -3.66,-3.66 -2.09,0 -3.66,1.74 -3.66,3.66l0 0.69c0.35,4.88 1.21,9.59 1.74,14.48l3.49 29.79 4.52 40.08 5.23 44.78 5.23 44.96 4.54 39.56 3.31 28.93c0.52,4.35 1.05,8.89 1.57,13.42 0.18,1.38 0.87,2.6 1.92,3.48 0.86,0.69 1.91,1.4 2.79,2.09l14.8 11.14 25.79 19.36c1.05,0.69 2.62,0.69 3.66,0 0.17,0 0.35,-0.19 0.53,-0.19 10.63,-5.04 20.91,-10.63 31.37,-15.85l64.81 -32.93 74.94 -37.99 62.03 -31.37 25.97 -13.08c1.57,-0.86 2.26,-3.12 1.21,-4.87 0,-0.17 -0.18,-0.17 -0.18,-0.36 -3.48,-7.83 -7.14,-15.68 -10.63,-23.51l-21.6 -48.44 -25.1 -56.12 -20.74 -46.53 -8.71 -19.34z"/>
   <path class="fil4" d="M826.25 699.27l-138.53 33.99c-17.79,4.35 -25.27,14.11 -26.5,41.99 0,0 -1.38,193.08 11.85,281.59 19.7,-35.37 275.85,-67.95 275.85,-67.95l-52.27 -120.25c20.56,-12.89 30.31,-37.64 24.05,-61.16 -7.85,-29.45 -38.16,-47.06 -67.8,-39.21l-8.54 -19.51 -18.11 -49.49z"/>
   <path class="fil1" d="M847.51 747.02c-1.06,-1.74 -3.14,-2.26 -4.89,-1.05 -1.57,1.05 -2.09,3.14 -1.22,4.88l8.54 19.53c0.71,1.55 2.45,2.08 4.02,1.72 21.94,-5.74 45.13,3.32 57.16,22.5 15.34,24.22 8,56.27 -16.22,71.44 -1.57,1.04 -2.08,3.14 -1.21,4.89l6.46 14.8 28.05 64.66 17.77 40.94 3.14 -5.4 -0.52 0c-3.68,0.19 -7.33,0.88 -10.99,1.39 -7.14,0.88 -14.11,1.92 -21.26,2.97 -21.79,3.14 -43.73,6.63 -65.52,10.28 -25.79,4.52 -51.41,9.23 -77.03,14.99 -22.65,5.06 -45.47,10.46 -67.26,18.29 -8.01,2.79 -15.85,6.28 -23.34,10.28 -5.06,2.8 -10.46,6.46 -13.25,11.51l6.63 0.87c-0.52,-4.18 -1.05,-7.66 -1.57,-12.03 -2.44,-20.56 -4.01,-41.11 -5.23,-61.87 -1.4,-23.16 -2.26,-46.16 -2.97,-69.35 -0.69,-21.6 -1.04,-43.21 -1.4,-64.81 -0.17,-16.56 -0.34,-32.94 -0.34,-49.49 0,-7.49 -0.17,-15.16 0,-22.65 0,-8.02 1.05,-17.25 4.36,-24.57 3.66,-7.85 9.94,-11.68 18.12,-13.94 7.5,-1.92 14.82,-3.68 22.3,-5.42l47.75 -11.66 47.92 -11.68 21.94 -5.4c4.54,-1.06 2.63,-8.02 -1.91,-6.97l-1.57 0.35 -31.19 7.66 -51.04 12.56 -43.39 10.63c-9.24,2.26 -19.18,3.83 -26.84,9.75 -11.85,9.25 -13.77,26.67 -13.77,40.78l0 29.62c0,18.13 0.17,36.42 0.52,54.55 0.36,22.48 0.88,45.13 1.74,67.61 0.71,22.99 1.92,46.01 3.49,69.01 1.4,19.68 3.14,39.56 6.11,59.24 0.51,3.14 5.23,3.32 6.62,0.88 0.35,-0.52 0.52,-0.88 0.87,-1.39 0.52,-0.87 -0.18,0.34 0,0 0.17,-0.18 0.34,-0.35 0.52,-0.52 0.88,-0.88 1.76,-1.75 2.79,-2.62 0.35,-0.18 0.53,-0.52 0.88,-0.69 -1.05,0.69 0,0 0.17,-0.17 0.52,-0.34 1.21,-0.88 1.75,-1.22 2.95,-1.92 5.92,-3.66 9.06,-5.06 1.74,-0.86 3.65,-1.57 5.4,-2.43 0.17,0 0.53,-0.18 0.88,-0.36 -0.88,0.36 -0.18,0 0,0 0.52,-0.35 1.03,-0.52 1.57,-0.69 0.86,-0.51 1.91,-0.86 2.78,-1.22 4.54,-1.74 9.06,-3.31 13.59,-4.87 22.82,-7.16 45.84,-13.08 69.18,-17.79 25.27,-5.4 50.89,-9.92 76.51,-14.28 20.54,-3.49 41.11,-6.63 61.85,-9.59 3.66,-0.52 7.16,-1.04 10.82,-1.56 1.38,-0.19 2.95,-0.36 4.35,-0.53 0.7,-0.18 1.39,-0.18 2.09,-0.35l0.88 -0.17c0.87,-0.17 -0.88,0.17 0,0 2.26,-0.35 4.52,-0.52 6.8,-0.88 0.52,-0.17 1.04,-0.17 1.57,-0.52 1.92,-1.05 2.61,-3.31 1.57,-5.06l-6.45 -14.8 -28.05 -64.49 -17.79 -40.96 -1.21 4.88c10.63,-6.97 18.99,-16.89 23.68,-28.74 4.54,-11.68 5.4,-24.58 2.09,-36.61 -8.52,-31.54 -40.76,-50.18 -72.3,-41.82l4.01 1.74 -8.54 -19.51z"/>
   <path class="fil3" d="M722.22 724.71l-136.96 36.07 -184.88 125.64 -159.63 -205.45 -81.03 -3.32 0.88 67.61 155.95 198.82c33.63,42.87 60.81,87.83 140.98,55.42l231.24 -140.28 33.45 -134.52z"/>
   <path class="fil1" d="M690.67 862.38c4.01,-2.44 0.35,-8.71 -3.66,-6.28l-1.91 1.23 -40.96 24.74 -71.27 42.7 -72.15 43.73 -42.35 25.79c-0.69,0.53 -1.57,1.22 -2.44,1.57 -4.71,2.1 -9.59,3.85 -14.65,5.23 -5.57,1.74 -11.32,2.97 -17.06,4.02 -17.42,2.95 -35.38,1.04 -50.89,-7.68 -23.53,-13.23 -39.21,-37.28 -55.41,-58.02l-30.33 -38.7 -52.27 -66.56 -49.84 -63.61 -22.13 -28.22 1.05 2.6 -0.17 -8.54 -0.71 -59.24 -3.65 3.66 10.11 0.34 70.92 2.97 -2.61 -1.05c0.17,0.17 0.34,0.17 0.34,0.34 1.92,2.8 4.01,5.59 6.28,8.02l13.06 16.91 39.9 51.24 46.18 59.41 38.16 49.13 15.85 20.39c1.05,1.05 2.97,1.4 4.37,0.53 0.34,-0.19 0.52,-0.36 0.88,-0.53 17.94,-11.49 35.37,-24.05 52.96,-36.07l85.22 -57.85 32.23 -21.96 9.77 -6.63c1.39,-0.69 2.6,-1.57 3.83,-2.6 -0.52,0.69 -1.23,0.34 -0.52,0.34 0.17,0 0.52,0 0.86,-0.17l4.2 -1.05 15.14 -4.01 47.06 -12.37 69.18 -18.3c4.52,-1.23 2.61,-8.2 -1.91,-6.97l-1.4 0.34 -80.51 21.27 -42.87 11.32 -10.8 2.8c-1.04,0.34 -2.09,0.69 -2.97,1.39l-54.19 36.76 -85.2 57.85 -44.61 30.33 4.35 0.51c-0.17,-0.17 -0.35,-0.34 -0.52,-0.51 -2.97,-4.71 -6.97,-9.06 -10.46,-13.42l-21.25 -27.19 -58.73 -75.44 -52.63 -67.61 -13.94 -18.13c-0.52,-1.05 -1.23,-1.91 -2.09,-2.79 -2.09,-1.92 -6.8,-1.21 -9.23,-1.38l-74.42 -2.97c-2.09,0 -3.66,1.74 -3.66,3.66l0.17 9.59 0.53 46.34c0,3.84 -0.17,7.85 0.18,11.68 0.34,1.74 1.21,3.31 2.43,4.54l36.59 46.7 59.78 76.32 48.79 62.21c13.59,17.25 26.31,35.55 41.65,51.06 12.91,13.23 28.76,23.68 47.23,27 10.63,1.74 21.6,1.57 32.42,-0.35 6.61,-1.03 13.06,-2.61 19.34,-4.71 4.89,-1.38 9.58,-3.12 14.11,-5.23 3.83,-2.09 7.49,-4.52 11.14,-6.8l27.01 -16.37 78.94 -47.92 78.59 -47.73 35.55 -21.61z"/>
   <path class="fil4" d="M722.22 724.71l-116.05 30.32c-13.77,3.66 -26.67,9.58 -38.52,17.6l-82.24 55.93c13.77,16.22 26.14,33.47 36.76,51.75 13.42,22.65 34.33,78.06 30.67,102.11l145.5 -76.15 23.88 -181.57z"/>
   <path class="fil1" d="M700.08 909.43c4.18,-2.09 0.52,-8.37 -3.66,-6.46 -0.17,0 -0.17,0.18 -0.34,0.18 -5.94,2.97 -11.68,6.11 -17.61,9.25l-36.42 18.99 -41.99 21.94 -34.68 18.13 -14.46 7.49 5.4 4.02c1.57,-10.28 -0.36,-20.91 -2.62,-30.85 -5.06,-21.61 -12.54,-42.53 -22.3,-62.38 -5.4,-10.82 -11.66,-21.27 -18.48,-31.19 -7.66,-11.33 -16.03,-22.3 -25.08,-32.77l-0.69 5.76 0.69 -0.52 42.7 -28.93c12.89,-8.89 25.79,-17.59 38.68,-26.31 11.85,-8.02 24.75,-13.77 38.51,-17.44 5.23,-1.21 10.28,-2.61 15.51,-4.01l61.87 -16.37 37.99 -10.11c4.54,-1.22 2.62,-8.2 -1.92,-6.97 -0.17,0 -0.52,0.17 -0.69,0.17 -15.16,3.66 -30.15,7.83 -45.13,11.85l-59.6 15.68c-4,1.04 -8.02,2.09 -12.03,3.14 -13.94,4.01 -27.19,10.28 -39.21,18.46l-44.25 30.16 -36.59 24.91c-0.36,0.17 -0.53,0.34 -0.7,0.52 -1.57,1.39 -1.57,3.84 -0.18,5.24 9.94,11.49 19,23.69 27.19,36.42 6.09,9.23 11.68,18.82 16.37,28.74 4.54,9.59 8.54,19.36 12.03,29.44 3.66,10.28 6.63,20.74 8.89,31.38 1.05,4.52 1.74,8.89 2.1,13.41 0.17,1.91 0.17,4.02 0.17,6.1 0,0.87 -0.17,1.92 -0.17,2.8 -0.17,0.52 -0.17,0.86 -0.17,1.38l0 0.53 0 0.18c-0.19,0.86 0,1.74 0.34,2.6 1.04,1.75 3.32,2.45 5.06,1.4 0.17,0 0.17,-0.17 0.35,-0.17 5.92,-2.97 11.68,-6.11 17.59,-9.23l36.42 -19 41.99 -21.96 34.69 -18.13 14.46 -7.49z"/>
   <path class="fil1" d="M551.27 942.71l-32.76 19.85c14.63,15.51 27.19,23.36 33.64,19.53 6.61,-3.83 5.75,-18.82 -0.88,-39.39z"/>
   <path class="fil1" d="M550.39 978.61c-0.88,0.51 0.18,0.17 -0.69,0.34 -0.19,0 -0.53,0.17 -0.7,0.17 -0.35,0.18 0.7,0 0,0l-1.57 0c0.7,0 -0.52,-0.17 -0.87,-0.17 -2.45,-0.69 -4.88,-1.74 -6.97,-3.14 -6.8,-4.52 -13.08,-9.92 -18.48,-16.03l-0.69 5.75 4.17 -2.44 28.59 -17.42 -5.4 -2.09c2.78,7.83 4.52,15.85 5.21,24.22 0.36,2.44 0.19,5.06 -0.52,7.66 -0.17,0.88 -0.51,1.57 -1.03,2.26 0,0 -0.54,0.7 -0.18,0.36 0.18,-0.36 -0.36,0.34 -0.36,0.34 -0.69,0.69 0.36,0 -0.52,0.52 -4,2.45 -0.34,8.71 3.66,6.28 5.23,-3.31 6.46,-10.11 6.28,-15.85 -0.17,-9.42 -2.79,-18.82 -5.57,-27.7 -0.19,-0.18 -0.19,-0.54 -0.36,-0.71 -1.04,-1.74 -3.31,-2.43 -5.06,-1.4l-4.17 2.45 -28.59 17.42c-0.35,0.18 -0.52,0.35 -0.69,0.52 -1.4,1.4 -1.4,3.83 0,5.23 6.28,6.63 13.25,13.42 21.25,17.96 5.06,2.78 11.51,5.23 16.91,2.09 4.01,-2.27 0.35,-8.54 -3.66,-6.62z"/>
   <path class="fil5" d="M160.76 745.45l139.07 218.17c33.62,42.87 60.81,87.83 140.96,55.43l74.4 -48.63 37.47 -23c-8.02,-23.34 -18.11,-45.65 -30.5,-66.92 -10.63,-18.46 -23,-35.71 -36.76,-51.76l-34.16 23.19 -50.88 34.5 -159.63 -205.45 -81.03 -3.31 1.05 67.78z"/>
   <path class="fil1" d="M159.53 681.85l9.94 0.34 43.73 1.75 27.36 1.05 -2.6 -1.05c0.17,0.17 0.34,0.17 0.34,0.34 1.92,2.8 4.01,5.42 6.26,8.02l13.08 16.73 39.9 51.23 46.18 59.42 38.16 49.13 15.85 20.39c1.05,1.05 2.97,1.39 4.36,0.53l15.51 -10.65c11.83,-8.01 23.51,-16.03 35.37,-24.05 11.34,-7.83 22.65,-15.51 33.99,-23.17l-4.37 -0.52c6.45,7.32 12.2,14.63 17.79,22.48 20.91,28.74 37.28,60.64 48.62,94.43l1.74 -4.01 -6.28 3.83c-12.2,7.51 -24.57,14.65 -36.42,22.48l-52.28 34.16c-5.59,3.66 -10.99,7.32 -16.56,10.8 -1.57,0.7 -3.14,1.39 -4.89,1.91 -4.71,1.57 -9.4,3.14 -14.11,4.54 -8.2,2.26 -16.56,3.66 -25.1,4.19 -13.23,0.69 -26.48,-2.27 -38.16,-8.54 -11.14,-6.11 -20.37,-14.82 -28.74,-24.22 -9.25,-10.28 -17.08,-21.27 -25.62,-31.9 -0.69,-0.86 0.35,0.35 -0.17,-0.34 -0.17,-0.18 -0.35,-0.52 -0.52,-0.88l-2.45 -3.66 -21.96 -34.51 -34.67 -54.36 -37.28 -58.55 -29.62 -46.53 -12.22 -19.16 0.53 1.74 -0.17 -8.37 -0.7 -59.24c-0.18,-4.71 -7.32,-4.71 -7.32,0l0 6.61 0.52 36.25 0.17 17.25c0.19,2.62 0,5.05 0.19,7.68 0.17,1.22 0.69,2.43 1.38,3.31l2.97 4.69 11.16 17.44 36.59 57.33 43.04 67.61 33.97 53.15 8.9 13.94c4,6.09 8.71,11.68 13.23,17.42 9.23,11.85 18.82,23.87 30.5,33.45 11.68,9.59 25.44,16.73 40.59,18.82 19.7,2.8 39.56,-1.57 57.86,-8.54 3.14,-1.21 5.92,-2.61 8.71,-4.35l10.97 -7.14 57.52 -37.64c13.06,-8.71 26.65,-16.56 40.08,-24.74 1.57,-0.71 2.09,-2.45 1.74,-4.02 -2.79,-8.71 -6.11,-17.08 -9.59,-25.43 -14.46,-34.16 -33.8,-66.92 -58.38,-94.8 -1.21,-1.05 -2.95,-1.4 -4.35,-0.54l-19.51 13.25 -28.76 19.51 -36.59 24.75 4.35 0.52c-0.17,-0.17 -0.34,-0.35 -0.51,-0.52 -3.32,-4.54 -6.97,-8.9 -10.46,-13.42l-21.25 -27.18 -28.07 -36.08 -30.49 -39.21 -29.1 -37.45 -23.7 -30.33 -14.11 -18.11c-0.71,-0.88 -1.4,-1.92 -2.26,-2.8 -1.93,-1.91 -6.97,-1.22 -9.42,-1.4l-44.44 -1.74 -29.79 -1.21c-4.52,-0.19 -4.52,7.14 -0.18,7.83z"/>
   <path class="fil5" d="M161.1 744.75c-19.16,-0.88 -33.81,-24.39 -38.68,-33.1 -1.22,-2.09 -2.79,-4.01 -4.54,-5.77 -46.01,-44.42 -5.57,-79.09 18.48,-95.49 24.56,-16.73 45.82,21.44 45.82,21.44 0,0 -1.74,-28.93 8.37,-36.95 10.11,-8.01 21.08,21.27 21.08,21.27 6.46,17.06 12.37,31.02 17.42,41.65 6.28,13.58 14.3,26.49 23.53,38.33l13.59 17.42 -105.08 31.19z"/>
   <path class="fil1" d="M263.57 716c1.4,1.4 3.66,1.4 4.88,0.35 1.4,-1.4 1.4,-3.66 0,-5.06 -6.97,-8.89 -14.11,-17.77 -20.56,-27 -11.16,-16.56 -19.34,-34.69 -26.84,-52.98 -4.52,-10.97 -7.83,-22.82 -14.8,-32.59 -2.97,-4.17 -7.32,-9.06 -12.91,-8.71 -6.26,0.52 -9.92,7.14 -11.85,12.54 -3.12,9.06 -3.66,19.7 -3.12,29.28l6.8 -1.74c-5.93,-10.63 -15.34,-21.43 -26.84,-25.79 -7.66,-2.78 -16.2,-1.92 -23,2.45 -6.45,4.17 -12.54,8.88 -18.3,14.11 -12.2,10.97 -22.82,25.26 -23.87,42.16 -0.35,9.59 2.1,19.17 7.14,27.36 2.96,5.06 6.62,9.77 10.64,14.11 2.61,2.28 4.87,4.71 6.97,7.33 1.04,1.38 1.75,2.95 2.61,4.35 8.54,14.65 21.96,31.37 40.27,32.42 4.69,0.17 4.69,-6.97 0,-7.32 -9.42,-0.7 -17.25,-7.33 -23.36,-14.13 -2.96,-3.31 -5.57,-6.61 -7.85,-10.26 -2.09,-3.14 -3.66,-6.63 -5.92,-9.59 -3.66,-4.89 -8.37,-8.89 -12.2,-13.59 -3.14,-4.01 -5.75,-8.37 -7.85,-12.89 -3.12,-7.33 -4.18,-15.34 -2.61,-23.01 3.14,-14.63 13.94,-26.31 25.09,-35.54 2.62,-2.28 5.05,-4.19 7.85,-6.11 2.6,-2.09 5.57,-4 8.71,-5.4 6.46,-2.43 12.54,-0.86 18.13,2.62 2.61,1.73 5.04,3.66 7.32,5.92 1.21,1.23 2.26,2.44 3.31,3.66 0.52,0.52 0.86,1.05 1.38,1.57 0.19,0.18 0.36,0.52 0.54,0.69 0,0 0.69,0.88 0.34,0.36 1.92,2.61 3.66,5.06 5.23,7.83 1.74,3.14 6.97,1.92 6.8,-1.74 -0.35,-3.83 -0.17,-7.49 0,-11.32 0.35,-6.28 1.23,-13.25 4,-18.82 0.71,-1.05 1.23,-2.11 2.11,-2.97 0.17,-0.35 1.04,-1.23 0.69,-0.88 0.35,-0.17 1.57,-0.69 0.86,-0.52 0.36,0 0.54,-0.17 0.88,-0.17l-0.17 0c0.17,0 1.04,0.17 0.17,0 0.18,0 0.35,0.17 0.52,0.17 1.05,0.35 0,-0.17 0.88,0.35 0.35,0.17 1.04,0.7 1.04,0.7 3.48,2.61 6.11,7.66 8.37,12.03 0.52,1.04 1.05,2.09 1.57,3.14 0.17,0.35 0.34,0.87 0.52,1.21 0.17,0.18 0.53,1.23 0.17,0.35 0.7,1.4 1.22,2.97 1.74,4.36 3.49,9.4 7.33,18.65 11.34,27.71 7.66,17.77 16.73,34.85 28.58,50.18 4.87,6.28 9.75,12.54 14.63,18.82z"/>
   <path class="fil5" d="M120.68 708.33c-36.42,-23.87 -52.63,-33.62 -74.75,-46.01 -22.14,-12.37 -16.39,-30.31 8.54,-23.34 21.25,8.19 47.21,23.87 64.13,34.85l2.08 34.5z"/>
   <path class="fil1" d="M116.84 676.97c3.83,2.62 7.49,-3.66 3.83,-5.92 -15.85,-10.65 -32.4,-20.22 -49.65,-28.59 -7.67,-3.66 -15.16,-7.32 -23.53,-8.19 -5.57,-0.52 -12.37,0.17 -16.22,4.71 -3.48,4.17 -3.12,9.76 -0.69,14.28 3.32,6.1 9.42,10.11 15.34,13.42 24.91,13.94 49.13,29.28 73.01,44.96 4.02,2.62 7.51,-3.66 3.66,-6.28 -14.28,-9.4 -28.92,-18.8 -43.56,-27.87 -9.58,-5.75 -19.16,-11.49 -28.93,-16.89 -5.05,-2.97 -10.63,-6.11 -13.4,-11.51 -0.53,-0.88 -0.7,-1.74 -0.88,-2.62 -0.17,-0.52 0,0.53 0,0l0 -0.87c0,-0.17 0.18,-0.7 0,0 0,-0.34 0.18,-0.52 0.18,-0.7 0,-0.18 0,-0.52 0.17,-0.69 0.17,-0.52 -0.17,0.51 0,0 0.17,-0.18 0.17,-0.35 0.36,-0.52 0.34,-0.35 -0.36,0.34 0,0 0.34,-0.54 1.04,-1.06 1.73,-1.4 1.93,-0.88 4.02,-1.4 6.28,-1.23 3.48,0 6.97,0.71 10.28,1.92 7.32,2.97 14.46,6.45 21.43,10.11 13.96,7.14 27.53,15.16 40.61,23.88z"/>
   <path class="fil5" d="M150.12 709.9c-18.13,-28.4 31.71,-78.06 31.71,-78.06 0,0 -22.11,-58.38 -45.47,-92.2 -16.73,-19.85 -31.54,-8.18 -20.22,14.48 11.33,22.65 19.16,39.73 35.9,79.98l-1.92 75.8z"/>
   <path class="fil1" d="M148.56 634.97c0.69,1.92 2.6,3.14 4.71,2.44 2.09,-0.69 3.14,-2.61 2.6,-4.52 -8.18,-19.51 -16.37,-38.87 -25.25,-58.03 -3.14,-6.63 -6.28,-13.06 -9.42,-19.51 -2.26,-4.01 -3.83,-8.37 -4.89,-12.73 -0.34,-1.72 -0.34,-3.48 -0.17,-5.21 0,-1.22 0.53,-2.28 1.05,-3.14 0.52,-0.88 -0.34,0.34 0.35,-0.36 0.17,-0.17 0.34,-0.52 0.69,-0.69 -0.69,0.52 1.22,-0.52 0.36,-0.18 0.86,-0.34 1.92,-0.51 2.78,-0.34 3.66,0.69 6.8,3.14 9.42,5.75 3.12,3.31 5.75,6.97 8.01,10.97 2.45,4.02 4.71,7.85 6.97,11.85 12.56,23.01 23.53,46.7 32.76,71.28l0.88 -3.49c-2.09,2.09 -4.17,4.52 -6.28,6.8 -9.23,10.26 -17.25,21.6 -23.51,33.97 -6.11,12.73 -10.65,28.76 -2.45,41.65 2.45,4.02 8.71,0.36 6.28,-3.66 -3.49,-5.74 -4.54,-12.54 -2.97,-18.99 2.62,-13.77 10.63,-26.31 18.99,-37.28 4.54,-6.11 9.59,-12.03 14.99,-17.42 0.86,-0.88 1.21,-2.28 0.86,-3.49 -4.17,-10.65 -8.71,-21.44 -13.4,-31.9 -7.68,-17.59 -16.39,-34.68 -26.15,-51.23 -5.04,-8.18 -10.46,-16.72 -19.68,-20.56 -6.97,-2.78 -14.46,-0.18 -16.91,7.33 -2.78,8.71 1.91,17.94 5.76,25.6 3.49,6.8 6.78,13.59 9.92,20.56 8.36,17.96 16.04,36.25 23.7,54.55z"/>
   <path class="fil5" d="M129.04 648.91c-23.88,-36.59 -36.59,-56.64 -51.93,-76.84 -15.34,-20.22 -2.79,-34.33 17.25,-17.96 29.28,28.93 57.5,79.11 57.5,79.11l-22.82 15.68z"/>
   <path class="fil1" d="M148.73 634.97c2.26,4.01 8.54,0.35 6.46,-3.66 -5.57,-9.94 -11.85,-19.51 -18.13,-29.1 -10.63,-16.37 -22.48,-31.88 -35.54,-46.18 -5.94,-6.26 -14.13,-13.23 -23.36,-12.71 -7.32,0.35 -11.85,6.45 -11.32,13.59 0.86,9.06 6.61,16.2 11.83,23.17 4.54,6.28 9.08,12.73 13.42,19.16 11.51,16.91 22.65,34.16 33.81,51.41 2.61,3.83 8.89,0.17 6.26,-3.66 -11.83,-18.13 -23.52,-36.42 -35.71,-54.19 -4.19,-6.11 -8.37,-12.03 -12.73,-17.96 -4.18,-5.75 -10.46,-12.54 -9.75,-20.2 0,-1.76 1.04,-3.32 2.61,-4.02 -0.52,0.34 1.74,-0.17 1.05,-0.17 0.69,-0.18 1.57,-0.18 2.26,0 1.4,0.17 2.8,0.69 4.2,1.22 8.18,3.49 14.11,11.51 19.85,18.11 11.34,13.77 21.79,28.07 31.37,43.21 4.71,7.14 9.25,14.48 13.42,21.96z"/>
   <path class="fil5" d="M116.15 672.44c-31.71,-29.97 -53.85,-49.49 -73.54,-65.52 -19.68,-16.03 -10.8,-32.76 12.56,-21.42 35.02,21.42 74.23,63.59 74.23,63.59l-13.25 23.36z"/>
   <path class="fil1" d="M126.78 651.7c3.31,3.31 8.36,-1.74 5.22,-4.71 -7.83,-8.54 -16.03,-16.54 -24.56,-24.39 -14.11,-13.59 -29.45,-25.79 -45.66,-36.76 -7.14,-4.71 -16.54,-9.25 -25.26,-6.63 -7.14,2.09 -9.94,9.06 -7.68,15.85 2.8,8.54 10.46,14.11 17.08,19.7 6.45,5.4 12.91,10.8 19.34,16.37 16.39,14.28 32.42,29.1 48.27,44.1 3.32,3.31 8.37,-1.92 5.06,-5.06 -16.72,-15.87 -33.63,-31.36 -51.05,-46.35 -5.93,-5.23 -11.85,-10.11 -17.79,-15.16 -5.57,-4.54 -13.4,-9.94 -14.46,-17.59 -0.18,-0.88 0,-1.92 0.34,-2.8 -0.34,0.54 0.35,-0.69 0.52,-0.86 -0.52,0.69 1.05,-0.88 0.36,-0.35 2.09,-1.39 4.89,-1.76 7.32,-1.22 9.23,1.22 17.08,7.83 24.22,13.06 14.28,10.65 27.88,22.31 40.59,34.68 6.28,5.94 12.39,11.85 18.13,18.13z"/>
   <path class="fil6" d="M292.85 1604.54c8.88,37.64 46.53,61.17 84.17,52.44l1103.22 -255.81c37.64,-8.89 61.16,-46.53 52.45,-84.17l-165.01 -711.49 -481.13 478.87c-28.94,28.74 -71.8,38.85 -110.48,25.79l-648.08 -217.13 164.86 711.49z"/>
   <path class="fil1" d="M127.12 896.53l4.54 1.57 98.09 32.93 177.4 59.42 191.34 63.95 141.84 47.58 31.9 10.63c30.85,10.46 64.3,8.54 93.06,-7.66 12.71,-7.14 22.82,-16.91 32.93,-27.02l33.63 -33.45 118.16 -117.62 145.16 -144.47 123.19 -122.5 51.93 -51.75 -6.09 -1.57 3.48 15.34 25.45 109.43 40.25 173.74 43.9 189.06 35.73 153.71c5.4,23.16 10.97,46.33 16.2,69.7 8.02,35.9 -14.28,71.61 -50.01,80.15 -4.35,1.05 -8.71,1.91 -13.06,2.97l-81.37 18.82 -138.72 32.59 -174.26 40.42 -190.63 44.27 -184.88 42.87 -159.46 36.94 -113.8 26.31c-15.51,3.65 -31,7.33 -46.7,10.81 -35.88,7.83 -71.44,-14.47 -79.98,-50.18 -1.74,-6.8 -3.14,-13.59 -4.71,-20.22l-27 -116.42 -40.96 -176.69 -43.56 -188.2 -34.5 -148.81 -14.11 -61.01c-1.05,-4.52 -8.02,-2.6 -6.97,1.93l3.66 15.51 25.79 111.34 40.59 176 44.1 190.11 35.54 153.18c5.05,21.79 9.94,43.56 15.16,65.35 9.59,39.39 48.96,63.78 88.52,55.07 3.84,-0.88 7.85,-1.92 11.68,-2.8l80.34 -18.65 138.18 -32.06 176.52 -40.96 191.33 -44.44 186.8 -43.39 160.49 -37.3 112.93 -26.13c14.97,-3.49 29.96,-6.8 44.76,-10.46 39.39,-9.58 63.78,-48.96 55.07,-88.52 -1.21,-5.75 -2.61,-11.68 -4.01,-17.42l-26.3 -113.8 -41.13 -178.09 -43.92 -189.08 -35.02 -151.24 -14.28 -61.69c-0.17,-0.7 -0.52,-1.22 -0.88,-1.57 -1.38,-1.39 -3.83,-1.39 -5.23,0l-3.48 3.49 -73.01 72.66 -131.9 131.21 -142.55 141.67 -104.91 104.39c-7.83,7.83 -15.68,15.51 -23.51,23.34 -25.44,25.27 -60.83,37.64 -96.37,30.33 -9.59,-2.09 -18.99,-5.57 -28.41,-8.71l-47.74 -16.04 -159.97 -53.84 -193.08 -64.64 -163.09 -54.55 -68.32 -22.82c-4.35,-1.4 -6.28,5.57 -1.75,6.97z"/>
   <path class="fil1" d="M543.6 1032.45c-0.17,0.35 -0.17,0.71 -0.35,1.05 -2.96,8.01 -5.93,15.85 -8.88,23.86l-18.82 50.55 -25.97 69.7 -30.84 82.77 -33.11 88.71 -32.76 87.64 -30.16 80.51 -24.56 65.52 -16.56 44.44 -6.09 16.37c-1.57,4.37 5.4,6.28 6.97,1.92 0.17,-0.35 0.17,-0.69 0.34,-1.04 2.97,-8.02 5.94,-15.87 8.89,-23.87l18.82 -50.36 25.96 -69.71 30.85 -82.77 33.11 -88.69 32.76 -87.66 30.16 -80.51 24.56 -65.52 16.56 -44.42 6.09 -16.39c1.74,-4.35 -5.4,-6.26 -6.97,-2.09z"/>
   <path class="fil1" d="M1067.6 907.86c-3.32,-3.32 -8.54,1.91 -5.4,5.23l0.69 0.7 6.11 6.09 11.68 11.68 16.71 16.54 21.08 20.93 24.93 24.57 27.88 27.53 30.14 29.8 32.07 31.71 33.28 32.76 33.81 33.3 33.63 33.1 32.76 32.42 31.19 30.83 29.28 28.93 26.5 26.14 23.16 22.84 19.17 18.8 14.48 14.13 9.23 9.06 3.14 3.14c3.31,3.32 8.37,-1.74 5.06,-5.05l-0.71 -0.71 -6.09 -6.09 -11.68 -11.68 -16.73 -16.56 -21.08 -20.91 -24.92 -24.56 -27.87 -27.54 -30.16 -29.79 -32.06 -31.71 -33.12 -32.95 -33.8 -33.28 -33.64 -33.11 -32.59 -32.42 -31.19 -30.85 -29.28 -28.91 -26.48 -26.15 -23.17 -22.83 -19.16 -18.82 -14.48 -14.11 -9.23 -9.06 -3.14 -3.14z"/>
   <path class="fil7" d="M655.82 305.8c23.96,0 43.39,19.42 43.39,43.39 0,23.96 -19.42,43.39 -43.39,43.39 -23.96,0 -43.39,-19.42 -43.39,-43.39 0,-23.96 19.42,-43.39 43.39,-43.39z"/>
   <path class="fil1" d="M608.6 349.19c0,22.13 15.85,41.99 37.64,46.18 3.14,0.52 6.26,0.87 9.4,0.87 25.96,0 47.04,-21.08 47.04,-47.05 0,-25.96 -21.08,-47.04 -47.04,-47.04 -25.97,0 -47.04,21.08 -47.04,47.04 0,4.71 7.31,4.71 7.31,0 0.18,-18.99 13.59,-35.38 32.07,-39.21 2.44,-0.52 5.06,-0.69 7.66,-0.69 22.13,-0.18 39.73,17.59 39.9,39.73 0.17,22.13 -17.77,39.9 -39.73,39.9 -22.13,0.17 -39.9,-17.77 -39.9,-39.73 0,-4.71 -7.31,-4.71 -7.31,0z"/>
   <path class="fil7" d="M874.16 1188.06c23.97,0 43.39,19.43 43.39,43.39 0,23.96 -19.42,43.39 -43.39,43.39 -23.96,0 -43.39,-19.42 -43.39,-43.39 0,-23.96 19.42,-43.39 43.39,-43.39z"/>
   <path class="fil1" d="M827.12 1231.45c0,22.14 15.85,41.99 37.64,46.18 3.14,0.52 6.26,0.87 9.4,0.87 25.96,0 47.04,-21.08 47.04,-47.05 0,-25.96 -21.08,-47.04 -47.04,-47.04 -25.97,0 -47.05,21.08 -47.05,47.04 0,4.71 7.32,4.71 7.32,0 0.18,-18.82 13.42,-35.19 32.07,-39.04 2.44,-0.52 5.06,-0.69 7.66,-0.69 22.13,0 39.73,17.42 39.9,39.56 0.18,22.13 -17.77,39.9 -39.73,39.9 -22.13,0.17 -39.9,-17.77 -39.9,-39.73 0,-4.53 -7.32,-4.53 -7.32,0z"/>
   <path class="fil8" d="M1283.5 264.67c36.95,0 66.92,32.69 66.92,73.01 0,40.33 -29.97,73.03 -66.92,73.03 -36.96,0 -66.92,-32.69 -66.92,-73.03 0,-40.32 29.97,-73.01 66.92,-73.01z"/>
   <path class="fil1" d="M1286.98 410.53c0,-9.06 -1.57,-17.94 -4.36,-26.48 -9.58,-28.42 -35.54,-50.01 -66.21,-50.19l0 7.32c8.37,0 16.73,-1.57 24.39,-4.71 28.94,-11.68 46.18,-41.3 46.36,-71.97l-7.14 0c0,9.08 1.57,17.96 4.37,26.5 9.58,28.39 35.54,50.01 66.21,50.18l0 -7.32c-8.37,0 -16.73,1.56 -24.39,4.69 -28.93,11.68 -46.18,41.3 -46.35,71.97 0,4.71 7.14,4.71 7.32,0 0,-8.2 1.39,-16.37 4,-24.22 8.71,-25.45 31.9,-44.96 59.43,-45.13 4.71,-0.17 4.71,-7.32 0,-7.32 -7.49,0 -15.16,-1.57 -22.13,-4.36 -25.96,-10.46 -41.13,-37.82 -41.3,-65.01 -0.18,-4.69 -7.32,-4.69 -7.32,0 0,8.2 -1.4,16.39 -4.01,24.22 -8.71,25.45 -31.89,44.98 -59.43,45.15 -4.71,0.18 -4.71,7.32 0,7.32 7.51,0 15.16,1.57 22.13,4.35 25.97,10.46 41.13,37.82 41.3,65.01 0,4.71 7.32,4.71 7.14,0z"/>
   <path class="fil8" d="M227.15 358.77c36.96,0 66.92,32.7 66.92,73.01 0,40.33 -29.97,73.03 -66.92,73.03 -36.95,0 -66.92,-32.69 -66.92,-73.03 0,-40.31 29.97,-73.01 66.92,-73.01z"/>
   <path class="fil1" d="M230.98 504.8c0,-9.06 -1.57,-17.94 -4.37,-26.49 -9.58,-28.41 -35.54,-50.01 -66.21,-50.18l0 7.32c8.37,0 16.73,-1.57 24.39,-4.71 28.93,-11.68 46.18,-41.3 46.35,-71.97l-7.32 0c0,9.08 1.57,17.96 4.35,26.5 9.59,28.39 35.56,50.01 66.23,50.18l0 -7.32c-8.37,0 -16.73,1.56 -24.39,4.69 -28.93,11.68 -46.18,41.3 -46.35,71.97 0,4.71 7.14,4.71 7.32,0 0,-8.2 1.39,-16.37 4,-24.22 8.71,-25.45 31.9,-44.96 59.43,-45.13 4.69,-0.17 4.69,-7.32 0,-7.32 -7.5,0 -15.16,-1.57 -22.13,-4.36 -25.96,-10.46 -41.13,-37.82 -41.3,-65.01 -0.18,-4.69 -7.32,-4.69 -7.32,0 0,8.2 -1.4,16.39 -4.02,24.22 -8.71,25.44 -31.88,44.98 -59.42,45.15 -4.71,0.17 -4.71,7.32 0,7.32 7.49,0 15.16,1.57 22.13,4.35 25.97,10.46 41.13,37.82 41.3,65.01 0,4.71 7.14,4.71 7.32,0z"/>
   <path class="fil8" d="M355.22 149.14c43.7,0 79.12,38.54 79.12,86.08 0,47.55 -35.42,86.09 -79.12,86.09 -43.69,0 -79.11,-38.54 -79.11,-86.09 0,-47.54 35.42,-86.08 79.11,-86.08z"/>
   <path class="fil1" d="M358.89 321.13c0,-10.45 -1.74,-20.73 -5.06,-30.67 -5.57,-16.71 -15.85,-31.36 -29.79,-42.33 -13.77,-10.65 -30.5,-16.39 -47.92,-16.56l0 7.49c9.59,0 19.16,-1.91 28.22,-5.4 33.82,-13.59 54.2,-48.44 54.38,-84.34l-7.32 0c0,10.46 1.74,20.73 5.06,30.67 5.57,16.73 15.85,31.37 29.79,42.35 13.77,10.63 30.5,16.37 47.92,16.54l0 -7.32c-9.59,0 -19.16,1.92 -28.24,5.4 -33.8,13.59 -54.19,48.44 -54.36,84.35 0,4.71 7.14,4.71 7.32,-0.18 0,-9.59 1.57,-19.34 4.71,-28.58 10.28,-30.31 37.99,-53.5 70.75,-53.67 4.69,-0.17 4.69,-7.32 0,-7.32 -9.06,-0.17 -17.96,-1.91 -26.3,-5.23 -30.85,-12.37 -48.98,-44.96 -49.15,-77.37 -0.17,-4.71 -7.32,-4.71 -7.32,0 0,9.77 -1.57,19.51 -4.71,28.76 -10.28,30.31 -37.99,53.5 -70.75,53.67 -4.71,0.17 -4.71,7.32 0,7.32 9.06,0.17 17.94,1.91 26.31,5.23 30.84,12.37 48.98,44.96 49.15,77.37 0,4.71 7.32,4.71 7.32,-0.18z"/>
   <path class="fil1" d="M839.14 1009.63c-0.52,-1.92 -2.61,-2.97 -4.54,-2.63 -1.91,0.71 -3.12,2.63 -2.61,4.54l1.75 11.68 7.83 51.41 4.89 32.23c0.7,1.92 2.62,3.14 4.54,2.62 1.91,-0.7 3.14,-2.62 2.6,-4.53l-1.74 -11.68 -7.83 -51.39 -4.88 -32.24z"/>
   <path class="fil1" d="M863.71 1001.44c-0.52,-1.92 -2.43,-2.97 -4.17,-2.44 -1.94,0.69 -3.14,2.61 -2.63,4.52l1.75 11.85c1.39,10.28 2.96,20.56 4.36,30.85l0 0.17c-0.17,-0.88 0,0.35 0,0.35 0.17,1.22 0.17,2.62 0.17,4.01 -0.17,2.44 -0.53,4.69 -1.22,6.97 -1.57,4.87 -4.37,9.06 -8.02,12.37 -3.12,2.95 -6.61,5.92 -9.92,8.89 -3.49,2.97 1.57,8.2 5.06,5.06 4.35,-4.02 9.4,-7.85 13.23,-12.37 6.28,-7.68 9.06,-17.79 7.51,-27.53 -0.53,-4.19 -1.22,-8.37 -1.74,-12.56l-4.37 -30.14z"/>
   <path class="fil1" d="M1361.21 516.13c-3.48,3.31 1.75,8.37 4.37,5.92 0.34,-0.35 0.52,-0.52 0.69,-0.69 12.37,-11.85 25.96,-21.96 40.78,-30.5 9.58,-5.57 19.68,-10.28 30.83,-11.83 9.07,-1.4 18.65,0.34 25.44,6.97 0.88,0.86 1.75,1.74 2.62,2.78 0.35,0.34 0.69,0.88 1.04,1.22 -0.52,-0.7 0.35,0.52 0.54,0.69 0.51,0.88 1.03,1.57 1.57,2.45 0.17,0.52 0.34,0.87 0.51,1.21 0.52,0.71 0,-0.34 0.18,0.18 0.34,0.7 0.51,1.57 0.69,2.27 0,0.35 0.19,0.52 0.19,0.87 -0.19,-1.21 0,-0.18 0,0.17l0 1.05c0,0.88 0.17,-0.34 0,0 0,0.52 -0.19,1.05 -0.37,1.57 0.37,-0.69 0.37,-0.52 0,0 0,0.17 -0.17,0.52 -0.34,0.69 -0.52,0.71 0.34,-0.52 0,-0.17 -0.17,0.17 -0.35,0.35 -0.52,0.52 -0.17,0.19 -0.53,0.36 -0.71,0.53 0.18,-0.17 0.71,-0.34 0,0 -0.34,0.35 -0.86,0.52 -1.39,0.87 -0.87,0.36 0,0 -0.18,0 -0.34,0.17 -0.51,0.17 -0.86,0.36 -0.52,0.17 -1.05,0.17 -1.57,0.34 -0.35,0.18 -1.74,0.35 -0.35,0.18l-0.7 0 -1.92 0c-0.69,0 -1.38,-0.18 -2.09,-0.18 -0.34,0 0.88,0.18 -0.17,0 -0.17,0 -0.52,-0.17 -0.88,-0.17 -0.69,-0.17 -1.38,-0.36 -2.09,-0.53 -0.34,-0.18 -0.52,-0.18 -0.86,-0.35 -0.17,0 -0.35,-0.17 -0.53,-0.17 -0.52,-0.18 0.88,0.34 0.19,0 -1.22,-0.52 -2.45,-1.23 -3.67,-2.09 -0.69,-0.52 0.19,0.17 0,0 -0.17,-0.17 -0.35,-0.17 -0.52,-0.35 -0.17,-0.17 -0.52,-0.53 -0.69,-0.7 -0.53,-0.52 -1.05,-1.04 -1.57,-1.57 -0.71,-0.69 0.35,0.34 -0.35,-0.52 -0.17,-0.35 -0.36,-0.52 -0.53,-0.87 -0.52,-0.7 -0.86,-1.39 -1.21,-2.1 -0.53,-1.04 0,0.17 -0.36,-0.69 0,-0.35 -0.17,-0.88 -0.35,-1.23 -0.17,-0.86 -0.34,-1.57 -0.51,-2.43 0,-0.36 -0.18,-0.53 -0.18,-0.88 -0.17,-0.86 0,0.52 0,0 -0.17,-0.52 -0.17,-0.86 -0.17,-1.4l0 -3.12c0,-2.11 0.35,-4.19 0.86,-6.28 1.57,-5.92 3.83,-11.68 6.97,-16.91 0.7,-1.4 1.39,-2.61 2.27,-3.83 0.35,-0.51 0.69,-0.88 1.04,-1.39 0.17,-0.18 0.17,-0.35 0.35,-0.52 0.36,-0.52 -0.52,0.69 0,0 0.19,-0.17 0.36,-0.52 0.7,-0.88 9.23,-10.63 20.91,-18.82 33.97,-23.86 1.94,-0.71 3.14,-2.62 2.63,-4.54 -0.69,-2.09 -2.63,-3.14 -4.54,-2.62 -4.69,1.92 -9.23,4.02 -13.59,6.45 -10.09,5.75 -20.03,13.77 -26.65,23.53 -6.09,8.71 -10.8,20.03 -11.14,30.85 -0.54,8.35 3.12,16.37 9.75,21.6 5.4,3.83 12.2,5.57 18.82,4.36 5.93,-1.05 11.33,-5.4 11.85,-11.68 0.88,-8.37 -6.45,-16.56 -12.71,-21.25 -19.87,-14.99 -47.58,-2.11 -65.88,9.06 -13.94,8.37 -26.83,18.28 -38.68,29.62z"/>
   <path class="fil5" d="M775.89 784.31c-101.42,26.48 -125.13,-40.78 -125.13,-40.78l159.46 -39.56c0,0 9.06,62.21 -34.33,80.34z"/>
   <path class="fil1" d="M809.69 700.14l-0.35 0c-6.45,1.23 -12.9,3.14 -19.34,4.71l-39.92 9.94 -45.99 11.49 -38.16 9.42 -15.87 4.01c-1.92,0.69 -3.12,2.6 -2.61,4.53 0.17,0.18 0.17,0.18 0.17,0.35 2.26,7.14 7.49,14.11 12.37,19.68 10.45,11.85 23.87,20.39 39.04,24.93 24.56,7.66 51.23,5.04 75.8,-1.05 11.14,-2.8 20.91,-11.68 27.19,-21.08 5.4,-8.37 9.06,-17.96 10.8,-27.88 2.26,-11.85 2.61,-24.22 1.04,-36.25 -0.69,-1.93 -2.61,-3.14 -4.52,-2.62 -1.91,0.69 -3.14,2.62 -2.62,4.53 0,0.35 -0.17,-1.39 0,-0.17 1.57,13.06 0.71,26.31 -2.43,39.02 -2.09,9.25 -6.46,17.79 -12.54,24.93 -3.48,4 -7.5,7.14 -12.03,9.75 -2.62,1.57 -5.41,2.62 -8.37,3.31 -3.66,0.88 -7.5,1.74 -11.33,2.45 -21.95,4.01 -45.3,4.18 -66.21,-4.19 -3.66,-1.57 -7.14,-3.32 -10.46,-5.23 -1.57,-1.04 -3.14,-2.09 -4.71,-3.14 -0.69,-0.52 -1.57,-1.04 -2.26,-1.57 -0.17,0 -1.05,-0.69 -0.53,-0.35 -0.35,-0.34 -0.69,-0.52 -1.04,-0.86 -2.62,-1.92 -4.88,-4.19 -7.14,-6.46 -1.05,-1.05 -1.91,-2.26 -2.96,-3.31 -0.35,-0.52 -0.88,-1.04 -1.23,-1.57 -0.34,-0.17 -0.52,-0.52 -0.69,-0.69 -0.17,-0.17 -0.71,-0.88 -0.17,-0.17 -2.45,-3.32 -4.71,-6.8 -6.63,-10.46 -0.52,-1.05 -1.05,-2.1 -1.57,-3.14 0.69,1.57 0,0.17 -0.17,-0.35l-2.62 4.52 0.36 0c2.08,-0.35 4.17,-0.87 6.26,-1.57l13.08 -3.32 39.9 -9.92 46.01 -11.51 38.16 -9.42 15.85 -4.01c4.54,-1.04 2.61,-8.01 -1.57,-7.32z"/>
   <path class="fil1" d="M874.52 291.69c1.4,-1.4 1.4,-3.66 0,-5.06 -0.17,-0.17 -0.69,-0.88 0.17,0.34 -0.17,-0.34 -0.52,-0.69 -0.69,-1.03 -0.88,-1.23 -1.57,-2.45 -2.45,-3.68 -13.42,-20.03 -21.77,-45.3 -15.34,-69.35l-3.49 2.62c5.94,-0.52 12.03,-0.88 17.96,-1.05l4.69 0c0.54,0.17 1.23,0.17 1.75,0.17l0.88 0c0.69,0.17 -1.06,-0.17 -0.35,0 0.52,0.17 0.86,0.36 1.4,0.36 0.69,0 -0.88,-0.36 -0.54,-0.19 0.54,0.36 -0.69,-0.52 -0.51,-0.34 -0.18,0 -1.57,-2.26 -1.06,-2.44l0 0.69c-0.51,4.54 -0.51,9.25 0,13.94 1.4,19.53 8.37,38.33 21.62,52.98l0 -5.06c-8.02,5.94 -17.42,9.77 -27.36,11.14 -1.92,0.71 -3.14,2.62 -2.63,4.54 0.71,1.91 2.63,3.14 4.54,2.62 10.99,-1.74 21.62,-6.28 30.5,-13.08 1.4,-1.4 1.4,-3.66 0,-5.06 -7.85,-8.88 -13.59,-19.51 -16.56,-31.02 -1.92,-7.49 -2.95,-15.16 -3.14,-22.82 0,-2.97 0.36,-5.92 0.36,-8.89 0,-3.66 -3.85,-4.19 -6.63,-4.53 -8.2,-0.87 -16.73,0.17 -24.75,0.88 -1.57,0 -2.95,1.04 -3.49,2.61 -2.26,8.71 -2.95,17.59 -2.09,26.5 1.57,13.4 5.77,26.48 12.2,38.33 2.97,5.74 6.46,10.97 10.28,16.03 1.57,1.4 3.83,1.4 4.71,-0.17z"/>
   <path class="fil1" d="M1597.16 717.05c-0.52,0.17 -1.05,0.34 -1.57,0.34 -0.35,0.18 -0.52,0.18 -0.87,0.18 -0.88,0.17 0.87,-0.18 -0.17,0 -0.71,0.17 -1.57,0.36 -2.45,0.36 -24.05,2.43 -50.36,-1.93 -68.32,-18.99l0.53 4.35c3.32,-7.66 6.44,-15.68 11.14,-22.65 0.18,-0.18 0.18,-0.18 0.35,-0.35 0.36,-0.53 -0.52,0.69 -0.17,0.35 0,-0.18 0.17,-0.35 0.36,-0.52 0.86,-0.53 -0.71,0.52 -0.19,0.17 -0.86,0.52 -1.73,0.52 -2.61,0.35 -1.22,-0.35 -1.05,-0.52 -0.52,-0.18 3.66,2.61 7.66,4.89 11.83,6.46 18.13,8.18 38.35,10.97 57.87,6.09l-4.54 -2.61c1.57,9.75 0.7,19.86 -2.78,29.26 -1.57,4.36 5.4,6.28 6.97,1.93 3.66,-10.65 4.71,-21.96 2.78,-33.11 -0.69,-1.93 -2.61,-3.14 -4.52,-2.62 -11.85,2.96 -24.22,2.96 -36.08,0.17 -7.49,-1.74 -14.82,-4.35 -21.61,-8.02 -1.92,-1.03 -3.66,-2.08 -5.4,-3.12 -0.69,-0.53 -1.4,-0.88 -2.26,-1.23 -2.97,-0.88 -5.06,2.26 -6.46,4.35 -4.35,6.8 -7.32,14.65 -10.46,21.96 -0.86,1.4 -0.52,3.14 0.52,4.37 6.63,6.09 14.48,10.97 22.84,14.46 12.37,4.71 25.62,7.14 38.85,6.97 6.28,0 12.73,-0.51 19,-1.57 4.53,-0.86 2.62,-7.83 -2.09,-7.14z"/>
   <path class="fil1" d="M83.56 771.24c-1.39,-1.4 -3.65,-1.4 -5.05,0 -1.23,1.57 -2.61,3.14 -4.01,4.54 -16.56,17.59 -39.39,31.54 -64.31,30.83l3.48 2.62c-1.91,-5.75 -3.83,-11.68 -5.23,-17.59 -0.34,-1.57 -0.69,-3.14 -1.03,-4.71 0,-0.35 -0.17,-0.69 -0.17,-1.05 -0.18,-0.69 0,0.7 0,0 -0.18,-0.35 -0.18,-0.69 -0.18,-1.04 0,-0.88 0.35,-1.57 0,-0.35 0,-0.7 -0.17,0.35 -0.36,0.52 0.19,-0.52 -0.69,0.69 -0.52,0.52 -0.69,0.53 -1.39,0.88 -2.09,1.05 -0.69,0.17 -0.51,0 -0.34,0 0.69,-0.17 1.38,-0.17 2.09,-0.34 4.71,-0.88 9.4,-1.92 13.94,-3.49 18.3,-5.94 34.68,-17.08 45.65,-32.93l-5.75 0.69c5.4,4.35 9.77,9.59 13.25,15.51 1.21,2.09 2.44,4.18 3.49,6.45 0.34,0.69 0.52,1.21 0.86,1.92 0.35,0.69 -0.34,-0.88 0,0 0.71,1.92 2.63,3.14 4.54,2.61 1.92,-0.69 3.14,-2.61 2.61,-4.52 -4.01,-10.45 -10.63,-19.87 -19.34,-27.01 -0.17,-0.17 -0.34,-0.35 -0.52,-0.52 -1.74,-1.05 -4,-0.53 -5.05,1.21 -6.63,9.42 -15.34,17.25 -25.62,22.84 -6.63,3.66 -13.77,6.44 -21.08,8.37 -2.26,0.69 -4.71,1.21 -6.97,1.55 -0.71,0.18 -1.4,0.18 -2.09,0.36 0.34,0 1.04,-0.19 0.17,0 -3.66,0.52 -4.19,3.66 -3.83,6.61 0.86,8.54 4,17.08 6.61,25.1 0.54,1.57 1.92,2.61 3.49,2.61 8.9,0.36 17.79,-1.03 26.15,-4 12.71,-4.54 24.39,-11.49 34.31,-20.39 4.71,-3.83 9.07,-8.35 12.9,-13.06 1.23,-1.39 1.23,-3.66 0,-4.88z"/>
   <path class="fil1" d="M77.98 340.13c0,2.6 0.52,5.4 1.4,7.85 4.35,11.83 17.59,17.94 29.45,13.58 11.85,-4.35 17.94,-17.59 13.59,-29.45 -4.37,-11.83 -17.6,-17.94 -29.45,-13.58 -8.89,3.48 -14.82,12.01 -14.99,21.6 0,4.71 7.32,4.71 7.32,0 0.17,-7.66 5.57,-14.11 12.91,-15.51 1.03,-0.17 1.91,-0.17 2.78,-0.17 8.71,0 15.68,6.97 15.68,15.68 0,8.71 -6.97,15.68 -15.68,15.68 -8.71,0 -15.68,-6.97 -15.68,-15.68 0,-4.71 -7.14,-4.71 -7.32,0z"/>
   <polygon class="fil5" points="769.79,733.6 755.33,678.02 676.9,665.99 693.81,751.73 "/>
   <path class="fil1" d="M690.33 752.59c0.88,4.71 7.85,2.61 7.14,-1.91l-2.09 -10.63 -9.06 -46.18 -5.76 -28.93 -4.52 4.53 9.75 1.57 42.18 6.44 26.48 4.02 -2.6 -2.62 1.74 6.97 12.71 48.44c1.22,4.54 8.2,2.62 6.97,-1.91l-1.74 -6.97 -12.71 -48.44c-0.36,-1.39 -1.4,-2.26 -2.62,-2.6l-9.75 -1.57 -42.18 -6.46 -26.48 -4c-0.53,-0.17 -1.23,-0.17 -1.74,0 -1.92,0.52 -3.14,2.61 -2.63,4.52l2.09 10.63 9.08 46.18 5.75 28.93z"/>
   <path class="fil1" d="M931.5 474.13c0,2.61 0.52,5.4 1.4,7.83 4.35,11.85 17.59,17.96 29.45,13.59 11.85,-4.35 17.94,-17.6 13.59,-29.45 -4.36,-11.83 -17.59,-17.94 -29.44,-13.59 -8.89,3.49 -14.82,12.03 -14.99,21.61 0,4.71 7.32,4.71 7.32,0 0,-7.66 5.57,-14.11 12.9,-15.51 1.04,-0.17 1.92,-0.17 2.78,-0.17 8.71,0 15.68,6.97 15.68,15.68 0,8.71 -6.97,15.68 -15.68,15.68 -8.71,0 -15.68,-6.97 -15.68,-15.68 0,-4.71 -7.32,-4.71 -7.32,0z"/>
   <path class="fil1" d="M670.11 140.25c2.26,4.18 8.54,0.52 6.11,-4.17 -0.17,-0.36 -0.36,-0.71 -0.53,-1.05 -0.18,-0.35 -0.52,-0.88 -0.69,-1.4 -0.18,-0.18 -0.18,-0.52 -0.35,-0.69 0,-0.18 -0.17,-0.35 -0.17,-0.52 -0.19,-0.36 0.17,0.69 0,0.17 -0.71,-1.57 -1.23,-3.31 -1.75,-4.88 -1.22,-4.02 -1.93,-8.2 -1.74,-12.37 0.35,-10.28 6.44,-19.36 15.85,-23.7 0.17,-0.17 0.35,-0.17 0.69,-0.34 -0.17,0 -0.69,0.17 -0.17,0 0.34,-0.18 0.52,-0.18 0.88,-0.36 0.52,-0.18 1.04,-0.18 1.74,-0.35l0.17 0 0.69 0c0.88,0 -0.35,-0.17 0,0 0.17,0 0.51,0.17 0.69,0.17 0.7,0.18 0.36,0.18 0,0 0.19,0.18 0.36,0.18 0.53,0.36 0.69,0.69 -0.53,-0.53 0.35,0.35 0.51,0.52 0,-0.17 0,0 0.17,0.17 0.17,0.34 0.34,0.52 0.17,0.17 0.17,0.34 0.35,0.52 -0.18,-0.35 -0.18,-0.69 0,-0.18 0.19,0.35 0.19,0.88 0.36,1.4 0.17,0.88 0,-0.52 0,0l0 0.71 0 1.72c0,0.19 -0.18,1.23 0,0.54 0,-0.71 -0.18,0.34 -0.18,0.52 -0.19,1.22 -0.53,2.26 -1.05,3.48 0.35,-1.05 -0.34,0.71 -0.52,1.05 -0.36,0.52 -0.7,1.04 -1.05,1.57 -0.34,0.35 -0.52,0.52 -0.69,0.87 -0.19,0.34 0.52,-0.52 0.17,-0.17 -0.17,0.17 -0.17,0.17 -0.36,0.34 -0.51,0.53 -0.86,0.88 -1.38,1.4 -0.36,0.17 -0.53,0.52 -0.88,0.69 -0.52,0.53 0.17,-0.17 -0.17,0.19 -0.52,0.34 -1.23,0.69 -1.74,1.03 -0.35,0.18 -0.69,0.35 -1.06,0.52 -0.17,0.19 -0.86,0.36 -0.17,0.19 -0.69,0.35 -1.38,0.52 -2.09,0.69 -0.52,0.17 -0.86,0.17 -1.39,0.35 -0.18,0.17 -0.35,0.17 -0.52,0.17l0.17 0c-0.86,0.17 -1.57,0.17 -2.43,0.17 -0.88,0 -1.92,0 -2.8,-0.17 0.71,0 -0.52,-0.17 -0.69,-0.17 -0.53,-0.18 -0.88,-0.18 -1.4,-0.35 -1.91,-0.34 -3.83,-1.05 -5.57,-1.91 -5.23,-2.45 -10.11,-5.75 -14.48,-9.77 -4.01,-3.66 -7.49,-8.71 -7.49,-14.11 0,-4 1.57,-8.02 4.36,-10.97 1.38,-1.57 2.78,-2.97 4.52,-4.02 0.69,-0.69 1.74,-1.04 2.62,-1.57 0.17,0 0.34,-0.18 0.52,-0.18 -0.71,0.18 -0.18,0 0,0 0.34,-0.17 0.86,-0.17 1.22,-0.34 0.52,-0.18 1.04,-0.35 1.56,-0.35 -0.69,0.17 0.19,0 0.53,0l0.86 0c0.54,0 -0.69,-0.17 -0.17,0 0.17,0 0.35,0.17 0.54,0.17 0.51,0.35 0.34,0.18 0,0 0,0 0.17,0.18 0.34,0.18 0,0 0.35,0.17 -0.17,-0.18l0.34 0.35c0,0.35 -0.17,-0.52 0.18,0.17 0.34,0.88 0,-0.34 0.17,0.18 0.17,0.36 0.34,0.7 0.34,1.05 0.18,0.52 0,-0.69 0,-0.18l0 0.52 0 1.23c0,0.34 -0.17,1.22 0,0.52 -0.34,1.91 -0.86,3.65 -1.57,5.4 -1.74,4.02 -4.35,7.68 -7.66,10.64 -3.14,2.95 -6.97,4.87 -11.16,5.4 -5.23,0.17 -10.46,-1.57 -14.28,-5.23 -1.4,-1.4 -3.66,-1.4 -5.06,0 -1.4,1.38 -1.4,3.66 0,5.05 2.8,2.61 6.11,4.52 9.59,5.92 11.85,4.71 23.69,-1.74 30.85,-11.33 2.95,-3.83 5.06,-8.52 6.09,-13.4 0.71,-4.37 0.35,-9.59 -3.83,-12.2 -3.83,-2.45 -8.71,-1.22 -12.54,0.52 -4.71,2.26 -8.71,5.92 -11.51,10.28 -3.32,5.05 -4.54,11.14 -3.32,17.08 1.57,7.32 6.97,12.89 12.54,17.42 8.37,6.8 18.99,13.06 30.15,11.49 7.32,-1.04 13.42,-5.57 16.72,-12.01 2.45,-5.05 3.85,-12.02 0.36,-17.08 -4.54,-6.45 -13.08,-4.02 -18.65,-0.36 -11.33,6.99 -17.59,19.7 -16.22,32.95 0.71,6.97 2.8,13.75 6.11,19.85z"/>
   <path class="fil1" d="M488.36 595.07l-2.61 -7.14 -17.96 -49.66c-0.69,-1.92 -2.61,-3.14 -4.52,-2.61l-4.54 1.75 -31.73 12.71c-0.69,0.34 -1.38,0.86 -1.91,1.57 -1.04,1.74 -0.52,4 1.22,5.05l7.14 5.23 49.66 36.94c1.57,1.05 3.83,0.54 4.88,-1.22 1.04,-1.73 0.52,-3.83 -1.22,-4.87l-7.14 -5.23 -49.66 -36.96 -0.86 6.63 4.52 -1.74 31.72 -12.71 -4.53 -2.62 2.62 7.14 17.94 49.67c1.57,4.36 8.71,2.45 6.97,-1.92z"/>
   <path class="fil5" d="M661.05 675.57l18.12 2.43c-12.89,-28.91 -39.54,-40.94 -47.05,-63.95 -4.17,-13.4 7.32,-47.05 7.32,-47.05l140.12 -25.25c0,0 55.58,119.54 -10.82,148.47 -15.68,2.78 -31.71,2.6 -47.39,-0.71l-60.3 -13.94z"/>
   <path class="fil1" d="M722.22 686.03c-4.54,-1.05 -6.46,5.93 -1.75,6.63 2.97,0.69 6.09,1.22 9.06,1.57 6.62,0.86 13.42,1.22 20.04,1.03 3.48,0 7.14,-0.34 10.8,-0.69 3.49,-0.34 7.49,-0.34 10.63,-1.74 6.97,-2.97 13.25,-7.49 18.3,-13.25 9.94,-11.14 14.11,-25.8 15.34,-40.42 1.21,-15.34 -0.88,-30.85 -4.19,-45.84 -2.78,-12.54 -6.62,-25.09 -11.14,-37.28 -1.91,-5.59 -4.19,-10.99 -6.62,-16.39 -0.69,-1.4 -2.44,-2.09 -4.01,-1.75l-17.25 3.14 -75.28 13.59 -47.39 8.54c-1.39,0.34 -2.27,1.39 -2.62,2.6 -1.74,5.42 -3.31,10.99 -4.71,16.56 -1.92,8.37 -3.83,17.25 -3.49,25.79 0.37,8.89 5.06,16.73 10.28,23.53 5.94,7.66 13.08,14.28 19.7,21.42 7.49,7.85 13.77,16.91 18.46,26.66l3.14 -5.4 -18.12 -2.44c-1.91,-0.17 -3.66,1.92 -3.66,3.66 0.18,2.09 1.75,3.66 3.66,3.66l18.12 2.45c2.96,0.52 4.19,-3.31 3.14,-5.42 -5.06,-11.14 -12.54,-20.73 -20.91,-29.45 -6.28,-6.61 -13.25,-13.06 -18.82,-20.56 -2.61,-3.48 -4.71,-7.14 -6.28,-11.14 -1.21,-3.14 -1.74,-6.62 -1.57,-9.94 0.53,-8.19 1.93,-16.37 4.19,-24.22 1.05,-4.35 2.44,-8.71 3.83,-13.06l-2.6 2.6 17.25 -3.14 75.27 -13.59 47.41 -8.52 -4.01 -1.76c0.17,0.19 0.17,0.19 0.17,0.36 0.19,0.69 0.53,1.4 0.88,2.09 0.17,0.69 0.52,1.22 0.69,1.74 0.36,0.69 0,-0.34 0,-0.17 0,0.17 0.17,0.34 0.17,0.52 0.19,0.34 0.36,0.7 0.53,1.05 1.57,4.18 3.14,8.18 4.71,12.37 4.35,12.37 8,24.91 10.63,37.64 3.14,14.11 4.17,28.57 2.95,43.04 -1.38,12.89 -6.09,26.13 -15.51,35.37 -2.26,2.26 -5.05,4.36 -7.83,6.1 -1.57,0.87 -3.32,1.75 -4.89,2.61 -2.79,1.05 -5.74,1.57 -8.71,1.57 -12.71,1.4 -25.45,0.87 -37.99,-1.74z"/>
   <path class="fil1" d="M1131.37 709.73c1.06,1.57 3.14,2.09 4.89,1.23l6.8 -3.14 48.1 -21.62c1.57,-0.86 2.26,-3.12 1.21,-4.86l-2.09 -4.37 -14.99 -30.67c-0.35,-0.52 -0.69,-0.87 -1.21,-1.21 -1.75,-1.05 -4.02,-0.54 -5.06,1.21l-4.71 7.5 -33.11 52.27c-2.43,4.01 3.83,7.66 6.28,3.66l4.69 -7.49 33.11 -52.29 -6.26 0 2.09 4.36 14.99 30.68 1.2 -4.89 -6.78 3.14 -48.1 21.6c-1.75,0.88 -2.28,3.14 -1.06,4.88z"/>
   <path class="fil1" d="M1323.23 125.96c1.74,-1.05 2.26,-3.31 1.22,-4.88 -0.88,-1.57 -3.14,-2.26 -4.88,-1.22l-4.54 3.5 -32.76 24.39c-1.57,1.04 -2.26,3.12 -1.21,4.87 0.86,1.57 3.12,2.27 4.86,1.22l4.54 -3.48 32.76 -24.4z"/>
   <path class="fil1" d="M380.5 740.05c-4.54,-1.05 -6.46,5.92 -1.92,6.97l5.57 1.22 39.73 9.06c4.54,1.05 6.45,-5.93 1.91,-6.97l-5.57 -1.22 -39.73 -9.06z"/>
   <path class="fil2" d="M665.93 691.6c31.36,1.23 9.76,-44.1 9.76,-44.1 -7.85,-3.49 -22.13,-20.73 -24.93,-31.88 -4.18,-16.91 3.84,-23.17 15.68,-26.14 11.85,-2.97 30.5,16.03 34.67,32.59l-11.14 -57.34c0,0 124.59,-1.56 132.79,-38.68 0,0 8.54,-30.33 -28.93,-41.13 21.79,-8.37 15.68,-28.91 -9.58,-31.36 -25.27,-2.44 -207.56,-6.09 -177.4,167.8l59.07 70.23z"/>
   <path class="fil1" d="M603.37 622.25c0.52,1.92 2.61,3.14 4.37,1.92 1.91,-0.69 3.12,-2.61 2.6,-4.52 -0.69,-4.36 -1.39,-8.73 -1.91,-13.08 -3.31,-28.41 -1.05,-58.03 12.37,-83.12 10.63,-19.87 27.02,-34.67 46.53,-45.32 9.23,-4.87 18.99,-9.06 28.93,-12.03 9.58,-2.95 19.51,-5.4 29.45,-6.95 2.26,-0.36 4.54,-0.7 6.8,-1.05 0.34,0 0.86,-0.17 1.22,-0.17 -1.05,0.17 0,0 0.17,0 0.35,0 0.87,-0.17 1.38,-0.17 1.22,0 2.27,-0.18 3.5,-0.36 4.17,-0.35 8.52,-0.69 12.71,-1.04 6.97,-0.52 13.94,-0.69 20.91,-0.52 5.57,0 11.14,0.35 16.56,1.38 3.66,0.71 7.14,2.11 10.09,4.37 2.27,1.57 3.85,4 4.36,6.8 0.18,0.86 0,-0.35 0,0.52l0 1.05c0,0.17 -0.17,1.21 0,0.52 0,0.34 0,0.69 -0.17,1.05 -0.34,1.21 -0.88,2.26 -1.57,3.31 -2.26,2.78 -5.4,4.87 -8.71,6.09 -1.23,0.34 -2.09,1.22 -2.44,2.43 -0.53,1.93 0.52,4.02 2.44,4.54 2.96,0.88 5.74,1.91 8.54,3.14 4.35,2.09 8.37,4.88 11.68,8.37 2.26,2.43 4.01,5.4 5.23,8.71 0.52,1.57 0.86,3.14 1.21,4.71 0,0.35 0.17,0.87 0.17,1.21 0.19,0.71 0,0.18 0,0l0 0.54c0,0.52 0.19,1.21 0.19,1.91l0 3.66c0,0.52 -0.19,1.04 -0.19,1.57l0 0.69c0,-0.34 0.19,-0.86 0,-0.34 -0.17,1.05 -0.34,1.91 -0.52,2.79 -0.17,0.69 -0.34,1.21 -0.51,1.92 0,0.17 -0.35,1.03 0,0.17 -0.18,0.35 -0.18,0.52 -0.35,0.86 -0.53,1.23 -1.22,2.28 -1.92,3.32 -0.36,0.52 0.35,-0.35 0,0 0,0.17 0,0.17 -0.19,0.34 -0.18,0.36 -0.52,0.54 -0.69,0.88l-1.39 1.4c-0.52,0.35 -1.04,0.86 -1.57,1.38 -0.35,0.36 -1.38,1.23 -1.38,1.23 0.35,-0.18 -0.53,0.34 -0.7,0.53 -0.35,0.35 -0.52,0.52 -0.87,0.69 -0.7,0.35 -1.22,0.87 -1.91,1.23 -1.4,0.86 -2.8,1.74 -4.37,2.43 -6.62,3.14 -13.59,5.75 -20.73,7.66 -8.2,2.28 -16.39,4.02 -24.57,5.42 -15.34,2.61 -30.67,4.35 -46.18,5.23 -7.14,0.35 -14.28,0.86 -21.43,0.86 -0.36,0 -0.53,0.18 -0.88,0.18 -1.91,0.52 -3.14,2.62 -2.61,4.54l1.38 6.97 9.76 50.35 6.97 -1.91c-3.14,-11.16 -9.77,-21.08 -18.82,-28.41 -3.49,-2.95 -7.66,-5.23 -12.03,-6.61 -4.01,-1.05 -8.2,-0.7 -12.03,0.87 -8.2,2.79 -14.46,8.37 -15.51,17.25 -1.23,9.94 3.14,19.34 8.54,27.36 2.97,4.17 6.11,8.19 9.77,11.85 2.78,2.8 5.92,5.23 9.4,7.14l-1.21 -1.23c0.35,0.54 0.52,0.88 0.69,1.4 0.18,0.17 0.18,0.52 0.35,0.69 -0.52,-1.21 -0.17,-0.17 0,0.19 0.34,0.86 0.52,1.57 0.88,2.26 2.95,7.32 5.05,14.99 4.87,22.3 -0.18,0.69 -0.18,1.23 -0.18,1.75l0 0.69c0.18,-0.69 0,-0.17 0,0 -0.17,1.05 -0.34,1.91 -0.69,2.79 0,0.18 -0.17,0.52 -0.17,0.69 -0.17,0.54 0.17,-0.51 0,0 -0.17,0.35 -0.35,0.88 -0.52,1.23 -0.17,0.34 -0.53,0.69 -0.7,1.05 -0.35,0.52 0,0.17 0,0 -0.18,0.17 -0.35,0.35 -0.52,0.52 -0.35,0.17 -0.71,0.52 -1.05,0.86 -0.87,0.71 0.34,-0.17 -0.18,0.18 -0.17,0.19 -0.34,0.19 -0.52,0.36 -0.7,0.52 -1.39,0.86 -2.08,1.03 -2.28,0.71 -4.71,1.06 -6.97,0.88 -4.71,0 -4.71,7.14 0,7.32 6.44,0.35 13.06,-1.4 17.06,-6.97 3.32,-4.35 3.85,-10.28 3.5,-15.51 -0.88,-8.71 -3.31,-17.25 -6.98,-25.27 -0.18,-0.52 -0.35,-1.03 -0.69,-1.55 -0.87,-1.4 -2.8,-1.93 -4.01,-2.8 -1.22,-0.88 -2.28,-1.74 -3.31,-2.79 -6.11,-5.57 -10.97,-12.03 -14.82,-19.34 -2.78,-5.57 -5.05,-13.59 -2.26,-19.51 1.05,-2.45 2.97,-4.36 5.4,-5.59 2.63,-1.38 5.4,-2.43 8.2,-2.95 6.09,-0.71 12.71,4.71 16.91,9.06 5.92,5.92 10.28,13.25 12.54,21.25 1.23,4.54 7.83,2.62 6.97,-1.91l-1.39 -6.97 -9.77 -50.35 -3.49 4.54 0.36 0c3.12,0 6.26,-0.18 9.23,-0.35 6.09,-0.19 12.37,-0.53 18.48,-1.05 17.08,-1.23 34.14,-3.49 50.87,-6.8 15.34,-3.14 31.73,-7.14 44.61,-16.2 5.23,-3.48 9.59,-8.37 12.03,-14.3 1.23,-3.32 1.74,-6.8 1.74,-10.28 0.18,-6.97 -1.74,-13.94 -5.57,-19.85 -6.11,-9.42 -16.22,-14.82 -26.84,-17.96l0 6.97c4.19,-1.38 8.02,-3.83 11.16,-6.97 5.23,-5.23 6.09,-13.23 2.26,-19.51 -4.71,-7.49 -13.77,-10.8 -22.13,-11.85 -5.23,-0.69 -10.28,-0.87 -15.51,-0.87 -17.25,-0.17 -34.51,1.4 -51.41,4.52 -21.43,3.84 -42.68,10.82 -61.5,22.13 -20.56,12.37 -37.47,30.33 -47.23,52.27 -12.89,29.64 -12.89,62.75 -7.49,94.11z"/>
   <path class="fil1" d="M751.14 642.46c-8.54,-3.66 -4.71,-8.89 -4.71,-8.89 4.54,1.57 9.06,2.97 13.77,4.01 0,0 -3.14,7.32 -9.06,4.88z"/>
   <path class="fil1" d="M763.34 638.28c0.35,-1.91 -0.69,-4 -2.6,-4.53 -4.71,-1.04 -9.25,-2.44 -13.77,-4.01 -1.57,-0.34 -3.14,0.35 -4.02,1.74 -0.86,1.4 -1.39,2.8 -1.39,4.37 0,2.61 1.05,5.04 2.96,6.78 2.45,2.45 5.75,3.85 9.23,3.68 2.79,-0.36 5.23,-1.74 6.99,-3.85 0.86,-1.04 1.55,-2.09 2.08,-3.31 0.35,-0.87 0.52,-1.92 0.35,-2.78 -0.35,-0.88 -0.88,-1.57 -1.74,-2.09 -0.88,-0.53 -1.92,-0.53 -2.8,-0.36 -0.86,0.36 -1.57,0.88 -2.09,1.74 0,0.36 -0.17,0.54 -0.34,0.88 -0.18,0.35 -0.35,0.52 -0.52,0.87 -0.19,0.19 -0.19,0.36 -0.36,0.53 -0.17,0.52 0.7,-0.71 0.36,-0.35l-0.19 0.18c-0.17,0.34 -0.52,0.51 -0.86,0.86l-0.18 0.17c-0.51,0.35 0.69,-0.52 0.35,-0.34 -0.17,0.17 -0.35,0.17 -0.52,0.34 -0.17,0.18 -0.53,0.18 -0.7,0.35 -0.18,0.19 -0.35,0 0.53,-0.17 0,0.17 -0.17,0.17 -0.17,0.17 -0.19,0 -0.54,0.19 -0.71,0.19 -0.52,0.17 1.05,0 0.52,0l-0.35 0 -0.69 0 0.35 0 -0.35 0c-0.17,-0.19 -0.17,-0.19 -0.34,-0.19 -0.18,-0.17 -0.18,-0.17 -0.35,-0.17l0.52 0.17c0,-0.17 -0.71,-0.35 -0.88,-0.52 -0.35,-0.17 -0.69,-0.35 -1.04,-0.52 -0.36,-0.17 -1.05,-0.88 -0.17,0l-1.05 -1.05c-0.52,-0.52 0,0.35 0.17,0.35l-0.17 -0.35c0,0 -0.17,-0.17 -0.17,-0.35 -0.35,-0.69 0.34,0.88 0.17,0.18 0,-0.18 -0.17,-0.35 -0.17,-0.52 -0.18,-0.71 0,1.04 0,0.34l0 -0.51 0 -0.54c-0.18,0 -0.35,1.05 -0.18,0.71l0 -0.17c0,-0.18 0,-0.54 0.18,-0.71 0.17,-0.52 -0.18,0.53 -0.18,0.53 0.18,0 0.18,0 0.18,-0.17 0.17,-0.19 0.17,-0.36 0.34,-0.53l-4 1.74c4.52,1.57 9.06,2.97 13.77,4 1.91,0.54 3.83,-0.51 4,-2.78z"/>
   <path class="fil1" d="M687.54 627.48c1.22,1.92 4.36,0.17 2.79,-1.74 -1.05,-1.75 -2.1,-3.49 -3.31,-5.23 -1.92,-3.14 -4.2,-5.92 -6.8,-8.54 -2.28,-2.61 -5.4,-4.35 -8.71,-4.89 -4.19,-0.34 -7.85,2.8 -8.19,6.97 0.17,2.8 1.39,5.4 3.48,7.32 1.74,1.57 4.37,-1.04 2.61,-2.61 -1.38,-1.39 -3.12,-3.83 -2.26,-5.74 0.34,-0.71 0.88,-1.23 1.57,-1.57 0.34,-0.18 0.52,-0.35 0.88,-0.54 0.52,-0.17 -0.36,0.19 0.17,0 0.17,0 0.52,-0.17 0.69,-0.17 0.17,0 0.17,0 0,0l0.35 0 0.53 0 0.35 0c0.17,0 -0.52,-0.17 0,0 0.34,0 0.51,0 0.86,0.17 0.17,0 0.34,0.19 0.53,0.19 0.52,0.17 -0.19,-0.19 0.18,0 2.6,1.38 5.05,3.3 6.8,5.57 2.95,3.31 5.4,6.97 7.49,10.8z"/>
   <path class="fil7" d="M745.74 492.25c20.56,-9.77 48.27,-7.32 48.27,-7.32l-48.27 7.32z"/>
   <path class="fil1" d="M794.01 488.6c4.54,0.35 4.54,-6.97 0.17,-6.97 -5.75,-0.52 -11.51,-0.52 -17.08,0 -11.49,0.52 -22.65,3.14 -33.11,7.66 -1.57,0.88 -2.26,3.14 -1.23,4.88 1.06,1.57 3.14,2.09 4.89,1.23 9.42,-4.37 20.04,-6.11 30.5,-6.8 5.23,-0.35 10.63,-0.35 15.85,0z"/>
   <path class="fil1" d="M741.56 587.4c1.74,0.88 3.83,0.34 5.06,-1.23 1.05,-1.57 0.52,-3.83 -1.23,-4.88 -3.31,-1.38 -6.97,-2.26 -10.63,-2.43 -7.66,-0.35 -15.16,2.26 -21.08,7.14 -1.4,1.4 -1.4,3.66 0,5.06 1.4,1.4 3.66,1.4 5.06,0 2.61,-2.09 5.57,-3.49 8.71,-4.35 0.69,-0.17 1.4,-0.36 2.09,-0.54l0.52 0c0.36,-0.17 0.71,-0.17 1.05,-0.17 1.23,0 2.61,-0.17 3.83,0l0.88 0c0.18,0 1.04,0.17 0.52,0 -0.52,-0.17 0.17,0 0.35,0 0.34,0 0.52,0.17 0.88,0.17 0.86,0.18 1.74,0.37 2.6,0.71 0.52,0.17 1.06,0.35 1.4,0.52 1.05,0.34 -0.69,-0.35 0,0z"/>
   <path class="fil1" d="M790.87 579.38c4.53,1.22 6.45,-5.75 1.39,-7.32 -4.36,-1.05 -8.88,-1.22 -13.25,-0.71 -5.75,0.71 -11.14,2.45 -14.99,6.97 -3.48,4.02 -5.23,9.25 -5.05,14.47 0.7,10.97 9.25,20.74 17.44,27.37l-0.88 -1.57c0.35,0.51 0.35,1.03 0.52,1.57 -0.17,-0.88 0,1.2 0,0.17 0,0.69 0.36,-0.17 0,0.34 0,0.35 -0.17,0.35 0,0.18 -2.09,1.05 -4.35,1.57 -6.8,1.39 -4.69,0.18 -4.69,7.49 0,7.32 5.77,-0.17 13.96,-1.4 14.3,-8.71 0,-1.23 -0.17,-2.44 -0.54,-3.66 -0.69,-1.92 -2.26,-2.97 -3.65,-4.19 -2.78,-2.26 -5.23,-4.87 -7.32,-7.83 -2.97,-4.18 -6.09,-9.59 -5.4,-14.99 0.86,-5.4 4.88,-9.75 10.28,-10.8 4.54,-1.05 9.4,-1.05 13.94,0z"/>
   <path class="fil1" d="M782.86 590.36c2.79,0 5.05,2.26 5.05,5.06 0,2.79 -2.26,5.05 -5.05,5.05 -2.8,0 -5.06,-2.26 -5.06,-5.05 0,-2.8 2.26,-5.06 5.06,-5.06z"/>
   <path class="fil1" d="M777.28 594.37c-0.88,0.35 -1.4,1.23 -1.22,2.26 0.53,2.45 2.1,4.36 4.36,5.23 3.49,1.22 7.32,-0.52 8.71,-4.01 1.03,-2.61 0.34,-5.57 -1.75,-7.49 -2.09,-1.92 -5.23,-2.28 -7.85,-0.88 -1.03,0.71 -2.09,1.57 -2.6,2.8 -0.71,1.39 -0.88,2.96 -0.71,4.35 0.36,0.88 1.22,1.39 2.28,1.22 0.86,-0.34 1.38,-1.22 1.2,-2.26 0,0.52 0,-0.17 0.37,0l0 -0.35 0 -0.36 0 0.18 0 -0.35c0.17,-0.17 0.17,-0.17 0.17,-0.35 0,0 0,-0.51 0,0 0,-0.17 0.17,-0.51 0.34,-0.69 0,0 0.18,-0.36 0,0l0.18 -0.17c0.17,-0.19 0.34,-0.53 0.52,-0.53 -0.18,0.17 -0.18,0.17 0,0 0,-0.18 0.17,-0.18 0.17,-0.18 0.19,0 0.19,-0.17 0.36,-0.17l0.34 -0.17c-0.17,0 -0.17,0 0,0l0.18 0c0.17,0 0.52,-0.17 0.69,-0.17 0.36,0 -0.52,0 0,0l0.36 0 0.34 0c0.35,0 0,0 0,0 0.35,0 0.52,0.17 0.69,0.17 0.17,0 0.7,0.17 0.17,0 0,0.17 0.17,0.17 0.17,0.17 0.17,0.17 0.36,0.17 0.53,0.35 0.35,0.17 -0.17,-0.18 0,0l0.18 0.17 0.52 0.53c-0.18,-0.36 0,-0.17 0,0 0,0.18 0.17,0.18 0.17,0.35 0.17,0 0.17,0.17 0.17,0.17 0.17,0.35 -0.17,-0.34 0,0 0,0.17 0.17,0.52 0.17,0.69l0 0.36c0,0 0,-0.36 0,0 0,0.18 0.18,0.52 0,0.69 0,-0.17 0,-0.17 0,0l0 0.18 0 0.17c-0.17,0.17 -0.17,0.17 -0.17,0.35 0,0.17 0,0.36 0,0 -0.17,0.17 -0.17,0.36 -0.34,0.53 0,0 -0.35,0.35 -0.18,0.17 0.18,-0.17 -0.17,0.18 -0.17,0.18 -0.17,0.17 -0.35,0.34 -0.53,0.51 -0.35,0.35 0,0 0,0 -0.18,0 -0.18,0.18 -0.35,0.18 -0.17,0.17 -0.34,0.34 -0.52,0.34 0.52,-0.17 0.18,0 0,0 -0.17,0.19 -0.17,0.19 -0.34,0.19l-0.35 0c-0.36,0.17 0.35,0 0,0l-0.7 0c-0.18,0 -0.35,0 0,0l-0.35 0c-0.17,0 -0.52,0 -0.69,-0.19 0.17,0 0.17,0 0,0l-0.17 0c0,-0.17 -0.19,-0.17 -0.19,-0.17 -0.17,0 -0.17,-0.17 -0.35,-0.17 -0.17,-0.18 -0.34,-0.18 0,0 -0.17,-0.18 -0.34,-0.35 -0.52,-0.52 0,-0.17 -0.17,-0.17 -0.17,-0.35 0.17,0.18 0.17,0.18 0,0l0 -0.17c-0.17,-0.19 -0.17,-0.36 -0.34,-0.53 -0.19,-0.35 0,0 0,0 -0.19,0 -0.19,-0.18 -0.19,-0.35 -0.18,-0.17 -0.18,-0.52 -0.18,-0.69 -0.34,-0.88 -1.2,-1.57 -2.43,-1.23z"/>
   <path class="fil1" d="M736.51 597.16c2.79,0 5.05,2.26 5.05,5.05 0,2.8 -2.26,5.06 -5.05,5.06 -2.8,0 -5.06,-2.26 -5.06,-5.06 0,-2.79 2.26,-5.05 5.06,-5.05z"/>
   <path class="fil1" d="M730.93 601.34c-0.88,0.34 -1.39,1.22 -1.22,2.26 0.53,2.45 2.1,4.36 4.36,5.23 3.49,1.22 7.32,-0.52 8.71,-4.01 1.04,-2.6 0.34,-5.57 -1.74,-7.49 -2.09,-1.91 -5.23,-2.27 -7.85,-0.88 -1.03,0.71 -2.08,1.57 -2.6,2.8 -0.71,1.4 -0.88,2.97 -0.71,4.35 0.36,0.88 1.23,1.4 2.28,1.22 0.86,-0.34 1.38,-1.22 1.21,-2.26 0,0.35 0,-0.17 0.36,0l0 -0.34 0 -0.36 0 0.17 0 -0.35c0.17,-0.17 0.17,-0.17 0.17,-0.34 0,0 0,-0.52 0,0 0,-0.18 0.17,-0.52 0.35,-0.69 0,0 0.17,-0.37 0,0l0.17 -0.19c0.17,-0.18 0.34,-0.52 0.52,-0.52 -0.18,0.17 -0.18,0.17 0,0 0,-0.17 0.17,-0.17 0.17,-0.17 0.19,0 0.19,-0.18 0.36,-0.18l0.35 -0.17c-0.18,0 -0.18,0 0,0l0.17 0c0.17,0 0.52,-0.17 0.69,-0.17 0.36,0 -0.52,0 0,0l0.36 0 0.35 0c0.34,0 0,0 0,0 0.34,0 0.52,0.17 0.69,0.17 0.17,0 0.7,0.17 0.17,0 0,0.17 0.17,0.17 0.17,0.17 0.18,0.18 0.36,0.18 0.54,0.35 0.34,0.17 -0.18,-0.17 0,0l0.17 0.17c0.17,0.17 0.35,0.35 0.52,0.54 -0.17,-0.37 0,-0.19 0,0 0,0.17 0.17,0.17 0.17,0.34 0.17,0 0.17,0.17 0.17,0.17 0.18,0.35 -0.17,-0.34 0,0 0,0.18 0.18,0.52 0.18,0.69l0 0.36c0,0 0,-0.36 0,0 0,0.17 0.19,0.51 0,0.69 0,-0.18 0,-0.18 0,0l0 0.17 0 0.17c-0.18,0.18 -0.18,0.18 -0.18,0.35 0,0.17 0,0.34 0,0 -0.17,0.17 -0.17,0.34 -0.34,0.53l-0.17 0.17 -0.18 0.18c-0.17,0.17 -0.34,0.34 -0.52,0.52 -0.36,0.34 0,0 0,0 -0.19,0 -0.19,0.17 -0.36,0.17 -0.17,0.17 -0.34,0.34 -0.51,0.34 0.51,-0.17 0.17,0 0,0 -0.18,0.19 -0.18,0.19 -0.35,0.19l-0.35 0c-0.34,0.17 0.35,0 0,0l-0.7 0c-0.18,0 -0.35,0 0,0l-0.35 0c-0.17,0 -0.52,0 -0.69,-0.19 0.17,0 0.17,0 0,0l-0.17 0c0,-0.17 -0.19,-0.17 -0.19,-0.17 -0.17,0 -0.17,-0.17 -0.35,-0.17 -0.17,-0.17 -0.34,-0.17 0,0l-0.51 -0.52c0,-0.17 -0.18,-0.17 -0.18,-0.35 0.18,0.18 0.18,0.18 0,0l0 -0.17c-0.17,-0.19 -0.17,-0.36 -0.34,-0.53 -0.19,-0.35 0,0 0,0 -0.19,0 -0.19,-0.17 -0.19,-0.35 -0.17,-0.17 -0.17,-0.52 -0.17,-0.69 -0.35,-1.05 -1.21,-1.57 -2.44,-1.22z"/>
  </g>
 </g>
</svg>
